<?xml version="1.0" encoding="utf-8"?>
<!-- Generator: Adobe Illustrator 21.1.0, SVG Export Plug-In . SVG Version: 6.00 Build 0)  -->
<svg version="1.1" id="Layer_1" xmlns="http://www.w3.org/2000/svg" xmlns:xlink="http://www.w3.org/1999/xlink" x="0px" y="0px"
	 viewBox="0 0 87 28.6" style="enable-background:new 0 0 87 28.6;" xml:space="preserve">
<style type="text/css">
	.st0{fill:#0D5B33;}
</style>
<polygon class="st0" points="0,0.4 1.6,0.4 0,23.9 "/>
<polygon class="st0" points="2.9,0.4 4.4,0.4 0.2,28.6 "/>
<polygon class="st0" points="5.5,0.4 7.2,0.4 1.6,23.9 "/>
<polygon class="st0" points="7.6,3.7 8,1.7 22.5,27.3 20.7,27.3 "/>
<polygon class="st0" points="6.5,7 7,5 19.7,27.3 17.9,27.3 "/>
<polygon class="st0" points="5.6,10.4 6.2,8.3 16.8,27.3 15,27.3 "/>
<polygon class="st0" points="16.8,0.4 22.5,0.4 22.5,25.7 16.8,15.2 "/>
<path class="st0" d="M24.7,26.8V0.5h8.6c3.2,0,5.4,0.1,6.3,0.4c1.5,0.4,2.8,1.3,3.8,2.6c1,1.3,1.5,3,1.5,5.1c0,1.6-0.3,3-0.9,4.1
	c-0.6,1.1-1.3,2-2.2,2.6c-0.9,0.6-1.8,1-2.8,1.3c-1.3,0.3-3.1,0.4-5.5,0.4H30v10H24.7z M30,4.9v7.5H33c2.1,0,3.5-0.1,4.2-0.4
	c0.7-0.3,1.3-0.7,1.7-1.3c0.4-0.6,0.6-1.3,0.6-2.1c0-1-0.3-1.8-0.8-2.4c-0.6-0.6-1.3-1-2.1-1.2c-0.6-0.1-1.9-0.2-3.8-0.2H30z"/>
<path class="st0" d="M51.8,26.8V4.9h-7.1V0.5h19.6v4.5h-7.1v21.9H51.8z"/>
<path class="st0" d="M81.8,17.1l5.2,1.6c-0.8,2.9-2.1,5-4,6.4c-1.8,1.4-4.2,2.1-7,2.1c-3.5,0-6.4-1.2-8.6-3.6
	C65.1,21.3,64,18,64,13.9c0-4.4,1.1-7.8,3.4-10.2C69.6,1.2,72.6,0,76.3,0c3.2,0,5.9,1,7.9,2.9c1.2,1.1,2.1,2.7,2.7,4.9L81.6,9
	c-0.3-1.4-1-2.4-2-3.2c-1-0.8-2.2-1.2-3.6-1.2c-2,0-3.5,0.7-4.8,2.1c-1.2,1.4-1.8,3.7-1.8,6.8c0,3.3,0.6,5.7,1.8,7.1
	c1.2,1.4,2.8,2.1,4.7,2.1c1.4,0,2.6-0.5,3.7-1.4C80.6,20.5,81.4,19.1,81.8,17.1z"/>
</svg>
