<?xml version="1.0" encoding="utf-8"?>
<!-- Generator: Adobe Illustrator 21.1.0, SVG Export Plug-In . SVG Version: 6.00 Build 0)  -->
<svg version="1.1" id="Layer_1" xmlns="http://www.w3.org/2000/svg" xmlns:xlink="http://www.w3.org/1999/xlink" x="0px" y="0px"
	 viewBox="0 0 90 90" style="enable-background:new 0 0 90 90;" xml:space="preserve">
<style type="text/css">
	.st0{fill:#0D8D96;}
</style>
<g>
	<g transform="translate(-360.000000, -810.000000)">
		<g transform="translate(360.000000, 809.000000)">
			<path class="st0" d="M37.2,54.3c-2.8,0.5-5.4,1.3-7.6,2.4c-6.1-0.6-10.8,1.1-15.1,3.7c-18.7,11.5-3.4,1.9-4.3,12.2v0.3
				c-0.1,0.6,0.3,1,0.9,1.1h0.4c2.2,0.3,5,7.3,10.8,2.7c4.7-3.6,7.5-9.8,8.6-18.4v-0.1c2.3-1.1,4.7-1.7,7.1-2.2
				C38.1,55.6,37.5,54.9,37.2,54.3z"/>
			<path class="st0" d="M73,41.5l-0.1-0.4c-0.1-0.5-0.6-0.9-1.1-0.8c-1.2,0.2-7.5,1.3-13.2,5.1c-7.3,5-10.5,12.5-9.2,21.8
				c-1.5,3.1-2.8,6-4,9.3c0-6.5-0.5-13-2.4-19.2c-0.6,0.4-1,1.1-1.6,0.9c0.3,0.9,0,0.8,0.2,1.6c0.9,3.6,1.4,7.4,1.7,11.1
				c0.2,3.5,0.2,7.1,0,10.7c-0.1,1.2-0.2,2.3-0.4,3.5C42.8,86,42,87.8,43,88.4c0.4,0.2,1.1,0.1,1.3-0.3c0.3-0.4,0.3-1.1,0.4-1.6
				c0.1-0.6,0.3-1.2,0.4-1.7c0.3-1.1,0.5-2.1,0.8-3.2c0.5-1.9,1.1-3.7,1.8-5.5c0.5-1.3,1-2.6,1.6-3.9c0.3-0.6,0.6-1.2,0.9-1.9
				c0.2-0.3,0.3-0.6,0.5-1c0.1-0.1,0.3-0.9,0.5-0.9c8.7-1.3,14.9-4.5,18.6-9.5C73.1,54.3,74.2,48.4,73,41.5z"/>
		</g>
	</g>
</g>
<g>
	<path class="st0" d="M45,0C20.2,0,0,20.2,0,45s20.2,45,45,45s45-20.2,45-45S69.8,0,45,0z M45.9,84.9l-5.1-0.2
		C20.7,82.6,5,65.6,5,45C5,23,22.9,5.1,44.9,5.1s40,17.9,40,39.9C84.9,66.7,67.5,84.4,45.9,84.9z"/>
</g>
</svg>
