<?xml version="1.0" encoding="utf-8"?>
<!-- Generator: Adobe Illustrator 21.1.0, SVG Export Plug-In . SVG Version: 6.00 Build 0)  -->
<svg version="1.1" id="Layer_1" xmlns="http://www.w3.org/2000/svg" xmlns:xlink="http://www.w3.org/1999/xlink" x="0px" y="0px"
	 viewBox="0 0 77.4 73.3" style="enable-background:new 0 0 77.4 73.3;" xml:space="preserve">
<style type="text/css">
	.st0{fill:#DB2C20;}
	.st1{fill:#030304;}
	.st2{fill:#050606;}
	.st3{fill:#030405;}
	.st4{fill:#040505;}
	.st5{fill:#070708;}
	.st6{fill:#CBCACA;}
	.st7{fill:#020203;}
	.st8{fill:#DC3A2C;}
	.st9{fill:#EB6026;}
	.st10{fill:#FAE5E4;}
	.st11{fill:#F8AA22;}
	.st12{fill:#FDF8F7;}
	.st13{fill:#FCFCFC;}
	.st14{fill:#FFFFFE;}
</style>
<g>
	<path class="st0" d="M51.1,20.3c0,0.2-0.1,0.4-0.3,0.4c-0.1,0-0.2,0.1-0.3,0.1c-0.2-0.1-0.3-0.3-0.5-0.1c-0.2,0.3,0.2,0.2,0.2,0.4
		c0,0.1,0,0.1,0,0.2c-0.1,0.1,0,0.5-0.4,0.4c-0.1,0-0.1,0-0.2,0c-0.1,0-0.2,0-0.2-0.1c-0.1-0.3-0.2-0.1-0.3,0
		c-0.2,0.2,0,0.2,0.1,0.3c0.1,0.1,0.1,0.2,0.1,0.3c-0.2,0.6-0.4,0.6-0.8,0.2c-0.1-0.1-0.1,0-0.2,0c-0.1,0.1-0.3,0.2-0.4,0.2
		c-0.3-0.2-0.5-0.2-0.8,0c-0.1,0-0.2,0-0.2,0c0,0-0.1,0-0.1,0c-0.1-0.3-0.3-0.2-0.4-0.1c-0.1,0-0.2,0-0.4,0
		c-0.3-0.3-0.4,0.1-0.6,0.1c-0.1,0-0.1,0-0.2,0c-0.3-0.2-0.5-0.1-0.8-0.1c-0.3,0-0.6-0.1-0.9,0c-0.1,0-0.3,0.1-0.4-0.2
		c0-0.2-0.2-0.4,0-0.6c0.1-0.1,0.2-0.1,0-0.2c-0.1-0.1-0.1-0.2-0.3-0.1c-0.3,0.2-0.6,0.2-0.7-0.2c0-0.1,0-0.1,0-0.2
		c0-0.2,0.2-0.3,0-0.5c-0.2,0.1-0.3,0.2-0.5,0.2c-0.5-0.2-0.7-0.4-0.4-0.9c0.1-0.2-0.1-0.2-0.1-0.4c0-0.1,0-0.3,0-0.4
		c0.2-0.2,0.1-0.5,0-0.7c-0.1,0.1-0.1,0.2-0.2,0.3c-0.2,0.1-0.3,0.1-0.5-0.1c-0.1-0.1-0.1-0.3,0-0.4c0.1-0.2,0.3-0.3,0.5-0.2
		c0.2,0.1,0.3,0.3,0.5,0.1c0.2-0.2-0.2-0.2-0.2-0.4c0-0.1,0-0.3,0-0.4c0.1-0.2,0.2-0.3,0-0.5c-0.3-0.4,0.2-0.6,0.3-0.8
		c0,0,0.1,0,0.1,0c0.1,0.2,0.3,0.3,0.5,0.2c0.2-0.1-0.1-0.3-0.1-0.4c0,0,0-0.1,0-0.1c0,0,0-0.1,0-0.1c0.1-0.2,0.2-0.4,0.4-0.4
		c0.1,0,0.1,0,0.2,0c0.2,0,0.3,0.3,0.5,0.2c0.2-0.1-0.1-0.2-0.1-0.3c0-0.1,0-0.3,0-0.4c0.1-0.1,0.1-0.2,0.3-0.3c0.2,0,0.4,0,0.5,0.2
		c0.1,0.1,0.2,0.1,0.3,0c0.1-0.1,0.1-0.2,0-0.3C44,14.2,44,14,44,13.8c0.1-0.3,0.3-0.4,0.5-0.3c0.3,0.2,0.5,0.1,0.7-0.1
		c0,0,0.1,0,0.1,0c0.1,0.1,0.2,0.1,0.3,0.2c0.1,0.1,0.2,0.1,0.3,0c0.1-0.1,0-0.1,0-0.2c0-0.1-0.1-0.2-0.1-0.2c0-0.1,0-0.1,0-0.2
		c0,0,0-0.1,0-0.1c0-0.1,0.2-0.1,0.1-0.3c-0.1-0.2-0.2,0-0.3,0c-0.3,0.2-0.6,0.1-0.7-0.3c0-0.1,0-0.1,0-0.2c0-0.1,0-0.1,0-0.2
		c0-0.1,0.2-0.2,0-0.3c-0.1-0.1-0.2,0.1-0.3,0.1c0,0-0.1,0-0.1,0c-0.1,0-0.2,0-0.3,0c-0.2-0.1-0.3-0.1-0.3-0.3c0-0.1,0-0.2,0-0.3
		c0-0.1,0-0.1,0.1-0.2c0-0.1,0.2-0.1,0.1-0.3c-0.1-0.1-0.2,0-0.3,0.1c-0.1,0-0.1,0.1-0.2,0.1c-0.1,0-0.1,0-0.2,0c0,0-0.1,0-0.1,0
		c-0.3-0.2-0.5-0.5-0.2-0.8c0.2-0.2-0.2-0.3-0.1-0.4c0-0.1,0-0.1,0-0.2c0.1-0.2,0.1-0.4,0-0.6c0-0.1,0-0.2,0-0.3
		c0-0.1,0.1-0.3,0.1-0.3c-0.2-0.4,0-0.7,0.3-0.9c0,0,0.1,0,0.1,0c0.1,0.1,0.2,0.3,0.4,0.2c0.2-0.1,0.1-0.3,0-0.4c0-0.2,0-0.3,0-0.5
		c0-0.1,0.1-0.1,0.2-0.2c0.1,0,0.3,0,0.4,0c0.2,0,0.2,0.3,0.4,0.1c0.1-0.1-0.1-0.2-0.1-0.3c0-0.2,0-0.3,0-0.5
		c0.2-0.3,0.5-0.4,0.7-0.2c0.2,0.2,0.4,0.1,0.6,0c0.1,0,0.1,0,0.2,0c0.3,0.4,0.5-0.1,0.7-0.1c0.1,0.1,0.1,0.1,0.2,0
		c0.2,0,0.4,0.4,0.7,0.1c0.1,0,0.1,0,0.2,0c0.2,0.1,0.3,0.2,0.5,0c0.3-0.2,0.6-0.1,0.7,0.2c0,0.1,0,0.2,0,0.3c0,0.1-0.3,0.2-0.1,0.4
		c0.2,0.2,0.3-0.1,0.4-0.1c0.1,0,0.2-0.1,0.2,0c0.1,0.1,0.2,0.2,0.4,0.3c0.1,0.2-0.1,0.3-0.1,0.5c0,0.1,0,0.2,0,0.2
		c0.1,0.1,0.2,0,0.2-0.1c0.1-0.1,0.2,0,0.2-0.1c0.1,0,0.1,0,0.2,0c0,0.1,0,0.1,0.1,0.1c0.4,0.3,0.4,0.5,0,1c0.3,0.2,0.4,0.4,0.2,0.7
		c-0.1,0.2,0,0.3,0.1,0.5c0,0.1,0,0.2,0,0.3c-0.1,0.2-0.2,0.3,0,0.5c0.2,0.3,0.1,0.6-0.2,0.7c-0.1,0-0.2,0-0.3,0
		c-0.2,0-0.3-0.2-0.4-0.3c-0.2,0.2,0.1,0.4,0.1,0.6c0,0.1,0,0.1,0,0.2c0,0.2-0.2,0.3-0.4,0.4c-0.1,0-0.1,0-0.2,0
		c-0.1-0.1-0.2-0.1-0.3-0.2c-0.1-0.1-0.2,0-0.3,0.1c-0.1,0-0.1,0.1,0,0.2c0.3,0.1,0.1,0.4,0.1,0.6c-0.1,0.3-0.5,0.3-0.6,0.2
		c-0.2-0.3-0.4,0-0.6,0c-0.1,0-0.1,0-0.2,0c-0.2,0-0.3-0.2-0.4-0.3c0,0.1-0.1,0.2-0.1,0.2c0.2,0.3,0.2,0.6,0,0.9
		c-0.1,0.1,0.1,0.2,0.2,0.2c0.1,0,0.2-0.1,0.3-0.1c0.1,0,0.2,0,0.2,0c0.2,0,0.3,0.1,0.3,0.3c0,0.1,0,0.1,0,0.2
		c0,0.1-0.1,0.2-0.1,0.3c-0.1,0.1-0.2,0.1,0,0.2c0.1,0.1,0.2,0.2,0.3,0.1c0.1-0.1,0.1-0.1,0.2-0.1c0.1,0,0.1,0,0.2,0
		c0.1,0.1,0.3,0.2,0.4,0.3c0,0,0,0.1,0,0.1c0,0.1-0.1,0.2-0.1,0.2c0,0.1-0.1,0.2,0,0.3c0.1,0.1,0.2-0.1,0.3-0.1c0,0,0.1,0,0.1-0.1
		c0.1,0,0.2,0,0.2,0c0.2,0.1,0.3,0.1,0.4,0.4c0,0.1,0,0.2,0,0.3c-0.1,0.2-0.4,0.4,0,0.7c0.1,0.1,0,0.4-0.2,0.5
		c-0.2,0.1-0.5,0.1-0.6,0c-0.1-0.2-0.3-0.4,0-0.6c0.1-0.1,0.2-0.1,0.1-0.3c-0.1-0.1-0.1-0.2-0.3,0c-0.2,0.2-0.4,0.2-0.6,0
		c-0.2-0.2-0.2-0.4-0.1-0.6c0.1-0.1,0.1-0.3,0-0.4c-0.1-0.1-0.2,0.1-0.3,0.1c-0.2,0.1-0.4,0.1-0.5,0c-0.2-0.2-0.2-0.4-0.1-0.6
		c0-0.1,0.3-0.2,0.1-0.3c-0.2-0.1-0.2,0.2-0.4,0.1c-0.1,0-0.2,0-0.3,0c-0.2-0.1-0.4-0.2-0.6,0c-0.1,0.1-0.3,0.1-0.4,0
		c-0.2-0.2-0.4-0.1-0.5,0c-0.1,0-0.2,0-0.3,0c-0.1,0-0.1,0-0.2-0.1c-0.1-0.1-0.2-0.2-0.3,0c-0.1,0.1,0.1,0.2,0.1,0.2
		c0,0.1,0.1,0.1,0.1,0.2c0.1-0.1,0.1-0.2,0.3-0.2c0.1,0,0.2,0,0.3,0c0.2,0.1,0.3,0.3,0.1,0.5c-0.1,0.2-0.3,0.2-0.5,0.1
		c-0.1-0.1-0.2-0.1-0.3,0c-0.1,0.1-0.2,0.2-0.4,0.2l0,0c-0.1,0-0.2,0-0.2-0.1c-0.1-0.1-0.2-0.1-0.3,0c-0.1,0.1,0,0.2,0,0.2
		c0.2,0.2,0.1,0.5-0.1,0.6c-0.2,0.2-0.4,0.2-0.6,0c-0.1-0.1-0.2-0.1-0.3,0c-0.1,0.1,0,0.2,0.1,0.2c0,0,0,0,0,0
		c0.1,0.1,0.1,0.3,0.1,0.4c-0.5,0.3,0.4,0.9-0.3,1.2c-0.1,0-0.2,0.1-0.3,0.1c-0.2-0.1-0.3-0.3-0.5-0.1c-0.2,0.2,0.2,0.2,0.2,0.4
		c0,0,0,0.1,0,0.1c0,0.2-0.2,0.3-0.1,0.5c0.1,0.2,0.2-0.1,0.3,0c0.1,0,0.2,0,0.3,0c0.3,0.2,0.4,0.4,0.2,0.7
		c-0.3,0.3-0.1,0.4,0.1,0.5c-0.1,0.2-0.2,0.5-0.1,0.8c0.1-0.1,0.3-0.2,0.4-0.2c0.1,0,0.2,0,0.3,0c0.2,0.1,0.3,0.2,0.6,0.1
		c0.3-0.2,0.5,0,0.6,0.3c0,0.1,0,0.2,0,0.3c-0.2,0.2-0.3,0.3,0,0.5c0.1,0.1,0.2-0.1,0.4-0.2c0.1,0,0.1,0,0.2,0
		c0.2,0.2,0.4,0.1,0.6,0c0.1,0,0.2,0,0.4,0c0.3,0.2,0.3,0.2,0.6,0c-0.1-0.1-0.3-0.2-0.3-0.4c0-0.2,0.1-0.3,0.2-0.4
		c0.2-0.1,0.3-0.1,0.4,0c0.1,0.2,0.2,0.2,0.3,0c0.1-0.1,0.3-0.3,0.5-0.1c0.2,0.2,0.4,0.1,0.6-0.1c0.1,0,0.2,0,0.3,0
		c0.2,0,0.3,0.4,0.5,0.2c0.2-0.2-0.2-0.2-0.2-0.4c0-0.1,0-0.2,0-0.4c0-0.2,0.3-0.2,0.4-0.4c0,0,0.1,0,0.1,0c0.1,0.1,0.2,0.1,0.3,0.2
		c0.1,0.1,0.1,0.2,0.2,0.1c0.1-0.1,0-0.2,0-0.2c-0.1-0.1-0.1-0.2-0.2-0.2c0-0.1,0-0.1,0-0.2c0.3-0.3,0.5-0.7,1-0.3
		c0.1,0.1,0.2,0,0.2-0.1c0.2-0.1,0-0.2,0-0.2c-0.1-0.3,0-0.4,0.2-0.6c0.2-0.1,0.3,0.1,0.4,0.2c0.2,0.1,0,0.3,0,0.4
		c0,0.1-0.1,0.2,0.1,0.3c0.2,0.2,0.2,0,0.3-0.1c0.2-0.1,0.1-0.1,0-0.2c-0.2-0.1-0.2-0.4,0-0.5c0.2-0.2,0.2-0.3,0-0.4
		c-0.3-0.2-0.2-0.3,0-0.5c0.2-0.1,0.3-0.4,0.5-0.1c0.1,0.1,0.2,0.3,0.4,0c0.2-0.2,0.5-0.2,0.7,0.1c0.1,0.2,0.1,0.4-0.1,0.5
		c-0.1,0.1-0.3,0.2-0.1,0.3c0.1,0,0.1,0.2,0.2,0.1c0.2-0.1,0.1-0.2,0-0.4c-0.1-0.2-0.2-0.3,0-0.5c0-0.2,0.1-0.2,0.3-0.2
		c0.2,0,0.4,0,0.6,0c0,0.1,0,0.1,0.1,0.1c0.1,0,0-0.1,0-0.2c-0.1-0.2-0.2-0.5,0-0.7c0.2-0.2,0.4-0.2,0.7-0.1c0.2,0.1,0.3-0.2,0.5,0
		c0.1,0.1,0.2,0.1,0.4,0.1c0.1,0.1,0.2,0.2,0.3,0.1c0.1-0.1,0-0.2,0-0.3c0-0.1-0.1-0.3-0.1-0.4c0.2-0.3,0.4-0.5,0.7-0.2
		c0.1,0.1,0.2,0.1,0.3,0c0.1-0.1,0-0.2-0.1-0.3c-0.1-0.1-0.2-0.1-0.2-0.3c0,0,0,0,0-0.1c0-0.1,0.2-0.2,0.1-0.4
		c-0.2-0.3-0.2-0.7,0-1.1c-0.3,0.3-0.5,0.1-0.7-0.1c-0.1-0.1-0.2-0.2,0-0.3c0.2-0.1-0.1-0.2-0.1-0.3c0-0.2-0.1-0.1-0.2-0.1
		c-0.4,0.1-0.6,0-0.6-0.5c0-0.4-0.2-0.7-0.1-1.1c0-0.1-0.1-0.1-0.2-0.1c-0.4,0.1-0.6-0.1-0.7-0.5c0-0.1-0.1-0.3-0.2-0.3
		c-0.3,0-0.5-0.3-0.7-0.5l0,0c0.1-0.2,0.3-0.3,0-0.5c-0.2-0.1-0.1-0.3-0.1-0.5c0-0.2,0-0.3-0.1-0.4c-0.4-0.2-0.3-0.5,0-0.7
		c0.1,0,0.1-0.1,0.1-0.2c0,0,0-0.1,0-0.1c0,0-0.1,0-0.1,0c-0.1,0-0.2,0-0.3,0c-0.3,0-0.4-0.2-0.4-0.5c0.1-0.3,0.3-0.4,0.6-0.3
		c0.1,0,0.2,0.1,0.3-0.1c0.1-0.1,0-0.2,0-0.3c0-0.2,0-0.4,0.2-0.5c0.1-0.1,0-0.2-0.1-0.3c-0.1-0.1-0.2-0.1-0.2,0
		c-0.1,0.2-0.3,0.1-0.4,0.2l0,0c0,0-0.1,0-0.1,0C53,5.4,52.8,5.1,53,4.9c0.1-0.2,0.4-0.4,0.6-0.1c0.1,0.1,0.2,0,0.3-0.1
		c0.1-0.1,0.1-0.1,0-0.3c-0.1-0.2-0.3-0.5,0-0.7c0.1-0.1-0.1-0.2-0.1-0.2c-0.1-0.2-0.1-0.4,0.1-0.6c0.2-0.2,0.4-0.2,0.6,0
		c0.1,0,0.1,0.1,0.2,0.1c0.1-0.1,0-0.2,0-0.3c-0.2-0.4,0-0.8,0.5-0.8c0.2,0,0.4-0.1,0.3-0.3c-0.1-0.2,0-0.3,0.1-0.3
		c1.3-1,2.7-1.4,4.3-1.1c0.4,0.1,0.8,0.2,0.8,0.7C60.8,1,60.9,1,61,1.1c0.3,0.1,0.6,0.3,0.9,0.4c0.4,0.2,0.6,0.5,0.7,0.9
		c0,0.3,0.2,0.4,0.4,0.5c0.5,0.3,0.9,0.6,1.3,1c0.4,0.4,0.5,0.9,0.2,1.4c-0.3,0.5-0.4,0.9-0.4,1.5c0,0.5-0.2,0.8-0.7,1
		C63,8.1,62.8,8,62.5,7.6c0-0.1-0.1-0.2-0.2-0.2c-0.2-0.2-0.5-0.4-0.7-0.3c-0.2,0.1-0.1,0.4-0.1,0.6c0.1,1.4,1.7,2.3,3,1.6
		c0.6-0.3,1-0.8,1.2-1.4c0.3-1,0.5-2,0.6-3.1c0.1-1.4,0.9-2.1,2.2-2.1c0.1,0,0.3,0,0.5,0c-0.1,0.2-0.2,0.4-0.2,0.6
		c0.4,0,0.8-0.1,1.1,0.2c0.3,0.3,0.4,0.6,0.4,1c-0.2,0-0.4-0.2-0.6-0.1c0.6,0.5,0.6,1.1,0.2,1.7c-0.1,0-0.1-0.1-0.1-0.2
		c-0.3-0.5-0.8-0.5-1.1,0c-0.4,0.7-0.5,1.5-0.4,2.2c0.2,1.2-0.1,2.3-0.6,3.3c-0.1,0.3-0.3,0.5-0.5,0.7c-0.1-0.2-0.1-0.4-0.3-0.6
		c-0.5,0.6-1.1,1.1-1.8,1.6c0.6,0.3,1.1,0.2,1.7,0.1c1-0.3,1.9-0.8,2.7-1.3c1.3-0.8,2.9-0.1,3.2,1.5c-0.2,0-0.4-0.2-0.6-0.1
		c0.3,1.4,0.2,1.7-0.7,2.2c0-0.2,0.1-0.4,0-0.6c-0.3,0.3-0.5,0.7-0.9,0.9c0,0-0.1,0-0.1-0.1c0-0.9-0.4-1.2-1.3-1
		c-0.6,0.2-1.1,0.4-1.5,0.8c0.2,0.2,0.5,0.2,0.7,0.4c-0.5,0.4-1,0.5-1.6,0.6c-0.2,0-0.5,0-0.8,0.1c-0.1,0-0.2,0-0.3,0.1
		c-0.1,0.1,0.1,0.2,0.1,0.3c0,0,0.1,0.1,0.2,0.1c-0.7,0.3-1.3,0.3-1.9,0.1c-0.2,0-0.3-0.1-0.5-0.2c-0.6-0.2-0.6-0.2-0.7,0.4
		c-0.1,0.3,0,0.4,0.3,0.5c0.9,0.3,1.8,0.8,2.5,1.5c0.4,0.4,0.7,0.9,0.5,1.5c-0.1,0.2-0.2,0.4-0.3,0.5c-0.4,0.6-0.8,1.2-1.1,1.8
		c-0.1,0.3-0.2,0.5-0.2,0.8c0,0.8,0.2,1,1,1c0.4,0,0.8,0,1.2,0.1c0.4,0.1,0.7,0.2,0.8,0.6c0.1,0.3,0.3,0.2,0.5,0.2
		c0.6,0.1,0.9,0.5,0.9,1c0,0.3-0.1,0.4-0.4,0.4c-1.3,0-2.5,0-3.8,0c-0.5,0-1.1,0.1-1.4-0.1c-0.4-0.2-0.5-0.8-0.7-1.3
		c0-0.1-0.1-0.2-0.1-0.2c-0.3-0.5-0.5-1-0.1-1.5c0.2-0.2,0.2-0.6,0.2-0.9c0-0.8-0.3-1.3-1.1-1.6c-0.9-0.3-1.9-0.2-2.8,0.1
		c-0.6,0.2-1,0.4-1.2,1.1c-0.1,0.4-0.5,0.5-0.9,0.4c-0.2-0.1-0.3,0-0.2,0.2c0.1,0.2,0,0.4-0.2,0.5c-0.2,0.1-0.4,0-0.6-0.2
		c-0.2,0.4-0.5,0.5-0.9,0.1c-0.2-0.1-0.2,0-0.3,0.1c-0.2,0-0.3,0-0.5,0c-0.3-0.3-0.3-0.5,0-0.8c0.2,0,0.4-0.1,0.6,0.1
		c0.1,0.1,0.2,0.1,0.3,0c0.1-0.2,0-0.2-0.1-0.3c0-0.2,0-0.4,0-0.5c0.1-0.1,0.2-0.1,0.3-0.2c0-0.1-0.3-0.1-0.3-0.3c0-0.1,0-0.2,0-0.3
		c0-0.1,0.2-0.2,0-0.4c-0.2-0.1-0.2-0.1-0.3,0c-0.1,0.1-0.3,0.1-0.4,0c-0.2-0.2-0.3,0-0.5,0c-0.1,0-0.3,0-0.4,0
		c-0.1-0.1-0.1-0.1-0.2-0.2c0-0.2,0-0.4,0.1-0.6c0.1-0.1,0-0.2-0.1-0.3c-0.1-0.1-0.1,0-0.2,0c-0.1,0-0.1,0.1-0.2,0.1
		c-0.1,0-0.2,0-0.3,0c-0.2,0-0.3-0.1-0.3-0.3c0-0.1,0-0.1,0-0.2c0-0.2,0.4-0.4,0-0.6c0,0.2-0.3,0.2-0.5,0.4c0,0,0,0-0.1,0
		c0-0.1-0.1-0.1-0.2-0.2c-0.1,0-0.2-0.2-0.3-0.1c-0.1,0.1,0,0.2,0,0.3c0,0.1,0,0.1,0.1,0.2C51.1,20.2,51.1,20.2,51.1,20.3z
		 M44.9,7.7c0,0.1,0,0.2,0,0.2c-0.1,0.2-0.1,0.4,0,0.6c0.1,0.3-0.2,0.7,0,1.1c0.1,0.2-0.1,0.5,0,0.7c0.1,0.1,0,0.3-0.1,0.4
		c0,0.1-0.2,0.1,0,0.2c0.1,0.1,0.1,0.1,0.2,0c0.2-0.2,0.5-0.2,0.7,0c0.2,0.2,0.2,0.5,0,0.7c-0.1,0.1,0,0.2,0,0.2
		c0.1,0.1,0.1,0,0.2,0c0.2-0.2,0.5-0.2,0.7,0c0.1,0.1,0.2,0.1,0.3,0c0.2-0.3,0.4,0.1,0.6,0.1c0.2,0,0.4-0.3,0.7-0.2
		c0.1,0,0.1,0.1,0.2,0.1c0.1,0.1,0.2,0.2,0.3,0.1c0.1-0.1,0-0.2-0.1-0.2c-0.2-0.2-0.2-0.4,0-0.7c0.2-0.2,0.4-0.2,0.7-0.1
		c0.1,0,0.1,0.2,0.2,0.1c0.1-0.1,0.1-0.2,0-0.2c-0.2-0.3-0.1-0.5,0.2-0.7c-0.1-0.1-0.3-0.2-0.3-0.4c0.1-0.4,0-0.9,0.1-1.2
		c0.1-0.3,0-0.5-0.2-0.6c0,0,0-0.1,0-0.1c0.1,0,0.1-0.1,0.2-0.2c0.1-0.1,0.1-0.3,0-0.4c-0.1-0.1-0.1,0.1-0.2,0.1
		c-0.3,0.2-0.5,0.1-0.7-0.3c0-0.1,0-0.1,0-0.2c0-0.1,0.1-0.2,0.1-0.3c0.1-0.1,0-0.2-0.1-0.2c0,0-0.1-0.1-0.1,0
		c-0.2,0.4-0.5,0.2-0.7,0.2c0-0.1,0-0.2-0.1-0.1c-0.1,0.1-0.3,0.1-0.4,0.2c0,0,0,0-0.1,0c-0.2-0.1-0.4-0.4-0.6-0.1
		c-0.2,0-0.4,0.1-0.5-0.1c-0.1-0.1-0.1-0.1-0.2,0c-0.1,0.1-0.1,0.1,0,0.2c0.1,0.1,0.2,0.3,0.1,0.4c-0.1,0.2-0.2,0.3-0.4,0.4
		c-0.2,0-0.3,0-0.4-0.1c-0.1-0.1-0.1-0.1-0.2,0c-0.1,0.1,0,0.2,0,0.2C44.9,7.5,44.9,7.6,44.9,7.7z M53.8,19.2
		c0.1-0.1,0.2-0.2,0.3-0.3c-0.2-0.3-0.4-0.3-0.7,0c-0.1,0-0.1,0-0.2,0c-0.1-0.1-0.2-0.2-0.4-0.4c0,0.2-0.4,0.3-0.2,0.4
		c0.4,0.3,0.2,0.5,0.1,0.8c-0.1,0.1-0.1,0.1,0,0.2c0.1,0.1,0.1,0.1,0.2,0c0.3-0.3,0.5-0.3,0.8,0c0.1,0.1,0.1,0.1,0.2,0
		c0.1-0.1,0.1-0.1,0-0.2c-0.1-0.1-0.2-0.3-0.2-0.4C53.8,19.3,53.8,19.2,53.8,19.2z M54.7,9.4c0.1,0,0.3-0.1,0.3-0.3
		c0-0.2-0.1-0.3-0.3-0.4c-0.2,0-0.4,0.1-0.4,0.3C54.3,9.3,54.5,9.4,54.7,9.4z M56.4,8.8c-0.2-0.1-0.3,0.1-0.3,0.3
		c0,0.2,0.1,0.3,0.3,0.3c0.2,0,0.3-0.1,0.3-0.3C56.8,8.9,56.7,8.7,56.4,8.8z M55.6,2c-0.2,0-0.3,0.1-0.3,0.3c0,0.2,0.1,0.3,0.3,0.3
		c0.2,0,0.3-0.1,0.3-0.3C55.9,2.2,55.8,2.1,55.6,2z M55,4.2c-0.1-0.1-0.2-0.3-0.4-0.2c-0.1,0-0.3,0.1-0.3,0.3c0,0.2,0.1,0.3,0.3,0.3
		C54.9,4.5,54.9,4.3,55,4.2z M55.9,8.2c0-0.2-0.1-0.3-0.3-0.3c-0.2,0-0.3,0.1-0.3,0.3c0,0.2,0.1,0.3,0.3,0.3
		C55.8,8.5,55.9,8.4,55.9,8.2z M55.9,10c0-0.2-0.1-0.3-0.3-0.3c-0.2,0-0.3,0.1-0.3,0.3c0,0.2,0.1,0.3,0.3,0.3
		C55.8,10.3,55.8,10.2,55.9,10z M55,7.3c-0.1-0.1-0.2-0.4-0.4-0.3c-0.2,0-0.3,0.2-0.3,0.3c0,0.1,0.2,0.3,0.3,0.3
		C54.8,7.6,54.9,7.4,55,7.3z M55.6,23.6c0.2,0,0.3-0.1,0.3-0.3c0-0.2-0.1-0.3-0.3-0.3c-0.1,0-0.3,0.1-0.3,0.3
		C55.3,23.5,55.4,23.7,55.6,23.6z M55.6,21.8c0.2,0,0.3-0.1,0.3-0.3c0-0.1-0.1-0.3-0.3-0.3c-0.2,0-0.3,0.1-0.3,0.3
		C55.3,21.7,55.4,21.8,55.6,21.8z M55,5.1c-0.1-0.1-0.2-0.3-0.3-0.3c-0.2,0-0.3,0.2-0.3,0.3c0,0.1,0.2,0.3,0.3,0.3
		C54.9,5.3,54.9,5.2,55,5.1z M52.9,17.7c-0.4,0.2-0.3,0.4,0,0.6C53.2,18.2,53.3,17.9,52.9,17.7z M55.9,3.3c0-0.2-0.2-0.3-0.3-0.3
		c-0.1,0-0.3,0.1-0.3,0.3c0,0.2,0.1,0.3,0.3,0.3C55.8,3.6,55.8,3.4,55.9,3.3z M54.9,18c0-0.2-0.1-0.3-0.3-0.3
		c-0.2,0-0.3,0.1-0.2,0.3c0,0.2,0.1,0.2,0.3,0.2C54.9,18.2,54.9,18.1,54.9,18z M47.5,21.2c0,0.2-0.4,0.2-0.2,0.4
		c0,0.1,0.1,0.3,0.3,0.1C48,21.5,47.5,21.4,47.5,21.2z M54.7,20.9c0.1-0.1,0.2-0.1,0.2-0.2c0-0.1-0.1-0.3-0.2-0.3
		c-0.1,0-0.2,0.1-0.3,0.2C54.5,20.8,54.6,20.8,54.7,20.9z M58.3,13.7c0.1,0,0.2-0.1,0.3-0.2c0-0.1-0.1-0.3-0.2-0.3
		c-0.1,0-0.2,0.1-0.2,0.3C58,13.6,58.2,13.7,58.3,13.7z M56.5,7.5c0.1,0,0.2-0.1,0.2-0.2c0-0.2-0.1-0.2-0.2-0.2
		c-0.1,0-0.1,0.1-0.1,0.2C56.3,7.4,56.4,7.5,56.5,7.5z M56.7,2.4c0-0.1-0.1-0.2-0.2-0.2c-0.2,0-0.3,0.1-0.3,0.2
		c0,0.1,0.1,0.2,0.3,0.2C56.7,2.6,56.7,2.5,56.7,2.4z M56.5,18.2c0.1,0,0.2-0.1,0.2-0.2c0-0.1-0.1-0.2-0.2-0.2
		c-0.2,0-0.3,0.1-0.3,0.2C56.2,18.1,56.3,18.2,56.5,18.2z M57.6,21.6c0-0.1,0-0.2-0.2-0.3c-0.1,0-0.2,0-0.3,0.2c0,0.1,0,0.2,0.2,0.3
		C57.4,21.8,57.6,21.8,57.6,21.6z M54.7,18.7c-0.1,0.1-0.2,0.1-0.2,0.2c0,0.1,0,0.2,0.2,0.2c0.1,0,0.2-0.1,0.2-0.2
		C54.9,18.8,54.8,18.7,54.7,18.7z M55.6,16.9c-0.1,0-0.2,0.1-0.2,0.2c0,0.1,0.1,0.2,0.2,0.2c0.1,0,0.2-0.1,0.2-0.2
		C55.8,17,55.7,16.9,55.6,16.9z M56.7,11.7c0-0.1-0.1-0.2-0.2-0.2c-0.1,0-0.2,0.1-0.2,0.2c0,0.1,0.1,0.2,0.2,0.2
		C56.6,11.9,56.6,11.8,56.7,11.7z M54.2,20.7c-0.1-0.1-0.2-0.2-0.3-0.2c-0.1,0-0.2,0.1-0.2,0.3c0,0.1,0.1,0.2,0.2,0.2
		C54,20.9,54.1,20.7,54.2,20.7z M50.6,8.2c-0.1-0.1-0.2-0.2-0.3-0.2c-0.1,0-0.2,0.1-0.2,0.1c0,0.1,0.1,0.2,0.2,0.2
		C50.4,8.4,50.4,8.3,50.6,8.2z M56.5,20.5c0.1-0.1,0.2-0.2,0.2-0.2c0-0.1-0.1-0.2-0.2-0.2c-0.1,0-0.2,0.1-0.2,0.2
		C56.3,20.3,56.4,20.4,56.5,20.5z M56.2,17.1c0.1,0.1,0.1,0.2,0.3,0.2c0.1,0,0.2-0.1,0.2-0.2c0-0.1-0.1-0.2-0.2-0.2
		C56.4,16.9,56.3,17,56.2,17.1z M56.4,22.2c-0.1,0.1-0.2,0.1-0.2,0.3c0,0.1,0.1,0.3,0.3,0.2c0.1,0,0.2-0.1,0.2-0.3
		C56.7,22.3,56.6,22.2,56.4,22.2z M58.3,3.6c-0.1,0-0.2,0.1-0.2,0.2c0,0.1,0.1,0.2,0.2,0.2c0.1,0,0.2-0.1,0.2-0.2
		C58.5,3.6,58.4,3.5,58.3,3.6z M55.6,6.6c-0.1,0-0.2,0.1-0.2,0.2c0,0.1,0.1,0.2,0.2,0.2c0.1,0,0.2-0.1,0.2-0.2
		C55.8,6.7,55.7,6.7,55.6,6.6z M56.9,4c-0.1,0-0.2,0.1-0.2,0.2c0,0.1,0.1,0.2,0.2,0.2c0.1,0,0.2-0.1,0.2-0.2C57.1,4.1,57,4,56.9,4z
		 M57.4,12.5c-0.1,0-0.2,0-0.2,0.2c0,0.1,0,0.2,0.2,0.2c0.1,0,0.2,0,0.2-0.2C57.6,12.6,57.5,12.5,57.4,12.5z M56.5,11
		c0.1,0,0.2,0,0.2-0.2c0-0.1,0-0.2-0.2-0.2c-0.1,0-0.2,0-0.2,0.2C56.3,10.9,56.3,11,56.5,11z M58,9.5c0-0.2-0.1-0.2-0.2-0.2
		c-0.1,0-0.2,0.1-0.2,0.2c0,0.1,0.1,0.2,0.2,0.2C57.9,9.7,58,9.6,58,9.5z M55.8,19.7c0-0.1-0.1-0.2-0.2-0.2c-0.1,0-0.2,0.1-0.2,0.2
		c0,0.1,0.1,0.2,0.2,0.2C55.7,19.9,55.8,19.8,55.8,19.7z M55.6,20.8c0.1,0,0.2-0.1,0.2-0.2c0-0.1-0.1-0.2-0.2-0.2
		c-0.1,0-0.2,0.1-0.2,0.2C55.4,20.8,55.5,20.8,55.6,20.8z M44,9.3c0.1,0,0.2-0.1,0.2-0.2C44.3,9,44.1,9,44,8.9
		c-0.1,0-0.2,0.1-0.2,0.1C43.8,9.2,43.9,9.3,44,9.3z"/>
	<path class="st1" d="M27.8,35.8c0,1.1,0,2.3,0,3.4c0,0.2,0,0.3-0.2,0.4c-2.8,1.3-5.6,1.8-8.6,0.9c-2.9-0.9-4.6-3-5-6.1
		c-0.2-1.7,0-3.4,0.8-5c1-2.1,2.7-3.3,5-3.8c2-0.4,4-0.2,6,0.5c0.6,0.2,1,0.6,1.5,0.9c0.2,0.2,0.3,0.3,0,0.5c-0.5,0.5-1,1-1.4,1.5
		c-0.2,0.2-0.3,0.2-0.6,0c-1.6-1.2-3.5-1.6-5.4-0.9C18,29,17,30.5,16.7,32.4c-0.3,2.1,0.3,4,2.1,5.3c1.2,0.9,2.7,1,4.1,0.8
		c0.6-0.1,1.2-0.3,1.8-0.5c0.2-0.1,0.3-0.2,0.3-0.5c0-0.9,0-1.8,0-2.8c0-0.3-0.1-0.4-0.4-0.4c-0.8,0-1.5,0-2.3,0
		c-0.2,0-0.3-0.1-0.3-0.3c0-0.6,0-1.2,0-1.7c0-0.2,0-0.3,0.3-0.3c1.7,0,3.4,0,5,0c0.3,0,0.3,0.1,0.3,0.3
		C27.8,33.5,27.8,34.7,27.8,35.8z"/>
	<path class="st2" d="M57.9,39.2c-1.4,1.7-3.1,2-5,1.4c-1.9-0.6-3-2-3.3-3.9c-0.2-1.2-0.1-2.4,0.4-3.5c1.4-3.3,5.8-3.7,7.7-1.4
		c0.1-0.2,0.1-0.3,0.1-0.5c0-2,0-4,0-6c0-0.4,0.1-0.5,0.5-0.5c0.5,0,1.1,0,1.7,0c0.3,0,0.4,0.1,0.4,0.4c0,2,0,4,0,5.9c0,3,0,6,0,9
		c0,0.3-0.1,0.4-0.4,0.4c-0.5,0-1.1,0-1.7,0c-0.3,0-0.4-0.1-0.3-0.4C57.9,40,57.9,39.7,57.9,39.2z M57.9,35.8c0.1-1.6-1.1-3-2.6-3.1
		c-1.7-0.1-3.1,1.1-3.2,2.7c-0.1,1.7,1.1,3.1,2.7,3.2C56.5,38.7,57.7,37.6,57.9,35.8z"/>
	<path class="st3" d="M16.1,10.3c-0.6,0.5-1.3,0.9-1.9,1.4c-0.2,0.1-0.3,0.1-0.4-0.1c-1.9-2.3-6.8-1.6-7.8,2.6
		c-0.5,2.1-0.1,4.1,1.6,5.6c1.5,1.4,4.5,2,6.4-0.4c0.1-0.2,0.2-0.2,0.4-0.1c0.6,0.4,1.2,0.8,1.7,1.2c0.2,0.1,0.2,0.2,0,0.4
		c-1,1.3-2.4,2-4,2.3c-2.2,0.3-4.2,0-6-1.2c-1.3-0.9-2.2-2.1-2.7-3.5c-0.7-2.1-0.7-4.2,0.2-6.3C5,9.7,7.2,8.3,10,8
		c1.7-0.2,3.3,0.1,4.7,1.1C15.2,9.4,15.7,9.9,16.1,10.3z"/>
	<path class="st1" d="M34.7,20c0.8-2.2,1.6-4.4,2.4-6.6c0.1-0.3,0.2-0.4,0.5-0.4c0.7,0,1.5,0,2.2,0c0,0.3-0.2,0.6-0.3,0.9
		c-1.4,3.7-2.9,7.4-4.3,11.1c0,0.1-0.1,0.1-0.1,0.2c-0.9,2.5-2.5,3.1-5.5,2.5c-0.3-0.1-0.2-0.2-0.2-0.4c0.1-0.5,0.2-1.1,0.2-1.6
		c0-0.3,0.1-0.4,0.4-0.3c0.5,0.2,1,0.2,1.6,0.1c0.5-0.1,0.8-0.3,1-0.7c0.3-0.6,0.5-1.1,0.7-1.7c0.1-0.2,0-0.3-0.1-0.5
		c-1.3-3.1-2.6-6.1-3.9-9.2c-0.1-0.1-0.2-0.3-0.1-0.5c0.8,0,1.7,0,2.5,0c0.3,0,0.3,0.2,0.3,0.4c0.8,2,1.6,4,2.4,6
		C34.6,19.6,34.7,19.8,34.7,20z"/>
	<path class="st4" d="M36.3,39.1c-0.3,0.4-0.5,0.8-0.8,1c-1.2,1-2.5,1-3.9,0.5c-1.4-0.5-2-1.7-2-3.1c-0.1-1.9,0-3.9,0-5.8
		c0-0.4-0.2-0.8,0.1-1c0.2-0.2,0.7-0.1,1-0.1c0.3,0,0.7,0,1,0c0.3,0,0.4,0.1,0.4,0.4c0,1.7,0,3.5,0,5.2c0,0.5,0.1,1,0.3,1.4
		c0.6,1.4,2.6,1.1,3.3,0.2c0.4-0.5,0.5-1.1,0.5-1.7c0-1.7,0-3.4,0-5c0-0.4,0.1-0.5,0.5-0.5c0.6,0,1.2,0,1.7,0c0.2,0,0.3,0.1,0.3,0.3
		c0,3.1,0,6.2,0,9.4c0,0.3-0.1,0.3-0.3,0.3c-0.6,0-1.2,0-1.8,0c-0.2,0-0.3-0.1-0.3-0.3C36.3,40,36.3,39.6,36.3,39.1z"/>
	<path class="st3" d="M62.9,37.8c0.6,0.6,1.2,1.2,2.1,1.2c0.5,0,1,0,1.5-0.3c0.7-0.5,0.6-1.3-0.1-1.6c-0.6-0.3-1.3-0.4-2-0.6
		c-0.2-0.1-0.5-0.1-0.7-0.2c-1.1-0.4-2-1-2.1-2.3c-0.1-1.3,0.4-2.4,1.6-3c1.6-0.9,4.2-0.7,5.5,0.4c0.6,0.5,0.6,0.5,0,1
		c-0.3,0.3-0.7,0.6-1,0.9c-0.2,0.2-0.3,0.2-0.5,0c-0.7-0.8-1.7-1-2.6-0.6C64.3,32.8,64,33,64,33.4c0,0.4,0.2,0.6,0.6,0.8
		c0.6,0.3,1.3,0.4,1.9,0.5c0.7,0.2,1.4,0.4,2,0.9c1.2,1,1.2,3.6-0.5,4.6c-1.2,0.6-2.4,0.8-3.7,0.6c-1.1-0.1-2-0.4-2.8-1.2
		c-0.2-0.2-0.3-0.4,0-0.6C61.9,38.7,62.4,38.2,62.9,37.8z"/>
	<path class="st1" d="M28.6,20.9c0,0.6,0,1.2,0,1.8c0,0.2-0.1,0.3-0.3,0.4c-1.1,0.3-2.1,0.3-3.2,0c-1-0.3-1.5-1-1.7-2
		c-0.1-0.6-0.1-1.2-0.1-1.8c0-1.2,0-2.5,0-3.7c0-0.3-0.1-0.4-0.4-0.4c-0.5,0-1,0-1.4,0c-0.2,0-0.3-0.1-0.3-0.3c0-0.5,0-1.1,0-1.6
		c0-0.2,0.1-0.3,0.3-0.3c0.5,0,1,0,1.5,0c0.3,0,0.3-0.1,0.3-0.3c0-0.7,0-1.5,0-2.2c0-0.2,0-0.4,0.3-0.3c0.6,0,1.3,0,1.9,0
		c0.3,0,0.3,0.1,0.3,0.3c0,0.7,0,1.4,0,2.1c0,0.4,0.1,0.6,0.5,0.5c0.6,0,1.2,0,1.9,0c0.3,0,0.4,0,0.4,0.4c0,0.5,0,1,0,1.5
		c0,0.3-0.1,0.3-0.3,0.3c-0.7,0-1.4,0-2.1,0c-0.3,0-0.3,0.1-0.3,0.3c0,1.3,0,2.6,0,3.8c0,1.7,0.6,1.9,2.2,1.7
		C28.2,21.1,28.4,21,28.6,20.9z"/>
	<path class="st5" d="M48.2,32.8c0,2.5,0,4.9,0,7.4c0,0.4-0.1,0.5-0.5,0.5c-0.6,0-1.2,0-1.7,0c-0.3,0-0.4,0-0.4-0.3c0-5,0-10,0-15
		c0-0.3,0.1-0.4,0.4-0.4c0.6,0,1.2,0,1.8,0c0.3,0,0.4,0.1,0.4,0.4C48.2,27.8,48.2,30.3,48.2,32.8z"/>
	<path class="st6" d="M38.7,50.2c-12.7,0-25.4,0-38.1,0C0.3,50.2,0,50.3,0,50c0-0.3,0.4-0.2,0.5-0.2c25.4,0,50.8,0,76.2,0
		c0.2,0,0.6-0.2,0.6,0.2c0,0.4-0.4,0.2-0.6,0.2C64.1,50.2,51.4,50.2,38.7,50.2z"/>
	<path class="st5" d="M20,18.1c0,1.5,0,3.1,0,4.6c0,0.3-0.1,0.4-0.4,0.4c-0.6,0-1.2,0-1.9,0c-0.2,0-0.3-0.1-0.3-0.3
		c0-3.1,0-6.3,0-9.4c0-0.2,0.1-0.3,0.3-0.3c0.6,0,1.3,0,1.9,0c0.3,0,0.3,0.1,0.3,0.4C20,15,20,16.5,20,18.1z"/>
	<path class="st7" d="M40.9,35.7c0-1.5,0-3.1,0-4.6c0-0.3,0.1-0.4,0.4-0.4c0.6,0,1.2,0,1.8,0c0.2,0,0.3,0.1,0.3,0.3
		c0,3.1,0,6.3,0,9.4c0,0.2-0.1,0.3-0.3,0.3c-0.6,0-1.3,0-1.9,0c-0.3,0-0.3-0.1-0.3-0.3C41,38.8,40.9,37.2,40.9,35.7z"/>
	<path class="st2" d="M22.1,72.5c0.5,0,1,0,1.4,0c0.3,0,0.4,0.1,0.3,0.4c0,0.2,0,0.4-0.3,0.4c-1.2-0.1-2.5,0.1-3.7-0.1
		c-1.5-0.2-2.5-1.6-2.5-3.2c0.1-1.5,1.3-2.7,2.9-2.8c1.5-0.1,2.9,1,3.1,2.4C23.5,70.7,23.2,71.8,22.1,72.5z M18.2,70.1
		c0,1.3,0.9,2.3,2.2,2.3c1.3,0,2.2-1,2.2-2.3c0-1.3-0.9-2.3-2.2-2.3C19.2,67.9,18.2,68.9,18.2,70.1z"/>
	<path class="st3" d="M54.7,70.2c0-0.9,0-1.8,0-2.7c0-0.2-0.1-0.3,0.2-0.3c0.8,0,1.6-0.1,2.4,0.1c1.5,0.2,2.5,1.4,2.5,2.9
		c0,1.5-1.1,2.7-2.5,2.9c-0.8,0.1-1.6,0-2.4,0.1c-0.3,0-0.2-0.2-0.2-0.3C54.7,72,54.7,71.1,54.7,70.2z M55.5,70.2c0,0.7,0,1.3,0,2
		c0,0.2,0.1,0.3,0.3,0.3c0.5,0,0.9,0,1.4-0.1c1.1-0.2,1.8-1.1,1.8-2.2c0-1.2-0.7-2-1.8-2.2c-0.5-0.1-0.9,0-1.4-0.1
		c-0.3,0-0.4,0.1-0.4,0.3C55.5,69,55.5,69.6,55.5,70.2z"/>
	<path class="st2" d="M35.5,73.2c-0.2,0-0.4,0-0.6,0c-0.1,0-0.2,0-0.3-0.2c0,0,0-0.1-0.1-0.1c-0.2-1-0.8-1.3-1.7-1.1
		c-0.4,0.1-0.8,0-1.2,0c-0.3,0-0.5,0.1-0.6,0.4c0,0.1-0.1,0.3-0.2,0.4c-0.3,0.7-0.3,0.7-1.2,0.6c0.3-0.7,0.6-1.4,0.9-2.1
		c0.5-1.2,1-2.4,1.5-3.5c0.1-0.2,0.2-0.3,0.5-0.3c0.2,0,0.4,0,0.5,0.3c0.7,1.8,1.5,3.6,2.3,5.4C35.5,73,35.6,73.1,35.5,73.2z
		 M32.7,68.3c-0.4,0.9-0.7,1.7-1,2.5c-0.1,0.2-0.1,0.3,0.2,0.3c0.6,0,1.3,0,2,0C33.4,70.1,33,69.3,32.7,68.3z"/>
	<path class="st7" d="M28.4,60.1c0-0.9,0-1.8,0-2.6c0-0.3,0-0.4,0.3-0.4c1.1,0,2.1,0,3.2,0c0.3,0,0.3,0.2,0.3,0.4
		c0,0.2,0,0.4-0.3,0.4c-0.8,0-1.6,0-2.4,0c-0.2,0-0.3,0.1-0.3,0.3c0,0.5-0.2,1.1,0.1,1.4c0.3,0.3,0.9,0.1,1.4,0.1c0.3,0,0.7,0,1,0
		c0.4,0,0.3,0.2,0.3,0.4c0,0.3,0,0.4-0.3,0.4c-0.7,0-1.4,0-2.1,0c-0.2,0-0.3,0-0.3,0.3c0,0.4,0,0.9,0,1.3c0,0.3,0.1,0.4,0.3,0.3
		c0.8,0,1.7,0,2.5,0c0.3,0,0.3,0.1,0.3,0.4c0,0.2,0,0.4-0.3,0.4c-1.1,0-2.2,0-3.3,0c-0.3,0-0.3-0.1-0.3-0.3
		C28.4,61.9,28.4,61,28.4,60.1z"/>
	<path class="st7" d="M38.6,60.1c0-0.9,0-1.8,0-2.7c0-0.2,0-0.3,0.3-0.3c1.1,0,2.2,0,3.3,0c0.3,0,0.2,0.2,0.3,0.4
		c0,0.2,0.1,0.4-0.3,0.4c-0.8,0-1.6,0-2.5,0c-0.3,0-0.3,0.1-0.3,0.3c0,0.4,0,0.8,0,1.2c0,0.3,0.1,0.3,0.3,0.3c0.7,0,1.4,0,2.1,0
		c0.4,0,0.3,0.2,0.3,0.4c0,0.3-0.1,0.4-0.3,0.3c-0.7,0-1.4,0-2.1,0c-0.3,0-0.3,0.1-0.3,0.3c0,0.4,0,0.9,0,1.3c0,0.2,0.1,0.3,0.3,0.3
		c0.8,0,1.7,0,2.5,0c0.3,0,0.3,0.2,0.3,0.4c0,0.2,0,0.4-0.3,0.4c-1.1,0-2.2,0-3.3,0c-0.3,0-0.4-0.1-0.3-0.3
		C38.6,61.9,38.6,61,38.6,60.1z"/>
	<path class="st7" d="M49.8,70.2c0-0.9,0-1.8,0-2.6c0-0.2,0.1-0.3,0.3-0.3c1.1,0,2.1,0,3.2,0c0.3,0,0.3,0.1,0.3,0.4
		c0,0.2,0,0.4-0.3,0.4c-0.8,0-1.6,0-2.4,0c-0.3,0-0.4,0.1-0.3,0.4c0,0.4,0,0.8,0,1.2c0,0.3,0.1,0.3,0.4,0.3c0.7,0,1.3,0,2,0
		c0.3,0,0.4,0,0.4,0.4c0,0.4-0.2,0.4-0.5,0.4c-0.7,0-1.4,0-2.1,0c-0.2,0-0.3,0.1-0.3,0.3c0,0.4,0,0.9,0,1.3c0,0.3,0.1,0.3,0.3,0.3
		c0.8,0,1.7,0,2.5,0c0.4,0,0.3,0.2,0.3,0.4c0,0.3-0.1,0.4-0.3,0.3c-1.1,0-2.2,0-3.3,0c-0.2,0-0.3-0.1-0.3-0.3
		C49.8,72,49.8,71.1,49.8,70.2z"/>
	<path class="st3" d="M24.5,69.3c0-0.6,0-1.2,0-1.7c0-0.4,0.2-0.3,0.4-0.3c0.2,0,0.4-0.1,0.4,0.3c0,1.1,0,2.3,0,3.4
		c0,1.2,1,1.8,2,1.5c0.6-0.2,1-0.8,1-1.5c0-1.1,0-2.3,0-3.4c0-0.4,0.2-0.3,0.4-0.3c0.3,0,0.4,0,0.4,0.3c0,1.1,0,2.3,0,3.4
		c0,1.4-1,2.3-2.3,2.3c-1.3,0-2.3-1-2.3-2.3C24.5,70.4,24.5,69.9,24.5,69.3z"/>
	<path class="st4" d="M50.8,62.4c0.8,0,1.6,0,2.4,0c0.2,0,0.5-0.1,0.5,0.3c0,0.4-0.2,0.4-0.5,0.4c-1,0-1.9,0-2.9,0
		c-0.2,0-0.5,0.1-0.5-0.1c-0.1-0.3-0.1-0.7,0.2-1c0.8-0.7,1.5-1.5,2.3-2.2c0.2-0.2,0.4-0.4,0.5-0.6c0.2-0.6,0.1-1.1-0.4-1.3
		c-0.5-0.3-1.2-0.1-1.5,0.4c-0.1,0.1,0,0.3-0.2,0.4c-0.2,0-0.4,0-0.7-0.1c-0.2,0-0.1-0.2,0-0.3c0.2-0.8,1.2-1.4,2.1-1.2
		c1.5,0.2,2.1,1.6,1.2,2.8c-0.6,0.8-1.4,1.4-2.1,2.1c-0.1,0.1-0.2,0.2-0.4,0.3C50.7,62.4,50.8,62.4,50.8,62.4z"/>
	<path class="st2" d="M37.9,57.2c-0.4,1.1-0.9,2.2-1.3,3.3c-0.3,0.8-0.6,1.6-0.9,2.4c-0.1,0.3-0.3,0.3-0.5,0.3c-0.2,0-0.4,0-0.5-0.3
		c-0.7-1.9-1.4-3.8-2.2-5.7c0,0,0.1,0,0.1,0c0.8,0,0.8,0,1.1,0.7c0.5,1.4,1,2.7,1.5,4.2c0.3-0.8,0.6-1.5,0.8-2.2
		c0.3-0.7,0.5-1.4,0.8-2.1C37.1,57.1,37.1,57.1,37.9,57.2z"/>
	<path class="st7" d="M42.8,70.2c0-0.9,0-1.8,0-2.6c0-0.2,0-0.3,0.3-0.3c1,0,2.1,0,3.1,0c0.3,0,0.3,0.1,0.3,0.4
		c0,0.2,0.1,0.4-0.3,0.4c-0.8,0-1.5,0-2.3,0c-0.3,0-0.4,0-0.4,0.3c0,0.5-0.1,1.1,0.1,1.6c0.5,0,1,0,1.5,0c0.2,0,0.5,0,0.7,0
		c0.4-0.1,0.5,0.1,0.4,0.5c0,0.3-0.1,0.3-0.3,0.3c-0.7,0-1.4,0-2.1,0c-0.2,0-0.3,0.1-0.3,0.3c0,0.7,0,1.3,0,2c0,0.4-0.2,0.3-0.4,0.3
		c-0.2,0-0.4,0.1-0.4-0.3C42.9,72,42.8,71.1,42.8,70.2z"/>
	<path class="st0" d="M54.5,26.9c0.1,0.2,0.2,0.3,0.5,0.1c0.1-0.1,0.2-0.2,0.3-0.1c0.2,0.2,0.4,0.4,0.8,0.1c0.1-0.1,0.3,0.2,0.3,0.3
		c0.1,0.2-0.2,0.3-0.2,0.4c0.3,0.2,0.6,0.4,0.3,0.8c-0.1,0.2-0.3,0.3-0.5,0.2c-0.3-0.1-0.5-0.5-0.8,0c-0.1-0.1-0.2-0.2-0.4-0.3
		c-0.1,0.5-0.5,0.3-0.8,0.3c-0.1,0-0.3,0-0.4,0c-0.4-0.1-0.8,0-1.2,0c-0.2,0-0.4-0.5-0.2-0.6c0.4-0.2,0.1-0.4,0-0.6
		c0-0.1,0-0.2,0-0.3c0.1-0.2-0.1-0.4,0-0.6c0-0.1,0-0.2,0-0.3c0-0.1,0-0.2,0-0.3c0.2,0,0.5,0.1,0.7-0.1c0.2-0.1,0.1,0.3,0.3,0.2
		c0.2-0.2,0.4-0.1,0.6-0.1c0.1,0.1,0.1,0.2,0.2,0.3c0,0.1,0,0.2-0.1,0.3c0,0.1-0.1,0.1,0,0.2c0.1,0.1,0.2,0.1,0.2,0
		C54.2,26.8,54.4,26.9,54.5,26.9z M55.7,27.5c-0.2,0.1-0.1,0.3-0.3,0.4c0,0-0.2-0.1-0.1,0.1c0,0.1,0.1,0.2,0.3,0.1
		c0.1-0.1,0.1-0.1,0.2-0.2c0,0,0.2,0,0.1-0.1C55.9,27.6,55.8,27.5,55.7,27.5z M52.6,27.8c0.1,0.1,0.2,0.2,0.3,0.2
		c0,0,0.1-0.1,0.1-0.1c-0.1-0.1,0-0.2-0.2-0.2C52.7,27.7,52.7,27.8,52.6,27.8z"/>
	<path class="st4" d="M40.6,27.3c0-0.9,0.7-1.5,1.6-1.5c0.9,0,1.6,0.6,1.6,1.5c0,0.9-0.7,1.5-1.6,1.5C41.3,28.8,40.6,28.1,40.6,27.3
		z"/>
	<path class="st2" d="M18.8,8.2c0.9,0,1.6,0.7,1.6,1.5c0,0.9-0.7,1.5-1.7,1.5c-0.9,0-1.6-0.6-1.6-1.5C17.2,8.8,17.9,8.2,18.8,8.2z"
		/>
	<path class="st7" d="M44.4,59.8c0,0.7,0,1.4,0,2.1c0,0.4,0.1,0.5,0.5,0.5c0.6,0,1.3,0,1.9,0c0.3,0,0.3,0.2,0.3,0.4
		c0,0.2,0,0.4-0.3,0.4c-1,0-1.9,0-2.9,0c-0.2,0-0.3-0.1-0.3-0.3c0-1.8,0-3.6,0-5.4c0-0.4,0.2-0.3,0.4-0.3c0.2,0,0.4,0,0.4,0.3
		C44.4,58.3,44.4,59,44.4,59.8z"/>
	<path class="st7" d="M36.3,70.2c0-0.9,0-1.7,0-2.6c0-0.3,0.1-0.4,0.4-0.4c0.3,0,0.4,0,0.4,0.4c0,1.5,0,3,0,4.5
		c0,0.3,0.1,0.5,0.4,0.4c0.6,0,1.3,0,1.9,0c0.3,0,0.4,0.1,0.4,0.4c0,0.3,0,0.4-0.3,0.4c-1,0-1.9,0-2.9,0c-0.3,0-0.3-0.1-0.3-0.3
		C36.3,72,36.3,71.1,36.3,70.2z"/>
	<path class="st7" d="M24.1,60.1c0-0.9,0-1.7,0-2.6c0-0.3,0.1-0.4,0.4-0.4c0.3,0,0.4,0,0.4,0.4c0,1.5,0,3,0,4.5
		c0,0.3,0.1,0.5,0.4,0.4c0.6,0,1.3,0,1.9,0c0.3,0,0.4,0.1,0.4,0.4c0,0.3,0,0.4-0.3,0.4c-1,0-1.9,0-2.9,0c-0.3,0-0.3-0.1-0.3-0.3
		C24.1,61.9,24.1,61,24.1,60.1z"/>
	<path class="st7" d="M41.4,70.3c0,0.9,0,1.8,0,2.6c0,0.4-0.2,0.3-0.4,0.3c-0.2,0-0.4,0.1-0.4-0.3c0-1.8,0-3.6,0-5.4
		c0-0.4,0.2-0.3,0.4-0.3c0.2,0,0.4-0.1,0.4,0.3C41.4,68.5,41.4,69.4,41.4,70.3z"/>
	<path class="st7" d="M48.4,70.3c0,0.9,0,1.8,0,2.6c0,0.4-0.2,0.3-0.4,0.3c-0.2,0-0.4,0.1-0.4-0.3c0-1.8,0-3.6,0-5.4
		c0-0.4,0.2-0.3,0.4-0.3c0.2,0,0.4-0.1,0.4,0.3C48.4,68.5,48.4,69.4,48.4,70.3z"/>
	<path class="st8" d="M54.1,24.2c0.2,0,0.3,0,0.5,0c0.3,0.2,0.2,0.5,0.1,0.8c0,0.2-0.3,0.1-0.5,0.1c-0.3,0-0.7-0.1-0.4,0.4
		c0.1,0.2-0.1,0.3-0.2,0.4C53.2,26,53,25.8,53,25.4c0.2-0.2-0.1-0.3-0.1-0.6c-0.2,0.1-0.2,0.2-0.4,0.2c-0.2,0.1-0.4,0-0.5-0.2
		c-0.1-0.1-0.1-0.3,0-0.5c0.1-0.2,0.3-0.2,0.5-0.1c0.2,0.1,0.3,0.2,0.4,0c0.1-0.1,0.1-0.1,0-0.2c-0.2-0.2-0.2-0.5-0.1-0.7
		c0.1-0.2,0.4-0.1,0.6-0.1c0.3,0.1,0.1,0.5,0.1,0.7c0,0.1-0.2,0.1,0,0.3c0.2,0.1,0.2-0.1,0.3-0.1C54,24.3,54,24.2,54.1,24.2z"/>
	<path class="st8" d="M54.7,22.6c0,0.2,0,0.4,0,0.5c-0.2,0.2-0.5,0.1-0.7,0.1c-0.3-0.1-0.1-0.3-0.2-0.5c0-0.1,0.1-0.3-0.2-0.4
		c0,0.2,0.1,0.3,0.1,0.4c0,0.2-0.1,0.4-0.3,0.4c-0.2,0-0.4-0.1-0.4-0.3c0.1-0.4-0.1-0.7-0.1-1c0-0.2,0.1-0.3,0.2-0.4
		c0.1,0,0.3,0,0.4,0c0.3,0.1,0.3,0.4,0.3,0.7c0.1-0.7,0.3-0.8,0.8-0.4c0,0,0.1,0,0.1,0c0,0.1,0,0.2,0,0.3c-0.2,0.2-0.4,0.3-0.7,0.3
		C54.3,22.5,54.5,22.4,54.7,22.6z"/>
	<path class="st8" d="M52,26.3c0,0.1,0,0.2,0,0.3c-0.1,0-0.1,0-0.2,0c-0.2,0.2-0.4,0.3-0.6,0c-0.3-0.3,0.1-0.4,0.2-0.5
		c0,0,0,0,0.1-0.1c-0.2-0.2-0.5-0.4-0.2-0.7c0.2-0.2,0.4-0.2,0.5,0c0.3,0.3,0,0.5-0.3,0.7C51.7,26.1,51.8,26.4,52,26.3z"/>
	<path class="st8" d="M44,13.8c0,0.2,0,0.3,0.1,0.4c0.1,0.1,0.1,0.2,0,0.3c-0.1,0.1-0.2,0.1-0.3,0c-0.1-0.2-0.3-0.2-0.5-0.2
		c-0.2-0.2-0.3-0.4-0.1-0.7C43.6,13.4,43.8,13.7,44,13.8z"/>
	<path class="st8" d="M52.8,26c-0.2,0.2-0.5,0-0.7,0.1c0-0.1,0.1-0.1,0.1-0.3c-0.1-0.2-0.1-0.4,0.1-0.6c0.3-0.2,0.4,0,0.6,0.1
		c0,0,0,0,0.1,0C52.9,25.6,52.8,25.8,52.8,26z"/>
	<path class="st9" d="M41.3,17.4c0,0.1,0,0.3,0,0.4c-0.1,0-0.2,0.1-0.2,0.1c-0.2,0.1-0.4,0.1-0.5-0.1c-0.1-0.2-0.1-0.3,0-0.5
		c0.2-0.2,0.3-0.2,0.5-0.1C41.2,17.3,41.2,17.4,41.3,17.4z"/>
	<path class="st9" d="M43.1,9.4c0,0.1,0,0.1,0,0.2c-0.1,0-0.1,0.1-0.2,0.1c-0.2,0.2-0.4,0.2-0.6,0c-0.2-0.2-0.2-0.4,0-0.5
		c0.2-0.2,0.4-0.2,0.6,0C43,9.3,43.1,9.4,43.1,9.4z"/>
	<path class="st8" d="M46.3,5.5c-0.1,0-0.1,0-0.2,0c-0.2-0.2-0.5-0.4-0.2-0.7c0.2-0.2,0.4-0.2,0.5,0C46.8,5.1,46.5,5.3,46.3,5.5z"/>
	<path class="st8" d="M42.5,18c0.1,0,0.2-0.1,0.3-0.1c0.2,0.3,0.2,0.7,0,1c-0.1,0-0.2,0-0.3,0c0-0.2-0.2-0.3-0.3-0.5
		c0,0,0-0.1,0-0.1C42.3,18.2,42.4,18.1,42.5,18z"/>
	<path class="st8" d="M46,22.4c0.1,0,0.2,0,0.4,0c-0.1,0.1,0.1,0.2,0.1,0.2c0.1,0.2,0.1,0.4-0.1,0.5c-0.2,0.1-0.3,0.1-0.5,0
		c-0.2-0.2-0.2-0.3,0-0.5C46,22.6,46.1,22.6,46,22.4z"/>
	<path class="st8" d="M44.9,21.3c0-0.1,0-0.2,0-0.3c0.1-0.1,0.1-0.1,0.2-0.2c0.2-0.1,0.3-0.1,0.5,0c0.2,0.2,0.2,0.4,0,0.5
		c-0.1,0.1-0.2,0.1-0.2,0.2c-0.1,0-0.1,0-0.2,0C45.2,21.5,45.1,21.3,44.9,21.3z"/>
	<path class="st8" d="M44,6.6c0,0.2,0,0.3,0,0.5c-0.2-0.1-0.3,0.2-0.4,0.2c0,0-0.1,0-0.1,0c-0.3-0.1-0.4-0.3-0.2-0.6
		c0.1-0.2,0.4-0.2,0.6-0.1C43.9,6.6,43.9,6.6,44,6.6z"/>
	<path class="st8" d="M46.4,21.6c-0.1,0-0.2,0-0.4,0c0.1-0.1-0.1-0.2-0.1-0.2c-0.1-0.2-0.1-0.4,0-0.5c0.1-0.1,0.3-0.1,0.5,0
		c0.2,0.2,0.2,0.3,0.1,0.5C46.5,21.4,46.3,21.5,46.4,21.6z"/>
	<path class="st8" d="M44.9,5.7c0,0.2,0,0.3,0,0.5c-0.2-0.1-0.3,0-0.3,0.2c-0.1,0-0.3,0-0.4,0c0-0.1,0.1-0.1,0-0.2
		c-0.2-0.2-0.2-0.4,0-0.5c0.2-0.2,0.4-0.2,0.5,0C44.8,5.8,44.8,5.7,44.9,5.7z"/>
	<path class="st9" d="M51.6,20.7c0.2,0,0.4,0.2,0.4,0.4c0,0.3-0.2,0.4-0.4,0.4c-0.2,0-0.4-0.2-0.3-0.4
		C51.2,20.9,51.3,20.7,51.6,20.7z"/>
	<path class="st8" d="M50.3,15.9c0-0.1,0-0.2,0-0.3c0,0,0.1,0,0.1,0c0.2-0.2,0.4-0.3,0.6-0.1c0.2,0.2,0.1,0.4,0,0.5
		C50.7,16.2,50.5,16.2,50.3,15.9C50.3,15.9,50.3,15.9,50.3,15.9z"/>
	<path class="st8" d="M49,20.6c-0.1,0-0.2,0-0.3,0c-0.2-0.2-0.4-0.4-0.1-0.6c0.2-0.3,0.4-0.2,0.6,0c0,0,0.1,0,0.1,0
		c0,0.1,0,0.2,0,0.4C49.2,20.4,49.1,20.5,49,20.6z"/>
	<path class="st9" d="M50.2,21.2c0-0.1,0-0.1,0-0.2c0.1-0.1,0.2-0.2,0.3-0.3c0.1,0,0.2-0.1,0.3-0.1c0,0,0,0.1,0,0.1
		c0.2,0.2,0.3,0.5,0,0.7C50.6,21.7,50.4,21.4,50.2,21.2z"/>
	<path class="st8" d="M48.5,14c0-0.1,0-0.1,0-0.2c0.1-0.1,0.2-0.2,0.3-0.2c0.2-0.1,0.3-0.1,0.5,0.1c0.1,0.1,0.1,0.3,0,0.5
		c-0.1,0.1-0.2,0.1-0.2,0.3c-0.1,0-0.1,0-0.2,0C48.7,14.3,48.6,14.2,48.5,14z"/>
	<path class="st8" d="M49.4,6.1c0-0.1,0-0.2,0-0.3c0.1-0.1,0.1-0.1,0.2-0.2c0.2-0.1,0.4-0.1,0.5,0.1c0.2,0.3,0,0.5-0.2,0.6
		C49.7,6.4,49.6,6.2,49.4,6.1z"/>
	<path class="st9" d="M50.6,10.9c0.1,0,0.2,0,0.3,0c0,0.1,0.1,0.1,0.1,0.2c0.1,0.2,0.1,0.4-0.1,0.5c-0.3,0.2-0.5,0-0.7-0.2
		c0-0.1,0-0.1,0-0.2C50.4,11.1,50.5,11,50.6,10.9z"/>
	<path class="st8" d="M44.3,11.8c0.1,0,0.2,0,0.3,0c0.1,0.1,0.2,0.2,0.3,0.3c0,0.1,0,0.1,0,0.2c-0.1,0-0.1,0.1-0.2,0.1
		c-0.2,0.1-0.3,0.2-0.5,0c-0.2-0.2-0.2-0.4,0-0.5C44.2,11.9,44.2,11.8,44.3,11.8z"/>
	<path class="st9" d="M41.3,19.1c0,0.1,0,0.3,0,0.4c-0.1-0.1-0.2,0.1-0.3,0.1c-0.2,0.1-0.3,0.1-0.5-0.1c-0.1-0.1-0.1-0.3,0-0.5
		c0.1-0.2,0.3-0.1,0.5-0.1C41.2,19.1,41.2,19.2,41.3,19.1z"/>
	<path class="st9" d="M51.1,9.7c0-0.1,0-0.2,0-0.3c0,0,0.1,0,0.1-0.1c0.2-0.2,0.4-0.2,0.6,0c0.2,0.1,0.1,0.4,0,0.5
		C51.6,10,51.4,10,51.1,9.7C51.2,9.7,51.2,9.7,51.1,9.7z"/>
	<path class="st8" d="M52,27.2c0,0.1,0,0.2,0,0.3c-0.1,0-0.1,0.1-0.2,0.2c-0.2,0.1-0.4,0.1-0.5-0.1c-0.1-0.2-0.1-0.3,0-0.5
		c0.1-0.2,0.3-0.2,0.5-0.1C51.9,27.1,51.9,27.2,52,27.2z"/>
	<path class="st9" d="M42.7,15.3c-0.1,0-0.1,0-0.2,0c-0.2-0.2-0.3-0.4-0.2-0.6c0.2-0.2,0.4-0.2,0.6,0c0,0,0.1,0,0.1,0
		c0,0.1,0,0.3,0,0.4C42.9,15,42.8,15.2,42.7,15.3z"/>
	<path class="st8" d="M43.7,20.6c-0.1,0-0.2,0-0.3,0c-0.1-0.2-0.3-0.3-0.2-0.5c0.2-0.2,0.4-0.4,0.6-0.1
		C44.1,20.2,43.9,20.4,43.7,20.6z"/>
	<path class="st8" d="M52.3,20.6c0.1,0,0.2,0,0.3,0c0.1,0.2,0.4,0.4,0.2,0.7c-0.2,0.1-0.4,0.2-0.6,0c-0.1-0.2-0.1-0.4,0.1-0.5
		C52.4,20.7,52.3,20.7,52.3,20.6z"/>
	<path class="st9" d="M51.1,20.3c0,0,0-0.1,0-0.1c0.1-0.1,0.3-0.1,0.4-0.2c0,0,0,0,0.1,0c0.2,0,0.3,0.2,0.5,0.2c0,0.1,0,0.1,0,0.2
		c-0.2-0.1-0.1,0.2-0.3,0.3C51.4,20.7,51.3,20.4,51.1,20.3z"/>
	<path class="st9" d="M43.6,5.6c0.2,0,0.4,0.2,0.4,0.4c0,0.2-0.2,0.4-0.4,0.4c-0.2,0-0.4-0.2-0.4-0.4C43.2,5.7,43.3,5.6,43.6,5.6z"
		/>
	<path class="st9" d="M49.7,11.8c0.1,0,0.1,0,0.2,0c0.2,0.2,0.4,0.4,0.2,0.6c-0.2,0.3-0.4,0.2-0.6,0C49.4,12.1,49.4,11.9,49.7,11.8z
		"/>
	<path class="st8" d="M49.4,14.9c0,0,0-0.1,0-0.1c0,0,0.1,0,0.1,0c0.2-0.2,0.4-0.3,0.6-0.1c0.2,0.3,0.1,0.5-0.2,0.6
		c-0.1,0-0.2,0-0.2,0C49.6,15.1,49.5,15,49.4,14.9z"/>
	<path class="st8" d="M56.3,16.2c-0.1,0-0.3,0.1-0.4-0.1c0-0.1-0.1-0.1-0.2-0.2c-0.1-0.2-0.1-0.4,0.1-0.5c0.2-0.1,0.4,0,0.6,0.1
		C56.5,15.9,56.2,16,56.3,16.2z"/>
	<path class="st8" d="M47.9,12.7c0.1,0,0.1,0,0.2,0c0.4,0.3,0.2,0.6,0,0.9c-0.1,0-0.2,0-0.2,0C47.7,13.3,47.5,13,47.9,12.7z"/>
	<path class="st9" d="M50.8,7.2c-0.1,0-0.1,0-0.2,0c-0.2-0.1-0.3-0.3-0.3-0.5c0.2-0.2,0.4-0.3,0.6-0.1C51.2,6.8,51.1,7,50.8,7.2
		C50.8,7.2,50.8,7.2,50.8,7.2z"/>
	<path class="st9" d="M43,11.3c0,0.2-0.2,0.4-0.4,0.4c-0.2,0-0.4-0.2-0.3-0.4c0-0.2,0.2-0.4,0.4-0.3C42.9,11,43,11.1,43,11.3z"/>
	<path class="st9" d="M42.2,21c0,0.1,0,0.1,0,0.2c0,0,0,0,0,0c-0.1,0.2-0.3,0.4-0.6,0.3c-0.2-0.1-0.2-0.2-0.2-0.3
		c-0.1-0.3,0.2-0.3,0.3-0.4C41.9,20.8,42,21,42.2,21z"/>
	<path class="st8" d="M48.1,5.5c-0.1,0-0.1,0-0.2,0c-0.2-0.1-0.3-0.3-0.3-0.5c0-0.2,0.1-0.2,0.2-0.3c0.1-0.1,0.2,0,0.3,0.1
		c0.1,0.1,0.2,0.2,0.1,0.3C48.3,5.3,48.2,5.4,48.1,5.5z"/>
	<path class="st8" d="M45.2,22.5c0.1,0,0.1,0,0.2,0c0,0.2,0.3,0.2,0.3,0.4c-0.1,0.1,0,0.4-0.2,0.4c-0.1,0-0.3,0.1-0.4-0.1
		c-0.1-0.2-0.2-0.4,0.1-0.5C45.2,22.6,45.2,22.6,45.2,22.5z"/>
	<path class="st9" d="M47,22.5c0.1,0,0.2,0,0.2,0c0.1,0.1,0.2,0.2,0.2,0.3c0.1,0.2,0,0.3-0.1,0.4c-0.1,0.1-0.3,0.1-0.4,0
		c-0.1-0.1-0.2-0.2-0.2-0.4C46.8,22.7,46.9,22.6,47,22.5z"/>
	<path class="st9" d="M49.7,21.6c0.1,0,0.1,0,0.2,0c0,0.2,0.3,0.2,0.3,0.4c0,0.1,0,0.4-0.3,0.4c-0.3,0-0.4-0.1-0.4-0.4
		C49.4,21.8,49.7,21.8,49.7,21.6z"/>
	<path class="st8" d="M51.9,8.6c0,0.2-0.2,0.4-0.4,0.4c-0.2,0-0.3-0.1-0.3-0.3c0-0.2,0.1-0.3,0.4-0.3C51.8,8.3,51.9,8.5,51.9,8.6z"
		/>
	<path class="st9" d="M42.2,22c-0.1,0.2-0.2,0.4-0.4,0.4c-0.2,0-0.4-0.2-0.4-0.4c0-0.1,0.2-0.3,0.3-0.4C41.9,21.6,42,21.9,42.2,22z"
		/>
	<path class="st8" d="M42.1,7.8c-0.1,0.2-0.2,0.3-0.4,0.3c-0.2,0-0.4-0.2-0.4-0.4c0-0.2,0.2-0.4,0.4-0.4C41.9,7.4,42.1,7.6,42.1,7.8
		z"/>
	<path class="st8" d="M43.5,10.9c0.1,0,0.1,0,0.2,0c0,0.2,0.1,0.3,0.3,0.3c0,0.1,0,0.2,0,0.3c-0.1-0.1-0.1-0.1-0.2,0
		c-0.1,0.1-0.2,0.2-0.4,0c-0.2-0.2-0.1-0.3,0-0.5C43.4,11,43.5,11,43.5,10.9z"/>
	<path class="st8" d="M43.1,8.5c0,0.1,0,0.2,0,0.3c-0.1-0.1-0.2,0-0.2,0c-0.1,0.2-0.3,0.1-0.4,0c-0.1-0.1-0.2-0.2,0-0.4
		c0.1-0.1,0.3-0.2,0.4,0C42.9,8.5,43,8.6,43.1,8.5z"/>
	<path class="st8" d="M53.3,5.5L53.3,5.5c0.1,0.2,0.4,0.2,0.4,0.5c-0.2,0-0.2,0.4-0.5,0.2c-0.3-0.2-0.2-0.4,0-0.6
		C53.3,5.6,53.3,5.6,53.3,5.5z"/>
	<path class="st8" d="M50.7,11.9c0.2,0.1,0.3,0.2,0.3,0.3c0,0.2-0.2,0.3-0.3,0.3c-0.2,0-0.3-0.2-0.3-0.3
		C50.4,12,50.5,11.9,50.7,11.9z"/>
	<path class="st8" d="M47.2,5.5c-0.1,0.1-0.1,0.1-0.2,0c0-0.2-0.5-0.3-0.1-0.6c0.1-0.1,0.2-0.1,0.4,0C47.7,5.1,47.2,5.3,47.2,5.5z"
		/>
	<path class="st8" d="M45.4,13.4C45.3,13.4,45.3,13.4,45.4,13.4c-0.2-0.1-0.5-0.2-0.3-0.4c0.2-0.3,0.4-0.3,0.5,0
		c0.1,0.1,0.1,0,0.2,0c0,0.1,0,0.1,0,0.2C45.6,13.1,45.5,13.4,45.4,13.4z"/>
	<path class="st8" d="M47,14.5c0.1,0,0.2,0,0.3,0c-0.1,0.1,0,0.2,0,0.2c0.1,0.1,0.1,0.3-0.1,0.4c-0.1,0.1-0.2,0.1-0.3,0
		c-0.1-0.1-0.2-0.2,0-0.4C47,14.6,47.1,14.6,47,14.5z"/>
	<path class="st9" d="M41.8,16.1c0,0-0.1,0-0.1,0c-0.3-0.3-0.3-0.5,0-0.6c0.3-0.1,0.3,0.2,0.5,0.2c0,0,0,0.1,0,0.1
		C42,15.9,41.9,16,41.8,16.1z"/>
	<path class="st8" d="M50.1,19.3c0,0.1,0,0.1,0,0.2c-0.1,0.1-0.1,0.2-0.2,0.2c0,0-0.1,0-0.1,0c-0.2-0.1-0.4-0.2-0.1-0.5
		C49.9,18.8,49.9,19.1,50.1,19.3z"/>
	<path class="st9" d="M50.6,15.2c-0.1-0.1-0.3-0.2-0.3-0.4c0-0.2,0.2-0.3,0.4-0.3c0.1,0,0.3,0.2,0.3,0.3C51,15,50.8,15.2,50.6,15.2z
		"/>
	<path class="st9" d="M43.8,12.2c0,0.2-0.2,0.3-0.3,0.3c-0.2,0-0.3-0.1-0.2-0.3c0-0.2,0.1-0.2,0.3-0.2
		C43.7,11.9,43.8,12.1,43.8,12.2z"/>
	<path class="st8" d="M56.3,14c-0.1,0.1-0.2,0.3-0.3,0.3c-0.1,0-0.3-0.2-0.3-0.3c0-0.1,0.2-0.3,0.3-0.3C56.1,13.7,56.2,13.8,56.3,14
		z"/>
	<path class="st10" d="M53.7,6.1c0-0.3-0.3-0.4-0.4-0.5c0.1-0.1,0.3,0,0.4-0.2c0-0.1,0.1-0.1,0.2,0C54,5.4,54.1,5.4,54,5.6
		C53.8,5.7,53.8,5.9,53.7,6.1L53.7,6.1L53.7,6.1z"/>
	<path class="st9" d="M44.4,15.4L44.4,15.4c0,0.2,0.2,0.2,0.2,0.2c0.1,0.1,0.1,0.2,0,0.4c-0.1,0.1-0.2,0.1-0.4,0
		c-0.1-0.1-0.1-0.2,0-0.4C44.3,15.5,44.5,15.5,44.4,15.4z"/>
	<path class="st10" d="M52.8,26c0.1-0.2,0.1-0.4,0.2-0.6c0,0,0,0,0.1,0c0,0.4,0.2,0.6,0.6,0.5c0,0.1,0.1,0.1,0.1,0.2
		c-0.2,0-0.4-0.1-0.6,0.1C52.9,26.3,52.9,25.9,52.8,26z"/>
	<path class="st9" d="M50.1,5.1c0,0.2-0.1,0.3-0.3,0.3c-0.2,0-0.3-0.1-0.2-0.3c0-0.2,0.1-0.2,0.3-0.2C50,4.8,50.1,4.9,50.1,5.1z"/>
	<path class="st9" d="M54.3,15.5c0.1,0,0.3,0.1,0.3,0.2c0,0.1,0,0.3-0.2,0.3c-0.2,0-0.2-0.1-0.3-0.2C54,15.6,54.1,15.6,54.3,15.5z"
		/>
	<path class="st8" d="M42,9.6c0,0.1-0.1,0.3-0.3,0.3c-0.2,0-0.3-0.1-0.3-0.2c0-0.2,0.1-0.3,0.2-0.3C41.9,9.3,42,9.4,42,9.6z"/>
	<path class="st9" d="M53.7,9.5L53.7,9.5c-0.1,0-0.1,0.2-0.2,0.2c-0.1,0.1-0.3,0.1-0.4,0c-0.1-0.1-0.1-0.2,0-0.3
		c0.1-0.1,0.2-0.1,0.4-0.1C53.6,9.4,53.6,9.5,53.7,9.5z"/>
	<path class="st9" d="M39.9,18.7c-0.1-0.1-0.3-0.2-0.3-0.3c0-0.1,0.1-0.3,0.3-0.3c0.1,0,0.3,0.1,0.3,0.3
		C40.2,18.6,40.1,18.7,39.9,18.7z"/>
	<path class="st8" d="M51.8,28.2c0,0.2-0.1,0.3-0.2,0.3c-0.2,0-0.3-0.1-0.3-0.2c0-0.2,0.1-0.2,0.2-0.3C51.7,28,51.8,28.1,51.8,28.2z
		"/>
	<path class="st8" d="M44.4,3.9c0.2,0,0.3,0.1,0.2,0.3c0,0.2-0.1,0.3-0.3,0.3c-0.2,0-0.2-0.1-0.2-0.3C44.2,4,44.3,3.9,44.4,3.9z"/>
	<path class="st8" d="M49.2,5.1c0,0.1-0.1,0.3-0.2,0.3c-0.2,0-0.3-0.1-0.3-0.3c0-0.2,0.1-0.2,0.3-0.2C49.1,4.8,49.1,4.9,49.2,5.1z"
		/>
	<path class="st8" d="M42.6,10.2c0.2,0,0.3,0.1,0.3,0.3c0,0.2-0.1,0.3-0.3,0.2c-0.1,0-0.3-0.1-0.2-0.3
		C42.4,10.3,42.5,10.2,42.6,10.2z"/>
	<path class="st8" d="M51.8,7.7c0,0.2-0.1,0.3-0.3,0.2c-0.2,0-0.2-0.1-0.2-0.3c0-0.2,0.1-0.2,0.3-0.2C51.8,7.5,51.8,7.6,51.8,7.7z"
		/>
	<path class="st9" d="M42.9,6.9c-0.1,0.1,0,0.3-0.2,0.3c-0.2,0-0.3-0.1-0.3-0.3c0-0.2,0.1-0.3,0.2-0.3C42.8,6.6,42.9,6.7,42.9,6.9z"
		/>
	<path class="st10" d="M54.5,26.9c-0.2,0-0.4-0.1-0.5,0c-0.1,0.1-0.1,0.1-0.2,0c-0.1-0.1,0-0.2,0-0.2c0-0.1,0-0.2,0.1-0.3
		c0.1,0,0.1,0,0.2,0c0,0.3,0.1,0.4,0.4,0.4C54.5,26.8,54.5,26.8,54.5,26.9z"/>
	<path class="st9" d="M42.7,8c-0.2,0-0.3-0.1-0.3-0.3c0-0.2,0.1-0.2,0.3-0.2c0.2,0,0.2,0.1,0.2,0.3C42.9,7.9,42.8,8,42.7,8z"/>
	<path class="st8" d="M51.6,10.7c-0.2,0-0.3-0.1-0.3-0.3c0-0.2,0.1-0.2,0.3-0.2c0.2,0,0.2,0.1,0.2,0.3
		C51.8,10.6,51.7,10.7,51.6,10.7z"/>
	<path class="st9" d="M44.7,13.1c0,0.1-0.1,0.2-0.3,0.2c-0.2,0-0.3-0.1-0.3-0.3c0-0.2,0.1-0.2,0.3-0.2
		C44.6,12.8,44.7,12.9,44.7,13.1z"/>
	<path class="st8" d="M48.9,13.3c-0.1,0-0.2-0.1-0.2-0.2c0-0.2,0.1-0.2,0.2-0.3c0.2,0,0.3,0.1,0.3,0.2
		C49.2,13.2,49.1,13.3,48.9,13.3z"/>
	<path class="st8" d="M41.1,16.6c0,0.2-0.1,0.3-0.3,0.3c-0.1,0-0.3-0.1-0.2-0.3c0-0.2,0.1-0.2,0.3-0.2C41,16.4,41.1,16.5,41.1,16.6z
		"/>
	<path class="st8" d="M46.2,14.6c0.2,0,0.3,0.1,0.3,0.2c0,0.1-0.1,0.2-0.3,0.2c-0.2,0-0.2-0.1-0.2-0.2C46,14.7,46.1,14.6,46.2,14.6z
		"/>
	<path class="st8" d="M54.5,26.7c-0.3,0.1-0.5,0-0.4-0.4c0.1-0.1,0.2-0.2,0.4-0.1C54.6,26.4,54.5,26.6,54.5,26.7z"/>
	<path class="st11" d="M48,15.5c0.2,0,0.2,0.1,0.2,0.3c0,0.1-0.1,0.2-0.2,0.2c-0.2,0-0.3-0.1-0.2-0.2C47.8,15.6,47.9,15.5,48,15.5z"
		/>
	<path class="st11" d="M40,16c-0.2,0-0.2-0.1-0.2-0.3c0-0.1,0.1-0.2,0.3-0.2c0.1,0,0.2,0.1,0.2,0.2C40.2,15.9,40.1,16,40,16z"/>
	<path class="st10" d="M52.8,21.3c0.3-0.3-0.1-0.5-0.2-0.7c0.1,0,0.1,0,0.2-0.1c0.1,0,0.1-0.2,0.2,0c0.1,0.1,0.2,0.1,0.1,0.3
		c-0.2,0.2-0.1,0.4-0.1,0.6C52.9,21.3,52.8,21.3,52.8,21.3z"/>
	<path class="st9" d="M50.7,16.9c-0.1,0-0.2-0.1-0.2-0.3c0-0.1,0.1-0.2,0.2-0.2c0.1,0,0.2,0.1,0.2,0.2
		C50.9,16.8,50.8,16.9,50.7,16.9z"/>
	<path class="st9" d="M43.6,16.9c-0.2,0-0.3-0.1-0.3-0.2c0-0.1,0.1-0.2,0.2-0.2c0.2,0,0.3,0.1,0.3,0.2
		C43.8,16.8,43.7,16.9,43.6,16.9z"/>
	<path class="st0" d="M45.2,20c0.3,0,0.3,0.1,0.4,0.2c0,0.1-0.1,0.2-0.2,0.2c-0.2,0-0.3,0-0.3-0.2C45.1,20.1,45.2,20,45.2,20z"/>
	<path class="st10" d="M49.7,11.8c-0.2,0.1-0.3,0.4-0.2,0.6c-0.1,0-0.1,0.1-0.2,0.1c0-0.2,0.2-0.5-0.1-0.6c-0.1,0,0-0.1,0-0.2
		c0.1-0.1,0.1-0.2,0.3-0.1C49.5,11.7,49.6,11.7,49.7,11.8z"/>
	<path class="st10" d="M49.7,21.6c0,0.2-0.3,0.2-0.3,0.4l0,0l0,0c0-0.1,0-0.2-0.1-0.3c-0.1-0.1-0.3-0.1-0.1-0.3
		c0.1-0.1,0.2-0.2,0.3,0C49.5,21.6,49.6,21.6,49.7,21.6z"/>
	<path class="st9" d="M57.2,14.8C57.2,14.9,57.2,14.9,57.2,14.8C57.2,15,57.1,15,57,15.1c-0.1,0.1-0.2,0-0.3-0.1
		c-0.1-0.1-0.1-0.2,0-0.3c0.1-0.1,0.2-0.1,0.3-0.1C57.1,14.7,57.2,14.8,57.2,14.8z"/>
	<path class="st8" d="M41.1,14.9c0,0.2-0.1,0.2-0.2,0.2c-0.1,0-0.2-0.1-0.2-0.2c0-0.2,0.1-0.2,0.2-0.2C41,14.7,41.1,14.8,41.1,14.9z
		"/>
	<path class="st8" d="M42.7,22.2c-0.2,0-0.2-0.1-0.3-0.2c0-0.1,0.1-0.2,0.2-0.2c0.1,0,0.3,0.1,0.2,0.2
		C42.9,22.1,42.8,22.3,42.7,22.2z"/>
	<path class="st9" d="M45.3,24c-0.2,0-0.2-0.1-0.2-0.2c0-0.2,0.1-0.2,0.2-0.2c0.1,0,0.2,0.1,0.2,0.2C45.5,23.9,45.5,24,45.3,24z"/>
	<path class="st8" d="M42,11.2c-0.1,0.1-0.1,0.2-0.2,0.2c-0.1,0-0.3-0.1-0.3-0.3c0-0.1,0.1-0.2,0.2-0.2C41.9,11,42,11.1,42,11.2z"/>
	<path class="st10" d="M50.3,6.7c0,0.2,0,0.4,0.3,0.5c0,0.1-0.1,0.1-0.2,0.1c-0.1,0-0.1,0.1-0.2,0.1c-0.1-0.1,0-0.2,0-0.2
		C50.2,7,50.3,6.9,50.3,6.7C50.3,6.7,50.3,6.7,50.3,6.7z"/>
	<path class="st10" d="M49.4,6.1c0.2,0,0.3,0.3,0.5,0.2c0,0,0,0,0,0.1c-0.1,0-0.2,0-0.2,0c-0.1,0.1-0.2,0.3-0.4,0.1
		C49,6.4,49.3,6.3,49.4,6.1z"/>
	<path class="st10" d="M53.8,17.3c-0.1,0.2,0,0.4,0,0.5c0,0.1,0.2,0.3,0,0.4c-0.1,0.1-0.1,0-0.2-0.1c-0.2-0.1,0-0.2,0.1-0.3
		C53.8,17.7,53.9,17.5,53.8,17.3L53.8,17.3z"/>
	<path class="st9" d="M47.1,3.9c0.1,0,0.2,0.1,0.2,0.2c0,0.1-0.1,0.2-0.2,0.2c-0.1,0-0.2-0.1-0.2-0.2C46.9,4,47,4,47.1,3.9z"/>
	<path class="st9" d="M51.6,14.2c-0.1,0-0.2-0.1-0.2-0.2c0-0.1,0.1-0.2,0.2-0.2c0.1,0,0.2,0.1,0.2,0.2
		C51.8,14.1,51.7,14.2,51.6,14.2z"/>
	<path class="st8" d="M55.4,13.1c0,0.2-0.1,0.2-0.3,0.2c-0.1,0-0.2-0.1-0.2-0.3c0-0.1,0.1-0.2,0.3-0.2C55.3,12.9,55.4,13,55.4,13.1z
		"/>
	<path class="st10" d="M43.2,20.1c0,0.2,0.1,0.4,0.2,0.5c-0.1,0.1-0.2,0.2-0.4,0.2C42.9,20.6,43,20.3,43.2,20.1
		C43.1,20.1,43.2,20.1,43.2,20.1z"/>
	<path class="st8" d="M53.4,16.9c-0.2,0-0.3-0.1-0.3-0.2c0-0.1,0.1-0.2,0.2-0.2c0.1,0,0.2,0.1,0.2,0.2
		C53.6,16.8,53.5,16.8,53.4,16.9z"/>
	<path class="st8" d="M41.1,6.9C41,7,41,7,40.8,7c-0.1,0-0.2-0.1-0.2-0.2c0-0.1,0.1-0.2,0.2-0.2C41,6.7,41.1,6.7,41.1,6.9z"/>
	<path class="st0" d="M46.5,23.8c-0.1,0.1-0.1,0.2-0.2,0.2c-0.1,0-0.2-0.1-0.2-0.2c0-0.1,0.1-0.2,0.2-0.2
		C46.3,23.6,46.4,23.7,46.5,23.8z"/>
	<path class="st8" d="M49.8,23.1c-0.2,0-0.2-0.1-0.2-0.2c0-0.1,0-0.2,0.2-0.2c0.1,0,0.2,0.1,0.2,0.2C50,23,50,23.1,49.8,23.1z"/>
	<path class="st8" d="M52.5,23.1c-0.1,0-0.2-0.1-0.2-0.2c0-0.1,0.1-0.2,0.2-0.2c0.1,0,0.2,0.1,0.2,0.2C52.7,23,52.6,23.1,52.5,23.1z
		"/>
	<path class="st8" d="M40.9,20.9c0.2,0,0.2,0.1,0.2,0.2c0,0.1,0,0.2-0.2,0.2c-0.2,0-0.2-0.1-0.2-0.2C40.7,21,40.7,20.9,40.9,20.9z"
		/>
	<path class="st9" d="M45.5,5.1c0,0.1-0.1,0.2-0.2,0.2c-0.1,0-0.2-0.1-0.2-0.2c0-0.1,0.1-0.2,0.2-0.2C45.4,4.8,45.5,5,45.5,5.1z"/>
	<path class="st8" d="M50.7,26.7c-0.1,0-0.1-0.1-0.1-0.2c0-0.1,0.1-0.2,0.2-0.2c0.1,0,0.2,0.1,0.2,0.2
		C50.9,26.6,50.8,26.7,50.7,26.7z"/>
	<path class="st9" d="M51.8,5.1c0,0.1-0.1,0.2-0.2,0.2c-0.1,0-0.2-0.1-0.2-0.2c0-0.1,0.1-0.2,0.3-0.2C51.7,4.9,51.8,5,51.8,5.1z"/>
	<path class="st10" d="M56.3,16.2c-0.1-0.2,0.3-0.4,0.2-0.6c0,0,0,0,0.1,0c0,0.1,0,0.3,0.1,0.4c0,0.1,0.1,0.2,0,0.3
		C56.4,16.4,56.4,16.3,56.3,16.2z"/>
	<path class="st9" d="M54.3,10.2c0.1,0,0.2,0.1,0.2,0.2c0,0.1-0.1,0.2-0.2,0.2c-0.1,0-0.2-0.1-0.2-0.2
		C54.1,10.3,54.2,10.2,54.3,10.2z"/>
	<path class="st8" d="M49.1,19.3c0,0.1-0.1,0.2-0.2,0.2c-0.1,0-0.2-0.1-0.2-0.2c0-0.1,0-0.2,0.1-0.2C49,19.1,49.1,19.2,49.1,19.3z"
		/>
	<path class="st10" d="M54,23.3c0.2,0,0.5,0.1,0.7-0.1c0.1,0.1,0.3,0.1,0.1,0.3c-0.1,0.1-0.2,0.1-0.3,0C54.4,23.3,54.2,23.4,54,23.3
		C54,23.4,54,23.3,54,23.3z"/>
	<path class="st11" d="M44.6,16.7c0,0.1-0.1,0.2-0.2,0.2c-0.1,0-0.2-0.1-0.2-0.2c0-0.1,0.1-0.2,0.2-0.2
		C44.6,16.5,44.6,16.5,44.6,16.7z"/>
	<path class="st9" d="M52.5,6.1c-0.1,0-0.2-0.1-0.2-0.2c0-0.1,0.1-0.2,0.2-0.2c0.1,0,0.2,0.1,0.2,0.2C52.6,6.1,52.6,6.1,52.5,6.1z"
		/>
	<path class="st8" d="M43.5,22.7c0.1,0,0.2,0.1,0.2,0.2c0,0.1-0.1,0.2-0.2,0.2c-0.1,0-0.2-0.1-0.2-0.2
		C43.4,22.8,43.4,22.7,43.5,22.7z"/>
	<path class="st8" d="M41.8,22.7c0.1,0,0.2,0.1,0.2,0.2c0,0.1-0.1,0.2-0.2,0.2c-0.1,0-0.1-0.1-0.1-0.2
		C41.6,22.8,41.6,22.7,41.8,22.7z"/>
	<path class="st8" d="M43.5,13.3c-0.1,0-0.2,0-0.2-0.1c0-0.1,0-0.2,0.2-0.2c0.1,0,0.2,0.1,0.2,0.2C43.7,13.2,43.6,13.3,43.5,13.3z"
		/>
	<path class="st8" d="M47.3,15.7c0,0.1-0.1,0.2-0.2,0.2c-0.1,0-0.2-0.1-0.2-0.2c0-0.1,0.1-0.2,0.2-0.2
		C47.2,15.6,47.3,15.6,47.3,15.7z"/>
	<path class="st11" d="M41.8,6.1c-0.1,0-0.2-0.1-0.2-0.2c0-0.1,0.1-0.2,0.2-0.2c0.1,0,0.2,0.1,0.2,0.2C41.9,6,41.9,6.1,41.8,6.1z"/>
	<path class="st10" d="M42.2,21c-0.2,0-0.3-0.2-0.5-0.3c0,0,0,0,0,0c0.2,0,0.3-0.2,0.5-0.2C42.4,20.7,42.2,20.8,42.2,21z"/>
	<path class="st9" d="M44.4,22.7c0.1,0,0.2,0.1,0.2,0.2c0,0.1-0.1,0.2-0.2,0.2c-0.1,0-0.2-0.1-0.2-0.2
		C44.2,22.8,44.3,22.7,44.4,22.7z"/>
	<path class="st11" d="M48.2,22.9c0,0.1-0.1,0.2-0.2,0.2c-0.1,0-0.2-0.1-0.2-0.2c0-0.1,0.1-0.2,0.2-0.2
		C48.1,22.7,48.2,22.8,48.2,22.9z"/>
	<path class="st8" d="M49.1,22.9c0,0.1-0.1,0.2-0.2,0.2c-0.1,0-0.2-0.1-0.1-0.2c0-0.1,0.1-0.2,0.2-0.2C49,22.7,49.1,22.8,49.1,22.9z
		"/>
	<path class="st9" d="M40.8,20c0.1,0.1,0.2,0.1,0.2,0.3c0,0.1-0.1,0.2-0.2,0.2c-0.1,0-0.2-0.1-0.2-0.2C40.7,20.1,40.8,20.1,40.8,20z
		"/>
	<path class="st11" d="M44.7,20.2c0,0.1-0.1,0.2-0.2,0.2c-0.1,0-0.2-0.1-0.2-0.2c0-0.1,0.1-0.2,0.2-0.2C44.6,20,44.6,20.1,44.7,20.2
		z"/>
	<path class="st8" d="M49.1,16.7c-0.1,0.1-0.1,0.2-0.2,0.2c-0.1,0-0.2-0.1-0.2-0.2c0-0.1,0.1-0.2,0.2-0.2
		C49,16.4,49.1,16.6,49.1,16.7z"/>
	<path class="st9" d="M48,20.4c-0.1-0.1-0.2-0.1-0.2-0.2c0-0.1,0.1-0.2,0.3-0.2c0.1,0,0.2,0.1,0.2,0.2C48.2,20.3,48.1,20.4,48,20.4z
		"/>
	<path class="st8" d="M43.8,19.3c-0.1,0.1-0.1,0.2-0.2,0.2c-0.1,0-0.2-0.1-0.2-0.2c0-0.1,0.1-0.2,0.2-0.2
		C43.7,19.1,43.7,19.2,43.8,19.3z"/>
	<path class="st0" d="M41.7,8.4c0.1,0,0.2,0,0.2,0.2c0,0.1,0,0.2-0.2,0.2c-0.1,0-0.2,0-0.2-0.2C41.6,8.6,41.6,8.4,41.7,8.4z"/>
	<path class="st8" d="M45.2,14.5c0.1,0,0.2,0,0.3,0c0,0,0,0,0,0.1c0,0,0,0,0,0C45.4,14.6,45.3,14.6,45.2,14.5
		C45.2,14.5,45.2,14.5,45.2,14.5z"/>
	<path class="st10" d="M43.5,10.9c0,0.1,0,0.1-0.1,0.2C43.4,11,43.4,11,43.5,10.9C43.4,10.9,43.4,10.9,43.5,10.9z"/>
	<path class="st10" d="M53.3,5.5c0,0-0.1,0.1-0.1,0.1c0,0,0-0.1,0-0.1C53.2,5.5,53.3,5.5,53.3,5.5z"/>
	<path class="st10" d="M50.8,7.2C50.8,7.2,50.8,7.2,50.8,7.2c0.1,0,0.1,0,0.1,0.1C50.8,7.3,50.8,7.3,50.8,7.2z"/>
	<path class="st12" d="M46.5,7.7c0-0.1-0.1-0.2-0.2-0.3c-0.2,0-0.3,0.1-0.3,0.2C46,7.9,46.1,8,46.2,8C46.4,8,46.4,7.9,46.5,7.7z
		 M49.2,8.6c0-0.1-0.1-0.2-0.3-0.2c-0.2,0-0.2,0.1-0.2,0.3c0,0.2,0.1,0.2,0.3,0.2C49.1,8.9,49.1,8.8,49.2,8.6z M48,8
		c0.2,0,0.3-0.1,0.2-0.3c0-0.1-0.1-0.2-0.3-0.2c-0.2,0-0.2,0.1-0.2,0.3C47.8,7.9,47.9,8,48,8z M45.4,10.7c0.1,0,0.2-0.1,0.2-0.3
		c0-0.2-0.1-0.2-0.3-0.2c-0.2,0-0.2,0.1-0.2,0.3C45.1,10.6,45.2,10.7,45.4,10.7z M49.2,10.4c0-0.1-0.1-0.2-0.3-0.2
		c-0.2,0-0.3,0-0.3,0.2c0,0.2,0.1,0.3,0.3,0.3C49.1,10.7,49.1,10.6,49.2,10.4z M46.2,11.1c-0.2,0-0.3,0.1-0.3,0.2
		c0,0.2,0.1,0.3,0.2,0.3c0.2,0,0.3-0.1,0.3-0.3C46.5,11.2,46.4,11.1,46.2,11.1z M45.6,8.6c0-0.1-0.1-0.2-0.3-0.2
		c-0.2,0-0.2,0.1-0.2,0.2c0,0.2,0.1,0.2,0.3,0.2C45.5,8.9,45.6,8.8,45.6,8.6z M48.3,11.3c0-0.1-0.1-0.2-0.3-0.2
		c-0.2,0-0.3,0.1-0.3,0.2c0,0.2,0.1,0.3,0.2,0.3C48.1,11.6,48.2,11.5,48.3,11.3z M47.1,11.5c0.1,0,0.2-0.1,0.2-0.2
		c0-0.1,0-0.2-0.2-0.2c-0.1,0-0.2,0.1-0.2,0.2C46.9,11.4,47,11.5,47.1,11.5z M45.3,9.3c-0.1,0-0.2,0.1-0.2,0.2c0,0.1,0,0.2,0.2,0.2
		c0.1,0,0.2-0.1,0.2-0.2C45.5,9.4,45.4,9.3,45.3,9.3z"/>
	<path class="st10" d="M53.8,19.3c0,0.2,0,0.3,0.2,0.4c0.1,0.1,0.1,0.1,0,0.2c-0.1,0.1-0.1,0.1-0.2,0c-0.2-0.3-0.5-0.3-0.8,0
		c-0.1,0.1-0.1,0-0.2,0c-0.1-0.1-0.1-0.1,0-0.2c0.1-0.3,0.3-0.5-0.1-0.8c-0.2-0.1,0.2-0.2,0.2-0.4c0.2,0.1,0.3,0.2,0.4,0.4
		c0,0.1-0.1,0.2-0.2,0.3c-0.1,0.2-0.1,0.3,0.1,0.5c0.1,0.1,0.3,0.1,0.4,0C53.7,19.5,53.7,19.4,53.8,19.3z"/>
	<path class="st8" d="M53.8,19.3c-0.1,0.1-0.1,0.2-0.2,0.3c-0.1,0.1-0.3,0.1-0.4,0c-0.2-0.1-0.2-0.3-0.1-0.5
		c0.1-0.1,0.2-0.1,0.2-0.3c0.1,0,0.1,0,0.2,0c0.1,0.2,0.2,0.3,0.3,0.3C53.8,19.2,53.8,19.3,53.8,19.3z"/>
	<path class="st8" d="M48.5,7C48.4,7,48.4,7,48.5,7c-0.2,0.2-0.4,0.4-0.7,0.2c-0.3-0.2-0.1-0.4,0-0.6c0.3-0.2,0.5,0.1,0.7,0.2
		C48.5,6.8,48.5,6.9,48.5,7z"/>
	<path class="st12" d="M54.7,9.4c-0.2,0-0.4-0.2-0.4-0.4c0-0.2,0.1-0.4,0.4-0.3c0.2,0,0.3,0.2,0.3,0.4C55,9.3,54.8,9.4,54.7,9.4z"/>
	<path class="st10" d="M56.4,8.8c0.3,0,0.3,0.1,0.3,0.3c0,0.2-0.1,0.3-0.3,0.3c-0.2,0-0.3-0.1-0.3-0.3C56.2,8.9,56.2,8.7,56.4,8.8z"
		/>
	<path class="st10" d="M54.8,21.8c0,0-0.1,0-0.1,0c-0.5-0.4-0.7-0.3-0.8,0.4c0-0.3,0-0.6-0.3-0.7c0.2-0.1,0.3-0.3,0.5,0
		c0.1,0.1,0.3,0.1,0.4,0c0.1-0.1,0.2-0.1,0.3,0C55,21.6,54.8,21.7,54.8,21.8z"/>
	<path class="st10" d="M55.6,2c0.2,0,0.3,0.1,0.4,0.3c0,0.2-0.1,0.3-0.3,0.3c-0.2,0-0.3-0.1-0.3-0.3C55.3,2.2,55.4,2.1,55.6,2z"/>
	<path class="st10" d="M55,4.2c-0.1,0.2-0.1,0.4-0.3,0.4c-0.2,0-0.3-0.1-0.3-0.3c0-0.2,0.1-0.3,0.3-0.3C54.8,3.9,54.9,4,55,4.2z"/>
	<path class="st10" d="M55.9,8.2c0,0.2-0.1,0.3-0.3,0.3c-0.2,0-0.3-0.1-0.3-0.3c0-0.2,0.1-0.3,0.3-0.3C55.8,7.9,55.9,8,55.9,8.2z"/>
	<path class="st10" d="M47.9,12.7c-0.5,0.3-0.2,0.6,0,0.9c-0.1,0-0.2,0.1-0.3,0.1c-0.1,0-0.3-0.1-0.2-0.2c0.3-0.3,0.2-0.6,0-0.9
		c0,0,0-0.1,0.1-0.2C47.7,12.5,47.7,12.7,47.9,12.7z"/>
	<path class="st12" d="M55.9,10c0,0.2-0.1,0.3-0.3,0.3c-0.2,0-0.3-0.2-0.3-0.3c0-0.2,0.1-0.3,0.3-0.3C55.8,9.7,55.9,9.8,55.9,10z"/>
	<path class="st8" d="M45.4,7.4c0.1,0.2,0.4,0.2,0.1,0.5c-0.1,0.1-0.2,0.2-0.4,0c-0.1-0.1-0.2-0.2-0.3,0c0-0.1,0-0.2,0-0.2
		C45.1,7.7,45.2,7.3,45.4,7.4z"/>
	<path class="st12" d="M55,7.3c-0.1,0.1-0.2,0.4-0.4,0.3c-0.1,0-0.3-0.2-0.3-0.3c0-0.2,0.2-0.3,0.3-0.3C54.8,6.9,54.9,7.1,55,7.3z"
		/>
	<path class="st10" d="M55.6,23.6c-0.2,0-0.3-0.1-0.3-0.3c0-0.2,0.2-0.3,0.3-0.3c0.1,0,0.3,0.1,0.3,0.3
		C55.8,23.5,55.8,23.6,55.6,23.6z"/>
	<path class="st10" d="M55.6,21.8c-0.2,0-0.3-0.2-0.3-0.3c0-0.2,0.1-0.3,0.3-0.3c0.2,0,0.3,0.2,0.3,0.3
		C55.8,21.7,55.8,21.8,55.6,21.8z"/>
	<path class="st8" d="M47.1,6.5c0.1,0.1,0.3,0.2,0.3,0.4c0,0.1-0.2,0.3-0.3,0.3c-0.1,0-0.2-0.1-0.3-0.2c-0.1-0.2,0-0.2,0.1-0.3
		C47,6.6,47,6.6,47.1,6.5C47.1,6.5,47.1,6.5,47.1,6.5z"/>
	<path class="st8" d="M49.2,7.8C49.1,7.9,49,8.2,48.8,8c-0.1-0.1-0.3-0.2-0.2-0.3c0-0.1,0.2-0.3,0.3-0.3c0.2-0.1,0.2,0.1,0.3,0.2
		C49.2,7.7,49.2,7.8,49.2,7.8z"/>
	<path class="st10" d="M55,5.1c-0.1,0.1-0.2,0.3-0.3,0.3c-0.2,0-0.3-0.2-0.3-0.3c0-0.1,0.2-0.3,0.3-0.3C54.9,4.8,54.9,4.9,55,5.1z"
		/>
	<path class="st10" d="M52.9,17.7c0.4,0.2,0.3,0.4,0,0.6C52.6,18.1,52.5,17.9,52.9,17.7z"/>
	<path class="st12" d="M55.9,3.3c-0.1,0.1-0.1,0.3-0.3,0.3c-0.2,0-0.3-0.1-0.3-0.3c0-0.2,0.1-0.3,0.3-0.3C55.7,3,55.8,3.1,55.9,3.3z
		"/>
	<path class="st10" d="M54.9,18c0,0.1-0.1,0.2-0.2,0.3c-0.2,0-0.3-0.1-0.3-0.2c0-0.2,0.1-0.3,0.2-0.3C54.8,17.7,54.9,17.8,54.9,18z"
		/>
	<path class="st12" d="M53.8,19.2c-0.2-0.1-0.3-0.2-0.3-0.3c0.2-0.3,0.5-0.3,0.7,0C54,19,53.9,19.1,53.8,19.2z"/>
	<path class="st10" d="M52,20.1c-0.2,0-0.3-0.2-0.5-0.2c0.1-0.2,0.4-0.2,0.5-0.4C52.4,19.7,52,19.9,52,20.1z"/>
	<path class="st10" d="M48.5,6.8c-0.2-0.1-0.4-0.4-0.7-0.2c0,0-0.1-0.1-0.1-0.1c0.3,0,0.6,0.2,0.7-0.2c0-0.1,0.1,0,0.1,0
		c0.1,0.1,0.1,0.1,0.1,0.2C48.5,6.6,48.5,6.7,48.5,6.8z"/>
	<path class="st10" d="M45.4,7.4c-0.3-0.1-0.3,0.3-0.5,0.2c0-0.1,0-0.2-0.1-0.2c-0.1-0.1-0.1-0.1,0-0.2c0.1-0.1,0.1-0.1,0.2,0
		C45.1,7.3,45.3,7.4,45.4,7.4C45.4,7.4,45.4,7.4,45.4,7.4z"/>
	<path class="st10" d="M48.5,14c0.1,0.1,0.2,0.3,0.3,0.4c-0.1,0-0.1,0.1-0.2,0.1c-0.1,0.1-0.2,0-0.3-0.1c-0.1-0.1,0-0.1,0-0.2
		C48.4,14.2,48.4,14.1,48.5,14z"/>
	<path class="st10" d="M47.5,21.2c-0.1,0.2,0.4,0.3,0.1,0.5c-0.2,0.2-0.3,0-0.3-0.1C47.1,21.4,47.5,21.4,47.5,21.2z"/>
	<path class="st10" d="M54.7,20.9c-0.1-0.1-0.3-0.1-0.2-0.3c0-0.1,0.1-0.3,0.3-0.2c0.1,0,0.3,0.1,0.2,0.3
		C54.9,20.8,54.8,20.8,54.7,20.9z"/>
	<path class="st10" d="M58.3,13.7c-0.1-0.1-0.2-0.1-0.2-0.2c0-0.1,0.1-0.3,0.2-0.3c0.1,0,0.3,0.1,0.2,0.3
		C58.5,13.6,58.4,13.7,58.3,13.7z"/>
	<path class="st6" d="M54.7,22.6c-0.2-0.2-0.4-0.1-0.7-0.2c0.3,0,0.5-0.1,0.7-0.3c0,0.2,0.2,0.1,0.3,0.3
		C54.9,22.5,54.8,22.6,54.7,22.6z"/>
	<path class="st10" d="M45.4,13.4c0.2,0,0.2-0.3,0.4-0.2c0,0.1,0.1,0.2,0.1,0.2c0,0.1,0.2,0.1,0,0.2c-0.1,0.1-0.2,0.1-0.3,0
		C45.6,13.5,45.5,13.5,45.4,13.4z"/>
	<path class="st10" d="M46.4,6.5C46.4,6.5,46.4,6.5,46.4,6.5c-0.4,0-0.6,0.1-0.6,0.5l0,0l0,0c0-0.2-0.1-0.3-0.1-0.4
		c-0.1-0.1,0-0.2,0-0.2c0.1-0.1,0.1,0,0.2,0C46,6.5,46.2,6.4,46.4,6.5z"/>
	<path class="st12" d="M44.9,21.3c0.2,0,0.3,0.2,0.3,0.3c-0.1,0-0.2,0.2-0.4,0.2C44.6,21.6,44.7,21.5,44.9,21.3z"/>
	<path class="st10" d="M56.5,7.5c-0.1,0-0.2,0-0.2-0.2c0-0.1,0-0.2,0.1-0.2c0.1,0,0.2,0,0.2,0.2C56.7,7.4,56.6,7.5,56.5,7.5z"/>
	<path class="st10" d="M56.7,2.4c0,0.1-0.1,0.2-0.2,0.2c-0.2,0-0.3-0.1-0.3-0.2c0-0.1,0.1-0.2,0.3-0.2C56.7,2.1,56.7,2.2,56.7,2.4z"
		/>
	<path class="st10" d="M49,20.6c0.1-0.1,0.2-0.2,0.3-0.2c-0.1,0.2,0.4,0.2,0.2,0.4C49.3,21,49.2,20.6,49,20.6z"/>
	<path class="st10" d="M56.5,18.2c-0.2,0-0.2-0.1-0.2-0.2c0-0.2,0.1-0.2,0.3-0.2c0.1,0,0.2,0.1,0.2,0.2
		C56.7,18.1,56.6,18.2,56.5,18.2z"/>
	<path class="st10" d="M50.6,20.7c-0.1,0.1-0.2,0.2-0.3,0.3c0-0.1-0.4-0.1-0.2-0.4C50.3,20.4,50.4,20.6,50.6,20.7z"/>
	<path class="st10" d="M49.8,19.6c0.1,0,0.2-0.1,0.2-0.2c0.2,0,0.2,0.1,0.2,0.2c0.1,0.1,0.2,0.1,0,0.2c-0.1,0.1-0.2,0-0.2-0.1
		C50,19.8,49.9,19.8,49.8,19.6z"/>
	<path class="st10" d="M57.6,21.6c0,0.1-0.1,0.2-0.3,0.2c-0.1,0-0.2-0.1-0.2-0.3c0-0.1,0.1-0.2,0.3-0.2
		C57.5,21.4,57.6,21.5,57.6,21.6z"/>
	<path class="st10" d="M41.8,16.1c0.1-0.1,0.2-0.2,0.3-0.3c0,0,0,0.1,0,0.1c0,0.1,0.3,0.3,0.1,0.4C42.1,16.4,41.9,16.3,41.8,16.1z"
		/>
	<path class="st10" d="M54.7,18.7c0.1,0,0.2,0.1,0.2,0.3c0,0.1-0.1,0.2-0.2,0.2c-0.2,0-0.2-0.1-0.2-0.2
		C54.5,18.7,54.6,18.7,54.7,18.7z"/>
	<path class="st10" d="M55.6,16.9c0.1,0,0.2,0.1,0.2,0.2c0,0.1-0.1,0.2-0.2,0.2c-0.1,0-0.2-0.1-0.2-0.2C55.4,17,55.5,16.9,55.6,16.9
		z"/>
	<path class="st10" d="M44,11.2c-0.2,0-0.3-0.1-0.3-0.3c0.1,0,0.1,0,0.2-0.1c0.1,0,0.1-0.2,0.3-0.1c0.2,0.1,0,0.2-0.1,0.3
		C44,11.1,44,11.1,44,11.2z"/>
	<path class="st10" d="M56.7,11.7c0,0.1-0.1,0.2-0.2,0.2c-0.1,0-0.2-0.1-0.2-0.2c0-0.1,0.1-0.2,0.2-0.2
		C56.6,11.5,56.6,11.6,56.7,11.7z"/>
	<path class="st10" d="M44.6,6.4c0-0.2,0.1-0.3,0.3-0.2c0,0.1,0.3,0.2,0.1,0.3C44.8,6.7,44.8,6.4,44.6,6.4z"/>
	<path class="st10" d="M42.5,18c-0.1,0.1-0.2,0.2-0.3,0.3c0-0.1-0.3-0.1-0.2-0.4C42.2,17.7,42.4,17.9,42.5,18z"/>
	<path class="st10" d="M54.2,20.7c-0.1,0.1-0.2,0.2-0.3,0.2c-0.1,0-0.2-0.1-0.2-0.2c0-0.1,0.1-0.3,0.2-0.3
		C54,20.4,54.1,20.6,54.2,20.7z"/>
	<path class="st10" d="M42.7,15.3c0.1-0.1,0.2-0.3,0.4-0.2c0,0.1,0.3,0.2,0.1,0.3C43,15.6,42.9,15.3,42.7,15.3z"/>
	<path class="st10" d="M50.6,8.2c-0.1,0.1-0.2,0.2-0.3,0.2c-0.1,0-0.2-0.1-0.2-0.2c0-0.1,0.1-0.2,0.2-0.1
		C50.4,8.1,50.4,8.2,50.6,8.2z"/>
	<path class="st10" d="M43.6,7.2c0.2,0,0.2-0.2,0.4-0.2c0.1,0.1,0.2,0.3,0,0.4C43.8,7.6,43.7,7.4,43.6,7.2z"/>
	<path class="st10" d="M44.9,12.1c-0.1-0.1-0.2-0.2-0.3-0.3c0,0,0.1,0,0.1,0c0.1,0,0.1-0.2,0.3-0.1c0.1,0.1,0,0.2,0,0.3
		C44.9,12,44.9,12.1,44.9,12.1z"/>
	<path class="st10" d="M50.6,10.9c-0.1,0.1-0.2,0.2-0.3,0.3c0-0.2-0.3-0.3-0.1-0.6C50.3,10.7,50.4,10.9,50.6,10.9z"/>
	<path class="st12" d="M56.5,20.5c-0.2-0.1-0.3-0.2-0.3-0.3c0-0.1,0.1-0.2,0.2-0.2c0.1,0,0.3,0.1,0.2,0.2
		C56.7,20.3,56.6,20.4,56.5,20.5z"/>
	<path class="st10" d="M45.2,14.5C45.2,14.5,45.2,14.5,45.2,14.5c-0.2,0.1-0.2,0.2-0.3,0.3c0-0.1-0.1-0.1-0.1-0.2
		c0-0.1-0.2-0.1-0.1-0.2c0.1-0.1,0.2,0,0.3,0C45.1,14.4,45.2,14.4,45.2,14.5z"/>
	<path class="st13" d="M56.2,17.1c0.1-0.1,0.1-0.2,0.3-0.2c0.1,0,0.3,0.1,0.2,0.2c0,0.1-0.1,0.2-0.2,0.2
		C56.4,17.3,56.3,17.2,56.2,17.1z"/>
	<path class="st12" d="M56.4,22.2c0.1,0,0.2,0.1,0.2,0.2c0,0.1-0.1,0.2-0.2,0.3c-0.1,0-0.2-0.1-0.3-0.2
		C56.2,22.3,56.4,22.2,56.4,22.2z"/>
	<path class="st14" d="M51.5,19.9c-0.1,0.1-0.3,0.1-0.4,0.2c0-0.1,0-0.1-0.1-0.2c0-0.1-0.2-0.2,0-0.3c0.1-0.1,0.2,0,0.3,0.1
		C51.4,19.8,51.5,19.8,51.5,19.9z"/>
	<path class="st14" d="M49.4,14.9c0.1,0.1,0.2,0.3,0.3,0.4c0,0-0.1,0.1-0.1,0.1c-0.1,0-0.1,0.2-0.3,0.1c-0.1-0.1,0-0.2,0-0.3
		C49.3,15,49.3,15,49.4,14.9z"/>
	<path class="st10" d="M58.3,3.6c0.1,0,0.2,0,0.2,0.2c0,0.1,0,0.2-0.2,0.2c-0.1,0-0.2-0.1-0.2-0.2C58.1,3.6,58.1,3.5,58.3,3.6z"/>
	<path class="st10" d="M55.6,6.6c0.1,0.1,0.2,0.1,0.2,0.2c0,0.1-0.1,0.2-0.2,0.2c-0.1,0-0.2-0.1-0.2-0.2C55.4,6.7,55.5,6.7,55.6,6.6
		z"/>
	<path class="st10" d="M56.9,4c0.1,0,0.2,0.1,0.2,0.2c0,0.1-0.1,0.2-0.2,0.2c-0.1,0-0.2-0.1-0.2-0.2C56.8,4.1,56.8,4,56.9,4z"/>
	<path class="st10" d="M42.2,18.5c0.1,0.2,0.3,0.2,0.3,0.5c-0.1,0-0.2,0.2-0.3,0C42,18.8,42.2,18.6,42.2,18.5z"/>
	<path class="st12" d="M57.4,12.5c0.1,0,0.2,0.1,0.2,0.2c0,0.1-0.1,0.2-0.2,0.2c-0.1,0-0.2-0.1-0.2-0.2
		C57.2,12.5,57.3,12.5,57.4,12.5z"/>
	<path class="st10" d="M56.5,11c-0.1,0-0.1-0.1-0.1-0.2c0-0.1,0.1-0.2,0.2-0.2c0.1,0,0.2,0.1,0.2,0.2C56.7,11,56.6,11,56.5,11z"/>
	<path class="st10" d="M58,9.5c0,0.1-0.1,0.2-0.2,0.2c-0.1,0-0.2-0.1-0.2-0.2c0-0.1,0.1-0.2,0.2-0.2C57.9,9.3,58,9.4,58,9.5z"/>
	<path class="st10" d="M55.8,19.7c0,0.1-0.1,0.2-0.2,0.2c-0.1,0-0.2-0.1-0.2-0.2c0-0.1,0-0.2,0.2-0.2C55.7,19.5,55.7,19.6,55.8,19.7
		z"/>
	<path class="st10" d="M55.6,20.8c-0.1,0-0.2-0.1-0.2-0.2c0-0.1,0.1-0.2,0.2-0.2c0.1,0,0.2,0.1,0.2,0.2
		C55.8,20.8,55.7,20.8,55.6,20.8z"/>
	<path class="st10" d="M44,9.3c-0.1,0-0.2-0.1-0.2-0.2c0-0.1,0.1-0.2,0.2-0.1c0.1,0,0.2,0.1,0.2,0.2C44.2,9.2,44.1,9.3,44,9.3z"/>
	<path class="st14" d="M54.8,17c0.1,0,0.1,0.1,0,0.2C54.7,17.2,54.7,17.1,54.8,17C54.7,17.1,54.7,17,54.8,17z"/>
	<path class="st14" d="M53.6,7.2C53.6,7.2,53.7,7.1,53.6,7.2C53.7,7.2,53.7,7.2,53.6,7.2C53.7,7.2,53.7,7.2,53.6,7.2z"/>
	<path class="st10" d="M55.7,27.5c0.1,0.1,0.1,0.1,0.2,0.2c0.1,0.1,0,0.1-0.1,0.1c-0.1,0.1-0.2,0.1-0.2,0.2c-0.1,0.1-0.2,0-0.3-0.1
		c-0.1-0.2,0.1-0.1,0.1-0.1C55.6,27.8,55.6,27.6,55.7,27.5z"/>
	<path class="st10" d="M52.6,27.8c0.1-0.1,0.1-0.1,0.2-0.2c0.1,0,0.1,0.1,0.2,0.2c0,0-0.1,0.1-0.1,0.1C52.8,28,52.7,27.9,52.6,27.8z
		"/>
	<path class="st0" d="M45.9,7c0-0.4,0.2-0.5,0.6-0.5c0.1,0.2,0.3,0.4,0,0.6C46.2,7.3,46,7.2,45.9,7z"/>
	<path class="st11" d="M46.5,7.7c0,0.2-0.1,0.3-0.3,0.2C46.1,8,46,7.9,46,7.7c0-0.2,0.1-0.2,0.3-0.2C46.4,7.5,46.5,7.6,46.5,7.7z"/>
	<path class="st9" d="M49.2,8.6c0,0.1-0.1,0.3-0.2,0.3c-0.1,0-0.3-0.1-0.3-0.2c0-0.2,0.1-0.2,0.2-0.3C49.1,8.4,49.1,8.5,49.2,8.6z"
		/>
	<path class="st9" d="M48,8c-0.1,0-0.3-0.1-0.3-0.2c0-0.2,0.1-0.2,0.2-0.3c0.2,0,0.3,0.1,0.3,0.2C48.3,7.9,48.2,8,48,8z"/>
	<path class="st8" d="M45.4,10.7c-0.2,0-0.3-0.1-0.3-0.2c0-0.2,0.1-0.3,0.2-0.3c0.2,0,0.3,0.1,0.3,0.2
		C45.6,10.6,45.5,10.6,45.4,10.7z"/>
	<path class="st8" d="M49.2,10.4c0,0.2-0.1,0.2-0.3,0.2c-0.2,0-0.3-0.1-0.3-0.3c0-0.2,0.1-0.2,0.3-0.2
		C49.1,10.2,49.1,10.3,49.2,10.4z"/>
	<path class="st8" d="M46.2,11.1c0.1,0,0.3,0.1,0.3,0.3c0,0.2-0.1,0.3-0.3,0.3c-0.1,0-0.2-0.1-0.2-0.3C46,11.1,46.1,11.1,46.2,11.1z
		"/>
	<path class="st8" d="M45.6,8.6c0,0.2-0.1,0.3-0.3,0.3c-0.1,0-0.3-0.1-0.3-0.2c0-0.2,0.1-0.2,0.2-0.2C45.5,8.4,45.5,8.5,45.6,8.6z"
		/>
	<path class="st8" d="M48.3,11.3c0,0.2-0.1,0.2-0.3,0.2c-0.1,0-0.2-0.1-0.2-0.3c0-0.2,0.1-0.2,0.3-0.2
		C48.2,11.1,48.2,11.2,48.3,11.3z"/>
	<path class="st9" d="M47.1,11.5c-0.2,0-0.2-0.1-0.2-0.2c0-0.1,0.1-0.2,0.2-0.2c0.2,0,0.2,0.1,0.2,0.2
		C47.3,11.4,47.3,11.5,47.1,11.5z"/>
	<path class="st11" d="M45.3,9.3c0.1,0,0.2,0.1,0.2,0.2c0,0.1-0.1,0.2-0.2,0.2c-0.1,0-0.2-0.1-0.2-0.2C45.2,9.4,45.2,9.3,45.3,9.3z"
		/>
</g>
</svg>
