<?xml version="1.0" encoding="utf-8"?>
<!-- Generator: Adobe Illustrator 21.1.0, SVG Export Plug-In . SVG Version: 6.00 Build 0)  -->
<svg version="1.1" id="Layer_1" xmlns="http://www.w3.org/2000/svg" xmlns:xlink="http://www.w3.org/1999/xlink" x="0px" y="0px"
	 viewBox="0 0 75.5 94.4" style="enable-background:new 0 0 75.5 94.4;" xml:space="preserve">
<style type="text/css">
	.st0{fill:#E00B19;}
</style>
<g>
	<path d="M2.3,48.2l2.4-3.4c0.5-0.7,1.1-1.2,1.7-1.3c0.6-0.1,1.2,0,1.9,0.5c0.7,0.5,1.1,1,1.2,1.7c0.1,0.7-0.1,1.4-0.7,2.3L7.9,49
		l2.5,1.7L9,52.8L2.3,48.2z M6.6,48.1l0.3-0.5c0.3-0.4,0.4-0.7,0.4-1c0-0.3-0.1-0.5-0.4-0.6c-0.2-0.1-0.4-0.2-0.7-0.2
		c-0.2,0-0.5,0.3-0.8,0.6L5.1,47L6.6,48.1z"/>
	<path d="M9.9,37.1l1.4-2.1l4,2.8c0.4,0.3,0.7,0.6,1,1c0.3,0.4,0.4,0.8,0.5,1.2c0.1,0.4,0.1,0.8,0,1.2c-0.1,0.5-0.4,1-0.8,1.6
		c-0.2,0.3-0.5,0.7-0.8,1c-0.3,0.4-0.6,0.6-0.9,0.8c-0.3,0.2-0.7,0.3-1.1,0.3c-0.4,0-0.8,0-1.1-0.1c-0.5-0.2-0.9-0.4-1.3-0.6l-4-2.8
		l1.4-2.1l4.1,2.8c0.4,0.3,0.7,0.3,1.1,0.3c0.3-0.1,0.6-0.3,0.9-0.6c0.2-0.4,0.3-0.7,0.3-1c-0.1-0.3-0.3-0.6-0.6-0.9L9.9,37.1z"/>
	<path d="M12.3,33.6l2.7-3.9c0.4-0.6,0.9-1,1.5-1.2c0.6-0.1,1.1,0,1.5,0.3c0.4,0.3,0.6,0.6,0.8,1.1c0.1,0.3,0.1,0.6-0.1,1
		c0.4-0.4,0.9-0.6,1.3-0.6c0.4,0,0.9,0.1,1.3,0.4c0.3,0.2,0.6,0.5,0.8,0.9c0.2,0.4,0.2,0.7,0.2,1.1c0,0.2-0.1,0.6-0.3,0.9
		c-0.3,0.5-0.4,0.8-0.5,1L19,38.2L12.3,33.6z M16.4,33.4l0.6-0.9c0.2-0.3,0.3-0.6,0.3-0.8c0-0.2-0.1-0.4-0.4-0.5
		C16.7,31,16.5,31,16.3,31c-0.2,0.1-0.4,0.2-0.6,0.5l-0.6,0.9L16.4,33.4z M19,35.2l0.7-1.1c0.2-0.4,0.4-0.7,0.3-0.9
		c0-0.2-0.1-0.4-0.4-0.6c-0.2-0.1-0.4-0.2-0.6-0.1c-0.2,0.1-0.5,0.3-0.7,0.6l-0.7,1L19,35.2z"/>
	<path d="M17.3,26.4l1.4-2.1l5,3.5l2.2-3.2l1.6,1.1L24,31L17.3,26.4z"/>
	<path d="M21.7,20.1l1.4-2.1l6.7,4.6l-1.4,2.1L21.7,20.1z"/>
	<path d="M31.2,14.8l1.8-1.4c0.4,0.5,0.7,1,0.9,1.5c0.2,0.5,0.2,1,0.1,1.5c-0.1,0.5-0.3,1.1-0.8,1.7c-0.5,0.7-1,1.2-1.5,1.6
		c-0.5,0.3-1.2,0.5-1.9,0.4c-0.8,0-1.6-0.3-2.4-0.9c-1.1-0.8-1.8-1.6-1.9-2.6c-0.2-1,0.1-2,0.8-3.1c0.6-0.8,1.2-1.4,1.9-1.6
		c0.7-0.2,1.4-0.2,2.3,0l-0.9,2.1c-0.2-0.1-0.4-0.1-0.6-0.1c-0.2,0-0.5,0.1-0.7,0.2s-0.4,0.3-0.5,0.5c-0.3,0.5-0.4,1-0.2,1.5
		c0.1,0.4,0.5,0.8,1.1,1.2c0.7,0.5,1.3,0.7,1.8,0.7c0.4,0,0.8-0.3,1.1-0.7c0.3-0.4,0.4-0.8,0.3-1.1C31.7,15.5,31.5,15.2,31.2,14.8z"
		/>
	<path d="M11.6,54.6l1.4-2.1l5,3.5l2.2-3.2l1.6,1.1l-3.7,5.3L11.6,54.6z"/>
	<path d="M16,48.3l1.4-2.1l6.7,4.6l-1.4,2.1L16,48.3z"/>
	<path d="M26.8,44.5l-1.6,2.3l0.9,1.1L24.7,50l-5-7.1l1.6-2.3l8.4,2.1l-1.5,2.2L26.8,44.5z M25.1,43.9L22.2,43l1.9,2.4L25.1,43.9z"
		/>
	<path d="M23.4,37.5l2.7-3.9c0.4-0.6,0.9-1,1.5-1.2c0.6-0.1,1.1,0,1.5,0.3c0.4,0.3,0.6,0.6,0.8,1.1c0.1,0.3,0.1,0.6-0.1,1
		c0.4-0.4,0.9-0.6,1.3-0.6c0.4,0,0.9,0.1,1.3,0.4c0.3,0.2,0.6,0.5,0.8,0.9c0.2,0.4,0.2,0.7,0.2,1.1c0,0.2-0.1,0.6-0.3,0.9
		c-0.3,0.5-0.4,0.8-0.5,1l-2.5,3.6L23.4,37.5z M27.5,37.2l0.6-0.9c0.2-0.3,0.3-0.6,0.3-0.8c0-0.2-0.1-0.4-0.4-0.5
		c-0.2-0.1-0.4-0.2-0.6-0.1c-0.2,0.1-0.4,0.2-0.6,0.5l-0.6,0.9L27.5,37.2z M30.1,39l0.7-1.1c0.2-0.4,0.4-0.7,0.3-0.9
		c0-0.2-0.1-0.4-0.4-0.6c-0.2-0.1-0.4-0.2-0.6-0.1c-0.2,0.1-0.5,0.3-0.7,0.6l-0.7,1L30.1,39z"/>
	<path d="M28.5,30.1l1.4-2.1l6.7,4.6l-1.4,2.1L28.5,30.1z"/>
	<path d="M31,26.6l1.4-2.1l5,3.5l2.2-3.2l1.6,1.1l-3.7,5.3L31,26.6z"/>
	<path d="M35.3,20.3l1.4-2.1l6.7,4.6L42,24.9L35.3,20.3z"/>
	<path d="M37.5,17.2l4.3-6.3l1.7,1.1L42,14.1l5,3.5l-1.4,2.1l-5-3.5l-1.5,2.1L37.5,17.2z"/>
	<path d="M42,10.6l1.6-2.3l3.2,0.2l-1.3-2.9L47,3.4l2.1,5.3l2.8,1.9l-1.4,2.1l-2.8-1.9L42,10.6z"/>
	<path d="M21,61l1.4-2.1l6.7,4.6l-1.4,2.1L21,61z"/>
	<path d="M23.5,57.4l1.3-1.9l5.4,0L26.5,53l1.3-1.9l6.7,4.6l-1.3,1.9l-5.4,0l3.7,2.5L30.2,62L23.5,57.4z"/>
	<path d="M33.1,53.1l1.2-2.1c0.3,0.2,0.7,0.3,0.9,0.2c0.4,0,0.8-0.2,1-0.6c0.2-0.3,0.3-0.6,0.3-0.8c0-0.3-0.1-0.4-0.3-0.6
		c-0.2-0.1-0.4-0.2-0.6-0.1c-0.2,0.1-0.6,0.3-1.1,0.8c-0.8,0.8-1.5,1.2-2.1,1.4c-0.6,0.2-1.2,0.1-1.7-0.3c-0.3-0.2-0.6-0.6-0.8-1
		c-0.2-0.4-0.2-0.9-0.1-1.4c0.1-0.5,0.4-1.1,0.9-1.8c0.6-0.9,1.2-1.4,1.8-1.6c0.6-0.2,1.3-0.1,2.1,0.2l-1.2,2
		c-0.3-0.2-0.6-0.2-0.9-0.1c-0.3,0.1-0.5,0.3-0.7,0.5c-0.2,0.2-0.2,0.5-0.2,0.6c0,0.2,0.1,0.3,0.2,0.4c0.1,0.1,0.2,0.1,0.4,0
		c0.2,0,0.4-0.2,0.7-0.5c0.8-0.8,1.5-1.3,1.9-1.5c0.5-0.3,0.9-0.4,1.3-0.3c0.4,0,0.8,0.2,1.2,0.4c0.4,0.3,0.7,0.7,0.9,1.2
		c0.2,0.5,0.2,1,0.1,1.6c-0.1,0.6-0.4,1.2-0.8,1.8c-0.8,1.1-1.5,1.8-2.3,1.9C34.5,53.6,33.8,53.5,33.1,53.1z"/>
	<path d="M36.5,38.5l1.4-2.1l4,2.8c0.4,0.3,0.7,0.6,1,1c0.3,0.4,0.4,0.8,0.5,1.2c0.1,0.4,0.1,0.8,0,1.2c-0.1,0.5-0.4,1-0.8,1.6
		c-0.2,0.3-0.5,0.7-0.8,1c-0.3,0.4-0.6,0.6-0.9,0.8c-0.3,0.2-0.7,0.3-1.1,0.3c-0.4,0-0.8,0-1.1-0.1c-0.5-0.2-0.9-0.4-1.3-0.6l-4-2.8
		l1.4-2.1l4.1,2.8c0.4,0.3,0.7,0.3,1.1,0.3c0.3-0.1,0.6-0.3,0.9-0.6c0.2-0.4,0.3-0.7,0.3-1c-0.1-0.3-0.3-0.6-0.6-0.9L36.5,38.5z"/>
	<path d="M45.6,39.7l-6.7-4.6l2.4-3.4c0.4-0.6,0.8-1.1,1.2-1.4c0.3-0.3,0.7-0.4,1.2-0.4c0.4,0,0.9,0.1,1.3,0.4
		c0.4,0.3,0.6,0.6,0.8,0.9c0.2,0.3,0.2,0.7,0.2,1.1c0,0.3-0.1,0.6-0.2,0.9c0.3-0.2,0.5-0.3,0.6-0.4c0.1,0,0.3-0.1,0.6-0.1
		c0.3,0,0.5,0,0.6,0l2.6,0.3l-1.6,2.3l-2.8-0.3c-0.4,0-0.6,0-0.8,0c-0.2,0.1-0.4,0.2-0.5,0.4l-0.1,0.2l2.7,1.9L45.6,39.7z M43,34.9
		l0.6-0.9c0.1-0.1,0.2-0.3,0.3-0.6c0.1-0.2,0.1-0.3,0-0.5c-0.1-0.2-0.2-0.3-0.3-0.4c-0.2-0.1-0.4-0.2-0.6-0.1
		c-0.2,0.1-0.4,0.3-0.7,0.7l-0.6,0.9L43,34.9z"/>
	<path d="M52.3,27.6l-1.6,2.3l0.9,1.1l-1.5,2.1l-5-7.1l1.6-2.3l8.4,2.1L53.6,28L52.3,27.6z M50.6,27l-2.9-0.9l1.9,2.4L50.6,27z"/>
	<path d="M48.9,20.6l1.3-1.9l5.4,0L52,16.1l1.3-1.9l6.7,4.6l-1.3,1.9l-5.4,0l3.7,2.5l-1.3,1.9L48.9,20.6z"/>
	<path d="M61.3,11.1l1.8-1.4c0.4,0.5,0.7,1,0.9,1.5c0.2,0.5,0.2,1,0.1,1.5c-0.1,0.5-0.3,1.1-0.8,1.7c-0.5,0.7-1,1.2-1.5,1.6
		c-0.5,0.3-1.2,0.5-1.9,0.4c-0.8,0-1.6-0.3-2.4-0.9c-1.1-0.8-1.8-1.6-1.9-2.6c-0.2-1,0.1-2,0.8-3.1c0.6-0.8,1.2-1.4,1.9-1.6
		c0.7-0.2,1.4-0.2,2.3,0l-0.9,2.1c-0.2-0.1-0.4-0.1-0.6-0.1c-0.2,0-0.5,0.1-0.7,0.2c-0.2,0.1-0.4,0.3-0.5,0.5
		c-0.3,0.5-0.4,1-0.2,1.5c0.1,0.4,0.5,0.8,1.1,1.2c0.7,0.5,1.3,0.7,1.8,0.7c0.4,0,0.8-0.3,1.1-0.7c0.3-0.4,0.4-0.8,0.3-1.1
		C61.9,11.8,61.7,11.5,61.3,11.1z"/>
	<path d="M59.3,5.5L63.1,0l1.4,1l-2.4,3.5l1.1,0.7L65.4,2l1.4,0.9l-2.2,3.2L65.9,7l2.5-3.6l1.5,1L66,10.2L59.3,5.5z"/>
</g>
<polygon class="st0" points="61.4,22.9 28.6,69.9 10.4,56.5 6.1,62.2 30.1,80 67.2,26.8 "/>
<polygon class="st0" points="69.7,28.3 31,84.1 4.3,64.7 0,70.1 32.7,94.4 75.5,32.1 "/>
</svg>
