<?xml version="1.0" encoding="utf-8"?>
<!-- Generator: Adobe Illustrator 21.1.0, SVG Export Plug-In . SVG Version: 6.00 Build 0)  -->
<svg version="1.1" id="Layer_1" xmlns="http://www.w3.org/2000/svg" xmlns:xlink="http://www.w3.org/1999/xlink" x="0px" y="0px"
	 viewBox="0 0 80.9 61.4" style="enable-background:new 0 0 80.9 61.4;" xml:space="preserve">
<style type="text/css">
	.st0{fill:#9E1E34;}
	.st1{fill:#FFFEFE;}
	.st2{fill:#FEFCFC;}
	.st3{fill:#FEFDFC;}
	.st4{fill:#FDFCFB;}
	.st5{fill:#1E2C3C;}
	.st6{fill:#828F26;}
	.st7{fill:#9E1F35;}
	.st8{fill:#335826;}
	.st9{fill:#202F3F;}
	.st10{fill:#1F2D3D;}
	.st11{fill:#202F3E;}
</style>
<path class="st0" d="M73.6,61.4c-22.2,0-44.3,0-66.5,0c-0.1-0.1-0.3-0.1-0.4-0.1c-3.8-0.7-6.7-4.1-6.7-8c0-15,0-30,0-45
	c0-0.5,0-1,0.1-1.5C0.8,2.9,4.2,0,8.1,0c21.5,0,43.1,0,64.6,0c3.5,0,6.6,2.2,7.7,5.5c0.2,0.5,0.3,1.1,0.4,1.6c0,15.7,0,31.4,0,47.1
	c-0.1,0-0.1,0.1-0.1,0.2c-0.6,3.2-2.5,5.4-5.6,6.5C74.7,61.2,74.2,61.2,73.6,61.4z M40.1,46.8C40.1,46.8,40.2,46.8,40.1,46.8
	c0.1-0.1,0.1-0.2,0.1-0.3c0.6-2.8,2.9-4.6,5.7-4.6c11.1,0,22.2,0,33.3,0c0.3,0,0.4-0.1,0.4-0.4c0-11,0-22.1,0-33.1c0-0.3,0-0.6,0-1
	c-0.4-3.5-3.4-6.2-6.8-6.2c-21.5,0-43,0-64.5,0c-0.4,0-0.8,0-1.2,0.1C3.8,1.9,1.3,4.8,1.3,8.1c0,11.1,0,22.2,0,33.4
	c0,0.5-0.1,0.4,0.4,0.4c10.9,0,21.8,0,32.7,0c2.6,0,4.9,1.8,5.6,4.3C40,46.4,40.1,46.6,40.1,46.8z M43,51.4C43,51.4,43,51.4,43,51.4
	c0.8,1.6,1.7,3,2.5,4.4c0.3,0.6,0.7,1,1.5,0.9c0.2,0,0.3-0.1,0.3-0.3c0-1.9,0-3.7,0-5.6c0-0.3,0.1-0.7-0.1-0.8c-0.2-0.1-0.5,0-0.8,0
	c-0.2,0-0.3,0-0.3,0.3c0,1.2,0,2.4,0,3.6c0,0.4,0,0.7,0.1,1.1c0,0-0.1,0-0.1-0.1c-0.6-1.4-1.5-2.7-2.2-4c-0.2-0.3-0.3-0.8-0.6-0.9
	c-0.3-0.2-0.8,0-1.1,0c-0.2,0-0.3,0.1-0.3,0.3c0,2.1,0,4.2,0,6.3c0,0.2,0,0.3,0.2,0.2c0.2,0,0.4,0,0.7,0c0.2,0,0.3-0.1,0.3-0.3
	C43,54.8,43.1,53.1,43,51.4z M54.2,53.3c0,1,0,2.1,0,3.1c0,0.2,0,0.3,0.3,0.3c0.8,0.1,1.6,0.1,2.4,0c1.2-0.2,2.3-0.6,2.8-1.9
	c0.3-0.6,0.3-1.2,0.3-1.9c0-1.5-1-2.7-2.5-3c-1-0.2-2-0.1-3.1,0c-0.2,0-0.2,0.1-0.2,0.3C54.2,51.2,54.2,52.3,54.2,53.3z M30,53.5
	c0.1,0,0.1,0,0.1-0.1c0.8-0.4,1.2-1.1,1.1-2c-0.1-0.8-0.6-1.3-1.5-1.5c-0.9-0.2-1.8-0.1-2.7,0c-0.2,0-0.3,0.1-0.3,0.3
	c0,1.3,0,2.6,0,4c0,0.7,0,1.5,0,2.2c0,0.2,0,0.3,0.2,0.3c0.2,0,0.5,0,0.7,0c0.2,0,0.3,0,0.3-0.3c0-0.7,0-1.5,0-2.2
	c0-0.1-0.1-0.2,0.1-0.2c1,0,1.4,0.1,1.7,1.1c0.1,0.5,0.2,1,0.4,1.5c0,0.2,0.1,0.2,0.3,0.2c0.3,0,0.7,0,1,0c-0.2-0.6-0.3-1.3-0.5-1.9
	C30.7,54.2,30.5,53.8,30,53.5z M38.1,56.7c0-0.1,0-0.2-0.1-0.2c-0.7-2.1-1.3-4.1-2-6.2c-0.1-0.3-0.2-0.4-0.5-0.4c-0.3,0-0.6,0-0.9,0
	c-0.2,0-0.3,0.1-0.4,0.3c-0.4,1.3-0.8,2.6-1.2,3.8c-0.3,0.9-0.6,1.8-0.9,2.7c0.4,0,0.7,0,1.1,0c0.2,0,0.3,0,0.3-0.2
	c0.1-0.5,0.3-1,0.4-1.5c0-0.2,0.1-0.2,0.3-0.2c0.6,0,1.1,0,1.7,0c0.2,0,0.2,0.1,0.3,0.2c0.2,0.5,0.3,1,0.5,1.5
	c0,0.1,0.1,0.2,0.3,0.2C37.3,56.7,37.7,56.7,38.1,56.7z M48.9,53.3c0,1,0,2.1,0,3.1c0,0.2,0.1,0.3,0.3,0.3c1,0,2.1,0,3.1,0
	c0.7,0,0.7,0,0.7-0.7c0-0.2-0.1-0.3-0.3-0.3c-0.8,0-1.6,0-2.4,0c-0.2,0-0.2,0-0.2-0.2c0-0.5,0-1,0-1.6c0-0.2,0.1-0.2,0.2-0.2
	c0.5,0,1.1,0,1.6,0c0.7,0,0.7,0,0.7-0.7c0-0.2-0.1-0.3-0.3-0.3c-0.7,0-1.4,0-2.1,0c-0.2,0-0.2,0-0.2-0.2c0-0.4,0-0.9,0-1.3
	c0-0.2,0-0.3,0.2-0.2c0.6,0,1.1,0,1.7,0c0.8,0,0.8,0,0.8-0.8c0-0.2-0.1-0.2-0.2-0.2c-1.2,0-2.3,0-3.5,0c-0.2,0-0.3,0.1-0.3,0.3
	C48.9,51.2,48.9,52.2,48.9,53.3z M23.8,53.8c0-0.9,0-1.7,0-2.6c0-0.2,0-0.3,0.3-0.3c0.3,0,0.6,0,0.9,0c0.8,0,0.8,0,0.8-0.8
	c0-0.2-0.1-0.3-0.3-0.3c-1.3,0-2.7,0-4,0c-0.8,0-0.8,0-0.8,0.8c0,0.2,0.1,0.2,0.2,0.2c0.5,0,0.9,0,1.4,0c0.3,0,0.4,0.1,0.4,0.4
	c0,1.7,0,3.4,0,5.1c0,0.2,0,0.3,0.3,0.3c0.2,0,0.5,0,0.7,0c0.2,0,0.2-0.1,0.2-0.2C23.8,55.6,23.8,54.7,23.8,53.8z M39.1,53.2
	c0,0.8,0,1.7,0,2.5c0,0.3-0.1,0.7,0,0.9c0.2,0.2,0.6,0,0.9,0.1c0.2,0,0.3,0,0.3-0.3c0-1.9,0-3.7,0-5.6c0-0.3,0.1-0.7,0-0.9
	c-0.2-0.2-0.6,0-0.9-0.1c-0.3,0-0.3,0.1-0.3,0.3C39.1,51.2,39.1,52.2,39.1,53.2z"/>
<path class="st1" d="M43,51.4c0.1,1.7,0,3.3,0.1,5c0,0.2,0,0.3-0.3,0.3c-0.2,0-0.4,0-0.7,0c-0.2,0-0.2-0.1-0.2-0.2
	c0-2.1,0-4.2,0-6.3c0-0.2,0-0.3,0.3-0.3c0.4,0,0.8-0.1,1.1,0c0.3,0.2,0.4,0.6,0.6,0.9c0.8,1.3,1.6,2.6,2.2,4c0,0,0,0,0.1,0.1
	c0-0.4-0.1-0.8-0.1-1.1c0-1.2,0-2.4,0-3.6c0-0.2,0.1-0.3,0.3-0.3c0.3,0,0.6-0.1,0.8,0c0.2,0.2,0.1,0.5,0.1,0.8c0,1.9,0,3.7,0,5.6
	c0,0.3-0.1,0.3-0.3,0.3c-0.8,0.1-1.1-0.2-1.5-0.9C44.7,54.4,43.7,53,43,51.4C43,51.4,43,51.4,43,51.4z"/>
<path class="st2" d="M54.2,53.3c0-1,0-2.1,0-3.1c0-0.2,0-0.2,0.2-0.3c1-0.1,2-0.2,3.1,0c1.5,0.3,2.5,1.5,2.5,3
	c0,0.7-0.1,1.3-0.3,1.9c-0.5,1.2-1.6,1.7-2.8,1.9c-0.8,0.1-1.6,0.1-2.4,0c-0.2,0-0.3-0.1-0.3-0.3C54.2,55.4,54.2,54.3,54.2,53.3z
	 M55.4,53.3c0,0.5,0,1,0,1.4c0,0.3-0.1,0.8,0.1,1c0.2,0.2,0.7,0.1,1,0c1-0.1,1.8-0.7,2-1.7c0.1-0.4,0.1-0.8,0.1-1.2
	c-0.1-1.1-0.7-1.8-1.8-2c-0.4-0.1-0.8-0.1-1.2,0c-0.2,0-0.3,0.1-0.3,0.3C55.4,51.8,55.4,52.6,55.4,53.3z"/>
<path class="st2" d="M30,53.5c0.6,0.3,0.8,0.8,0.9,1.3c0.2,0.6,0.3,1.3,0.5,1.9c-0.3,0-0.7,0-1,0c-0.2,0-0.3-0.1-0.3-0.2
	c-0.2-0.5-0.3-1-0.4-1.5c-0.3-1-0.7-1.1-1.7-1.1c-0.2,0-0.1,0.1-0.1,0.2c0,0.7,0,1.5,0,2.2c0,0.3-0.1,0.3-0.3,0.3
	c-0.2,0-0.5,0-0.7,0c-0.2,0-0.2-0.1-0.2-0.3c0-0.7,0-1.5,0-2.2c0-1.3,0-2.6,0-4c0-0.2,0.1-0.3,0.3-0.3c0.9-0.1,1.8-0.2,2.7,0
	c0.9,0.2,1.4,0.7,1.5,1.5c0.1,0.9-0.3,1.5-1.1,2C30.1,53.4,30,53.4,30,53.5z M27.9,51.9c0,0.3,0,0.6,0,0.9c0,0.1,0,0.2,0.1,0.2
	c0.5,0,1,0.1,1.4-0.2c0.4-0.3,0.6-0.7,0.5-1.1c0-0.4-0.3-0.7-0.8-0.8c-0.4-0.1-0.7-0.1-1.1,0c-0.2,0-0.2,0.1-0.2,0.2
	C27.9,51.3,27.9,51.6,27.9,51.9z"/>
<path class="st3" d="M38.1,56.7c-0.4,0-0.8,0-1.1,0c-0.2,0-0.2-0.1-0.3-0.2c-0.2-0.5-0.3-1-0.5-1.5c0-0.2-0.1-0.2-0.3-0.2
	c-0.6,0-1.1,0-1.7,0c-0.2,0-0.2,0.1-0.3,0.2c-0.1,0.5-0.3,1-0.4,1.5c0,0.2-0.1,0.2-0.3,0.2c-0.3,0-0.7,0-1.1,0
	c0.3-0.9,0.6-1.8,0.9-2.7c0.4-1.3,0.8-2.6,1.2-3.8c0.1-0.2,0.2-0.3,0.4-0.3c0.3,0,0.6,0,0.9,0c0.3,0,0.4,0.1,0.5,0.4
	c0.7,2.1,1.3,4.1,2,6.2C38.1,56.5,38.1,56.6,38.1,56.7z M35.1,50.9c-0.2,1-0.5,1.9-0.8,2.9c0.5,0,1,0,1.5,0c0.2,0,0.2,0,0.2-0.2
	C35.6,52.7,35.3,51.9,35.1,50.9z"/>
<path class="st3" d="M48.9,53.3c0-1,0-2.1,0-3.1c0-0.2,0-0.3,0.3-0.3c1.2,0,2.3,0,3.5,0c0.2,0,0.2,0,0.2,0.2c0,0.8,0,0.8-0.8,0.8
	c-0.6,0-1.1,0-1.7,0c-0.2,0-0.2,0.1-0.2,0.2c0,0.4,0,0.9,0,1.3c0,0.2,0.1,0.2,0.2,0.2c0.7,0,1.4,0,2.1,0c0.2,0,0.3,0,0.3,0.3
	c0,0.7,0,0.7-0.7,0.7c-0.5,0-1.1,0-1.6,0c-0.2,0-0.2,0-0.2,0.2c0,0.5,0,1,0,1.6c0,0.2,0.1,0.2,0.2,0.2c0.8,0,1.6,0,2.4,0
	c0.2,0,0.3,0.1,0.3,0.3c0,0.7,0,0.7-0.7,0.7c-1,0-2.1,0-3.1,0c-0.2,0-0.3-0.1-0.3-0.3C48.9,55.4,48.9,54.3,48.9,53.3z"/>
<path class="st4" d="M23.8,53.8c0,0.9,0,1.7,0,2.6c0,0.2,0,0.3-0.2,0.2c-0.2,0-0.5,0-0.7,0c-0.2,0-0.3-0.1-0.3-0.3
	c0-1.7,0-3.4,0-5.1c0-0.3-0.1-0.4-0.4-0.4c-0.5,0-0.9,0-1.4,0c-0.2,0-0.2,0-0.2-0.2c0-0.8,0-0.8,0.8-0.8c1.3,0,2.7,0,4,0
	c0.2,0,0.3,0,0.3,0.3c0,0.8,0,0.8-0.8,0.8c-0.3,0-0.6,0-0.9,0c-0.2,0-0.3,0.1-0.3,0.3C23.8,52.1,23.8,52.9,23.8,53.8z"/>
<path class="st4" d="M39.1,53.2c0-1,0-2,0-3.1c0-0.2,0-0.4,0.3-0.3c0.3,0,0.7-0.1,0.9,0.1c0.2,0.2,0,0.6,0,0.9c0,1.9,0,3.7,0,5.6
	c0,0.2-0.1,0.3-0.3,0.3c-0.3,0-0.7,0.1-0.9-0.1c-0.2-0.2,0-0.6,0-0.9C39.1,54.9,39.1,54.1,39.1,53.2z"/>
<path class="st5" d="M12.4,18.3c0.3,0.4,0.6,0.7,0.9,1.1c0.3,0.4,0.4,0.4,0.7,0c0.2-0.3,0.4-0.6,0.6-0.9c0.1-0.1,0.1-0.3,0.3-0.2
	c0.2,0.1,0.1,0.3,0,0.4c-0.1,0.5-0.3,1-0.5,1.5c-0.1,0.3,0,0.6,0.2,0.8c0.2,0.2,0.3,0.4,0.5,0.6c0.2,0.2,0.3,0.2,0.4-0.1
	c0.1-0.1,0.1-0.2,0.2-0.4c0.3-0.7,0.6-1.3,0.9-1.9c0.3-0.5,0.2-0.7-0.2-1.1c-0.6-0.6-1.2-1.1-1.8-1.7c-0.2-0.2-0.4-0.5-0.4-0.8
	c0-0.4-0.1-0.8-0.1-1.1c0-0.1-0.1-0.2,0.1-0.3c0.2,0,0.2,0.1,0.2,0.2c0.6,1.6,0.3,1.2,1.7,2.3c0.3,0.2,0.5,0.4,0.8,0.6
	c0.4,0.3,0.7,0.3,1.1-0.1c0.7-0.7,1.4-1.4,2.2-2.1c0.1-0.1,0.2-0.2,0.3-0.1c0.2,0.2,0,0.2-0.1,0.3c-0.9,1-1.6,2.2-2.3,3.4
	c-0.1,0.2-0.1,0.4,0,0.5c0.1,0.1,0.3,0.1,0.4,0c0.4-0.1,0.9-0.3,1.3-0.4c0.2-0.1,0.4-0.2,0.6-0.4c0.4-0.4,0.8-0.9,1.1-1.3
	c0.1-0.1,0.1-0.2,0.3-0.1c0.1,0.1,0,0.2,0,0.3c-0.2,0.4-0.4,0.7-0.5,1.1c-0.2,0.7-0.7,1-1.3,1.3c-0.2,0.1-0.4,0.2-0.7,0.3
	c-1.2,0.4-1.8,1.3-2,2.5c-0.2,1.3,0.1,2.5,0.5,3.8c0.5,1.5,1.2,2.9,2,4.3c0.4,0.6,0.9,1,1.5,1.3c0.8,0.4,1.5,0.8,2.2,1.3
	c0.6,0.4,1.4,0.4,2.1,0.5c1.1,0.1,2.3,0,3.4,0c1.5,0,2.8,0.3,4.2,0.8c0.6,0.2,1,0.5,1.3,1c0.1,0.2,0.3,0.5,0.4,0.7
	c0.1,0.1,0.1,0.2,0,0.3c-0.1,0.1-0.2,0-0.2-0.1c-0.7-0.9-1.7-1.2-2.7-1.5c-1.6-0.4-3.2-0.3-4.9-0.3c-1.2,0.1-2.4,0.1-3.5,0.1
	c-0.3,0-0.4-0.2-0.6-0.3c-0.4-0.3-0.9-0.2-1.4-0.2c-0.3,0-0.6,0.1-0.7-0.4c-0.1-0.2-0.3-0.2-0.5-0.2c-0.2,0-0.4,0-0.5-0.1
	c0,0-0.1,0-0.1,0c-0.4,0.2-0.9-0.1-1.3,0.1c-0.1,0.1-0.2,0.2-0.2,0.3c-0.2,0.3-0.4,0.4-0.7,0.1c-0.1-0.1-0.3-0.3-0.4-0.4
	c-0.1,0-0.1-0.1-0.2-0.1c-0.3,0.1-0.4-0.2-0.5-0.3c-0.2-0.1-0.3-0.2-0.5-0.1c-0.2,0.1-0.5,0.1-0.7,0.1c-0.1,0-0.2,0-0.2,0
	c-0.3,0.3-0.7,0.2-1.1,0.2c-1.1-0.2-2.1-0.1-3.1,0.2c-0.5,0.2-1,0.1-1.5,0.1c-0.7,0-1.3,0-2,0c-0.1,0-0.3,0-0.3-0.2
	c0-0.2,0.2-0.1,0.2-0.2c0.6-0.1,1.3-0.3,1.9-0.4c0.5-0.1,0.8-0.4,1.2-0.5c0.5-0.1,1-0.3,1.5-0.4c1.7-0.4,2.6-1.5,3.2-3
	c1-2.8-0.4-6.5-2.7-7.8c-0.4-0.3-0.8-0.6-1.3-0.8c-0.1,0-0.3,0-0.1-0.2c0.1-0.1,0.1-0.4,0.4-0.2c0.5,0.3,1,0.6,1.5,0.9
	c0.2,0.1,0.5,0.2,0.7,0.3c0.1,0,0.2,0.1,0.3,0c0.1-0.1,0-0.2-0.1-0.3c-0.4-0.6-0.8-1.2-1.2-1.8c-0.1-0.2-0.2-0.4-0.3-0.5
	C12.2,18.5,12.2,18.4,12.4,18.3z"/>
<path class="st6" d="M14.2,9.2c0-2.9,2.3-5.3,5.3-5.3c2.9,0,5.2,2.4,5.2,5.3c0,2.9-2.4,5.2-5.3,5.2C16.6,14.5,14.2,12.1,14.2,9.2z"
	/>
<path class="st0" d="M47.8,27.6c0-0.1,0-0.2,0-0.3c0-1.7,0-3.4,0-5.1c0-0.3,0.1-0.3,0.3-0.4c0.3,0,0.6,0,0.9,0
	c0.7,0.1,0.9,0.4,0.9,1.1c0,1.6,0,3.1,0,4.7c0,1.1,0,2.2,0,3.3c0,0.3-0.1,0.4-0.4,0.4c-0.4,0-0.7,0-1.1,0c-0.3,0-0.6-0.1-0.7-0.4
	c-1.1-1.7-2.3-3.3-3.5-5c0,0,0,0-0.1,0c-0.1,0.1,0,0.2,0,0.3c0,1.6,0,3.1,0,4.7c0,0.4,0,0.5-0.4,0.5c-0.5,0-0.9,0-1.4,0
	c-0.2,0-0.3-0.1-0.3-0.4c0-2.9,0-5.8,0-8.8c0-0.2,0-0.3,0.2-0.3c0.1,0,0.2,0,0.3,0c0.8-0.1,1.5,0.1,1.9,0.9c1,1.5,2,3,3,4.5
	C47.5,27.4,47.6,27.5,47.8,27.6C47.7,27.6,47.8,27.6,47.8,27.6z"/>
<path class="st7" d="M64.3,27.4c0.6,0.4,0.9,1,1.2,1.6c0.4,0.7,0.8,1.3,1.2,2c0.1,0.1,0.1,0.2-0.1,0.3c-0.4,0.1-0.9,0.2-1.3,0.2
	c-0.6,0-1-0.4-1.3-0.8c-0.4-0.5-0.7-1.1-1-1.7c-0.1-0.2-0.3-0.4-0.4-0.6c-0.1-0.2-0.3-0.3-0.6-0.4c-0.3-0.1-0.4-0.1-0.4,0.3
	c0,0.9,0,1.8,0,2.7c0,0.3-0.1,0.4-0.4,0.4c-0.5,0-1,0-1.6,0c-0.2,0-0.3-0.1-0.3-0.3c0-3,0-5.9,0-8.9c0-0.1,0-0.2,0.2-0.2
	c1.4,0,2.8-0.1,4.2,0.1c1,0.1,1.9,0.5,2.3,1.6c0.6,1.5,0.1,3.2-1.5,3.8C64.4,27.4,64.4,27.4,64.3,27.4z M61.5,24.8
	c0,0.4,0,0.8,0,1.2c0,0.1,0,0.2,0.2,0.2c0.4,0,0.7,0,1.1,0c0.7-0.1,0.9-0.4,1.1-1c0.2-0.8-0.1-1.4-0.8-1.6c-0.5-0.1-0.9-0.1-1.4-0.1
	c-0.2,0-0.2,0.1-0.2,0.2C61.5,24.1,61.5,24.5,61.5,24.8z"/>
<path class="st8" d="M9.3,15.5c-2.2,0-3.9-1.7-3.9-3.9c0-2.2,1.7-3.9,3.9-3.9c2.2,0,3.9,1.8,3.9,3.9C13.2,13.8,11.5,15.5,9.3,15.5z"
	/>
<path class="st8" d="M26.8,12.6c2.2,0,3.9,1.7,3.9,3.9c0,2.2-1.7,3.9-3.9,3.9c-2.2,0-3.9-1.7-3.9-3.9C22.9,14.3,24.7,12.6,26.8,12.6
	z"/>
<path class="st7" d="M37,29.1c-0.4,0-0.9,0-1.3,0c-0.2,0-0.2,0-0.3,0.2c-0.2,0.5-0.4,1.1-0.5,1.6c-0.1,0.3-0.2,0.4-0.5,0.4
	c-0.4,0.1-0.8,0.1-1.2,0c-0.3,0-0.4-0.1-0.3-0.5c0.1-0.4,0.3-0.9,0.4-1.3c0.8-2.4,1.5-4.8,2.3-7.2c0.1-0.2,0.2-0.3,0.4-0.4
	c0.6-0.2,1.1-0.2,1.7-0.1c0.5,0.1,0.7,0.4,0.9,0.8c0.4,0.9,0.7,1.8,1,2.8c0.6,1.9,1.2,3.7,1.8,5.6c0.1,0.3,0,0.3-0.2,0.3
	c-0.4,0-0.9,0-1.3,0c-0.3,0-0.5-0.1-0.5-0.4c-0.2-0.5-0.4-1.1-0.6-1.6c-0.1-0.2-0.1-0.3-0.4-0.3C37.8,29.1,37.4,29.1,37,29.1z
	 M37,24.2c-0.4,1.1-0.7,2.1-1,3c-0.1,0.2,0.1,0.1,0.2,0.2c0.5,0,1.1,0,1.6,0c0.2,0,0.2,0,0.2-0.2C37.6,26.3,37.3,25.3,37,24.2z"/>
<path class="st7" d="M71.5,29.1c-0.4,0-0.8,0-1.2,0c-0.2,0-0.3,0-0.3,0.2c-0.2,0.5-0.4,1-0.5,1.5c-0.1,0.3-0.3,0.4-0.6,0.5
	c-0.3,0-0.7,0-1,0c-0.5,0-0.5-0.1-0.4-0.6c0.2-0.6,0.4-1.2,0.6-1.7c0.7-2.2,1.4-4.4,2.1-6.7c0.1-0.2,0.2-0.3,0.4-0.4
	c0.5-0.1,1.1-0.1,1.6-0.1c0.5,0.1,0.7,0.4,0.9,0.8c0.3,0.8,0.6,1.7,0.9,2.5c0.6,1.9,1.3,3.9,1.9,5.8c0.1,0.3,0,0.3-0.2,0.4
	c-0.4,0-0.8,0-1.2,0c-0.4,0-0.6-0.2-0.7-0.5c-0.2-0.5-0.4-1-0.5-1.5c-0.1-0.2-0.1-0.2-0.3-0.2C72.4,29.1,71.9,29.1,71.5,29.1z
	 M72.5,27.4c-0.3-1-0.7-2.1-1-3.1c-0.2,0.4-0.3,0.8-0.5,1.3c-0.2,0.5-0.4,1.1-0.5,1.6c0,0.1-0.1,0.2,0.1,0.2
	C71.3,27.4,71.9,27.4,72.5,27.4z"/>
<path class="st7" d="M55.7,27.4c0,1.1,0,2.2,0,3.3c0,0.5-0.1,0.6-0.6,0.6c-0.4,0-0.9,0-1.3,0c-0.2,0-0.4-0.1-0.4-0.3
	c0-0.1,0-0.3,0-0.4c0-2.2,0-4.3,0-6.5c0-0.3-0.1-0.3-0.3-0.3c-0.8,0-1.6,0-2.3,0c-0.2,0-0.2,0-0.3-0.2c-0.1-0.9,0.3-1.7,1.4-1.7
	c2.1,0,4.3,0,6.4,0c0.3,0,0.4,0.1,0.4,0.3c0,0.2,0,0.4,0,0.7c-0.1,0.5-0.5,0.9-1.2,0.9c-0.5,0-0.9,0-1.4,0c-0.3,0-0.4,0-0.3,0.3
	C55.7,25.2,55.7,26.3,55.7,27.4z"/>
<path class="st7" d="M25.9,26.6c0-1.5,0-2.9,0-4.4c0-0.2,0-0.3,0.2-0.3c0.3,0,0.7-0.1,1,0c0.7,0.1,1,0.5,1,1.2c0,1.3,0,2.6,0,3.9
	c0,0.6,0,1.3,0,1.9c0,0.4,0,0.4,0.4,0.4c0.8,0,1.7,0,2.5,0c0.7,0,1,0.4,1,1.1c0,0.9,0,0.9-0.8,0.9c-1.6,0-3.2,0-4.8,0
	c-0.6,0-0.6,0-0.6-0.6C25.9,29.4,25.9,28,25.9,26.6z"/>
<path class="st6" d="M4.6,19.2c0-1.5,1.3-2.7,2.8-2.7c1.5,0,2.7,1.3,2.7,2.8c0,1.5-1.2,2.7-2.8,2.7C5.8,21.9,4.6,20.7,4.6,19.2z"/>
<path class="st9" d="M55,34.1c-0.3,1.5-0.8,2.9-1.1,4.3c0,0.2-0.1,0.2-0.3,0.2c-0.1,0-0.2,0-0.3,0c-0.2,0-0.3-0.1-0.3-0.2
	c-0.3-1.3-0.7-2.6-1-3.9c-0.1-0.4-0.2-0.8-0.3-1.1c0-0.1,0-0.2,0.1-0.2c0,0,0,0,0.1,0c0.5,0,0.5,0,0.7,0.5c0.3,1.3,0.6,2.6,0.9,3.8
	c0,0,0,0.1,0.1,0.2c0.3-1.5,0.7-2.8,1.1-4.2c0.1-0.2,0.1-0.3,0.4-0.3c0.5,0,0.5,0,0.6,0.5c0.3,1.3,0.7,2.6,0.9,3.9c0,0,0,0,0.1,0.1
	c0.1-0.6,0.3-1.1,0.4-1.6c0.2-0.9,0.5-1.7,0.7-2.6c0-0.2,0.6-0.4,0.7-0.2c0.1,0.1,0,0.2,0,0.3c-0.4,1.4-0.8,2.8-1.2,4.1
	c-0.1,0.2-0.2,0.5-0.2,0.7c0,0.3-0.2,0.4-0.5,0.4c-0.3,0-0.4-0.1-0.5-0.4C55.6,36.9,55.2,35.5,55,34.1z"/>
<path class="st10" d="M67.9,35.9c0-0.8,0-1.7,0-2.5c0-0.1,0-0.2,0.2-0.3c0.9-0.1,1.7-0.2,2.6,0.1c1,0.3,1.7,1.1,1.7,2.2
	c0,0.4,0,0.8-0.1,1.2c-0.3,1.2-1.2,1.9-2.6,2.1c-0.5,0-1.1,0-1.6,0c-0.2,0-0.2-0.1-0.2-0.3C67.9,37.5,67.9,36.7,67.9,35.9z
	 M68.6,35.9c0,0.5,0,1,0,1.4c0,0.8,0,0.8,0.8,0.8c1.1-0.1,1.8-0.5,2.1-1.4c0.1-0.4,0.2-0.8,0.1-1.2c-0.1-1-0.6-1.6-1.5-1.8
	c-0.4-0.1-0.8-0.1-1.3,0c-0.2,0-0.2,0.1-0.2,0.3C68.6,34.6,68.6,35.2,68.6,35.9z"/>
<path class="st10" d="M66,36c0.4,0.2,0.6,0.6,0.7,1c0.1,0.5,0.2,1.1,0.4,1.6c0,0-0.1,0-0.1,0c-0.7,0-0.7,0-0.8-0.7
	c-0.1-0.3-0.1-0.6-0.2-0.9c-0.2-0.6-0.5-0.8-1.1-0.8c-0.6,0-0.6,0-0.6,0.6c0,0.5,0,1,0,1.5c0,0.2-0.1,0.3-0.3,0.3
	c-0.1,0-0.1,0-0.2,0c-0.3,0.1-0.3-0.1-0.3-0.3c0-0.6,0-1.3,0-1.9c0-1,0-2,0-3c0-0.1,0-0.3,0.2-0.3c0.6-0.1,1.3-0.1,1.9,0
	c0.8,0.1,1.2,0.5,1.3,1.2c0.1,0.7-0.2,1.3-0.8,1.6C66,35.9,66,35.9,66,36z M64.2,34.7c0,0.3,0,0.5,0,0.8c0,0.2,0,0.2,0.2,0.2
	c0.3,0,0.6,0,0.8,0c0.5-0.1,0.9-0.5,0.9-1c0-0.5-0.3-0.9-0.8-1c-0.3-0.1-0.6,0-0.9,0c-0.2,0-0.2,0.1-0.2,0.3
	C64.2,34.1,64.2,34.4,64.2,34.7z"/>
<path class="st11" d="M51.8,38.6c-0.8,0-0.8,0-1-0.6c-0.1-0.3-0.2-0.6-0.3-0.9c0-0.2-0.1-0.2-0.3-0.2c-0.5,0-1,0-1.5,0
	c-0.2,0-0.2,0.1-0.3,0.2c-0.1,0.4-0.3,0.8-0.4,1.2c-0.1,0.3-0.2,0.4-0.4,0.3c-0.1,0-0.2,0-0.4,0c0.2-0.5,0.4-1,0.5-1.6
	c0.4-1.2,0.8-2.4,1.2-3.6c0.1-0.2,0.2-0.3,0.4-0.3c0.6,0,0.6,0,0.7,0.5c0.5,1.6,1.1,3.1,1.6,4.7C51.7,38.4,51.7,38.5,51.8,38.6z
	 M48.6,36.3c0.5,0,1.1,0,1.6,0c-0.3-0.8-0.5-1.6-0.8-2.5C49.2,34.7,48.9,35.5,48.6,36.3z"/>
<path class="st11" d="M62.7,38.6c-0.8,0-0.8,0-1-0.6c-0.1-0.3-0.2-0.6-0.3-0.9c0-0.2-0.1-0.2-0.3-0.2c-0.5,0-1,0-1.6,0
	c-0.1,0-0.2,0.1-0.2,0.2c-0.1,0.4-0.3,0.8-0.4,1.2c-0.1,0.2-0.2,0.4-0.4,0.3c-0.1,0-0.2,0-0.4,0c0.2-0.5,0.3-1,0.5-1.5
	c0.4-1.3,0.9-2.5,1.3-3.8c0.1-0.2,0.1-0.2,0.3-0.2c0.6,0,0.6,0,0.8,0.6C61.6,35.3,62.2,36.9,62.7,38.6z M61.2,36.3
	c-0.3-0.8-0.6-1.6-0.8-2.5c-0.2,0.9-0.5,1.7-0.8,2.5C60.1,36.3,60.7,36.3,61.2,36.3z"/>
<path class="st9" d="M75,33c0.3,0,0.6,0.1,0.9,0.2c0.4,0.1,0,0.3,0,0.5c0,0.2-0.1,0.1-0.3,0.1c-0.4-0.1-0.7-0.2-1.1-0.1
	c-0.4,0.1-0.7,0.3-0.7,0.6c-0.1,0.3,0.1,0.6,0.4,0.9c0.2,0.1,0.4,0.2,0.7,0.3c0.3,0.1,0.5,0.2,0.7,0.4c0.5,0.3,0.7,0.8,0.7,1.4
	c-0.1,0.6-0.4,1-0.9,1.2c-0.7,0.3-1.5,0.3-2.2-0.1c-0.4-0.2,0-0.4,0-0.6c0-0.2,0.2,0,0.3,0c0.5,0.2,1,0.3,1.5,0.1
	c0.3-0.1,0.5-0.3,0.6-0.7c0.1-0.3-0.1-0.6-0.3-0.9c-0.2-0.2-0.5-0.3-0.7-0.4c-0.3-0.1-0.5-0.2-0.8-0.4c-0.9-0.7-0.8-2,0.3-2.4
	C74.3,33.1,74.7,33,75,33z"/>
<path class="st0" d="M55.4,53.3c0-0.7,0-1.5,0-2.2c0-0.2,0.1-0.3,0.3-0.3c0.4,0,0.8-0.1,1.2,0c1.1,0.2,1.7,0.9,1.8,2
	c0,0.4,0,0.8-0.1,1.2c-0.3,1-1,1.6-2,1.7c-0.4,0-0.8,0.1-1,0c-0.2-0.2-0.1-0.6-0.1-1C55.4,54.3,55.4,53.8,55.4,53.3z"/>
<path class="st7" d="M27.9,51.9c0-0.3,0-0.6,0-0.9c0-0.1,0-0.2,0.2-0.2c0.4,0,0.7-0.1,1.1,0c0.4,0.1,0.7,0.4,0.8,0.8
	c0,0.5-0.1,0.9-0.5,1.1C29,53.1,28.5,53,28,53c-0.1,0-0.1-0.1-0.1-0.2C27.9,52.5,27.9,52.2,27.9,51.9z"/>
<path class="st7" d="M35.1,50.9c0.2,0.9,0.5,1.8,0.8,2.7c0.1,0.2,0,0.2-0.2,0.2c-0.5,0-1,0-1.5,0C34.5,52.8,34.8,51.9,35.1,50.9z"/>
</svg>
