<?xml version="1.0" encoding="utf-8"?>
<!-- Generator: Adobe Illustrator 21.1.0, SVG Export Plug-In . SVG Version: 6.00 Build 0)  -->
<svg version="1.1" id="Layer_1" xmlns="http://www.w3.org/2000/svg" xmlns:xlink="http://www.w3.org/1999/xlink" x="0px" y="0px"
	 viewBox="0 0 34 81.7" style="enable-background:new 0 0 34 81.7;" xml:space="preserve">
<style type="text/css">
	.st0{fill:#878787;}
</style>
<g>
	<path class="st0" d="M22.9,42.9c0,0-4.4,3.5-6.2,4.8l-0.1-1.6L22.9,42.9z M16.9,52.8l0.1,2c1.2-0.8,9.2-7.1,9.2-7.1L16.9,52.8z
		 M18.3,14l-0.1,0.4L18,14.8c0,0,0,0,0,0c1.2-0.7,2.3-1.4,2.3-1.4L18.3,14z M14,47.6v-2.1l-8.1-7.2C5.9,38.4,13,46.4,14,47.6z
		 M16.8,14.3l0.4-0.9l-1.9-2.6C15.2,10.8,16.2,13,16.8,14.3C16.7,14.4,16.8,14.3,16.8,14.3z M14,54.5v-2.1l-8.1-6.9
		C5.9,45.5,12.6,53.2,14,54.5z M14.5,23.4c-1.6-0.2-3.8-2.7-3.8-2.7l3.6,4.4c0,0,0,0,0,0C14.3,25,14.5,23.4,14.5,23.4z"/>
	<path d="M29.3,0.2c-0.2-0.3-0.4-0.3-0.9-0.1C18.9,4.1,0,15.1,0,39.3c0,15.5,6.7,23,14,24.7l0,7l-0.1,10.2c0,0.2,0.2,0.4,0.4,0.4
		h2.7c0.2,0,0.4-0.2,0.4-0.4l-0.2-16.8c0,0,0,0,0.1,0c9.3,0,16.7-3.9,16.7-14.3c0-8.6-4.7-11.5-12.8-14.4c2-0.3,3.2-1.4,3.2-3.3v0
		c0-1.7-1-2.5-2.4-3c0.9-0.5,1.7-1.3,1.7-2.7v0c0-0.8-0.3-1.5-0.8-2c-0.7-0.7-1.8-1.1-3.2-1.1h-3.2c0.2-2,0.4-3.8,0.8-5.5
		c2.8,0.1,4.5,1,6.3,2.7c0.3,0.2,0.4,0.2,0.5,0.1c0.1-0.1,0-0.3,0-0.4C18,8.3,29.1,1.2,29.1,1.1C29.2,1.1,29.7,0.8,29.3,0.2z
		 M19.4,25.7c1.4,0,1.9,0.6,1.9,1.3l0,0c0,0.9-0.6,1.4-2,1.4h-3.1c0-1.1,0.1-1.6,0.1-2.7H19.4z M25.4,3.1
		c-6.9,6.3-4.6,13.5-4.6,13.5S20,16.3,19.3,16c-0.5-0.2-1-0.3-1.5-0.4c0.1-0.3,0.2-0.6,0.2-0.9l0.1-0.4l0.1-0.4
		c1.1-3.6,2.5-6.2,4-8.2l0,0c-1.8,1.9-3.6,4.3-5.1,7.6l-0.4,1c-0.2,0.4-0.3,0.8-0.5,1.2c-0.5,0-1.4,0.1-2.6,0.3
		c-2.7,0.5-4.4,2-4.4,2S12.4,10.2,25.4,3.1z M14,59.7C2.9,56,1.2,37.5,5.8,24.3c0,0-2,7.8,8.2,12.5V59.7z M15.3,18.9
		c0,0.1-0.1,0.2-0.1,0.3c-0.1,0.3-0.2,0.7-0.2,1c-0.1,0.3-0.1,0.7-0.2,1.1c0,0.2-0.1,0.5-0.1,0.7c-0.1,0.4-0.1,0.8-0.2,1.2L14.3,25
		c0,0,0,0,0,0c-0.1,0.6-0.1,1.2-0.1,1.8c0,0.3,0,0.6-0.1,0.9c0,0.2,0,0.4,0,0.5c-0.1,2.7-0.1,4.7-0.1,4.7s-7.4-3.8-5.3-10.3
		c1.3-4.2,6.7-4.6,6.9-4.6C15.4,18.3,15.4,18.6,15.3,18.9z M16.2,33.9c0-1.3,0-2.1,0-3.1h3.6c1.7,0,2.2,0.9,2.2,1.4v0
		c0,0.9-0.6,1.7-2.1,1.7L16.2,33.9C16.2,33.9,16.2,33.9,16.2,33.9z M17.1,60.4l-0.8-22.6c0.7,0.3,1.5,0.5,2.3,0.7
		C26.3,40.7,30,44.2,30,50c0,4.3-2,10.4-11.6,10.4C17.9,60.4,17.5,60.4,17.1,60.4z"/>
</g>
</svg>
