<?xml version="1.0" encoding="utf-8"?>
<!-- Generator: Adobe Illustrator 21.1.0, SVG Export Plug-In . SVG Version: 6.00 Build 0)  -->
<svg version="1.1" id="Layer_1" xmlns="http://www.w3.org/2000/svg" xmlns:xlink="http://www.w3.org/1999/xlink" x="0px" y="0px"
	 viewBox="0 0 90 90" style="enable-background:new 0 0 90 90;" xml:space="preserve">
<style type="text/css">
	.st0{fill:#0D8D96;}
</style>
<g>
	<g transform="translate(-342.000000, -820.000000)">
		<g transform="translate(342.000000, 819.000000)">
			<path class="st0" d="M43.5,88.5c-0.1,0-0.1,0-0.2,0c-0.5-0.1-0.9-0.6-0.8-1.2c1.9-9.3,1.3-27.9-4.9-37.2
				c-0.3-0.5-0.2-1.1,0.3-1.4s1.1-0.2,1.4,0.3c6.5,9.8,7.1,29.1,5.1,38.8C44.4,88.2,44,88.5,43.5,88.5"/>
			<path class="st0" d="M15.5,30.5c0,2.4,0.2,8.1,4.4,12.3c3.7,3.7,9.6,5.6,17.6,5.7c-0.2-5.2-1.8-9.4-4.9-12.4
				c-2.6-2.6-7.7-5.6-16.8-5.6C15.7,30.5,15.6,30.5,15.5,30.5 M37.8,50.5c-8.7,0-15.2-2.1-19.3-6.3c-5.2-5.2-5-12.1-5-14.3v-0.4
				c0-0.6,0.4-1,1-1h0.3c10.4-0.2,16.2,3.2,19.1,6.1c3.6,3.6,5.5,8.6,5.5,14.8c0,0.5-0.4,1-1,1C38.3,50.5,38.1,50.5,37.8,50.5"/>
			<path class="st0" d="M38.5,50.5c-0.3,0-0.6-0.1-0.8-0.4c-3.5-4.2-7.3-7.4-11.7-9.8c-0.5-0.3-0.7-0.9-0.4-1.4s0.9-0.7,1.4-0.4
				c4.7,2.5,8.7,5.9,12.3,10.3c0.4,0.4,0.3,1.1-0.1,1.4C38.9,50.4,38.7,50.5,38.5,50.5"/>
			<path class="st0" d="M71.2,42.5c-2.2,0.4-7,1.6-11.4,4.6c-6.6,4.5-9.4,10.9-8.5,19.2c7.9-1.2,13.5-4.1,16.8-8.6
				C71.1,53.8,72.1,48.7,71.2,42.5 M50.5,68.5c-0.5,0-0.9-0.4-1-0.9c-1.4-9.5,1.8-17.2,9.2-22.2c5.6-3.8,11.9-4.9,13.2-5.1
				c0.5-0.1,1.1,0.3,1.1,0.8l0.1,0.4c1.2,7,0.1,12.8-3.3,17.3c-3.8,5.1-10.2,8.3-19.2,9.6C50.6,68.5,50.5,68.5,50.5,68.5"/>
			<path class="st0" d="M50.5,68.5c-0.2,0-0.4-0.1-0.6-0.2c-0.4-0.3-0.5-1-0.2-1.4c1.2-1.6,2.3-3.3,3.4-4.8c2.6-3.8,5-7.4,8.8-10.2
				c0.4-0.3,1.1-0.2,1.4,0.2c0.3,0.4,0.2,1.1-0.2,1.4c-3.6,2.6-5.8,5.9-8.4,9.7c-1.1,1.6-2.2,3.2-3.5,4.9
				C51.1,68.4,50.8,68.5,50.5,68.5"/>
			<path class="st0" d="M43.5,88.5c-0.1,0-0.1,0-0.2,0c-0.5-0.1-0.9-0.7-0.8-1.2c2-9.2,4.1-14.2,7.1-20.2c0.2-0.5,0.8-0.7,1.3-0.4
				c0.5,0.2,0.7,0.8,0.4,1.3c-2.9,5.9-4.9,10.8-6.9,19.8C44.4,88.2,44,88.5,43.5,88.5"/>
		</g>
	</g>
</g>
<g>
	<path class="st0" d="M45.9,84.9l-5.1-0.2C20.7,82.6,5,65.6,5,45C5,23,22.9,5.1,44.9,5.1s40,17.9,40,39.9
		C84.9,66.7,67.5,84.4,45.9,84.9 M45,0C20.2,0,0,20.2,0,45s20.2,45,45,45s45-20.2,45-45S69.8,0,45,0"/>
</g>
</svg>
