<?xml version="1.0" encoding="utf-8"?>
<!-- Generator: Adobe Illustrator 21.1.0, SVG Export Plug-In . SVG Version: 6.00 Build 0)  -->
<svg version="1.1" id="Layer_1" xmlns="http://www.w3.org/2000/svg" xmlns:xlink="http://www.w3.org/1999/xlink" x="0px" y="0px"
	 viewBox="0 0 139.8 56.7" style="enable-background:new 0 0 139.8 56.7;" xml:space="preserve">
<g>
	<g>
		<path d="M133,39.1c2.1,2.1,4.1,4.1,6.3,6c0.7,0.6,0.5,1.5,0,2.1c-2.2,2.8-4.5,5.5-6.1,8.7c-0.8,1.7-3.4,0.2-2.6-1.5
			c1.7-3.5,4.2-6.3,6.6-9.3c0,0.7,0,1.4,0,2.1c-2.2-1.9-4.3-3.9-6.3-6C129.5,39.8,131.6,37.7,133,39.1L133,39.1z"/>
	</g>
</g>
<g>
	<g>
		<path d="M137.3,49c-14.7,0.7-29.4-0.3-44.2,0.1c-15,0.3-30,1.9-44.9-0.1c-1.9-0.3-1.1-3.1,0.8-2.9c14.6,2,29.4,0.5,44.1,0
			c14.7-0.4,29.4,0.6,44.2-0.1C139.2,45.9,139.2,48.9,137.3,49L137.3,49z"/>
	</g>
</g>
<g>
	<path d="M29.2,8.9c0-2.4,0.6-3.9,1.8-4.4c0.9-0.4,2-0.3,2.6,0.3s0.5,1.3,0,1.4c-0.4,0.1-1-0.1-1.1-0.3c0-0.1-0.2-0.4-0.3-0.4
		c0,0-0.1,0.1-0.2,0.1c-0.9,0.5-0.8,2.4-0.8,2.8c0,1.8,0.6,3.9,1.3,4.5c0.3,0.3,0.6,0.2,1.2-0.6c1-1.4,1.8-0.6,1.9-0.5
		c0.3,1.4-1.6,2.5-2.5,2.6c-2.4,0.5-3.1-1.5-3.5-2.5C29.5,11.3,29.2,9.5,29.2,8.9z"/>
	<path d="M35.4,5.4C35,3.8,35,3.7,35.1,3.6c0.1-0.1,0.8-0.3,1-0.2c0.3,0.1,0.5,0.4,0.6,0.9C37,4.9,37.7,8,38.1,10
		c0.2,0.9,0.4,1.6,0.4,1.6s0.2,0,0.4-0.1c0.5-0.3,1.1-0.5,1.5-0.6c0.5-0.2,1,0.1,1,0.5c0.1,0.6-2.4,1.6-3.4,2.2
		c-0.2,0.2-0.7,0-0.9-0.2c-0.1-0.1-0.2-0.1-0.8-3.1C36,8.5,35.5,6.3,35.4,5.4z"/>
	<path d="M40.9,4c-0.3-1.3-0.3-1.4-0.1-1.5c0.4-0.1,0.8-0.2,1.1,0c0.2,0.2,0.4,0.7,1,2.5c0.3,1.1,0.6,2.1,1.8,6.1
		c0.4,0.9-0.1,1.2-0.5,1.3c-0.6,0.1-1.1-0.1-1.2-0.6C42.7,11,41.3,5.3,40.9,4z"/>
	<path d="M44.8,5.9c0-2.4,0.6-3.9,1.8-4.4c0.9-0.4,2-0.3,2.6,0.3c0.6,0.6,0.5,1.3,0,1.4c-0.4,0.1-1-0.1-1.1-0.3
		c0-0.1-0.2-0.4-0.3-0.4c0,0-0.1,0.1-0.2,0.1c-0.9,0.5-0.8,2.4-0.8,2.8c0,1.8,0.6,3.9,1.3,4.5c0.3,0.3,0.6,0.2,1.2-0.6
		c1-1.4,1.8-0.6,1.9-0.5c0.3,1.4-1.6,2.5-2.5,2.6c-2.4,0.5-3.1-1.5-3.5-2.5C45.1,8.4,44.8,6.5,44.8,5.9z"/>
	<path d="M50.7,1.1c0-0.2,0.1-0.3,0.2-0.5c0.7-0.5,1.1-0.1,1.1,0c0.3,0.7,0.9,2.9,0.9,2.9c0,0,0.7-2.1,0.9-3.3
		c0.3-0.2,0.9-0.2,1.2,0c0.3,0.2,0.3,0.7,0,1.7c0,0.2-0.9,3.2-0.8,3.3c0.2,1.2,2.6,2.8,3.2,2.9c0.4,0.1,0.5,0.3,0.5,0.6
		c0,0.4-0.7,0.5-1.4,0.4c-0.6-0.2-1.8-1-2.5-1.7C53.9,7.1,53.8,7,53.8,7c-0.1,0,0.7,2.6,0.6,3.1c-0.2,0.3-0.6,0.5-1.1,0.3
		c-0.4-0.2-0.5-0.2-1-2.2C51.5,5,50.7,1.4,50.7,1.1z"/>
	<path d="M14.4,21c0-0.1,0.1-0.2,0.1-0.3c0.1-0.2,0.1-0.2,0.6-0.2c0.6-0.1,1.1,0.1,1.6,0.4c2,1.2,2.8,3.4,3,4.6
		c0.4,2.7-0.6,4-1.4,4.7c-1,0.7-2,0.6-2.5,0.4c-1.9-0.5-2.5-4.5-2.4-5.4c0.1-2.6,0.6-3.3,1-3.8C14.3,21.2,14.4,21,14.4,21z
		 M16.5,22.8c-0.2-0.3-0.5-0.6-0.6-0.7c-0.1-0.2-0.2-0.2-0.3-0.2c-1.5,1.8-0.5,5.8,0.4,7c0.2,0.3,0.5,0.5,0.6,0.5
		c0.3,0,0.8-0.7,1.1-1.3C18.3,26.4,17.8,24.5,16.5,22.8z"/>
	<path d="M24.3,23.8c-1.2-5.1-1.2-4.9-0.8-5.1c1-0.4,1.3,0,1.3,0.1c0.1,0.1,1.8,7.2,1.9,7.6c0.4,1.4,0.4,1.4,0.2,1.6
		c-0.2,0.2-0.6,0.3-1.1,0.2c-0.7-0.2-3.3-2.7-3.5-2.9c0.1,0.4,0.8,3.5,0.8,3.8c0,0.4-0.1,0.5-0.5,0.6c-0.4,0.1-0.9,0-1.1-0.2
		c-0.1-0.1-0.3-0.7-0.9-3.6c-1.1-5.3-1-5-0.9-5.2c0.1-0.1,0.2-0.2,0.4-0.2c0.5-0.1,0.9,0.1,1.1,0.7c0,0.2,0.2,0.4,0.4,0.7
		c0.2,0.2,3.1,4,3.1,4C24.7,25.8,24.5,24.9,24.3,23.8z"/>
	<path d="M32.1,18.4c0.6-0.8,0.9-1.1,1.5-1.4c0.1-0.1,0.4-0.1,0.6-0.2c0.9-0.1,1.6,0.2,1.9,0.9c0.3,0.4,0.3,0.9,0.3,1.3
		c0,0.7-1.2,0.8-1.5,0.3c-0.2-0.1-0.2-0.1-0.2-0.7c0-0.5-0.1-0.6-0.2-0.6c-0.1,0-0.5,0.5-0.8,1c-0.8,1.3-0.9,2.1-0.5,2.5
		c0.1,0.1,0.5,0.2,1.1,0.4c1.5,0.4,2,0.7,2.6,1.4c1.1,2.2-0.3,3.1-1.1,3.5c-0.6,0.3-1.2,0.3-1.7,0.2c-0.8-0.2-1.5-1.1-1.5-1.4
		c-0.1-0.5,0.1-0.7,0.7-0.7c0.6-0.1,1,0.2,1,0.6c0.1,0.4,0.8,0,1.1-0.7c0.2-0.4,0.1-0.8-0.2-1.1c-0.3-0.2-0.5-0.4-1.8-0.7
		c-1.4-0.4-1.9-0.8-2.2-1.6C30.9,20.8,31.3,19.5,32.1,18.4z"/>
	<path d="M37.6,17c0.3-0.2,1.5-0.7,2.7-1.2c1-0.3,1.3-0.4,1.7-0.2c0.5,0.3,0.3,0.8,0.2,0.8c-1.5,0.4-3.2,1-3.2,1
		c-0.1,0,0.3,1.8,0.3,2.2c0.1,0.6,0.1,0.8,0.2,0.7c0.1,0,1.2-0.5,1.3-0.5c0.6-0.1,1.2,0.2,1.1,0.6c-0.1,0.2-1,0.7-2,1.2
		c-0.3,0.1-0.3,0.1-0.1,0.9c0.2,0.9,0.4,1.3,0.6,1.7c0.2,0.4,0.2,0.4,0.9-0.4c0.4-0.4,0.6-0.6,1.1-0.5c0.5,0.1,0.7,0.4,0.6,0.8
		c-0.1,0.3-0.6,1-0.9,1.2c-2.9,2-3.8-1.1-3.9-1.8c-0.4-1.8-0.7-5.7-0.7-5.9c0-0.1,0-0.2,0-0.2C37.4,17.4,37.5,17.1,37.6,17z"/>
	<path d="M43.7,18c-0.5-2.3-0.5-2.3-0.4-2.5c0.3-0.3,0.9-0.2,1-0.2c0.1,0.1,0.2,0.1,0.6,0c0.7-0.3,1.7-0.4,2.1-0.3
		c0.7,0.2,1.2,0.7,1.3,1.5c0.2,2-1.1,3-1.2,3.1c-0.3,0.3-0.2,0.3-0.1,0.5c0.1,0.1,0.5,0.5,0.8,1c0.6,0.8,1.3,1.5,1.5,1.6
		c0.4,0.4,0.5,0.5,0.5,0.7c-0.5,0.7-1.2,0.5-1.8,0.1c-0.5-0.3-0.6-0.5-1.1-1c-0.3-0.4-0.5-0.7-0.6-0.8c-0.1,0,0,0.3,0.2,1.4
		c0.3,1.1,0.3,1.6,0.3,1.7c-0.1,0.4-0.7,0.6-1.2,0.5c-0.5-0.2-0.5-0.1-1.1-2.7C44.4,21.4,43.9,19.3,43.7,18z M46.1,18.2
		c0.5-0.8,0.7-1.6,0.4-2.1c-0.3-0.3-0.9,0-1.2,0.2c-0.3,0.2-0.3,0.2-0.2,0.4c0,0.2,0.5,2.1,0.6,2.1C45.7,18.8,45.9,18.5,46.1,18.2z"
		/>
	<path d="M52.8,13.6c0-0.1,0.1-0.1,0.1-0.2c0.8-0.3,1.2-0.1,1.3,0c0.2,0.2,0.2,0.3,0.3,2.3c0.2,3.1,0.2,4.3,0.4,5.9
		c0.1,0.9,0.1,1.6,0.1,1.6c-0.2,0.5-1,0.5-1.3,0.4c-0.2-0.1-0.3-0.1-1-1.4c-0.3-0.5-2.7-5.1-3.2-6c-0.2-0.4-0.6-1-0.6-1.3
		c0-0.3,0.2-0.4,0.5-0.4c0.5,0,0.7,0,1,0.4c0.5,0.5,2.6,4.6,2.6,4.5C53.1,19.4,52.7,13.7,52.8,13.6z"/>
	<path d="M55.5,14.5c-0.3-1.3-0.3-1.4-0.1-1.5c0.4-0.1,0.8-0.2,1.1,0c0.2,0.2,0.4,0.7,1,2.5c0.3,1.1,0.6,2.1,1.8,6.1
		c0.4,0.9-0.1,1.2-0.5,1.3c-0.6,0.1-1.1-0.1-1.2-0.6C57.3,21.5,55.8,15.8,55.5,14.5z"/>
	<path d="M59.4,16.4c0-2.4,0.6-3.9,1.8-4.4c0.9-0.4,2-0.3,2.6,0.3c0.6,0.6,0.5,1.3,0,1.4c-0.4,0.1-1-0.1-1.1-0.3
		c0-0.1-0.2-0.4-0.3-0.4c0,0-0.1,0.1-0.2,0.1c-0.9,0.5-0.8,2.4-0.8,2.8c0,1.8,0.6,3.9,1.3,4.5c0.3,0.3,0.6,0.2,1.2-0.6
		c1-1.4,1.8-0.6,1.9-0.5c0.3,1.4-1.6,2.5-2.5,2.6c-2.4,0.5-3.1-1.5-3.5-2.5C59.6,18.9,59.4,17,59.4,16.4z"/>
	<path d="M65.9,11.7c0.3-0.2,1.5-0.7,2.7-1.2c1.1-0.3,1.3-0.4,1.7-0.2c0.5,0.3,0.3,0.7,0.2,0.8c-1.5,0.4-3.2,1-3.2,1
		c-0.1,0,0.3,1.8,0.3,2.2c0.1,0.6,0.1,0.8,0.2,0.7c0.1,0,1.2-0.5,1.3-0.5c0.6-0.1,1.2,0.2,1.1,0.6c-0.1,0.2-1,0.7-2,1.2
		c-0.3,0.1-0.3,0.1-0.1,0.9c0.2,0.9,0.4,1.3,0.6,1.7c0.2,0.4,0.2,0.4,0.9-0.4c0.4-0.4,0.6-0.6,1.1-0.5c0.5,0.1,0.7,0.4,0.6,0.8
		c-0.1,0.3-0.6,1-0.9,1.2c-2.9,2-3.8-1.1-3.9-1.8c-0.4-1.8-0.7-5.7-0.7-5.9c0-0.1,0-0.2,0-0.2C65.7,12.1,65.8,11.8,65.9,11.7z"/>
	<path d="M73.1,10.7c0.6-0.8,0.9-1.1,1.5-1.4c0.1-0.1,0.4-0.1,0.6-0.2c0.9-0.1,1.6,0.2,1.9,0.9c0.3,0.4,0.3,0.9,0.3,1.3
		c0,0.7-1.2,0.8-1.5,0.3c-0.2-0.1-0.2-0.1-0.2-0.7c0-0.5-0.1-0.6-0.2-0.6c-0.1,0-0.5,0.5-0.8,1c-0.8,1.3-0.9,2.1-0.5,2.5
		c0.1,0.1,0.5,0.2,1.1,0.4c1.5,0.4,2,0.7,2.6,1.4c1.1,2.2-0.3,3.1-1.1,3.5c-0.6,0.3-1.2,0.3-1.7,0.2c-0.8-0.2-1.5-1.1-1.5-1.4
		c-0.1-0.5,0.1-0.7,0.7-0.7s1,0.2,1,0.6c0.1,0.4,0.8,0,1.1-0.7c0.2-0.4,0.1-0.8-0.2-1.1c-0.3-0.2-0.5-0.4-1.8-0.7
		c-1.4-0.4-1.9-0.8-2.2-1.6C71.9,13.1,72.3,11.8,73.1,10.7z"/>
	<path d="M1.8,36.7c0.3-0.2,0.7-0.4,1.1-0.6c0.7-0.3,1.4-0.4,1.7-0.3C5.2,36,5.2,36.5,5,36.6c-1.8,0.8-2.1,1-2.9,1.4
		c-0.4,0.3-0.4,0.2-0.4,0.8C1.9,39.7,1.9,40,2,39.9c0,0,0.3-0.2,0.5-0.3c1.6-1.1,2.2-0.9,2.4-0.9c0.6,0.2,0.7,0.5,0.3,0.8
		c-2.1,1.1-2,1.3-2.6,1.8c-0.4,0.4-0.4,0.4-0.1,1.6c0.2,1.2,0.6,2.3,0.7,2.9c0.1,0.5-0.2,0.7-0.6,0.8c-0.7,0.1-1,0-1.3-0.7
		c-0.3-0.9-1.2-5.5-1.4-7.5C0,37.8,0.1,37.2,0.2,37c0.1-0.1,0.5-0.2,0.9-0.1C1.3,37,1.3,37,1.8,36.7z"/>
	<path d="M7.7,35.5c0-0.1,0.1-0.2,0.1-0.3C8,35,8,35,8.4,35C9,34.9,9.5,35,10,35.4c2,1.2,2.8,3.4,3,4.6c0.4,2.7-0.6,4-1.4,4.7
		c-1,0.7-2,0.6-2.5,0.4c-1.9-0.5-2.5-4.5-2.4-5.4c0.1-2.6,0.6-3.3,1-3.8C7.7,35.7,7.7,35.5,7.7,35.5z M9.9,37.3
		c-0.2-0.3-0.5-0.6-0.6-0.7C9.1,36.4,9,36.4,9,36.4c-1.5,1.8-0.5,5.8,0.4,7c0.2,0.3,0.5,0.5,0.6,0.5c0.3,0,0.8-0.7,1.1-1.3
		C11.6,40.9,11.2,38.9,9.9,37.3z"/>
	<path d="M13.3,36.9c-0.5-2.3-0.5-2.3-0.4-2.5c0.3-0.3,0.9-0.2,1-0.2c0.1,0.1,0.2,0.1,0.6,0c0.7-0.3,1.7-0.4,2.1-0.3
		c0.7,0.2,1.2,0.7,1.3,1.5c0.2,2-1.1,3-1.2,3.1c-0.3,0.3-0.2,0.3-0.1,0.5c0.1,0.1,0.5,0.5,0.8,1c0.6,0.8,1.3,1.5,1.5,1.6
		c0.4,0.4,0.5,0.5,0.5,0.7c-0.5,0.7-1.2,0.5-1.8,0.1c-0.5-0.3-0.6-0.5-1.1-1c-0.3-0.4-0.5-0.7-0.6-0.8c-0.1,0,0,0.3,0.2,1.4
		c0.3,1.1,0.3,1.6,0.3,1.7c-0.1,0.4-0.7,0.6-1.2,0.5c-0.5-0.2-0.5-0.1-1.1-2.7C14,40.3,13.5,38.2,13.3,36.9z M15.7,37.1
		c0.5-0.8,0.7-1.6,0.4-2.1c-0.3-0.3-0.9,0-1.2,0.2c-0.3,0.2-0.3,0.2-0.2,0.4c0,0.2,0.5,2.1,0.6,2.1C15.3,37.7,15.5,37.4,15.7,37.1z"
		/>
	<path d="M27.5,31.8c0,0,0.1-0.1,0.2-0.2c0.3-0.3,1.2-0.2,1.4,0.1c0.7,2.5,2.4,7.6,2.5,7.7c0,0.2,0.1,0.3,0.2,0.4
		c0.2,0.4,0.1,0.8-0.5,0.9c-0.6,0.2-1.1,0-1.3-0.5c-0.2-0.4-1.1-3.3-1.4-3.7c-0.2,0.2,0,2-0.4,2.2c-0.3,0.2-1.1,0.2-1.4,0
		c0-0.1-0.2-0.3-0.4-0.6c-0.6-0.9-0.7-1-0.4,0.3c0.1,0.6,0.8,2.9,0.7,3.8c-0.3,0.3-0.9,0.3-1.1,0.2c-0.6-0.1-0.6-0.1-1-1.9
		c-0.9-4-1.2-5.6-1.4-6.6c-0.2-1.2-0.2-1.2-0.1-1.4c0.6-0.6,1.2-0.1,1.4,0.1c0.5,0.7,1.8,2.8,2.2,3.2L27.5,31.8z"/>
	<path d="M32.9,30.7c0-0.1,0.1-0.2,0.1-0.3c0.1-0.2,0.1-0.2,0.6-0.2c0.6-0.1,1.1,0.1,1.6,0.4c2,1.2,2.8,3.4,3,4.6
		c0.4,2.7-0.6,4-1.4,4.7c-1,0.7-2,0.6-2.5,0.4c-1.9-0.5-2.5-4.5-2.4-5.4c0.1-2.6,0.6-3.3,1-3.8C32.9,31,33,30.8,32.9,30.7z
		 M35.1,32.5c-0.2-0.3-0.5-0.6-0.6-0.7c-0.1-0.2-0.2-0.2-0.3-0.2c-1.5,1.8-0.5,5.8,0.4,7c0.2,0.3,0.5,0.5,0.6,0.5
		c0.3,0,0.8-0.7,1.1-1.3C36.8,36.1,36.4,34.2,35.1,32.5z"/>
	<path d="M38.5,32.2c-0.5-2.3-0.5-2.3-0.4-2.5c0.3-0.3,0.9-0.2,1-0.2c0.1,0.1,0.2,0.1,0.6,0c0.7-0.3,1.7-0.4,2.1-0.3
		c0.7,0.2,1.2,0.7,1.3,1.5c0.2,2-1.1,3-1.2,3.1c-0.3,0.3-0.2,0.3-0.1,0.5c0.1,0.1,0.5,0.5,0.8,1c0.6,0.8,1.3,1.5,1.5,1.6
		c0.4,0.4,0.5,0.5,0.5,0.7c-0.5,0.7-1.2,0.5-1.8,0.1c-0.5-0.3-0.6-0.5-1.1-1c-0.3-0.4-0.5-0.7-0.6-0.8c-0.1,0,0,0.3,0.2,1.4
		c0.3,1.1,0.3,1.6,0.3,1.7c-0.1,0.4-0.7,0.6-1.2,0.5c-0.5-0.2-0.5-0.1-1.1-2.7C39.2,35.6,38.8,33.5,38.5,32.2z M40.9,32.4
		c0.5-0.8,0.7-1.6,0.4-2.1c-0.3-0.3-0.9,0-1.2,0.2c-0.3,0.2-0.3,0.2-0.2,0.4c0,0.2,0.5,2.1,0.6,2.1C40.5,33,40.7,32.7,40.9,32.4z"/>
	<path d="M44.5,28.9c0.3-0.2,1.5-0.7,2.7-1.2c1.1-0.3,1.3-0.4,1.7-0.2c0.5,0.3,0.3,0.7,0.2,0.8c-1.5,0.4-3.2,1-3.2,1
		c-0.1,0,0.3,1.8,0.3,2.2c0.1,0.6,0.1,0.8,0.2,0.7c0.1,0,1.2-0.5,1.3-0.5c0.6-0.1,1.2,0.2,1.1,0.6c-0.1,0.2-1,0.7-2,1.2
		c-0.3,0.1-0.3,0.1-0.1,0.9c0.2,0.9,0.4,1.3,0.6,1.7c0.2,0.4,0.2,0.4,0.9-0.4c0.4-0.4,0.6-0.6,1.1-0.5c0.5,0.1,0.7,0.4,0.6,0.8
		c-0.1,0.3-0.6,1-0.9,1.2c-2.9,2-3.8-1.1-3.9-1.8c-0.4-1.8-0.7-5.7-0.7-5.9c0-0.1,0-0.2,0-0.2C44.3,29.3,44.4,29,44.5,28.9z"/>
	<path d="M54.5,26.2c0-0.1,0.1-0.3,0.3-0.4c0.3-0.1,1-0.1,1.1,0c0,0.1,0.2,0,0.5,0c4.1-0.7,4.8,2.8,5,3.5c0.2,1,0.2,2,0,3
		c-0.3,1.3-1.5,2.9-1.8,3.2c-0.9,0.9-1.9,0.4-2.1,0c0-0.1-0.1-0.2-0.2-0.3c-0.2-0.3-1.4-3.9-1.4-4.1c-0.2-0.4-0.9-3.3-1-3.6
		c0-0.2-0.1-0.3-0.2-0.5c-0.3-0.2-0.4-0.5-0.2-0.6C54.5,26.4,54.5,26.3,54.5,26.2z M59.6,29.8c-0.1-1.4-0.9-2.5-2.1-2.8
		c-0.2-0.1-0.5-0.1-0.7-0.1c-0.4,0-0.4,0-0.3,0.2c1.1,4.2,1.9,6.2,2.1,6.6C60,32.1,59.7,30.2,59.6,29.8z"/>
	<path d="M62.3,25.6c0.3-0.2,1.5-0.7,2.7-1.2c1.1-0.3,1.3-0.4,1.7-0.2c0.5,0.3,0.3,0.7,0.2,0.8c-1.5,0.4-3.2,1-3.2,1
		c-0.1,0,0.3,1.8,0.3,2.2c0.1,0.6,0.1,0.8,0.2,0.7c0.1,0,1.2-0.5,1.3-0.5c0.6-0.1,1.2,0.2,1.1,0.6c-0.1,0.2-1,0.7-2,1.2
		c-0.3,0.1-0.3,0.1-0.1,0.9c0.2,0.9,0.4,1.3,0.6,1.7c0.2,0.4,0.2,0.4,0.9-0.4c0.4-0.4,0.6-0.6,1.1-0.5c0.5,0.1,0.7,0.4,0.6,0.8
		c-0.1,0.3-0.6,1-0.9,1.2c-2.9,2-3.8-1.1-3.9-1.8c-0.4-1.8-0.7-5.7-0.7-5.9c0-0.1,0-0.2,0-0.2C62.1,26,62.2,25.7,62.3,25.6z"/>
	<path d="M70.7,23.4c0.8-0.3,1.5-0.5,1.6-0.5c0.5-0.1,1.3-0.2,1.5-0.2c0.5,0.2,0.7,0.5,0.5,0.9c-0.1,0.2-0.1,0.2-1,0.4
		c-0.4,0.1-0.9,0.2-1.1,0.3c-0.3,0.1-0.3,0.1-0.2,0.8c0.5,2.1,1.3,4.9,1.7,6.1c0.4,1,0.5,1.5,0.5,1.7c0,0.2-0.4,0.4-0.7,0.5
		c-0.3,0.1-0.8,0-1-0.3c-0.2-0.1-0.3-0.6-0.8-2c-0.6-2.1-1.1-4.2-1.4-5.7c-0.1-0.4-0.1-0.4-0.6-0.2c-0.9,0.3-1.4,0.3-1.7,0.1
		c-0.2-0.1-0.3-0.5-0.1-0.6C68,24.3,69.1,23.9,70.7,23.4z"/>
	<path d="M75.4,26.6c0.1-3,0.2-3.9,0.4-4.2c0.1-0.1,0.2-0.1,0.4-0.2c0.8-0.2,1,0.4,1,0.9c0,0.4,0.1,0.4,0.2,0.8
		c0.1,0.2,0.8,1.3,1.4,2.3c0.9,1.5,1,1.8,1.1,1.8c0.3,0.1,0.6-0.2,0.8,0.2c0.3,0.5-0.3,0.6-0.3,0.6c0,0.1,0.8,1.7,0.9,1.8
		c0.1,0.9-1.4,1-1.6,0.5c-0.1-0.1-0.9-1.6-0.9-1.6c-0.1,0-1.2,0.6-1.3,0.7c-0.2,0.1-0.2,0-0.1,1.3c0,0.4,0.1,0.8,0,0.9
		c-0.5,0.8-1.8,0.3-1.7-0.4C75.5,31,75.4,28.8,75.4,26.6z M78.1,28.4c0,0-0.2-0.4-0.5-0.9c-0.3-0.5-0.5-0.8-0.5-0.8
		c-0.1,0,0,2.2,0,2.2C77.2,28.9,78.2,28.4,78.1,28.4z"/>
	<path d="M80.5,23c-0.3-1.3-0.3-1.4-0.1-1.5c0.4-0.1,0.8-0.2,1.1,0c0.2,0.2,0.4,0.7,1,2.5c0.3,1.1,0.6,2.1,1.8,6.1
		c0.4,0.9-0.1,1.2-0.5,1.3c-0.6,0.1-1.1-0.1-1.2-0.6C82.3,30,80.8,24.4,80.5,23z"/>
	<path d="M83.9,22.8c-0.4-1.6-0.4-1.7-0.3-1.8c0.1-0.1,0.8-0.3,1-0.2c0.3,0.1,0.5,0.4,0.6,0.9c0.2,0.6,0.9,3.7,1.4,5.7
		c0.2,0.9,0.4,1.6,0.4,1.6s0.2,0,0.4-0.1c0.5-0.3,1.1-0.5,1.5-0.6c0.5-0.2,1,0.1,1,0.5c0.1,0.6-2.4,1.6-3.4,2.2
		c-0.2,0.2-0.7,0-0.9-0.2c-0.1-0.1-0.2-0.1-0.8-3.1C84.5,25.8,84,23.7,83.9,22.8z"/>
	<path d="M90.8,20.6c0.6-0.8,0.9-1.1,1.5-1.4c0.1-0.1,0.4-0.1,0.6-0.2c0.9-0.1,1.6,0.2,1.9,0.9c0.3,0.4,0.3,0.9,0.3,1.3
		c0,0.7-1.2,0.8-1.5,0.3c-0.2-0.1-0.2-0.1-0.2-0.7c0-0.5-0.1-0.6-0.2-0.6c-0.1,0-0.5,0.5-0.8,1c-0.8,1.3-0.9,2.1-0.5,2.5
		c0.1,0.1,0.5,0.2,1.1,0.4c1.5,0.4,2,0.7,2.6,1.4c1.1,2.2-0.3,3.1-1.1,3.5c-0.6,0.3-1.2,0.3-1.7,0.2c-0.8-0.2-1.5-1.1-1.5-1.4
		c-0.1-0.5,0.1-0.7,0.7-0.7c0.6-0.1,1,0.2,1,0.6c0.1,0.4,0.8,0,1.1-0.7c0.2-0.4,0.1-0.8-0.2-1.1c-0.3-0.2-0.5-0.4-1.8-0.7
		c-1.4-0.4-1.9-0.8-2.2-1.6C89.7,23,90.1,21.7,90.8,20.6z"/>
</g>
</svg>
