<?xml version="1.0" encoding="utf-8"?>
<!-- Generator: Adobe Illustrator 21.1.0, SVG Export Plug-In . SVG Version: 6.00 Build 0)  -->
<svg version="1.1" id="Layer_1" xmlns="http://www.w3.org/2000/svg" xmlns:xlink="http://www.w3.org/1999/xlink" x="0px" y="0px"
	 viewBox="0 0 89.8 85.3" style="enable-background:new 0 0 89.8 85.3;" xml:space="preserve">
<path d="M81.4,20.6c1.8-1.6,3-3.9,3-6.6c0-4.8-3.9-8.7-8.7-8.7c-4.8,0-8.7,3.9-8.7,8.7s3.9,8.7,8.7,8.7c2.7,0,11.5,0.4,11.5,5.8
	c0,2.3-1.3,4.9-11.5,4.9c-10.2,0-11.5-2.6-11.5-4.9c0-2.4,1.7-4,4.9-5c0.7-0.2,1.1-1,0.9-1.7s-0.9-1.1-1.7-0.9
	c-4.4,1.3-6.9,4-6.9,7.6c0,7.5,10.3,7.5,14.1,7.5c3.9,0,14.1,0,14.1-7.5C89.8,24.5,86.7,21.7,81.4,20.6z M69.6,14.1c0-3.3,2.7-6,6-6
	s6,2.7,6,6s-2.7,6-6,6S69.6,17.4,69.6,14.1z"/>
<path d="M50.3,69.8c1.8-1.6,3-3.9,3-6.6c0-4.8-3.9-8.7-8.7-8.7s-8.7,3.9-8.7,8.7s3.9,8.7,8.7,8.7c2.7,0,11.5,0.4,11.5,5.8
	c0,2.3-1.3,4.9-11.5,4.9c-10.2,0-11.5-2.6-11.5-4.9c0-2.4,1.7-4,4.9-5c0.7-0.2,1.1-1,0.9-1.7c-0.2-0.7-0.9-1.1-1.7-0.9
	c-4.4,1.3-6.9,4-6.9,7.6c0,7.6,10.3,7.6,14.1,7.6c3.9,0,14.1,0,14.1-7.6C58.7,73.7,55.7,70.9,50.3,69.8z M38.6,63.3c0-3.3,2.7-6,6-6
	c3.3,0,6,2.7,6,6c0,3.3-2.7,6-6,6C41.3,69.3,38.6,66.6,38.6,63.3z"/>
<path d="M19.8,20.6c1.8-1.6,3-3.9,3-6.6c0-4.8-3.9-8.7-8.7-8.7c-4.8,0-8.7,3.9-8.7,8.7s3.9,8.7,8.7,8.7c2.7,0,11.5,0.4,11.5,5.8
	c0,2.3-1.3,4.9-11.5,4.9S2.7,30.8,2.7,28.5c0-2.4,1.7-4,4.9-5c0.7-0.2,1.1-1,0.9-1.7c-0.2-0.7-1-1.1-1.7-0.9C2.4,22.3,0,25,0,28.5
	c0,7.5,10.3,7.5,14.1,7.5s14.1,0,14.1-7.5C28.3,24.5,25.2,21.7,19.8,20.6z M8.1,14.1c0-3.3,2.7-6,6-6s6,2.7,6,6s-2.7,6-6,6
	S8.1,17.4,8.1,14.1z"/>
<g>
	<g>
		<path d="M44.1,39.6"/>
	</g>
	<g>
		<path d="M25,74.1c-0.2,0-0.5-0.1-0.7-0.2C12,66.9,4.4,53.7,4.4,39.6c0-0.7,0.6-1.3,1.3-1.3s1.3,0.6,1.3,1.3
			c0,13.1,7.1,25.4,18.5,32c0.6,0.4,0.9,1.2,0.5,1.8C25.9,73.9,25.4,74.1,25,74.1z"/>
	</g>
	<g>
		<path d="M63.3,74.1c-0.5,0-0.9-0.2-1.2-0.7c-0.4-0.6-0.2-1.5,0.5-1.8c11.4-6.6,18.5-18.9,18.5-32c0-0.7,0.6-1.3,1.3-1.3l0,0
			c0.7,0,1.3,0.6,1.3,1.3c0,14.1-7.6,27.3-19.9,34.4C63.8,74.1,63.5,74.1,63.3,74.1z"/>
	</g>
	<g>
		<path d="M63.8,8c-0.2,0-0.5-0.1-0.7-0.2C51.9,1.1,37.4,1,26.1,7.3c-0.6,0.4-1.5,0.1-1.8-0.5c-0.4-0.6-0.1-1.5,0.5-1.8
			c12.1-6.8,27.7-6.6,39.7,0.6c0.6,0.4,0.8,1.2,0.5,1.8C64.7,7.8,64.2,8,63.8,8z"/>
	</g>
</g>
</svg>
