<?xml version="1.0" encoding="utf-8"?>
<!-- Generator: Adobe Illustrator 21.1.0, SVG Export Plug-In . SVG Version: 6.00 Build 0)  -->
<svg version="1.1" id="Layer_1" xmlns="http://www.w3.org/2000/svg" xmlns:xlink="http://www.w3.org/1999/xlink" x="0px" y="0px"
	 viewBox="0 0 75.9 54.3" style="enable-background:new 0 0 75.9 54.3;" xml:space="preserve">
<style type="text/css">
	.st0{fill:#020203;}
</style>
<g>
	<g>
		<path class="st0" d="M70.9,16.5H44.6c-1.2-4.1-3.5-7.8-6.7-10.7C33,1.4,26.7-0.6,20.1,0.1c-10.5,1.2-19,9.7-20,20.2
			c-0.6,5.8,1,11.5,4.4,16c3.3,4.4,8,7.4,13.4,8.6l5.6,5.6c0.5,0.5,1.1,0.7,1.7,0.7c0.3,0,0.6-0.1,0.9-0.2c0.9-0.4,1.5-1.3,1.5-2.3
			v-3.9c0.9-0.2,1.8-0.5,2.7-0.8v0.2c0,2.8,2.2,5,5,5h8.4l4.5,4.5c0.4,0.4,0.9,0.6,1.5,0.6c0.3,0,0.5-0.1,0.8-0.2
			c0.8-0.3,1.3-1.1,1.3-1.9v-3h19.1c2.8,0,5-2.2,5-5V21.4C75.9,18.7,73.7,16.5,70.9,16.5z M26.3,42.8c-0.6,0.1-1,0.6-1,1.2v4.9V49
			h-0.1l-5.9-5.9c-0.2-0.2-0.4-0.3-0.6-0.3c-4.9-1-9.3-3.7-12.3-7.7c-3.1-4.1-4.5-9.2-4-14.4c0.5-4.5,2.5-8.9,5.8-12.2
			c3.3-3.3,7.6-5.4,12.1-5.9c0.8-0.1,1.6-0.1,2.4-0.1c5,0,9.8,1.8,13.6,5.2c4.3,3.9,6.8,9.4,6.8,15.2C43.1,32.6,36,41,26.3,42.8z
			 M73.5,44.3c0,1.4-1.2,2.6-2.6,2.6H50.6c-0.7,0-1.2,0.5-1.2,1.2v3.5l-4.3-4.3c-0.2-0.2-0.5-0.3-0.8-0.3h-8.9
			c-1.4,0-2.6-1.2-2.6-2.6v-1.2c7.6-3.7,12.7-11.5,12.7-20.4c0-1.3-0.1-2.6-0.3-3.9H71c1.4,0,2.6,1.2,2.6,2.6L73.5,44.3L73.5,44.3z"
			/>
	</g>
</g>
<g>
	<g>
		<path class="st0" d="M66.7,25.7c-0.5-0.5-1.2-0.5-1.7,0L53.2,37.5L47.7,32c-0.5-0.5-1.2-0.5-1.7,0c-0.5,0.5-0.5,1.2,0,1.7l6.3,6.3
			c0.2,0.2,0.5,0.3,0.8,0.3s0.6-0.1,0.8-0.3l12.8-12.6C67.1,26.9,67.1,26.1,66.7,25.7z"/>
	</g>
</g>
<g>
	<g>
		<path class="st0" d="M22.7,31.7L22.7,31.7c-0.7,0-1.2,0.5-1.2,1.2l0,0l0,0c0,0.7,0.5,1.2,1.2,1.2l0,0c0.7,0,1.2-0.5,1.2-1.2l0,0
			l0,0C23.9,32.2,23.4,31.7,22.7,31.7z"/>
	</g>
</g>
<g>
	<g>
		<path class="st0" d="M28,13.6c-1.4-1.4-3.3-2.2-5.3-2.2c-4.1,0-7.5,3.4-7.5,7.5c0,0.7,0.5,1.2,1.2,1.2c0.7,0,1.2-0.5,1.2-1.2
			c0-2.8,2.3-5.1,5.1-5.1c1.3,0,2.6,0.5,3.6,1.5s1.5,2.3,1.5,3.6c0,2.3-1.5,4.3-3.7,4.9c-1.6,0.5-2.7,1.9-2.7,3.6v0.4
			c0,0.7,0.5,1.2,1.2,1.2s1.2-0.5,1.2-1.2v-0.4c0-0.6,0.4-1.1,1-1.3c3.2-0.9,5.4-3.9,5.4-7.2C30.3,17,29.5,15.1,28,13.6z"/>
	</g>
</g>
</svg>
