<?xml version="1.0" encoding="utf-8"?>
<!-- Generator: Adobe Illustrator 21.1.0, SVG Export Plug-In . SVG Version: 6.00 Build 0)  -->
<svg version="1.1" id="Layer_1" xmlns="http://www.w3.org/2000/svg" xmlns:xlink="http://www.w3.org/1999/xlink" x="0px" y="0px"
	 viewBox="0 0 102.4 12.1" style="enable-background:new 0 0 102.4 12.1;" xml:space="preserve">
<style type="text/css">
	.st0{fill:#FFFFFF;}
	.st1{fill:none;}
	.st2{font-family:'Montserrat-Medium';}
	.st3{font-size:4.4823px;}
</style>
<path class="st0" d="M45.5,12c-0.8,0-1.4-0.1-2-0.4c-0.6-0.2-1.1-0.6-1.5-1c-0.4-0.4-0.7-0.9-0.9-1.4s-0.3-1.1-0.3-1.7
	s0.1-1.1,0.3-1.7c0.2-0.5,0.5-1,0.9-1.4c0.4-0.4,0.9-0.7,1.5-1s1.3-0.4,2-0.4c0.8,0,1.4,0.1,2,0.4c0.6,0.2,1.1,0.6,1.5,1
	c0.4,0.4,0.7,0.9,0.9,1.4s0.3,1.1,0.3,1.7S50,8.7,49.8,9.3c-0.2,0.5-0.5,1-0.9,1.4s-0.9,0.7-1.5,1C46.9,11.9,46.2,12,45.5,12z
	 M43.9,7.6c0,0.6,0.1,1,0.4,1.3c0.3,0.3,0.7,0.5,1.1,0.5c0.4,0,0.8-0.2,1.1-0.5C46.8,8.6,47,8.2,47,7.6s-0.1-1-0.4-1.3
	c-0.3-0.3-0.7-0.5-1.1-0.5s-0.8,0.2-1.1,0.5C44.1,6.6,43.9,7,43.9,7.6z"/>
<path class="st0" d="M59,11.9h-3.1V7.1c0-0.4-0.1-0.7-0.3-0.9c-0.2-0.2-0.4-0.3-0.7-0.3S54.4,6,54.1,6.2c-0.3,0.2-0.5,0.5-0.7,0.9
	v4.8h-3.1V3.3h2.8v1.3c0.3-0.5,0.7-0.8,1.3-1.1s1.2-0.4,1.9-0.4c0.6,0,1,0.1,1.4,0.3c0.3,0.2,0.6,0.5,0.8,0.8s0.3,0.7,0.3,1
	c0.1,0.4,0.1,0.7,0.1,1L59,11.9L59,11.9z"/>
<path class="st0" d="M64.9,11.4c-0.4,0.2-0.9,0.3-1.4,0.5c-0.5,0.1-1,0.2-1.5,0.2c-0.3,0-0.7,0-1-0.1c-0.3-0.1-0.6-0.2-0.8-0.4
	c-0.2-0.2-0.4-0.5-0.6-0.8c-0.1-0.3-0.2-0.7-0.2-1.2V5.6V3.3V0.6h3.1v2.7h2.8v2.3h-2.8v2.8c0,0.3,0.1,0.5,0.2,0.6
	c0.1,0.1,0.3,0.2,0.5,0.2c0.2,0,0.3,0,0.5-0.1c0.2,0,0.4-0.1,0.6-0.2L64.9,11.4z"/>
<path class="st0" d="M71,6c-0.6,0-1.1,0.1-1.6,0.2c-0.5,0.1-0.8,0.3-1.1,0.7v5.1h-3.1V3.3H68v1.6c0.3-0.6,0.7-1,1.1-1.3
	c0.5-0.3,0.9-0.5,1.5-0.5c0.2,0,0.3,0,0.4,0V6z"/>
<path class="st0" d="M71.2,2.6V0h3.1v2.6H71.2z M71.2,11.9V3.3h3.1v8.5H71.2z"/>
<path class="st0" d="M77.4,11.9l-2.9-8.5h3.2l1.5,6.1l1.5-6.1h2.9l-2.9,8.5H77.4z"/>
<path class="st0" d="M87.5,12c-0.7,0-1.4-0.1-2-0.3c-0.6-0.2-1.1-0.5-1.5-1s-0.7-0.9-0.9-1.4c-0.2-0.5-0.3-1.1-0.3-1.6
	c0-0.6,0.1-1.2,0.3-1.8c0.2-0.6,0.5-1,0.9-1.5c0.4-0.4,0.9-0.7,1.5-1c0.6-0.2,1.3-0.4,2-0.4c0.8,0,1.4,0.1,2,0.4
	c0.6,0.2,1.1,0.6,1.5,1c0.4,0.4,0.7,0.9,0.9,1.4s0.3,1.1,0.3,1.7c0,0.2,0,0.3,0,0.5c0,0.2,0,0.3-0.1,0.4h-6c0,0.5,0.2,0.8,0.5,1
	c0.3,0.2,0.6,0.3,1,0.3c0.3,0,0.7-0.1,1-0.2c0.3-0.2,0.5-0.4,0.6-0.6l2.6,0.7c-0.3,0.7-0.9,1.2-1.6,1.7C89.5,11.8,88.6,12,87.5,12z
	 M88.9,6.7c-0.1-0.4-0.2-0.7-0.5-1c-0.2-0.2-0.6-0.4-1-0.4s-0.7,0.1-1,0.4c-0.2,0.2-0.4,0.6-0.5,1H88.9z"/>
<path class="st0" d="M96.4,12c-0.6,0-1.1-0.1-1.6-0.3c-0.5-0.2-0.9-0.5-1.3-0.9s-0.6-0.9-0.8-1.4s-0.3-1.1-0.3-1.8
	c0-0.6,0.1-1.2,0.3-1.8c0.2-0.5,0.4-1,0.8-1.4c0.3-0.4,0.7-0.7,1.2-0.9c0.5-0.2,1-0.3,1.5-0.3c0.5,0,1.1,0.1,1.5,0.4
	c0.5,0.2,0.8,0.6,1.1,1.1V0h3.1v8.5c0,0.3,0,0.5,0.1,0.6c0.1,0.1,0.2,0.2,0.5,0.2v2.6c-0.5,0.1-1,0.2-1.3,0.2
	c-1.1,0-1.7-0.4-1.8-1.2l-0.1-0.3c-0.3,0.5-0.7,0.9-1.2,1.1C97.5,11.9,97,12,96.4,12z M97.2,9.4c0.6,0,1.1-0.3,1.5-0.9V7
	c-0.2-0.4-0.4-0.7-0.7-0.9c-0.3-0.2-0.6-0.3-0.9-0.3c-0.2,0-0.4,0-0.6,0.2C96.3,6,96.1,6.1,96,6.3c-0.1,0.2-0.2,0.4-0.3,0.6
	s-0.1,0.5-0.1,0.7c0,0.5,0.2,1,0.5,1.3C96.3,9.3,96.7,9.4,97.2,9.4z"/>
<path class="st0" d="M37.4,11.8V8.5l-0.9-0.9l-2.9,4.2h-3.6l4.5-6.4l-4.2-5.2h3.6l3.5,4.4V0.3h3.2v11.5H37.4z"/>
<rect y="3.9" class="st1" width="30.1" height="4.1"/>
<text transform="matrix(1 0 0 1 1.572409e-04 7.2465)" class="st0 st2 st3">CRAFTED BY</text>
</svg>
