<?xml version="1.0" encoding="utf-8"?>
<!-- Generator: Adobe Illustrator 21.1.0, SVG Export Plug-In . SVG Version: 6.00 Build 0)  -->
<svg version="1.1" id="Layer_1" xmlns="http://www.w3.org/2000/svg" xmlns:xlink="http://www.w3.org/1999/xlink" x="0px" y="0px"
	 viewBox="0 0 94.4 92.3" style="enable-background:new 0 0 94.4 92.3;" xml:space="preserve">
<path d="M93.5,17.5l-0.3-1.7l-1.7,0.1c-0.3,0-6.5,0.3-14.3,2.7c-4.6,1.4-8.7,3.1-12.4,5.2C59.4,10.6,49,1.5,48.5,1.1L47.2,0
	l-1.3,1.1c-0.5,0.4-10.9,9.5-16.2,22.6c-3.7-2.1-7.8-3.9-12.4-5.2c-7.8-2.3-14-2.6-14.3-2.7l-1.7-0.1L1,17.5
	C0.9,17.7-0.3,23.8,0.1,32c0.4,10.7,3.4,20,8.5,26.7C3.6,62.2,1,66.3,1,70.7c0,6.1,5,11.6,14.1,15.7c8.6,3.8,20,5.9,32.1,5.9
	c12.1,0,23.5-2.1,32.1-5.9c9.1-4,14.1-9.6,14.1-15.7c0-4.4-2.6-8.5-7.6-12.1C91,52,93.9,42.7,94.4,32C94.7,23.8,93.5,17.7,93.5,17.5
	z M47.2,5.3c3,2.9,10.2,10.7,14.1,20.6c-2.8,2-5.3,4.2-7.3,6.6c-2-4.3-5.3-7.3-5.5-7.4L47.2,24l-1.3,1.1c-0.2,0.2-3.5,3.1-5.5,7.4
	c-2.1-2.4-4.5-4.6-7.3-6.6C37,15.9,44.3,8.2,47.2,5.3L47.2,5.3z M51.2,36.3c-1.6,2.5-2.9,5.3-4,8.4c-1.1-3-2.4-5.9-4-8.4
	c0.7-3,2.7-5.5,4-7C48.5,30.8,50.5,33.3,51.2,36.3z M4,31.9C3.8,26.7,4.2,22.3,4.5,20c5.7,0.6,24,3.6,33.7,16
	c6,7.7,7.6,17.6,7.9,24.6c0.2,5.3-0.2,9.8-0.6,12c-5.5-0.3-23-2.5-33.7-16.1C5.9,48.9,4.3,38.9,4,31.9L4,31.9z M89.5,70.7
	c0,4.4-4.3,8.8-11.8,12.1c-8.1,3.6-18.9,5.6-30.5,5.6s-22.4-2-30.5-5.6C9.2,79.5,4.9,75.1,4.9,70.7c0-2.2,1.1-5.6,6.2-9
	C25,76.4,46.3,76.6,47.2,76.6s22.2-0.2,36.1-14.9C88.4,65.2,89.5,68.5,89.5,70.7z M90.4,31.9c-0.3,7-1.9,16.9-7.9,24.6
	c-10.3,13.1-26.9,15.6-33,16.1c0.3-2.6,0.7-6.9,0.5-12.1c-0.1-2.8-0.4-5.4-0.8-8c1.2-6.6,3.6-12.2,7-16.6c6-7.7,15.2-11.7,21.9-13.6
	c5-1.5,9.4-2.1,11.7-2.4C90.2,22.3,90.7,26.7,90.4,31.9L90.4,31.9z"/>
</svg>
