<?xml version="1.0" encoding="utf-8"?>
<!-- Generator: Adobe Illustrator 21.1.0, SVG Export Plug-In . SVG Version: 6.00 Build 0)  -->
<svg version="1.1" id="Layer_1" xmlns="http://www.w3.org/2000/svg" xmlns:xlink="http://www.w3.org/1999/xlink" x="0px" y="0px"
	 viewBox="0 0 96.5 45.6" style="enable-background:new 0 0 96.5 45.6;" xml:space="preserve">
<path d="M95.5,43.6h-5.1v-7.1c2.6-0.1,4.7-1.2,4.7-7.3c0-4.8-1.6-16.5-5.5-16.5c-3.9,0-5.5,11.5-5.5,16.3c0,3.1,0.5,5.1,1.6,6.1
	c0.8,0.8,1.7,1.1,2.7,1.3v7.2H78.2v-7.1c2.6-0.1,4.7-1.2,4.7-7.3c0-4.8-1.6-16.5-5.5-16.5C73.5,12.7,72,24.2,72,29
	c0,3.1,0.5,5.1,1.6,6.1c0.8,0.8,1.7,1.1,2.7,1.3v7.2H66V21.3l4.2,2.4c0.2,0.1,0.3,0.1,0.5,0.1c0.4,0,0.7-0.2,0.9-0.5
	c0.3-0.5,0.1-1.1-0.4-1.4L42.1,5.6c-0.3-0.2-0.7-0.2-1,0l-10.7,6V9c0-0.6-0.5-1-1-1h-5.1c-0.6,0-1,0.5-1,1v6.5l-11.3,6.3
	c-0.5,0.3-0.7,0.9-0.4,1.4c0.3,0.5,0.9,0.7,1.4,0.4l4.2-2.4v22.3H7.1v-7.1c2.6-0.1,4.7-1.2,4.7-7.3c0-4.8-1.6-16.5-5.5-16.5
	c-3.9,0-5.5,11.5-5.5,16.3c0,3.1,0.5,5.1,1.6,6.1c0.8,0.8,1.7,1.1,2.7,1.3v7.2H1c-0.6,0-1,0.5-1,1s0.5,1,1,1h17.3h7.1h14.2H65h30.5
	c0.6,0,1-0.5,1-1S96,43.6,95.5,43.6z M6.1,29.3c-0.6,0-1,0.5-1,1v4c-0.5-0.1-1-0.3-1.2-0.6c-0.6-0.6-1-2.4-1-4.8
	c0-7.3,2.4-14.1,3.5-14.1s3.5,7,3.5,14.3c0,4.6-1,5.2-2.7,5.3v-4.1C7.1,29.8,6.7,29.3,6.1,29.3z M25.4,10h3v2.7l-3,1.7V10z
	 M38.6,43.6H26.4v-9.9c0-3.4,2.7-6.1,6.1-6.1s6.1,2.7,6.1,6.1L38.6,43.6L38.6,43.6z M64,43.6H40.6v-9.9c0-4.5-3.6-8.1-8.1-8.1
	c-4.5,0-8.1,3.6-8.1,8.1v9.9h-5.1V20.1l2.1-1c0,0,0,0,0,0l8.5-4.9l11.7-6.6L64,20.1V43.6z M77.2,29.3c-0.6,0-1,0.5-1,1v4
	c-0.5-0.1-1-0.3-1.2-0.6c-0.6-0.6-1-2.4-1-4.8c0-7.3,2.4-14.1,3.5-14.1s3.5,7,3.5,14.3c0,4.6-1,5.2-2.7,5.3v-4.1
	C78.2,29.8,77.8,29.3,77.2,29.3z M89.4,29.3c-0.6,0-1,0.5-1,1v4c-0.5-0.1-1-0.3-1.2-0.6c-0.6-0.6-1-2.4-1-4.8
	c0-7.3,2.4-14.1,3.5-14.1s3.5,7,3.5,14.3c0,4.6-1,5.2-2.7,5.3v-4.1C90.4,29.8,90,29.3,89.4,29.3z"/>
<path d="M44.7,37.5h13.2c0.6,0,1-0.5,1-1v-7.1v-3c0-0.6-0.5-1-1-1H44.7c-0.6,0-1,0.5-1,1v3v7.1C43.7,37,44.1,37.5,44.7,37.5z
	 M45.7,27.3h11.2v1H45.7V27.3z M45.7,30.3h11.2v5.1H45.7V30.3z"/>
<path d="M68.2,16.8l2,1.1c0.2,0.1,0.3,0.1,0.5,0.1c0.4,0,0.7-0.2,0.9-0.5c0.3-0.5,0.1-1.1-0.4-1.4l-2-1.1c-0.5-0.3-1.1-0.1-1.4,0.4
	C67.6,15.9,67.8,16.5,68.2,16.8z"/>
<path d="M41.2,1.9l25.2,13.9c0.2,0.1,0.3,0.1,0.5,0.1c0.4,0,0.7-0.2,0.9-0.5c0.3-0.5,0.1-1.1-0.4-1.4L42.1,0.1
	C41.6-0.1,41,0,40.8,0.5C40.5,1,40.7,1.6,41.2,1.9z"/>
</svg>
