<?xml version="1.0" encoding="utf-8"?>
<!-- Generator: Adobe Illustrator 21.1.0, SVG Export Plug-In . SVG Version: 6.00 Build 0)  -->
<svg version="1.1" id="Layer_1" xmlns="http://www.w3.org/2000/svg" xmlns:xlink="http://www.w3.org/1999/xlink" x="0px" y="0px"
	 viewBox="0 0 49.6 60.4" style="enable-background:new 0 0 49.6 60.4;" xml:space="preserve">
<style type="text/css">
	.st0{fill:none;stroke:#000000;stroke-width:2;stroke-miterlimit:10;}
	.st1{fill:none;stroke:#000000;stroke-width:2;stroke-linecap:round;stroke-linejoin:round;stroke-miterlimit:10;}
	.st2{fill:none;stroke:#000000;stroke-width:2;stroke-linecap:round;stroke-miterlimit:10;}
</style>
<g>
	<circle class="st0" cx="13.2" cy="11.7" r="2.9"/>
	<line class="st1" x1="11.2" y1="57.2" x2="11.2" y2="33.8"/>
	<g>
		<g>
			<path class="st2" d="M8.3,27.4v27.9l4.9,3.9l4.9-3.9v-2.9l-2.9-2.9l2.9-2.9l-2.9-2.9l2.9-2.9l-2.9-2.9l2.9-2.9v-7.9
				c3.8-1.9,6.3-5.8,6.3-10.4c0-6.4-5.3-11.7-11.7-11.7S1,10.1,1,16.5C1,21.5,4,25.6,8.3,27.4z"/>
		</g>
	</g>
	<g>
		<ellipse transform="matrix(0.9239 -0.3827 0.3827 0.9239 -2.3106 12.6011)" class="st0" cx="30.5" cy="12.1" rx="2.9" ry="2.9"/>
		<line class="st1" x1="43" y1="46" x2="36.1" y2="29.2"/>
		<g>
			<path class="st0" d="M21.9,9.8c1.3-2.1,3.1-3.9,5.6-4.9C32,3,36.8,4.1,40.1,7.3c1.2,1.1,2,2.4,2.7,3.9c1.8,4.2,0.9,8.8-1.9,12
				l1.7,3.9L41,30.9l3.8,1.6l-1.6,3.8l3.8,1.6l1.5,3.6l-3,5.5l-6-1.8l-7.4-17.9c-3.7,0-7.3-1.8-9.5-4.9"/>
		</g>
	</g>
	<path class="st0" d="M13.2,9.2C13.5,4.6,17.3,1,21.9,1s8.5,3.6,8.8,8.2"/>
</g>
</svg>
