<?xml version="1.0" encoding="utf-8"?>
<!-- Generator: Adobe Illustrator 21.1.0, SVG Export Plug-In . SVG Version: 6.00 Build 0)  -->
<svg version="1.1" id="Layer_1" xmlns="http://www.w3.org/2000/svg" xmlns:xlink="http://www.w3.org/1999/xlink" x="0px" y="0px"
	 viewBox="0 0 68 79.6" style="enable-background:new 0 0 68 79.6;" xml:space="preserve">
<g>
	<path d="M61,5.3C56.6,1.7,52,0,46.3,0c-4.8,0-9.7,1.2-14.9,2.5c-5.9,1.4-11.9,2.9-18.6,2.9C9.2,5.4,5.6,4.9,2.1,4L0.1,3.4l0,2.2
		c-0.1,4,1.6,8.9,4.5,13.1c2.5,3.7,7.2,8.7,15.4,11.9c12.7,5.1,14,10.6,15.2,15.8c0.2,0.7,0.3,1.5,0.5,2.3
		c2.1,7.7,6.2,12.7,11.1,13.7v17.2h3.4V62.5c4.9-0.8,9.4-5.5,12-12.9c3.4-9.2,5.2-16.9,5.7-23.3C68.6,16.7,66.3,9.6,61,5.3z
		 M48.6,59.2c-4.1,0-7.8-4.4-9.7-11.4c-0.2-0.7-0.3-1.4-0.5-2.1c-0.6-2.8-1.4-6-3.8-9.2c-0.6-0.7-1.2-1.5-1.9-2.2
		c2.6,0.8,5.4,1.7,8.2,3c7.9,3.6,13.4,8.5,16.5,14.7l0.1-0.1C55,56.6,51.8,59.2,48.6,59.2L48.6,59.2z M46.5,36.4l1-21.1
		c0-0.3,0.3-0.6,0.7-0.6h0.3c0.3,0,0.6,0.3,0.7,0.6l1.1,23.5C49,38,47.8,37.2,46.5,36.4L46.5,36.4z M64.5,26
		C64,32.1,62.2,39.4,59,48.2c-1.5-2.4-3.3-4.6-5.4-6.6l0.1,0l-1.2-26.5l0,0c-0.1-2.1-1.9-3.8-4.1-3.8h-0.3c-2.1,0-3.9,1.7-4.1,3.8
		l-0.9,19.6c-0.3-0.2-0.7-0.3-1-0.5c-6.9-3.1-13.8-4.5-17.7-5.3c-1.1-0.5-2.2-1-3.4-1.5C9.5,22.8,4.5,13.7,3.5,7.8
		c3,0.6,6.1,1,9.3,1c7.1,0,13.6-1.6,19.4-3c5-1.2,9.7-2.4,14.1-2.4c4.8,0,8.8,1.4,12.5,4.5C63.2,11.5,65.1,17.6,64.5,26L64.5,26z"/>
</g>
</svg>
