<?xml version="1.0" encoding="utf-8"?>
<!-- Generator: Adobe Illustrator 21.1.0, SVG Export Plug-In . SVG Version: 6.00 Build 0)  -->
<svg version="1.1" id="Layer_1" xmlns="http://www.w3.org/2000/svg" xmlns:xlink="http://www.w3.org/1999/xlink" x="0px" y="0px"
	 viewBox="0 0 90 90" style="enable-background:new 0 0 90 90;" xml:space="preserve">
<style type="text/css">
	.st0{fill:#0D8D96;}
</style>
<g>
	<path class="st0" d="M45.9,84.9l-5.1-0.2C20.8,82.6,5.1,65.6,5.1,45C5.1,23,23,5.1,45,5.1S84.9,23,84.9,45
		C84.9,66.7,67.5,84.4,45.9,84.9 M45,0C20.2,0,0,20.2,0,45s20.2,45,45,45s45-20.2,45-45S69.8,0,45,0"/>
</g>
<path class="st0" d="M24.3,43.4c14.7,0,28.9,0,43.1,0c0.1,0.2,0.1,0.4,0.1,0.6c-1.7,1.5-3.4,3-4.5,4c-0.3,3-0.6,5.1-0.8,7.4
	c-0.8,0-1.6,0-2.4,0c-0.1-1.2-0.1-2.1-0.1-3.4c-1.9,0.9-3.1,2.2-4.4,3.4c-2.4,2.4-5.1,3.2-8.6,2.6c-3.5-0.7-7.1-0.9-10.7-1.3
	c-0.6-0.1-1.3,0-2,0.4c5.8,1.5,11.6,3,17.6,4.6c-0.2,0.8-0.3,1.5-0.6,2.4c-2-0.4-4.1-1-6.2-1.4c-1.4,1.6-2.8,3.2-4.2,4.8
	c-1.5,1.7-3.5,2.4-5.8,1.9c-2.6-0.5-3.8-1.7-4.1-4.4c-0.2-2-0.2-3.9-0.3-6.1c-1.9-0.5-3.6-1.1-5.5-1.6c-4-1.1-4.7-2-5.2-6.1
	c-0.2-1.7-0.5-3.5-0.7-4.9c-0.1-0.4-1-0.6-1.3-0.6c-0.4-0.1-1-0.1-1.4-0.1c-0.6,0-1.9-0.3-1.9-1.1c0-0.9,2-1.3,2.8-1.3
	c2.1-0.2,4,1,4.8,2.9c0.2,0.4,0.3,1,0.4,1.5c0.2,1.5,0.3,2.9,0.6,4.4c0.3,2,0.6,2.3,3.3,2.8C25.5,51.1,24.9,47.5,24.3,43.4z
	 M42.3,62c-3.4-0.9-6.2-1.7-9.3-2.5c0,1.9,0.1,3.3,0,4.7c-0.1,1.3,0.4,2.4,1.7,2.8s2.8,0.8,3.9-0.4C39.7,65.2,40.8,63.7,42.3,62z
	 M62,46.1c0,0,1.7-1.3,1.5-1.5c-2.9,2-7.8,4.9-10.6,7c-2.4,1.9-4.9,2.5-7.9,2.3c-3.5-0.3-7-0.1-10.4-0.1c4.7,1,9.3,1.7,14.1,2.2
	c1.1,0.1,2.4-0.3,3.3-1C55.4,52.2,58.6,49.2,62,46.1z M47.7,37.1c4.1,1.3,8.4,1.8,11.5,5.1c-2.4,0.3-23.3,0.5-26.4,0.2
	c3.2-3.5,7.5-4,11.5-5.2C45.1,34.7,47.4,35.5,47.7,37.1z M67.3,64.8c-0.1,3.8-3.1,6.8-6.8,6.8c-3.8-0.1-6.8-3.1-6.8-6.8
	c0-3.9,3.1-7,7.1-6.8C64.5,57.9,67.3,60.8,67.3,64.8z M60.6,67.3c1.6-0.1,2.8-1.2,2.8-2.8c0-1.5-1.3-2.6-2.9-2.6
	c-1.7,0.1-2.8,1.2-2.8,2.8C57.7,66.2,58.9,67.3,60.6,67.3z"/>
<g>
	<g transform="translate(-360.000000, -810.000000)">
		<g transform="translate(360.000000, 809.000000)">
			<path class="st0" d="M57.5,22.6v-0.2c0-0.2-0.2-0.4-0.5-0.3c-0.5,0.1-3.1,0.5-5.4,2.1c-3,2.1-4.3,5.1-3.8,8.9
				c-0.6,1.3-1.1,2.5-1.6,3.8c0-3.9-0.7-8.5-2.5-11.2c0-2.5-0.8-4.5-2.3-6c-1.2-1.2-3.6-2.6-7.8-2.5h-0.1c-0.2,0-0.4,0.2-0.4,0.4
				v0.2c0,0.9-0.1,3.7,2.1,5.9c1.7,1.7,4.4,2.6,7.9,2.6l0,0c0.7,1.2,1.2,2.5,1.5,3.9c0.4,1.5,0.6,3,0.7,4.6c0.1,1.4,0.1,2.9,0,4.4
				c0,0.5-0.1,0.9-0.2,1.4c0,0.4-0.4,1.1,0,1.4c0.2,0.1,0.5,0,0.5-0.1c0.1-0.2,0.1-0.5,0.2-0.7c0-0.2,0.1-0.5,0.2-0.7
				c0.1-0.5,0.2-0.9,0.3-1.3c0.2-0.8,0.5-1.5,0.7-2.3c0.2-0.5,0.4-1.1,0.7-1.6c0.1-0.2,0.2-0.5,0.4-0.8c0.1-0.1,0.1-0.2,0.2-0.4
				c0,0,0.1-0.4,0.2-0.4c3.6-0.5,6.1-1.8,7.6-3.9C57.5,27.9,58,25.5,57.5,22.6"/>
		</g>
	</g>
</g>
</svg>
