<?xml version="1.0" encoding="utf-8"?>
<!-- Generator: Adobe Illustrator 21.1.0, SVG Export Plug-In . SVG Version: 6.00 Build 0)  -->
<svg version="1.1" id="Layer_1" xmlns="http://www.w3.org/2000/svg" xmlns:xlink="http://www.w3.org/1999/xlink" x="0px" y="0px"
	 viewBox="0 0 52 58" style="enable-background:new 0 0 52 58;" xml:space="preserve">
<style type="text/css">
	.st0{fill:#0D8D96;}
</style>
<path class="st0" d="M51.6,53.5L35.4,28.2c0.1-0.2,0.1-0.3,0.2-0.5c0.1-0.5,0-1-0.2-1.5l-1.1-1.7c-0.4-0.6-1.1-0.9-1.8-0.9l-2.6-4
	c0-0.2,0-0.4,0-0.6c0-0.2,0-0.4,0-0.6l4.7-7.3C36,9,36.6,6.5,36.3,4L36,0.9c0-0.4-0.3-0.7-0.7-0.8c-0.4-0.1-0.8,0.1-1,0.4l-8.3,13
	l-8.3-13c-0.2-0.3-0.6-0.5-1-0.4c-0.4,0.1-0.7,0.4-0.7,0.8L15.7,4c-0.3,2.5,0.3,5,1.7,7.1l4.7,7.3c0,0.2,0,0.4,0,0.6
	c0,0.2,0,0.4,0,0.6l-2.7,4c-0.7,0-1.4,0.3-1.8,0.9l-1.1,1.7c-0.3,0.4-0.4,1-0.2,1.5c0,0.2,0.1,0.3,0.2,0.5L0.5,53.5
	C0,54.2-0.1,55,0.1,55.7c0.2,0.8,0.6,1.4,1.3,1.8c0.5,0.3,1,0.4,1.6,0.4c1,0,1.9-0.5,2.5-1.3l16.1-25.3c0,0,0.1,0,0.1,0
	c0.1,0,0.3,0,0.4,0c0.5-0.1,0.9-0.4,1.2-0.9l1.1-1.7c0.4-0.6,0.4-1.3,0.1-2l1.6-2.4l1.6,2.4c-0.1,0.2-0.1,0.3-0.2,0.5
	c-0.1,0.5,0,1,0.2,1.5l1.1,1.7c0.4,0.6,1,0.9,1.6,0.9c0,0,0.1,0,0.1,0l16.1,25.3c0.4,0.7,1.1,1.1,1.8,1.3c0.2,0,0.4,0.1,0.7,0.1
	c0.6,0,1.1-0.2,1.6-0.4c0.7-0.4,1.1-1.1,1.3-1.8C52.1,55,52,54.2,51.6,53.5z M34.4,3.7l0,0.4c0.2,2-0.3,4.1-1.4,5.8L29,16.4
	c-0.5-0.6-1.1-1-1.8-1.2L34.4,3.7z M18.9,10c-1.1-1.7-1.6-3.8-1.4-5.9l0-0.4l7.3,11.5c-0.7,0.2-1.3,0.6-1.8,1.2L18.9,10z M3.8,55.7
	c-0.3,0.5-1,0.7-1.5,0.3c-0.5-0.3-0.7-1-0.3-1.5l16-25.1l1.8,1.1L3.8,55.7z M22.8,27.8l-1.1,1.7c0,0-0.1,0-0.1,0l0,0l0,0l-3.4-2.1
	c0,0,0,0,0,0c0,0,0,0,0,0l1.1-1.7c0,0,0,0,0,0c0,0,0,0,0,0L22.8,27.8C22.8,27.7,22.8,27.7,22.8,27.8z M23,25.6l-1.8-1.1l1.8-2.8
	c0.5,0.6,1.1,1,1.8,1.2L23,25.6z M23.9,19c0-1.1,0.9-2.1,2.1-2.1s2.1,0.9,2.1,2.1S27.1,21,26,21C24.9,21,23.9,20.1,23.9,19z
	 M27.2,22.7c0.7-0.2,1.3-0.6,1.8-1.2l1.8,2.8L29,25.5L27.2,22.7z M30.4,29.4L30.4,29.4L30.4,29.4c0,0-0.1,0-0.1,0l-1.1-1.7
	c0,0,0-0.1,0-0.1l0,0l0,0l0,0l3.4-2.1h0c0,0,0,0,0.1,0l1.1,1.7v0c0,0,0,0,0,0L30.4,29.4z M50.1,55.3c-0.1,0.3-0.2,0.5-0.5,0.7
	c-0.2,0.1-0.5,0.2-0.8,0.1c-0.3-0.1-0.5-0.2-0.7-0.5l-16-25.1l1.8-1.1l16,25.1C50.2,54.8,50.2,55.1,50.1,55.3z"/>
</svg>
