<?xml version="1.0" encoding="utf-8"?>
<!-- Generator: Adobe Illustrator 21.1.0, SVG Export Plug-In . SVG Version: 6.00 Build 0)  -->
<svg version="1.1" id="Layer_1" xmlns="http://www.w3.org/2000/svg" xmlns:xlink="http://www.w3.org/1999/xlink" x="0px" y="0px"
	 viewBox="0 0 310.8 296.8" style="enable-background:new 0 0 310.8 296.8;" xml:space="preserve">
<style type="text/css">
	.st0{fill:#008C96;}
	.st1{fill:#010101;}
	.st2{fill:none;}
	.st3{fill:#FFFFFF;}
</style>
<title>i22 copy 4</title>
<desc>Created with Sketch.</desc>
<g>
	<path class="st0" d="M60.4,89.9l-5.1-0.2c-20-2.1-35.7-19.1-35.7-39.7c0-22,17.9-39.9,39.9-39.9S99.4,28,99.4,50
		C99.4,71.7,82,89.4,60.4,89.9 M59.5,5c-24.8,0-45,20.2-45,45s20.2,45,45,45s45-20.2,45-45S84.3,5,59.5,5"/>
</g>
<path class="st0" d="M38.8,48.4c14.7,0,28.9,0,43.1,0C82,48.6,82,48.8,82,49c-1.7,1.5-3.4,3-4.5,4c-0.3,3-0.6,5.1-0.8,7.4
	c-0.8,0-1.6,0-2.4,0c-0.1-1.2-0.1-2.1-0.1-3.4c-1.9,0.9-3.1,2.2-4.4,3.4c-2.4,2.4-5.1,3.2-8.6,2.6c-3.5-0.7-7.1-0.9-10.7-1.3
	c-0.6-0.1-1.3,0-2,0.4c5.8,1.5,11.6,3,17.6,4.6c-0.2,0.8-0.3,1.5-0.6,2.4c-2-0.4-4.1-1-6.2-1.4c-1.4,1.6-2.8,3.2-4.2,4.8
	c-1.5,1.7-3.5,2.4-5.8,1.9c-2.6-0.5-3.8-1.7-4.1-4.4c-0.2-2-0.2-3.9-0.3-6.1c-1.9-0.5-3.6-1.1-5.5-1.6c-4-1.1-4.7-2-5.2-6.1
	c-0.2-1.7-0.5-3.5-0.7-4.9c-0.1-0.4-1-0.6-1.3-0.6c-0.4-0.1-1-0.1-1.4-0.1c-0.6,0-1.9-0.3-1.9-1.1c0-0.9,2-1.3,2.8-1.3
	c2.1-0.2,4,1,4.8,2.9c0.2,0.4,0.3,1,0.4,1.5c0.2,1.5,0.3,2.9,0.6,4.4c0.3,2,0.6,2.3,3.3,2.8C40,56.1,39.4,52.5,38.8,48.4z M56.8,67
	c-3.4-0.9-6.2-1.7-9.3-2.5c0,1.9,0.1,3.3,0,4.7c-0.1,1.3,0.4,2.4,1.7,2.8s2.8,0.8,3.9-0.4C54.2,70.2,55.3,68.7,56.8,67z M76.5,51.1
	c0,0,1.7-1.3,1.5-1.5c-2.9,2-7.8,4.9-10.6,7c-2.4,1.9-4.9,2.5-7.9,2.3c-3.5-0.3-7-0.1-10.4-0.1c4.7,1,9.3,1.7,14.1,2.2
	c1.1,0.1,2.4-0.3,3.3-1C69.9,57.2,73.1,54.2,76.5,51.1z M62.2,42.1c4.1,1.3,8.4,1.8,11.5,5.1c-2.4,0.3-23.3,0.5-26.4,0.2
	c3.2-3.5,7.5-4,11.5-5.2C59.6,39.7,61.9,40.5,62.2,42.1z M81.8,69.8c-0.1,3.8-3.1,6.8-6.8,6.8c-3.8-0.1-6.8-3.1-6.8-6.8
	c0-3.9,3.1-7,7.1-6.8C79,62.9,81.8,65.8,81.8,69.8z M75.1,72.3c1.6-0.1,2.8-1.2,2.8-2.8c0-1.5-1.3-2.6-2.9-2.6
	c-1.7,0.1-2.8,1.2-2.8,2.8C72.2,71.2,73.4,72.3,75.1,72.3z"/>
<g>
	<path d="M-295,23.1l-0.7,0.8l-3.1-2.8l0.7-0.8l0,0l0.7-0.8l-0.8-0.7l-2.1,2.3l0.3,0.3c-1.3,1.3-5.3,5.1-6.7,6.7
		c-3.2,3.6-6.7,8.1-5.1,9.6l0.8,0.7c1.7,1.5,4.4-0.8,9.1-6c1.4-1.6,4.9-5.9,6-7.4l0.4,0.3l2.1-2.3l-0.8-0.7L-295,23.1L-295,23.1z
		 M-310.4,37.7l-0.8-0.7c0,0-0.9-1.4,5.2-8.1c0.7-0.8,2.3-2.3,3.7-3.8l1.4,1.3l0.7-0.8l-1.3-1.2c0.3-0.3,0.5-0.5,0.8-0.7l1.7,1.5
		l0.7-0.8l-1.6-1.5c0.3-0.3,0.6-0.5,0.8-0.7l2.4,2.2c-1.1,1.3-4.6,5.8-6,7.4C-306,35.2-309.3,38.6-310.4,37.7z"/>
	<path d="M-279.5,3.1L-279.5,3.1l-0.2-0.2c-0.2-0.1-5.8-2.8-17,9.5l-1.3,1.4l1.7,4.4l-1.2,1.3l-0.7,0.8l0,0l3.1,2.8l0.7-0.8l1.2-1.3
		l4.5,1.3l1.3-1.4C-276.2,8.6-279.4,3.3-279.5,3.1z M-288.9,21.1l-4.5-1.3l-1.6,1.8l-1.6-1.4l1.6-1.8l-1.7-4.4l0.8-0.9
		c8.8-9.7,13.8-9.7,15.3-9.4l-1.6,1.8l0.4,0.4l1.6-1.8c0.4,1.4,0.9,6.4-7.9,16.1L-288.9,21.1z"/>
	<path d="M-289.2,13.5c-1.4-1.3-5.1,2.4-5.1,2.5l0.8,0.7c0.9-1,3.1-2.5,3.6-2.4c0.2,0.5-1.1,2.8-2,3.8l0.8,0.7
		C-291.1,18.8-287.8,14.8-289.2,13.5z"/>
</g>
<path d="M586.1-45.5c0-3.3,0-6.9,0-8c0-3.9,2-6.9,4.7-9.4c0.8,0.4,1.6,0.8,2.4,1.1c6.4,2.3,14.7-0.1,19-5.6
	c4.5-5.8,5.6-12.4,4.3-19.5c-0.4-2.4-1.3-4.7-2.5-7c-2.1,3-5,4.4-8.3,5.3c-0.8,0.2-1.6,0.4-2.5,0.6c-3.5,0.8-7,1.5-10.2,3.2
	c-4.6,2.4-7,6.4-7.2,11.6c-0.1,1.8,0.3,3.6,1.2,5.3c0.2-0.1,0.3-0.2,0.4-0.3c2.5-2.4,5.3-4.3,8.5-5.7c2.2-1,4.4-1.9,6.6-3
	c3.3-1.6,6.2-3.7,8.2-6.9c0.1-0.1,0.1-0.2,0.2-0.2c0.1,0.1,0.2,0.1,0.3,0.2c-1,1.5-1.9,3-3,4.3c-2.3,2.8-5.4,4.7-8.5,6.4
	c-4.3,2.2-8.3,4.8-11.7,8.3c-2.6,2.6-5,5.5-6.6,8.8c-0.2,0.5-0.4,1-0.7,1.5c-0.2-0.3-0.4-0.5-0.6-0.7c-2.4-3.1-5.1-6-8.5-8.1
	c-1.8-1.1-3.6-2.2-5.4-3.3c-2.1-1.3-4.1-2.8-5.7-4.7c-1.3-1.6-2.4-3.3-3.2-5.2c0.2,0.1,0.3,0.2,0.3,0.4c1.7,2.7,3.9,4.8,6.8,6.3
	c1.5,0.8,3,1.5,4.5,2.2c3.7,1.7,7.2,3.8,9.9,6.9c0.1,0.1,0.1,0.1,0.3,0.2c0.1-0.2,0.2-0.4,0.3-0.7c2.2-6.1-0.6-13.4-6.3-16.4
	c-2.6-1.4-5.4-2.1-8.2-2.8c-4-1-7.8-2.2-10.3-5.9c0,0-0.1,0-0.2-0.1c-0.1,0.3-0.3,0.5-0.4,0.8c-1.3,2.9-2,5.9-2.2,9
	c-0.4,6.3,0.9,12.1,4.8,17.2c4.1,5.4,13,7.8,19,3.8c2.3,2.1,4.7,4.1,5.1,7.4c0,0.1,0,1.3,0,2.8L586.1-45.5z"/>
<g>
	<g transform="translate(-342.000000, -820.000000)">
		<g transform="translate(342.000000, 819.000000)">
			<path class="st0" d="M158,93.5c-0.1,0-0.1,0-0.2,0c-0.5-0.1-0.9-0.6-0.8-1.2c1.9-9.3,1.3-27.9-4.9-37.2c-0.3-0.5-0.2-1.1,0.3-1.4
				s1.1-0.2,1.4,0.3c6.5,9.8,7.1,29.1,5.1,38.8C158.9,93.2,158.5,93.5,158,93.5"/>
			<path class="st0" d="M130,35.5c0,2.4,0.2,8.1,4.4,12.3c3.7,3.7,9.6,5.6,17.6,5.7c-0.2-5.2-1.8-9.4-4.9-12.4
				c-2.6-2.6-7.7-5.6-16.8-5.6C130.2,35.5,130.1,35.5,130,35.5 M152.3,55.5c-8.7,0-15.2-2.1-19.3-6.3c-5.2-5.2-5-12.1-5-14.3v-0.4
				c0-0.6,0.4-1,1-1h0.3c10.4-0.2,16.2,3.2,19.1,6.1c3.6,3.6,5.5,8.6,5.5,14.8c0,0.5-0.4,1-1,1C152.8,55.5,152.6,55.5,152.3,55.5"/>
			<path class="st0" d="M153,55.5c-0.3,0-0.6-0.1-0.8-0.4c-3.5-4.2-7.3-7.4-11.7-9.8c-0.5-0.3-0.7-0.9-0.4-1.4s0.9-0.7,1.4-0.4
				c4.7,2.5,8.7,5.9,12.3,10.3c0.4,0.4,0.3,1.1-0.1,1.4C153.4,55.4,153.2,55.5,153,55.5"/>
			<path class="st0" d="M185.7,47.5c-2.2,0.4-7,1.6-11.4,4.6c-6.6,4.5-9.4,10.9-8.5,19.2c7.9-1.2,13.5-4.1,16.8-8.6
				C185.6,58.8,186.6,53.7,185.7,47.5 M165,73.5c-0.5,0-0.9-0.4-1-0.9c-1.4-9.5,1.8-17.2,9.2-22.2c5.6-3.8,11.9-4.9,13.2-5.1
				c0.5-0.1,1.1,0.3,1.1,0.8l0.1,0.4c1.2,7,0.1,12.8-3.3,17.3c-3.8,5.1-10.2,8.3-19.2,9.6C165.1,73.5,165,73.5,165,73.5"/>
			<path class="st0" d="M165,73.5c-0.2,0-0.4-0.1-0.6-0.2c-0.4-0.3-0.5-1-0.2-1.4c1.2-1.6,2.3-3.3,3.4-4.8c2.6-3.8,5-7.4,8.8-10.2
				c0.4-0.3,1.1-0.2,1.4,0.2c0.3,0.4,0.2,1.1-0.2,1.4c-3.6,2.6-5.8,5.9-8.4,9.7c-1.1,1.6-2.2,3.2-3.5,4.9
				C165.6,73.4,165.3,73.5,165,73.5"/>
			<path class="st0" d="M158,93.5c-0.1,0-0.1,0-0.2,0c-0.5-0.1-0.9-0.7-0.8-1.2c2-9.2,4.1-14.2,7.1-20.2c0.2-0.5,0.8-0.7,1.3-0.4
				c0.5,0.2,0.7,0.8,0.4,1.3c-2.9,5.9-4.9,10.8-6.9,19.8C158.9,93.2,158.5,93.5,158,93.5"/>
		</g>
	</g>
</g>
<g>
	<path d="M-373.1,138.6h-5.8v-1.8c0-0.6-0.4-1-1-1h-6.2c-0.6,0-1,0.4-1,1v1.8h-5.6c-0.6,0-1,0.4-1,1v14.9c0,5.7,8.3,12.2,11,12.2
		c2.6,0,10.7-6.5,10.7-12.2v-14.9C-372.1,139.1-372.5,138.6-373.1,138.6z M-385.1,137.8h4.1v0.8h-4.1V137.8z M-374.1,154.5
		c0,4.8-7.2,10.2-8.7,10.2c-1.3,0-9-5.5-9-10.2v-13.9h5.6v5c0,1.7,1.3,8.2,3.4,8.2c1.8,0,2.9-4.5,3.1-5.9c0.1-0.3-0.1-0.5-0.4-0.6
		s-0.5,0.1-0.6,0.4c-0.6,3.2-1.7,5.1-2.2,5.1c-0.8,0-2.4-4.4-2.4-7.2v-5h4.8v1.4c0,0.3,0.2,0.5,0.5,0.5s0.5-0.2,0.5-0.5v-1.4h5.4
		L-374.1,154.5L-374.1,154.5z"/>
	<path d="M-379.8,145.1c-0.3,0-0.5,0.2-0.5,0.5c0,0.2,0,0.3,0,0.5c0,0.3,0.2,0.5,0.5,0.5l0,0c0.3,0,0.5-0.2,0.5-0.5
		c0-0.2,0-0.4,0-0.6C-379.3,145.3-379.6,145.1-379.8,145.1z"/>
	<path d="M-386.9,134.5h7.8c1.1,0,2-0.9,2-2v-1.3c0-1.1-0.8-1.9-1.9-2c0.4-2.7,1.2-9.4,1.4-11.7c0.1-1.7-0.3-3.2-1.2-4.2
		c-1-1.1-2.4-1.6-4.2-1.6c-1.8,0-3.3,0.6-4.2,1.6c-1,1-1.4,2.5-1.2,4.2c0.2,2.3,1.1,9,1.4,11.7c-1,0.1-1.9,0.9-1.9,2v1.3
		C-388.9,133.6-388,134.5-386.9,134.5z M-386.9,131.1h1c0.3,0,0.6-0.1,0.8-0.3c0.2-0.2,0.3-0.5,0.2-0.8c0-0.1-1.3-9.9-1.6-12.8
		c-0.1-1.1,0.1-2.1,0.7-2.7s1.5-1,2.8-1s2.2,0.3,2.8,1c0.6,0.6,0.8,1.5,0.7,2.7c-0.3,2.9-1.6,12.7-1.6,12.8c0,0.3,0,0.6,0.2,0.8
		s0.5,0.3,0.8,0.3h1v1.3h-7.8C-386.9,132.5-386.9,131.1-386.9,131.1z"/>
	<path d="M-383,115c-1.3,0-2.4,1.1-2.4,2.4s1.1,2.4,2.4,2.4s2.4-1.1,2.4-2.4S-381.7,115-383,115z M-383,118.8
		c-0.8,0-1.4-0.6-1.4-1.4s0.6-1.4,1.4-1.4s1.4,0.6,1.4,1.4S-382.2,118.8-383,118.8z"/>
</g>
<g>
	<path class="st0" d="M160.4,89.9l-5.1-0.2c-20.1-2.1-35.8-19.1-35.8-39.7c0-22,17.9-39.9,39.9-39.9s40,17.9,40,39.9
		C199.4,71.7,182,89.4,160.4,89.9 M159.5,5c-24.8,0-45,20.2-45,45s20.2,45,45,45s45-20.2,45-45S184.3,5,159.5,5"/>
</g>
<g>
	<g transform="translate(-360.000000, -810.000000)">
		<g transform="translate(360.000000, 809.000000)">
			<path class="st0" d="M251.7,59.3c-2.8,0.5-5.4,1.3-7.6,2.4c-6.1-0.6-10.8,1.1-15.1,3.7c-18.7,11.5-3.4,1.9-4.3,12.2v0.3
				c-0.1,0.6,0.3,1,0.9,1.1h0.4c2.2,0.3,5,7.3,10.8,2.7c4.7-3.6,7.5-9.8,8.6-18.4v-0.1c2.3-1.1,4.7-1.7,7.1-2.2
				C252.6,60.6,252,59.9,251.7,59.3z"/>
			<path class="st0" d="M287.5,46.5l-0.1-0.4c-0.1-0.5-0.6-0.9-1.1-0.8c-1.2,0.2-7.5,1.3-13.2,5.1c-7.3,5-10.5,12.5-9.2,21.8
				c-1.5,3.1-2.8,6-4,9.3c0-6.5-0.5-13-2.4-19.2c-0.6,0.4-1,1.1-1.6,0.9c0.3,0.9,0,0.8,0.2,1.6c0.9,3.6,1.4,7.4,1.7,11.1
				c0.2,3.5,0.2,7.1,0,10.7c-0.1,1.2-0.2,2.3-0.4,3.5c-0.1,0.9-0.9,2.7,0.1,3.3c0.4,0.2,1.1,0.1,1.3-0.3c0.3-0.4,0.3-1.1,0.4-1.6
				c0.1-0.6,0.3-1.2,0.4-1.7c0.3-1.1,0.5-2.1,0.8-3.2c0.5-1.9,1.1-3.7,1.8-5.5c0.5-1.3,1-2.6,1.6-3.9c0.3-0.6,0.6-1.2,0.9-1.9
				c0.2-0.3,0.3-0.6,0.5-1c0.1-0.1,0.3-0.9,0.5-0.9c8.7-1.3,14.9-4.5,18.6-9.5C287.6,59.3,288.7,53.4,287.5,46.5z"/>
		</g>
	</g>
</g>
<g>
	<path class="st0" d="M259.5,5c-24.8,0-45,20.2-45,45s20.2,45,45,45s45-20.2,45-45S284.3,5,259.5,5z M260.4,89.9l-5.1-0.2
		c-20.1-2.1-35.8-19.1-35.8-39.7c0-22,17.9-39.9,39.9-39.9s40,17.9,40,39.9C299.4,71.7,282,89.4,260.4,89.9z"/>
</g>
<g>
	<g transform="translate(-360.000000, -810.000000)">
		<g transform="translate(360.000000, 809.000000)">
			<path class="st0" d="M72,27.6v-0.2c0-0.2-0.2-0.4-0.5-0.3c-0.5,0.1-3.1,0.5-5.4,2.1c-3,2.1-4.3,5.1-3.8,8.9
				c-0.6,1.3-1.1,2.5-1.6,3.8c0-3.9-0.7-8.5-2.5-11.2c0-2.5-0.8-4.5-2.3-6c-1.2-1.2-3.6-2.6-7.8-2.5H48c-0.2,0-0.4,0.2-0.4,0.4v0.2
				c0,0.9-0.1,3.7,2.1,5.9c1.7,1.7,4.4,2.6,7.9,2.6l0,0c0.7,1.2,1.2,2.5,1.5,3.9c0.4,1.5,0.6,3,0.7,4.6c0.1,1.4,0.1,2.9,0,4.4
				c0,0.5-0.1,0.9-0.2,1.4c0,0.4-0.4,1.1,0,1.4c0.2,0.1,0.5,0,0.5-0.1c0.1-0.2,0.1-0.5,0.2-0.7c0-0.2,0.1-0.5,0.2-0.7
				c0.1-0.5,0.2-0.9,0.3-1.3c0.2-0.8,0.5-1.5,0.7-2.3c0.2-0.5,0.4-1.1,0.7-1.6c0.1-0.2,0.2-0.5,0.4-0.8c0.1-0.1,0.1-0.2,0.2-0.4
				c0,0,0.1-0.4,0.2-0.4c3.6-0.5,6.1-1.8,7.6-3.9C72,32.9,72.5,30.5,72,27.6"/>
		</g>
	</g>
</g>
<g>
	<g>
		<path d="M15.7-208.8l-7.4-13.3c-1.6-2.9-5.4-4-8.3-2.4l-5.1,2.8l-3-4.6c-0.6-1-1.6-1.6-2.6-1.6c-1.3,0-1.3,0.5-8.9,4.5
			c-4.6-8-4.3-8.3-5.2-8.6c-0.3-0.1-0.7-0.1-1,0.1l-4.7,2.6c-0.6,0.4-0.9,1.2-0.5,1.8l4.4,7.9l-7.5,4.2c-0.9,0.5-1.4,1.5-1.4,2.5
			c0,1.1,0.2,1,3.9,9.1c0.2,0.5,0.7,0.8,1.2,0.8c1,0,1.6-1,1.2-1.9c-3.8-8.1-3.6-7.6-3.6-7.7c-0.1-0.2-0.1-0.4,0-0.4l7.5-4.2
			c5,8.6,4.6,8.8,5.5,9.1c0.9,0.3,1.2-0.4,5.8-2.8c0.6-0.4,0.9-1.2,0.5-1.8l-4.7-8.5l7.5-4.2c0.1,0,0.3,0.1,0.4,0.2c0,0,0,0.1,0,0.1
			c5.3,8.2,3.1,4.7,11.1,17c0.4,0.6,1.2,0.8,1.9,0.4c0.6-0.4,0.8-1.2,0.4-1.9l-4.1-6.2l3.1-1.7c0.1-0.1,0.4,0,0.4,0.1l1,1.8
			c0.4,0.6,1.2,0.9,1.8,0.5s0.9-1.2,0.5-1.8l-1-1.8c-0.5-1-1.5-1.5-2.6-1.5c-1.3,0-1.8,0.7-4.7,2.2l-1-1.6l4.9-2.7
			c1.6-0.9,3.7-0.3,4.6,1.3c7.5,13.8,7.8,13.4,7.8,14.9c0,0.5-0.1,1.1-0.4,1.6c-0.3,0.7-0.1,1.5,0.6,1.8c0.7,0.3,1.5,0.1,1.8-0.6
			c0.4-0.9,0.7-1.8,0.7-2.8C16.5-206.9,16.2-207.9,15.7-208.8z M-16.6-212.3l-2.4,1.3c-0.2-0.3-8.9-16-9.2-16.4l2.4-1.3
			C-23.8-225.2-18.7-216.2-16.6-212.3z"/>
	</g>
</g>
<g>
	<g>
		<circle cx="-18.7" cy="-213.3" r="1.1"/>
	</g>
</g>
<g>
	<g>
		<path d="M13.7-192.9c0,0,0.3,0.5-3.7-5.7l1.1-0.6c0.6-0.4,0.9-1.2,0.5-1.8c-0.4-0.6-1.2-0.9-1.8-0.5l-1.3,0.7l-1.1-1.6l2.2-1.2
			c1-0.5,1.5-1.5,1.5-2.6c0-1.3-0.6-1.7-2.7-5.6c-0.4-0.6-1.2-0.9-1.8-0.5c-0.6,0.4-0.9,1.2-0.5,1.8c2.4,4.3,2.3,4.1,2.3,4.3
			c0,0.4-0.4,0.3-2.5,1.6l0,0c-0.4-0.6-1.2-0.8-1.9-0.4c-0.6,0.4-0.8,1.1-0.5,1.7c0.1,0.2,7.8,11.8,7.8,12c0,0.1-0.1,0.3-0.2,0.4
			c-27.9,15.5-26.8,15.2-27.1,14.8c-7.5-16-5.8-12.4-11-23.4c-0.3-0.7-1.1-1-1.8-0.6c-0.7,0.3-1,1.1-0.6,1.8l2.8,5.9
			c-4-1-7.9-2-11.1-2.8c-0.6-3.4-3.3-6.2-6.8-6.7l-2.1-0.3c-1.9-0.3-3.6,1-3.8,2.9l-1.5,10.4c-0.3,1.8,1,3.6,2.9,3.8
			c1.9,0.3,6.1,1.4,9.4-2.5l18.1,5.9c3.4,7.3,3.2,6.8,3.2,6.8c0.8,1.5,2.7,2,4.2,1.1l26.6-14.8C13.9-189.6,14.5-191.5,13.7-192.9z
			 M-40.4-193.3c-0.2,1-0.1,3.1-2.2,4.6c0,0,0,0,0,0c-1.1,0.9-2.5,1.2-4,1c-2-0.3-2.3-0.2-2.6-0.6c-0.3-0.4-0.1-0.2,1.3-10.9
			c0-0.3,0.3-0.6,0.7-0.6c0.1,0,0,0,2.2,0.3c2,0.3,3.5,1.6,4.2,3.2C-40.1-194.7-40.4-193.6-40.4-193.3z M-38.3-190.1
			c0.4-1.1,0.4-2,0.5-2.5c3,0.7,8.5,2.1,12.6,3.1l2,4.3L-38.3-190.1z"/>
	</g>
</g>
<g>
	<g>
		<path d="M-55.4-158.3h-1.5c-0.5-1.9-1.1-4.1-2.1-6.5c2.4-3.1,3.1-6.1,2.2-8.9c-2.2-6.5-12.8-9.1-13.2-9.2
			c-0.8-0.2-1.5,0.3-1.6,1.1c-0.1,0.4-1.3,11,3.6,15.9c1.8,1.8,4.2,2.5,6.7,2.3c0.8,1.9,1.3,3.7,1.7,5.3c-0.4,0-2.1-0.1-4.4,0.5
			c-0.7,0.2-1.1,0.9-0.9,1.7c0.2,0.7,0.9,1.1,1.7,0.9c1.8-0.5,2.6-0.4,7.9-0.4c6.1,0,11.1,5,11.1,11.1c0,0.3-0.3,0.6-0.6,0.6h-25.8
			c-0.3,0-0.6-0.3-0.6-0.6c0-3.2,1.4-6.3,3.9-8.4c0.6-0.5,0.6-1.3,0.1-1.9c-0.5-0.6-1.3-0.6-1.9-0.1c-3.1,2.6-4.8,6.4-4.8,10.4
			c0,1.8,1.5,3.3,3.3,3.3h25.8c1.8,0,3.3-1.5,3.3-3.3C-41.6-152.2-47.8-158.3-55.4-158.3z M-63.3-177.2l-0.5,2.8
			c-0.3-0.5-1.3-2.2-3.1-4.7C-65.7-178.6-64.4-177.9-63.3-177.2z M-68.8-173.5c-0.3-1.4-0.4-2.8-0.4-4.1c1.7,2.4,2.7,4,3.1,4.7
			L-68.8-173.5z M-67.9-170.5l3.7,0.8c0.6,1.2,1.2,2.4,1.7,3.5C-66.7-166.5-67.8-170.4-67.9-170.5z M-60.2-167.7c-0.5-1-1-2-1.5-3
			l0.8-4.5C-60.8-175-57.4-172.5-60.2-167.7z"/>
	</g>
</g>
<g>
	<g>
		<path d="M-54.2-200.3c-0.1,0-2.6,0.1-5.7,1.6c-0.7,0.3-0.9,1.1-0.6,1.8c0.3,0.7,1.2,0.9,1.8,0.6c2.5-1.3,4.5-1.3,4.6-1.3
			c0.7,0,1.3-0.6,1.3-1.4C-52.8-199.7-53.4-200.3-54.2-200.3z"/>
	</g>
</g>
<g>
	<g>
		<path d="M-62.7-195.3c-0.5-0.5-1.4-0.5-1.9,0c-1.3,1.3-2.4,2.8-3.4,4.6c-0.5,0.9,0.1,2,1.2,2c1.5,0,1.1-1.6,4.2-4.7
			C-62.1-193.9-62.1-194.7-62.7-195.3z"/>
	</g>
</g>
<g>
	<g>
		<path d="M-59.8-187.8c-0.7-0.3-1.5,0-1.8,0.7c-0.6,1.3-1.1,2.8-1.4,4.3c-0.2,0.8,0.4,1.7,1.3,1.7c0.6,0,1.2-0.4,1.3-1
			c0.3-1.3,0.7-2.6,1.3-3.8C-58.8-186.7-59.1-187.5-59.8-187.8z"/>
	</g>
</g>
<g>
	<g>
		<path d="M-52.5-195.6c-0.4-0.6-1.2-0.8-1.8-0.4c-0.1,0.1-2.1,1.3-4.2,4c-0.5,0.6-0.4,1.4,0.2,1.9c0.6,0.5,1.4,0.4,1.9-0.2
			c1.8-2.3,3.5-3.4,3.5-3.4C-52.3-194.2-52.1-195-52.5-195.6z"/>
	</g>
</g>
<g>
</g>
<path class="st0" d="M48.4,162.6c-2.3-5.2-6.1-8.1-10.4-8.1c-4.6,0-8.7,3.4-11.3,9.3c-8.6,19.8-17.7,53-17.7,64.7
	c0,15.2,11.1,27.2,25.8,28.7v18.4l6.2,0v-18.3c14.8-1.6,25.7-12.6,25.6-28.8C66.5,216.6,50.5,167.2,48.4,162.6z M15,228.6
	c0-9.9,8.4-41.9,17.2-62.3c1.6-3.6,3.7-5.7,5.8-5.7c1.8,0,3.6,1.7,4.9,4.6c9.1,20.3,17.7,53,17.7,63.4c0,11.5-8.6,21.1-19.8,22.6
	v-8.9l7.9-7.9c1.2-1.2,1.2-3.1,0-4.3c-1.2-1.2-3.1-1.2-4.3,0l-3.6,3.6V206v0c0-1.7-1.4-3-3-3c-1.7,0-3,1.4-3,3v0v14.9l-2.8-2.8
	c-1.2-1.2-3.1-1.2-4.3,0c-1.2,1.2-1.2,3.1,0,4.3l7.1,7.1v21.7C23.5,249.7,15,240.3,15,228.6z"/>
<path class="st0" d="M36,184.5c1.7,0,3-1.4,3-3c0-1.7-1.4-3-3-3c-1.7,0-3,1.4-3,3C33,183.2,34.4,184.5,36,184.5z"/>
<path class="st0" d="M50.4,218.8c1.7,0,3-1.4,3-3c0-1.7-1.4-3-3-3c-1.7,0-3,1.4-3,3C47.4,217.4,48.8,218.8,50.4,218.8z"/>
<path d="M381.6-115.3h-37.4v-0.5c0,0,0-0.1,0-0.1h0c0.1-5.2,2.1-10,5.6-13.8c0.5,0,0.9,0.1,1.4,0.1c6.4,0,12.1-4.6,13.1-11.1
	c0.1-0.6-0.2-1.2-0.7-1.5c-0.2-0.1-0.3-0.2-0.5-0.2c-3.5-0.6-7,0.2-9.9,2.3c-2.8,2-4.7,4.9-5.3,8.3c-2.2,2.3-3.9,5.1-5,8
	c-1.1-2.9-4.9-8.1-4.9-8.1c-1.6-9.2-10.3-15.5-19.5-13.9c-0.4,0.1-0.7,0.3-0.9,0.6c-0.2,0.3-0.3,0.7-0.2,1.1c0.8,4.5,3.2,8.4,6.9,11
	c2.9,2.1,6.3,3.1,9.8,3.1c0.6,0,1.1,0,1.7-0.1c3.7,3.9,5.7,8.9,5.7,14.3v0.5H306c-0.8,0-1.5,0.6-1.5,1.4c-0.1,0.8,0.6,1.6,1.5,1.6
	h35.3l0,0c0,0.9-0.2,1.8-0.5,2.7c-0.5,1.3-1.3,3.4-1.9,4.9c-0.5,1.3-1.6,2.5-2.9,3.1c-2.6,1.3-7,2.6-11.7-0.4
	c-0.7-0.4-1.6-0.2-2,0.5c-0.4,0.7-0.1,1.5,0.5,2c2.4,1.5,4.9,2.2,7.6,2.2c1.1,0,2.2-0.1,3.3-0.4c-1.6,1.3-3.5,2.4-5.5,3.2
	c-3.7,1.4-6.8,3.7-9.3,6.7c-2.5,0.3-11.2,1.8-12.6,8.3c-0.2,0.8,0.3,1.6,1.1,1.7c0.1,0,0.2,0,0.3,0c0.7,0,1.3-0.5,1.4-1.2
	c0.5-2.2,2.3-3.8,5.5-5c0.7-0.2,1.3-0.4,2-0.6c-1,1.8-1.8,3.7-2.2,5.8l-0.9,3.6c-0.2,0.8,0.3,1.6,1.1,1.8c0.1,0,0.2,0,0.3,0
	c0.7,0,1.3-0.4,1.4-1.1l0.9-3.6c1.2-5.2,4.5-9.6,9.1-12.3c-0.5,2.7-0.3,6.7,2.9,11c0.3,0.4,0.7,0.6,1.2,0.6c0.3,0,0.7-0.1,0.9-0.3
	c0.6-0.5,0.7-1.4,0.2-2c-3.8-5-2.3-9.5-1.7-10.9c4.4-1.8,8.1-5,10.5-8.9l-0.5,3.2c-0.3,2.1,0.3,4.3,1.9,5.7c0.7,0.7,1.1,1.6,1.1,2.6
	c0,1-0.5,1.9-1.3,2.5l-4.1,3.1c-0.6,0.5-0.8,1.3-0.4,2c0.3,0.4,0.8,0.7,1.2,0.7c0.3,0,0.6-0.1,0.9-0.3l2.5-1.9
	c0.3,1.6,0.3,3.9-1.4,5.9c-0.5,0.6-0.5,1.5,0.1,2.1c0.3,0.3,0.6,0.4,1,0.4c0.4,0,0.8-0.2,1.1-0.5c3.1-3.6,2.3-7.9,1.7-9.9
	c1-1.1,1.6-2.5,1.6-4c0.1-1.9-0.7-3.7-2-4.9c-0.8-0.8-1.2-1.9-1-3l0.9-5.5l2,6.8c0.4,1.4,1.2,2.6,2.3,3.5c0.8,0.9,5.2,6.6,2.6,10.7
	c-0.4,0.6-0.3,1.5,0.3,1.9c0.3,0.2,0.6,0.3,0.9,0.3c0.5,0,1-0.2,1.2-0.7c1.7-2.7,1.7-6-0.1-9.7c-0.1-0.3-0.3-0.6-0.4-0.9
	c0.7,0,1.4-0.1,2-0.3c2.1-0.6,4.4,0.5,5.2,2.6c1.1,2.9,2.8,5.4,5.1,7.5c-0.1,0.4-0.2,0.8-0.2,1.3c-0.2,1.9,0.2,3.8,1.2,5.7
	c0.3,0.5,0.8,0.8,1.3,0.8c0.3,0,0.5-0.1,0.7-0.2c0.7-0.4,0.9-1.3,0.5-2c-0.8-1.5-0.9-2.8-0.9-3.7c1.3,0.8,2.8,1.5,4.3,1.9l1.1,0.3
	c0.1,0,0.3,0.1,0.4,0.1c0.7,0,1.3-0.4,1.4-1.1c0.2-0.8-0.3-1.5-1.1-1.7l-1-0.3c-4.2-1.2-7.7-4.2-9.6-8.2c0.1,0,0.3,0.1,0.4,0.1
	c0.7,0.1,1.4,0.2,2.1,0.2c2.6,0,4.9-0.9,7-2.7c0.6-0.5,0.7-1.4,0.1-2.1c-0.5-0.6-1.4-0.7-2.1-0.1c-4.5,4-9.7,0.7-9.9,0.6
	c0,0,0,0,0,0c-1.8-1.8-4.5-2.5-7-1.8c-2.3,0.7-4.6-0.6-5.3-2.9l-0.1-0.5c0.8,0.3,1.5,0.4,2.3,0.4c0.9,0,1.8-0.2,2.7-0.5
	c0.7-0.3,1.1-1.1,0.9-1.9c-0.3-0.8-1.2-1.2-1.9-0.8c-1.1,0.5-2.3,0.4-3.3-0.1c-1.1-0.5-1.8-1.4-2.2-2.5l-2.1-7
	c-0.2-0.8-0.4-1.7-0.4-2.6l0,0h37.5c0.8,0,1.5-0.7,1.5-1.6C383.1-114.7,382.4-115.3,381.6-115.3z M354.9-137.7c1.8-1.3,4-2,6.2-1.9
	c-1.4,4.3-5.5,7.2-10.1,7.2C351.7-134.6,353-136.4,354.9-137.7z M325.8-135.5c-2.6-1.9-4.5-4.5-5.4-7.6c6.5-0.4,12.5,3.9,14.3,10.2
	C331.5-132.7,328.4-133.6,325.8-135.5z"/>
<path d="M467.3-81.5l-9.6-28.8c-0.4-1.3-1.3-2.3-2.4-2.9l-3-9.1c1.8-1.7,3-4.2,3-6.9v-23.3c0-0.4-0.2-0.7-0.5-1
	c-0.3-0.2-0.7-0.3-1.1-0.3c-0.1,0-3.2,0.6-6.1,3.5c-3.6,3.5-5.1,8.3-5.6,12.6c-1.6-7-1.8-14.8-1.8-14.9c0-0.6-0.4-1-0.9-1.2
	c-0.5-0.2-1.1,0-1.4,0.5c-0.2,0.3-5.4,7.9-1.6,22.9v1.2c0,2.7,1.1,5.1,2.9,6.8l-3.1,9.2c-1.1,0.6-1.9,1.7-2.4,2.9L424-81.5
	c-0.5,1.4-0.4,2.8,0.3,4.1c0.6,1.3,1.8,2.3,3.1,2.7c0.6,0.2,1.1,0.3,1.7,0.3c2.3,0,4.4-1.5,5.1-3.7l8.4-25.1h5.9l8.4,25.1
	c0.7,2.2,2.8,3.7,5.1,3.7c0.6,0,1.2-0.1,1.7-0.3c1.4-0.5,2.5-1.4,3.1-2.7C467.7-78.7,467.8-80.2,467.3-81.5z M452.4-114
	c-0.5,0-1,0.1-1.5,0.3c-0.5,0.2-0.9,0.4-1.3,0.6l-2.3-6.8c1-0.2,1.9-0.5,2.8-0.9L452.4-114z M445.7-130.7c0.8,0,1.5,0.7,1.5,1.5
	s-0.7,1.5-1.5,1.5s-1.5-0.7-1.5-1.5S444.9-130.7,445.7-130.7z M438-146.5c0.1,0.7,0.2,1.5,0.2,2.2c0.6,5.1,1.6,9.2,2.8,12.4h-2.5
	C437-138.3,437.3-143.2,438-146.5z M438.8-129.2L438.8-129.2l2.9-0.1c0,0,0,0.1,0,0.1c0,2.2,1.8,4,4,4s4-1.8,4-4s-1.8-4-4-4
	c-0.5,0-1,0.1-1.5,0.3v-0.4c0-6.6,1.7-11.8,5-15c1.2-1.2,2.5-2,3.4-2.4v21.5c0,3.8-3.1,6.9-6.9,6.9S438.8-125.4,438.8-129.2z
	 M444.1-119.9l-2.3,6.8c-0.4-0.3-0.8-0.5-1.3-0.6c-0.5-0.2-1-0.3-1.5-0.3l2.3-6.8C442.2-120.4,443.1-120,444.1-119.9z M431.9-78.9
	c-0.4,1.2-1.5,1.9-2.7,1.9c-0.3,0-0.6,0-0.9-0.1c-1.5-0.5-2.3-2.1-1.8-3.6l9.6-28.8c0.4-1.2,1.5-1.9,2.7-1.9c0.3,0,0.6,0,0.9,0.1
	c0.7,0.2,1.3,0.7,1.6,1.4c0.3,0.7,0.4,1.4,0.2,2.2L431.9-78.9z M443.6-105.8l0.4-1.1c0.4-1.3,0.4-2.7-0.2-3.9l1.9-5.8l1.9,5.8
	c-0.6,1.2-0.6,2.6-0.2,3.9l0.4,1H443.6L443.6-105.8z M463.1-77.1c-0.3,0.1-0.6,0.1-0.9,0.1c-1.2,0-2.3-0.8-2.7-1.9l-9.6-28.8
	c-0.2-0.7-0.2-1.5,0.2-2.2c0.3-0.7,0.9-1.2,1.6-1.4c0.3-0.1,0.6-0.1,0.9-0.1c1.2,0,2.3,0.8,2.7,1.9l9.6,28.8
	C465.4-79.2,464.6-77.6,463.1-77.1z"/>
<path class="st0" d="M541.5,104.5l-46.6-73.2c0.2-0.5,0.4-0.9,0.6-1.5c0.3-1.5,0.1-3-0.7-4.2l-3.1-4.9c-1.1-1.8-3.1-2.7-5.1-2.6
	l-7.6-11.7c0.1-0.5,0.1-1.1,0.1-1.7c0-0.6,0-1.2-0.1-1.7l13.7-21.1c3.9-6.1,5.6-13.3,4.8-20.4l-0.9-9.2c-0.1-1.2-0.9-2.1-2.1-2.4
	c-1.1-0.3-2.3,0.2-2.9,1.2l-23.9,37.7l-23.9-37.7c-0.6-1-1.8-1.5-2.9-1.2c-1.1,0.3-2,1.2-2.1,2.4l-0.9,9.2
	c-0.8,7.1,0.9,14.4,4.8,20.5l13.7,21.1c-0.1,0.6-0.1,1.1-0.1,1.7c0,0.6,0,1.1,0.1,1.7L448.7,18c-2-0.1-4,0.8-5.1,2.6l-3.1,4.9
	c-0.8,1.3-1.1,2.8-0.7,4.2c0.1,0.5,0.3,1,0.6,1.5l-46.6,73.2c-1.2,1.9-1.6,4.2-1.1,6.4c0.5,2.2,1.8,4.1,3.7,5.3
	c1.4,0.9,3,1.3,4.6,1.3c2.8,0,5.6-1.4,7.2-3.9l46.6-73.2c0.1,0,0.2,0,0.3,0c0.4,0,0.8,0,1.2-0.1c1.5-0.3,2.7-1.2,3.5-2.5l3.1-4.9
	c1.1-1.8,1.1-3.9,0.2-5.7l4.5-6.9l4.5,6.9c-0.2,0.5-0.4,0.9-0.5,1.5c-0.3,1.5-0.1,3,0.7,4.2l3.1,4.9c1.1,1.7,2.9,2.6,4.7,2.6
	c0.1,0,0.2,0,0.3,0l46.6,73.2c1.2,1.9,3.1,3.2,5.3,3.7c0.6,0.1,1.2,0.2,1.9,0.2c1.6,0,3.2-0.5,4.6-1.3c1.9-1.2,3.2-3.1,3.7-5.3
	C543.1,108.7,542.7,106.4,541.5,104.5z M491.9-39.5l0.1,1.3c0.6,5.9-0.8,11.9-4,16.9L476.2-2.9c-1.4-1.6-3.2-2.8-5.3-3.4L491.9-39.5
	z M447.2-21.2c-3.2-5-4.6-11-4-17l0.1-1.3l21,33.1c-2.1,0.6-3.9,1.8-5.3,3.4L447.2-21.2z M403.5,110.7c-0.9,1.4-2.8,1.9-4.3,0.9
	c-1.4-0.9-1.9-2.8-0.9-4.3l46.2-72.6l5.2,3.3L403.5,110.7z M458.3,30l-3.1,4.9c-0.1,0.1-0.2,0.1-0.3,0.1c0,0,0,0,0,0c0,0,0,0,0,0
	l-9.8-6.2c0,0-0.1,0-0.1-0.1c0-0.1,0-0.1,0-0.1l3.1-4.9c0,0,0-0.1,0.1-0.1c0.1,0,0.1,0,0.1,0l9.8,6.2
	C458.3,29.8,458.4,29.9,458.3,30z M458.9,23.7l-5.2-3.3l5.3-8.2c1.4,1.6,3.2,2.8,5.2,3.4L458.9,23.7z M461.6,4.6c0-3.3,2.7-6,6-6
	c3.3,0,6,2.7,6,6s-2.7,6-6,6C464.3,10.6,461.6,7.9,461.6,4.6z M471,15.5c2-0.6,3.8-1.8,5.2-3.4l5.3,8.2l-5.2,3.3L471,15.5z
	 M480.3,34.9C480.3,34.9,480.3,34.9,480.3,34.9C480.3,34.9,480.3,34.9,480.3,34.9c-0.1,0.1-0.2,0-0.3-0.1l-3.1-4.9
	c-0.1-0.1,0-0.2,0.1-0.3l0,0c0,0,0,0,0,0c0,0,0,0,0,0l9.8-6.2c0,0,0.1,0,0.1,0c0.1,0,0.1,0,0.2,0.1l3.1,4.9c0,0,0,0.1,0,0.1
	c0,0.1-0.1,0.1-0.1,0.1L480.3,34.9z M537.3,109.7c-0.2,0.8-0.7,1.5-1.4,1.9c-0.7,0.4-1.5,0.6-2.3,0.4c-0.8-0.2-1.5-0.7-1.9-1.4
	L485.5,38l5.2-3.3l46.2,72.6C537.4,108.1,537.5,108.9,537.3,109.7z"/>
<g>
	<g>
		<path d="M-203.5-135.1c0-0.6-0.4-1.3-0.9-1.7c-0.4-0.3-0.9-0.5-1.4-0.6c-0.9-0.1-6.6-0.4-10.3,3.1c-0.3,0.3-0.5,0.6-0.8,0.9
			c-0.2-0.3-0.5-0.6-0.8-0.9c-3.6-3.5-9.3-3.2-10.2-3.1c-0.5,0-1,0.2-1.4,0.6c-0.5,0.4-0.8,1.1-0.9,1.7c-0.1,1.2-0.5,7,3.1,10.5h0
			c2.3,2.3,5.5,2.9,7.8,3v4.7c0,1.4,1.1,2.5,2.5,2.5c1.4,0,2.5-1.1,2.5-2.5v-4.7c2.3-0.1,5.5-0.8,7.8-3
			C-203-128.1-203.4-133.8-203.5-135.1z M-223.6-128.2c-1.1-1.1-1.5-2.8-1.6-4.2c1.4,0.2,3.1,0.6,4.1,1.7c1.1,1,1.5,2.7,1.7,4.1
			C-220.9-126.7-222.6-127.1-223.6-128.2z M-210.1-128.2c-1.1,1-2.8,1.5-4.2,1.6c0.2-1.4,0.6-3.1,1.7-4.1c1.1-1,2.7-1.5,4.1-1.7
			C-208.6-131-209-129.2-210.1-128.2z"/>
	</g>
</g>
<g>
	<g>
		<path d="M-221.6-154c0-0.6-0.3-1.2-0.8-1.6c-0.4-0.4-0.9-0.6-1.5-0.7c-0.8-0.1-6.6-0.5-10.3,3.1c-0.3,0.3-0.5,0.6-0.8,0.9
			c-0.2-0.3-0.5-0.6-0.8-0.9c-3.6-3.5-9.3-3.2-10.3-3.1c-0.6,0-1.2,0.3-1.6,0.8c-0.4,0.4-0.6,0.9-0.7,1.5c-0.1,1.3-0.5,7,3.1,10.5
			c2.3,2.3,5.5,2.9,7.8,3v4.7c0,1.4,1.1,2.5,2.5,2.5c1.4,0,2.5-1.1,2.5-2.5v-4.7c2.3-0.1,5.5-0.8,7.8-3
			C-221.1-147-221.5-152.7-221.6-154z M-241.7-147.1c-1-1-1.5-2.7-1.6-4.2c1.4,0.2,3.1,0.6,4.1,1.7c1.1,1,1.5,2.7,1.7,4.1
			C-239-145.6-240.7-146.1-241.7-147.1z M-228.2-147.1c-1.1,1-2.8,1.5-4.2,1.6c0.2-1.4,0.6-3.1,1.7-4.1c1.1-1,2.7-1.5,4.1-1.7
			C-226.7-149.8-227.1-148.1-228.2-147.1z"/>
	</g>
</g>
<g>
	<g>
		<polygon points="-245.2,-143.6 -245.2,-143.6 -245.2,-143.6 		"/>
	</g>
</g>
<g>
	<g>
		<path d="M-221.6-111c0-0.6-0.3-1.2-0.8-1.6c-0.4-0.4-1-0.6-1.5-0.7c-0.9-0.1-6.6-0.4-10.3,3.1c-0.3,0.3-0.5,0.6-0.8,0.9
			c-0.2-0.3-0.5-0.6-0.8-0.9c-3.6-3.6-9.4-3.2-10.3-3.1c-0.6,0-1.1,0.3-1.5,0.7c-0.5,0.4-0.7,1-0.8,1.6c-0.1,1.3-0.5,7,3.1,10.5
			c2.3,2.3,5.5,2.9,7.8,3v4.7c0,1.4,1.1,2.5,2.5,2.5c1.4,0,2.5-1.1,2.5-2.5v-4.7c2.3-0.1,5.5-0.8,7.8-3
			C-221.1-104.1-221.5-109.7-221.6-111z M-241.7-104.1c-1.1-1.1-1.5-2.8-1.6-4.2c1.4,0.2,3.1,0.6,4.1,1.7c1.1,1,1.5,2.7,1.7,4.1
			C-239-102.7-240.7-103.1-241.7-104.1z M-228.2-104.1c-1.1,1-2.8,1.5-4.2,1.6c0.2-1.4,0.6-3.1,1.7-4.1c1.1-1,2.7-1.5,4.1-1.7
			C-226.7-106.9-227.1-105.2-228.2-104.1z"/>
	</g>
</g>
<g>
	<g>
		<path d="M-137.2-111c0-0.6-0.3-1.2-0.8-1.6c-0.4-0.4-1-0.6-1.5-0.7c-0.9-0.1-6.6-0.4-10.3,3.1c-0.3,0.3-0.5,0.6-0.8,0.9
			c-0.2-0.3-0.5-0.6-0.8-0.9c-3.6-3.6-9.4-3.2-10.3-3.1c-0.6,0-1.1,0.3-1.5,0.7c-0.5,0.4-0.7,1-0.8,1.6c-0.1,1.3-0.5,7,3.1,10.5
			c2.3,2.3,5.5,2.9,7.8,3v4.7c0,1.4,1.1,2.5,2.5,2.5s2.5-1.1,2.5-2.5v-4.7c2.3-0.1,5.5-0.8,7.8-3
			C-136.7-104.1-137.1-109.7-137.2-111z M-157.3-104.1c-1.1-1.1-1.5-2.8-1.6-4.2c1.4,0.2,3.1,0.6,4.1,1.7c1.1,1,1.5,2.7,1.7,4.1
			C-154.6-102.7-156.3-103.1-157.3-104.1z M-143.8-104.1c-1.1,1-2.8,1.5-4.2,1.6c0.2-1.4,0.6-3.1,1.7-4.1c1.1-1,2.7-1.5,4.1-1.7
			C-142.3-106.9-142.7-105.2-143.8-104.1z"/>
	</g>
</g>
<g>
	<g>
		<path d="M-121.4-142.5c0-0.5-0.3-1.1-0.7-1.5c-0.4-0.5-1-0.7-1.6-0.8c-0.8-0.1-6.6-0.4-10.3,3.1c-0.3,0.3-0.5,0.6-0.8,0.9
			c-0.2-0.3-0.5-0.6-0.8-0.9c-3.6-3.5-9.3-3.2-10.2-3.1c-0.5,0-1.1,0.3-1.5,0.7c-0.5,0.4-0.7,1-0.8,1.6c-0.1,1.3-0.5,7,3.1,10.5
			c2.3,2.3,5.5,2.9,7.8,3v4.7c0,1.4,1.1,2.5,2.5,2.5c1.4,0,2.5-1.1,2.5-2.5v-4.7c2.3-0.1,5.5-0.8,7.8-3
			C-120.9-135.5-121.3-141.2-121.4-142.5z M-141.5-135.6c-1-1-1.5-2.7-1.6-4.2c1.4,0.2,3.1,0.6,4.1,1.7c1.1,1,1.5,2.7,1.7,4.1
			C-138.7-134.1-140.5-134.6-141.5-135.6z M-128-135.6c-1.1,1-2.8,1.5-4.2,1.6c0.2-1.4,0.6-3.1,1.7-4.1c1.1-1,2.7-1.5,4.1-1.7
			C-126.5-138.3-126.9-136.6-128-135.6z"/>
	</g>
</g>
<g>
	<g>
		<path d="M-193.8-113.4c-4.7,0-8.4,3.8-8.4,8.4c0,3.8,2.5,7,6,8.1v4.1c0,1.4,1.1,2.5,2.5,2.5c1.4,0,2.5-1.1,2.5-2.5v-4.1
			c3.4-1.1,6-4.3,6-8.1C-185.3-109.6-189.1-113.4-193.8-113.4z M-193.6-101.5c-0.1,0-0.1,0-0.2,0c-0.1,0-0.1,0-0.2,0
			c-1.8-0.1-3.3-1.6-3.3-3.5c0-1.9,1.6-3.5,3.5-3.5s3.5,1.6,3.5,3.5C-190.3-103.1-191.8-101.6-193.6-101.5z"/>
	</g>
</g>
<g>
	<g>
		<path d="M-181.9-135.4c-4.7,0-8.4,3.8-8.4,8.4c0,3.8,2.5,7,6,8.1v4.1c0,1.4,1.1,2.5,2.5,2.5c1.4,0,2.5-1.1,2.5-2.5v-4.1
			c3.4-1.1,6-4.3,6-8.1C-173.4-131.6-177.2-135.4-181.9-135.4z M-181.7-123.5c-0.1,0-0.1,0-0.2,0c-0.1,0-0.1,0-0.2,0
			c-1.8-0.1-3.3-1.6-3.3-3.5c0-1.9,1.6-3.5,3.5-3.5s3.5,1.6,3.5,3.5C-178.4-125.1-179.9-123.6-181.7-123.5z"/>
	</g>
</g>
<g>
	<g>
		<path d="M-170-157.4c-4.7,0-8.4,3.8-8.4,8.4c0,3.8,2.5,7,6,8.1v4.1c0,1.4,1.1,2.5,2.5,2.5s2.5-1.1,2.5-2.5v-4.1
			c3.4-1.1,6-4.3,6-8.1C-161.5-153.6-165.3-157.4-170-157.4z M-169.8-145.5c-0.1,0-0.1,0-0.2,0s-0.1,0-0.2,0
			c-1.8-0.1-3.3-1.6-3.3-3.5c0-1.9,1.6-3.5,3.5-3.5s3.5,1.6,3.5,3.5C-166.5-147.1-168-145.6-169.8-145.5z"/>
	</g>
</g>
<g>
	<g>
		<path d="M-169.4-169.7h-13v-7.1c3.5,0,9.5-0.7,13.6-4.7c5.5-5.4,4.8-14.8,4.7-16.2c0-0.6-0.3-1.1-0.7-1.6c-0.4-0.5-1-0.7-1.6-0.8
			c-0.8-0.1-4.8-0.3-9.1,0.9c0.2-0.9,0.3-1.9,0.3-2.8c0.1-7.7-7-13.8-8.2-14.8c-0.4-0.4-1-0.6-1.6-0.6c-0.6,0-1.2,0.2-1.6,0.6
			c-1,0.8-7.8,6.8-7.9,14.7c0,1,0.1,2,0.3,3c-4.2-1.2-8.2-1-9-0.9c-0.6,0-1.2,0.3-1.6,0.8c-0.4,0.4-0.6,1-0.7,1.5
			c-0.1,1.4-0.9,10.8,4.7,16.3h0c4.1,4,10.1,4.7,13.6,4.7v7.1H-225v-7.1c3.5,0,9.5-0.7,13.6-4.7c5.5-5.4,4.8-14.8,4.7-16.2
			c0-0.6-0.3-1.2-0.8-1.6c-0.4-0.4-1-0.6-1.5-0.7c-0.7-0.1-4.8-0.4-9.1,0.9c0.2-0.9,0.3-1.9,0.3-2.8c0.1-7.7-7-13.8-8.2-14.8
			c-0.4-0.4-1-0.6-1.6-0.6c-0.6,0-1.2,0.2-1.6,0.6c-1,0.8-7.8,6.8-7.9,14.7c0,1,0.1,2,0.3,3c-4.2-1.2-8.2-1-9.1-0.9
			c-0.6,0-1.2,0.3-1.6,0.8c-0.4,0.4-0.6,1-0.7,1.5c-0.1,1.4-0.9,10.8,4.7,16.3h0c4.1,4,10.1,4.7,13.6,4.7v7.1h-15.9
			c-1.4,0-2.5,1.1-2.5,2.5c0,1.4,1.1,2.5,2.5,2.5h64.6L-222-94.1c-0.7,1.2-0.3,2.7,0.9,3.4c0.4,0.2,0.8,0.3,1.2,0.3
			c0.9,0,1.7-0.4,2.2-1.2l42.2-73.1h6.1c1.4,0,2.5-1.1,2.5-2.5C-166.9-168.5-168-169.7-169.4-169.7z M-211.6-195.1
			c0,2.7-0.5,7.4-3.3,10.1c-2.8,2.8-7.4,3.2-10.1,3.3c0.1-2.9,0.8-7.3,3.5-9.9C-218.8-194.5-214.3-195-211.6-195.1z M-240.1-185
			c-2.6-2.5-3.3-7-3.3-10.1c2.6,0.1,7.1,0.7,9.9,3.4c2.7,2.6,3.4,7,3.5,9.9C-232.7-181.8-237.3-182.3-240.1-185z M-232.2-202.1
			c0-3.9,2.8-7.5,4.6-9.4c1.9,1.9,4.9,5.5,4.8,9.5c0,3.9-3,7.5-4.8,9.4C-229.6-194.7-232.2-198.3-232.2-202.1z M-169-195.1
			c0,2.7-0.5,7.4-3.3,10.1c-2.8,2.8-7.4,3.2-10.1,3.3c0.1-2.9,0.8-7.3,3.5-9.9C-176.1-194.5-171.6-195-169-195.1z M-197.4-185
			c-2.8-2.8-3.3-7.4-3.3-10.1c2.6,0.1,7.1,0.7,9.9,3.4c0.2,0.2,0.3,0.3,0.5,0.5c0.1,0.1,0.2,0.2,0.2,0.3c2.1,2.6,2.7,6.5,2.8,9.1
			C-190-181.8-194.6-182.3-197.4-185z M-189.5-202.1c0-3.9,2.8-7.5,4.6-9.4c1.9,1.9,4.9,5.5,4.8,9.5c0,3.9-3,7.5-4.8,9.4
			C-187-194.7-189.6-198.3-189.5-202.1z"/>
	</g>
</g>
<g>
	<g>
		<path d="M-160.8-169.7L-160.8-169.7c-1.4,0-2.5,1.1-2.5,2.5c0,1.4,1.1,2.5,2.5,2.5h0c1.4,0,2.5-1.1,2.5-2.5
			C-158.3-168.5-159.4-169.7-160.8-169.7z"/>
	</g>
</g>
<g>
	<g>
		<path d="M-123.8-169.7h-15.9v-7.1c3.5,0,9.5-0.7,13.6-4.7c5.5-5.4,4.8-14.7,4.7-16.2c0-0.6-0.3-1.1-0.7-1.6
			c-0.4-0.5-1-0.7-1.6-0.8c-0.8-0.1-4.8-0.3-9.1,0.9c0.2-0.9,0.3-1.9,0.3-2.8c0.1-7.7-7-13.8-8.2-14.8c-0.4-0.4-1-0.6-1.6-0.6
			c-0.6,0-1.2,0.2-1.6,0.6c-1,0.8-7.8,6.8-7.9,14.7c0,1,0.1,2,0.3,3c-4.2-1.2-8.2-1-9-0.9c-0.6,0-1.1,0.3-1.6,0.7
			c-0.5,0.4-0.7,1-0.8,1.6c-0.1,1.4-0.9,10.8,4.7,16.3c4.1,4,10.1,4.7,13.6,4.7v7.1h-7.7c-1.4,0-2.5,1.1-2.5,2.5s1.1,2.5,2.5,2.5
			h8.6l-40.8,70.6c-0.7,1.2-0.3,2.7,0.9,3.4c0.4,0.2,0.8,0.3,1.2,0.3c0.9,0,1.7-0.4,2.2-1.2l42.2-73.1h14.2c1.4,0,2.5-1.1,2.5-2.5
			S-122.5-169.7-123.8-169.7z M-126.3-195.1c0,3.1-0.7,7.6-3.3,10.1c-2.8,2.8-7.4,3.2-10.1,3.3c0.1-2.9,0.8-7.3,3.5-9.9
			C-133.4-194.5-128.9-195-126.3-195.1z M-154.8-185c-2.8-2.8-3.3-7.4-3.3-10.1c2.6,0.1,7.1,0.7,9.9,3.4c2.7,2.6,3.4,7,3.5,9.9
			C-147.4-181.8-152-182.3-154.8-185z M-146.9-202.1c0-3.9,2.8-7.5,4.6-9.4c1.9,1.9,4.9,5.5,4.8,9.5c0,3.9-3,7.5-4.8,9.4
			C-144.3-194.7-146.9-198.3-146.9-202.1z"/>
	</g>
</g>
<g>
	<path d="M13.8-62.1h-1.8v-23.6l0.9,0.6c0.3,0.2,0.6,0.3,0.9,0.3c0.5,0,1-0.3,1.3-0.7c0.5-0.7,0.3-1.8-0.4-2.2l-20.7-13.8
		c-0.5-0.4-1.3-0.4-1.8,0l-20.7,13.8c-0.7,0.5-0.9,1.5-0.4,2.2c0.5,0.7,1.5,0.9,2.2,0.4l0.9-0.6v14.9h-3.7v-1.8
		c0-0.9-0.7-1.6-1.6-1.6s-1.6,0.7-1.6,1.6v1.8h-3.7v-1.8c0-0.9-0.7-1.6-1.6-1.6c-0.9,0-1.6,0.7-1.6,1.6v1.8h-3.7v-3.9
		c3-0.7,5.2-3.4,5.2-6.6c0-1.6-0.6-5.2-1.6-8.5c-1.4-4.8-3.1-7-5.2-7c-2.1,0-3.8,2.2-5.2,7c-1,3.3-1.6,6.9-1.6,8.5
		c0,3.2,2.2,5.9,5.2,6.6v3.9h-3.7v-1.8c0-0.9-0.7-1.6-1.6-1.6c-0.9,0-1.6,0.7-1.6,1.6v1.8h-3.7v-1.8c0-0.9-0.7-1.6-1.6-1.6
		c-0.9,0-1.6,0.7-1.6,1.6v1.8h-3.7v-5.5c5.8-0.8,10.4-5.8,10.4-11.9c0-3-1.2-10-3.1-16.4c-2.6-8.6-5.5-12.8-8.9-12.8
		c-3.4,0-6.3,4.2-8.9,12.8c-1.9,6.4-3.1,13.4-3.1,16.4c0,6.1,4.5,11.1,10.4,11.9v5.5H-71v-1.8c0-0.9-0.7-1.6-1.6-1.6
		s-1.6,0.7-1.6,1.6v1.8h-3.7v-1.8c0-0.9-0.7-1.6-1.6-1.6c-0.9,0-1.6,0.7-1.6,1.6v1.8H-83c-0.9,0-1.6,0.7-1.6,1.6
		c0,0.9,0.7,1.6,1.6,1.6h1.8v5.4H-83c-0.9,0-1.6,0.7-1.6,1.6c0,0.9,0.7,1.6,1.6,1.6h96.8c0.9,0,1.6-0.7,1.6-1.6
		C15.4-61.4,14.7-62.1,13.8-62.1z M-48.6-81.2c0-1.2,0.5-4.1,1.3-6.9c1-3.4,1.9-4.8,2.3-5.2c0.4,0.4,1.3,1.8,2.3,5.2
		c0.8,2.8,1.3,5.7,1.3,6.9c0,1.4-0.8,2.6-1.9,3.2v-1.4c0-0.9-0.7-1.6-1.6-1.6c-0.9,0-1.6,0.7-1.6,1.6v1.4
		C-47.8-78.6-48.6-79.8-48.6-81.2z M-74.5-88.1c0-2.7,1.1-9.4,3-15.5c1-3.3,2.1-6,3.1-7.8c1.2-2,2.1-2.7,2.6-2.7s1.5,0.7,2.6,2.7
		c1.1,1.9,2.2,4.6,3.1,7.8c1.8,6.1,3,12.8,3,15.5c0,4.3-3.1,7.8-7.1,8.6v-7.9l3-3c0.6-0.6,0.6-1.7,0-2.3c-0.6-0.6-1.7-0.6-2.3,0
		l-0.7,0.7v-3c0-0.9-0.7-1.6-1.6-1.6s-1.6,0.7-1.6,1.6v6.9c0,0,0,0,0,0v1.3l-0.7-0.7c-0.6-0.6-1.7-0.6-2.3,0c-0.6,0.6-0.6,1.7,0,2.3
		l3,3v2.7C-71.4-80.3-74.5-83.9-74.5-88.1z M-25.9-67.5v5.4h-3.7v-5.4H-25.9z M-32.8-67.5v5.4h-3.7v-5.4H-32.8z M-39.7-67.5v5.4
		h-3.7v-5.4H-39.7z M-46.6-67.5v5.4h-3.7v-5.4H-46.6z M-53.5-67.5v5.4h-3.7v-5.4H-53.5z M-60.4-67.5v5.4h-3.7v-5.4H-60.4z
		 M-67.3-67.5v5.4H-71v-5.4H-67.3z M-77.9-67.5h3.7v5.4h-3.7V-67.5z M-22.6-62.1v-25.7L-7-98.3L8.7-87.8v25.7H-22.6z"/>
	<path d="M-10.4-82.8h-6.9c-0.9,0-1.6,0.7-1.6,1.6v13.8c0,0.9,0.7,1.6,1.6,1.6h6.9c0.9,0,1.6-0.7,1.6-1.6v-13.8
		C-8.8-82.1-9.5-82.8-10.4-82.8z M-12.1-79.6v1.9h-3.7v-1.9H-12.1z M-15.7-69v-5.4h3.7v5.4H-15.7z"/>
	<path d="M3.4-82.8h-6.9c-0.9,0-1.6,0.7-1.6,1.6v13.8c0,0.9,0.7,1.6,1.6,1.6h6.9c0.9,0,1.6-0.7,1.6-1.6v-13.8
		C5-82.1,4.3-82.8,3.4-82.8z M1.8-79.6v1.9h-3.7v-1.9H1.8z M-1.9-69v-5.4h3.7v5.4H-1.9z"/>
</g>
<path d="M643.2,116.8h-5c-5.8-5-14.4-7.9-23.8-8.2v-3.4l3.5-3.5c0.6,0.1,1.2,0.1,1.9,0.1c3.3,0,6.5-1.3,9-3.8
	c3.1-3.1,4.4-7.5,3.5-11.5c-0.1-0.5-0.5-0.9-1-1c-4-0.9-8.5,0.4-11.5,3.5c-2.9,2.9-4.2,7-3.6,10.8l-1.6,1.6v-2.4c0,0,0,0,0,0V88.5
	l3.5-3.5c0.4,0.1,0.9,0.1,1.3,0.1c2.6,0,5.2-1.1,7.2-3c2.5-2.5,3.5-6,2.8-9.3c-0.1-0.5-0.5-0.9-1-1c-3.2-0.7-6.8,0.3-9.3,2.8
	c-2.3,2.3-3.4,5.5-2.9,8.6l-1.6,1.6v-2.4c0,0,0,0,0,0V69.9c1.6-0.5,2.7-2,2.7-3.8c0-0.7-0.2-2.8-0.6-5c1.7,1.4,3.4,2.7,4,3
	c0.6,0.4,1.3,0.5,2,0.5c0.3,0,0.7,0,1-0.1c1-0.3,1.9-0.9,2.4-1.9c1.1-1.9,0.4-4.4-1.5-5.5c-0.6-0.3-2.5-1.2-4.6-2
	c2.1-0.8,4-1.6,4.6-2c1.9-1.1,2.6-3.6,1.5-5.5c-0.5-0.9-1.4-1.6-2.4-1.9c-1-0.3-2.1-0.1-3,0.4c-0.6,0.3-2.3,1.6-4,3
	c0.4-2.2,0.6-4.3,0.6-5c0-2.2-1.8-4-4-4c-2.2,0-4,1.8-4,4c0,0.7,0.2,2.8,0.6,5c-1.7-1.4-3.4-2.7-4-3c-0.9-0.5-2-0.7-3-0.4
	c-1,0.3-1.9,0.9-2.4,1.9c-1.1,1.9-0.4,4.4,1.5,5.5c0.6,0.3,2.5,1.2,4.6,2c-2.1,0.8-4,1.6-4.6,2c-1.9,1.1-2.6,3.6-1.5,5.5
	c0.5,0.9,1.4,1.6,2.4,1.9c0.3,0.1,0.7,0.1,1,0.1c0.7,0,1.4-0.2,2-0.5c0.6-0.3,2.3-1.6,4-3c-0.4,2.2-0.6,4.3-0.6,5
	c0,1.8,1.1,3.3,2.7,3.8v9.5l-1.6-1.6c0.4-3-0.6-6.3-2.9-8.6c-2.5-2.5-6-3.5-9.3-2.8c-0.5,0.1-0.9,0.5-1,1c-0.7,3.2,0.3,6.8,2.8,9.3
	c2,2,4.6,3,7.2,3c0.4,0,0.9,0,1.3-0.1l3.5,3.5v13.1l-1.6-1.6c0.6-3.8-0.7-7.9-3.6-10.8c-3.1-3.1-7.5-4.4-11.5-3.5
	c-0.5,0.1-0.9,0.5-1,1c-0.9,4,0.4,8.5,3.5,11.5c2.4,2.4,5.7,3.8,9,3.8c0.6,0,1.2-0.1,1.9-0.1l3.5,3.5v8.9c-9.4,0.2-18,3.2-23.8,8.2
	h-5c-0.7,0-1.3,0.6-1.3,1.3s0.6,1.3,1.3,1.3h60.2c0.7,0,1.3-0.6,1.3-1.3S643.9,116.8,643.2,116.8z M621.5,90.9
	c2.2-2.2,5.4-3.3,8.3-2.9c0.4,3-0.7,6.1-2.9,8.3c-1.8,1.8-4.2,2.9-6.6,3l6-6c0.5-0.5,0.5-1.3,0-1.8c-0.5-0.5-1.3-0.5-1.8,0l-6.1,6.1
	C618.6,95.1,619.7,92.7,621.5,90.9z M620.8,76.5c1.6-1.6,3.9-2.5,6.1-2.3c0.2,2.2-0.6,4.4-2.3,6.1c-1.2,1.2-2.6,1.9-4.2,2.2l3.2-3.2
	c0.5-0.5,0.5-1.3,0-1.8c-0.5-0.5-1.3-0.5-1.8,0l-3.2,3.2C618.9,79.1,619.6,77.6,620.8,76.5z M601.6,74.8c-1.6-1.6-2.5-3.9-2.3-6.1
	c2.2-0.2,4.4,0.6,6.1,2.2c1.2,1.2,1.9,2.6,2.2,4.2l-3.2-3.2c-0.5-0.5-1.3-0.5-1.8,0c-0.5,0.5-0.5,1.3,0,1.8l3.2,3.2
	C604.3,76.7,602.8,76,601.6,74.8z M599.4,90.8c-2.2-2.2-3.3-5.4-2.9-8.3c3-0.4,6.1,0.7,8.3,2.9c1.8,1.8,2.9,4.2,3,6.6l-6.1-6.1
	c-0.5-0.5-1.3-0.5-1.8,0c-0.5,0.5-0.5,1.3,0,1.8l6,6C603.6,93.7,601.2,92.6,599.4,90.8z M611.7,55.1c0-0.8,0.7-1.5,1.5-1.5
	s1.5,0.7,1.5,1.5c0,0.8-0.7,1.5-1.5,1.5S611.7,55.9,611.7,55.1z M623.9,61.3c-0.2,0.3-0.5,0.6-0.9,0.7c-0.4,0.1-0.8,0-1.1-0.1
	c-0.7-0.4-3.4-2.4-5.5-4.4c0.2-0.2,0.3-0.5,0.4-0.8c2.7,0.8,5.9,2.2,6.5,2.6C624,59.7,624.3,60.6,623.9,61.3z M621.9,48.4
	c0.3-0.2,0.7-0.2,1.1-0.1c0.4,0.1,0.7,0.3,0.9,0.7c0.4,0.7,0.2,1.6-0.5,2c-0.7,0.4-3.8,1.8-6.5,2.6c-0.1-0.3-0.3-0.5-0.4-0.8
	C618.4,50.8,621.2,48.8,621.9,48.4z M613.1,42.7c0.8,0,1.5,0.7,1.5,1.5c0,0.8-0.4,4.2-1,6.9c-0.1,0-0.3,0-0.4,0c-0.1,0-0.3,0-0.4,0
	c-0.6-2.8-1-6.2-1-6.9C611.7,43.4,612.3,42.7,613.1,42.7z M602.4,48.9c0.2-0.3,0.5-0.6,0.9-0.7c0.4-0.1,0.8,0,1.1,0.1
	c0.7,0.4,3.4,2.4,5.5,4.4c-0.2,0.2-0.3,0.5-0.4,0.8c-2.7-0.8-5.9-2.2-6.5-2.6C602.2,50.5,602,49.6,602.4,48.9z M604.4,61.9
	c-0.3,0.2-0.7,0.2-1.1,0.1c-0.4-0.1-0.7-0.3-0.9-0.7c-0.4-0.7-0.2-1.6,0.5-2c0.7-0.4,3.8-1.8,6.5-2.6c0.1,0.3,0.3,0.5,0.4,0.8
	C607.8,59.4,605,61.5,604.4,61.9z M612.7,59.1c0.1,0,0.3,0,0.4,0c0.1,0,0.3,0,0.4,0c0.6,2.8,1,6.2,1,6.9c0,0.8-0.7,1.5-1.5,1.5
	s-1.5-0.7-1.5-1.5C611.7,65.3,612.1,61.9,612.7,59.1z M613.1,111.1c7.8,0,15.3,2.1,20.8,5.6h-41.6
	C597.8,113.2,605.3,111.1,613.1,111.1z"/>
<g>
	<g>
		<path d="M654.9,209.3l-2.3-3.9c0.6-0.1,1-0.7,1-1.3c0-0.3-0.1-0.5-0.2-0.7l-2.4-4.2c0.6-0.1,1.1-0.7,1.1-1.3
			c0-0.3-0.1-0.5-0.2-0.7l-7.5-13.1c-0.2-0.4-0.7-0.7-1.2-0.7c-0.5,0-0.9,0.3-1.2,0.7l-1.8,3.1l-6.5-11.1c-0.2-0.4-0.7-0.7-1.2-0.7
			c-0.5,0-0.9,0.3-1.2,0.7l-1.8,3.1l-6.4-11.1c-0.2-0.4-0.7-0.7-1.2-0.7s-0.9,0.3-1.2,0.7l-6.4,11.1l-1.8-3.1
			c-0.2-0.4-0.7-0.7-1.2-0.7s-0.9,0.3-1.2,0.7l-6.5,11.1l-1.8-3.1c-0.2-0.4-0.7-0.7-1.2-0.7c-0.5,0-0.9,0.3-1.2,0.7l-7.6,13.1
			c-0.2,0.4-0.2,0.9,0,1.4c0.2,0.3,0.5,0.6,0.9,0.7l-2.5,4.3c-0.2,0.4-0.2,0.9,0,1.4c0.2,0.3,0.5,0.6,0.8,0.6l-2.3,3.9
			c-0.2,0.4-0.2,0.9,0,1.4c0.2,0.4,0.7,0.7,1.2,0.7h9.2v4.9h-1.6c-0.7,0-1.4,0.6-1.4,1.4c0,0.7,0.6,1.4,1.4,1.4h48.4
			c0.7,0,1.4-0.6,1.4-1.4c0-0.7-0.6-1.4-1.4-1.4h-1.7v-4.9h9.2c0.5,0,0.9-0.3,1.2-0.7C655.2,210.2,655.2,209.7,654.9,209.3z
			 M622,171.3l6,10.4L625,187l-1.8-3.1c-0.2-0.4-0.7-0.7-1.2-0.7c-0.5,0-0.9,0.3-1.2,0.7l-1.8,3.1l-3.1-5.3L622,171.3z M626.4,198.4
			l2.5,4.3c-0.4,0.1-0.7,0.3-0.8,0.6c-0.2,0.4-0.2,0.9,0,1.4l2.3,3.9h-16.5l2.3-3.9c0.2-0.4,0.2-0.9,0-1.4c-0.2-0.3-0.5-0.6-0.8-0.6
			l2.5-4.3c0.2-0.4,0.2-0.9,0-1.4c-0.2-0.3-0.5-0.6-0.9-0.7l5.3-9.1l1.7,3c0,0,0,0.1,0.1,0.1l3.5,6c-0.4,0.1-0.7,0.3-0.9,0.7
			C626.1,197.5,626.1,198,626.4,198.4z M592.6,208.6l2.3-3.9c0.2-0.4,0.2-0.9,0-1.4c-0.2-0.3-0.5-0.6-0.8-0.6l2.5-4.3
			c0.2-0.4,0.2-0.9,0-1.4c-0.2-0.3-0.5-0.6-0.9-0.7l5.3-9.1l5.3,9.1c-0.4,0.1-0.7,0.3-0.9,0.7c-0.2,0.4-0.2,0.9,0,1.4l2.5,4.3
			c-0.4,0.1-0.7,0.3-0.8,0.6c-0.2,0.4-0.2,0.9,0,1.4l2.3,3.9H592.6z M610.1,216.3h-7.9v-4.9h7.9V216.3z M611.4,207.3l-1.1-1.9
			c0.6-0.1,1-0.7,1-1.3c0-0.3-0.1-0.5-0.2-0.7l-2.4-4.2c0.6-0.1,1.1-0.7,1.1-1.3c0-0.3-0.1-0.5-0.2-0.7l-4.2-7.3l6.1-10.5l6.1,10.5
			l-4.3,7.4c-0.2,0.4-0.2,0.9,0,1.4c0.2,0.3,0.5,0.6,0.9,0.7l-2.5,4.3c-0.2,0.4-0.2,0.9,0,1.4c0.2,0.3,0.5,0.6,0.8,0.6L611.4,207.3z
			 M620.7,216.3h-7.9v-4.9h7.9V216.3z M631.2,216.3h-7.9v-4.9h7.9V216.3z M632.6,207.3l-1.1-1.9c0.6-0.1,1-0.7,1-1.3
			c0-0.3-0.1-0.5-0.2-0.7l-2.4-4.2c0.6-0.1,1.1-0.7,1.1-1.3c0-0.3-0.1-0.5-0.2-0.7l-4.2-7.3l6.1-10.5l6.1,10.5l-4.3,7.4
			c-0.2,0.4-0.2,0.9,0,1.4c0.2,0.3,0.5,0.6,0.9,0.7l-2.5,4.3c-0.2,0.4-0.2,0.9,0,1.4c0.2,0.3,0.5,0.6,0.8,0.6L632.6,207.3z
			 M641.8,216.3h-7.9v-4.9h7.9V216.3z M634.9,208.6l2.3-3.9c0.2-0.4,0.2-0.9,0-1.4c-0.2-0.3-0.5-0.6-0.8-0.6l2.5-4.3
			c0.2-0.4,0.2-0.9,0-1.4c-0.2-0.3-0.5-0.6-0.9-0.7l5.3-9.1l5.3,9.1c-0.4,0.1-0.7,0.3-0.9,0.7c-0.2,0.4-0.2,0.9,0,1.4l2.5,4.3
			c-0.4,0.1-0.7,0.3-0.8,0.6c-0.2,0.4-0.2,0.9,0,1.4l2.3,3.9H634.9z"/>
	</g>
</g>
<g>
	<g>
		<path d="M593.3,216.3h-3c-0.7,0-1.4,0.6-1.4,1.4c0,0.7,0.6,1.4,1.4,1.4h3c0.7,0,1.4-0.6,1.4-1.4
			C594.6,216.9,594,216.3,593.3,216.3z"/>
	</g>
</g>
<g>
	<g>
		<path d="M653.7,216.3h-2.8c-0.7,0-1.4,0.6-1.4,1.4c0,0.7,0.6,1.4,1.4,1.4h2.8c0.7,0,1.4-0.6,1.4-1.4
			C655,216.9,654.4,216.3,653.7,216.3z"/>
	</g>
</g>
<g>
	<g>
		<path d="M612.5,157.7c-1.5-2.9-4.6-4.8-8-4.8c-3.4,0-6.4,1.9-8,4.8c-4.2,0.1-7.6,3.6-7.6,7.8c0,0.7,0.6,1.4,1.4,1.4h28.4
			c0.7,0,1.4-0.6,1.4-1.4C620,161.2,616.7,157.8,612.5,157.7z M591.8,164.1c0.6-2.1,2.6-3.7,4.9-3.7c0.2,0,0.3,0,0.5,0
			c0.6,0.1,1.2-0.3,1.4-0.9c0.9-2.4,3.3-4,5.8-4c2.6,0,4.9,1.6,5.8,4c0.2,0.6,0.8,0.9,1.4,0.9c0.2,0,0.4,0,0.5,0
			c2.3,0,4.3,1.6,4.9,3.7H591.8z"/>
	</g>
</g>
<g>
	<path d="M715.1,133.6c1.7,1.6,4.4,2.6,8,3c-2.6,1.9-4.3,3.8-5.2,5.8c-0.9,2.2-0.7,4.4,0.5,6.6c1.2,2.1,3.1,3.4,5.4,3.7
		c0.4,0,0.8,0.1,1.1,0.1c1.9,0,4-0.5,6.5-1.6c-1.5,3.3-2,6.1-1.4,8.4c0.5,2,1.7,3.5,3.6,4.6c1.2,0.7,2.5,1.1,3.8,1.1
		c0.7,0,1.4-0.1,2-0.3c2.3-0.7,4.5-2.5,6.6-5.4c0.3,3.2,1.1,5.7,2.5,7.4c1.4,1.9,3.5,2.9,5.9,2.9c2.4,0,4.5-1,5.9-2.9
		c1.3-1.7,2.1-4.2,2.5-7.4c2.1,2.9,4.3,4.7,6.6,5.4c0.7,0.2,1.4,0.3,2,0.3c1.3,0,2.5-0.4,3.8-1.1c1.9-1.1,3.1-2.6,3.6-4.6
		c0.6-2.3,0.1-5.1-1.4-8.4c2.4,1.1,4.6,1.6,6.5,1.6c0.4,0,0.8,0,1.1-0.1c2.3-0.3,4.2-1.6,5.4-3.7c1.2-2.1,1.4-4.4,0.5-6.6
		c-0.8-2-2.5-3.9-5.2-5.8c3.6-0.4,6.3-1.4,8-3c1.5-1.4,2.2-3.2,2.2-5.4c0-2.2-0.8-4-2.2-5.4c-1.7-1.6-4.4-2.6-8-3
		c2.6-1.9,4.3-3.8,5.1-5.8c0.9-2.2,0.7-4.4-0.5-6.6c-1.2-2.1-3.1-3.4-5.4-3.7c-2.1-0.3-4.7,0.2-7.6,1.6c1.5-3.3,2-6.1,1.4-8.4
		c-0.5-2-1.7-3.5-3.6-4.6c-1.9-1.1-3.8-1.3-5.8-0.8c-2.3,0.7-4.5,2.5-6.6,5.4c-0.3-3.2-1.1-5.7-2.5-7.4c-1.4-1.9-3.5-2.9-5.9-2.9
		c-2.4,0-4.5,1-5.9,2.9c-1.3,1.7-2.1,4.2-2.5,7.4c-2.1-3-4.3-4.7-6.6-5.4c-2-0.6-3.9-0.3-5.8,0.8c-1.9,1.1-3.1,2.6-3.6,4.6
		c-0.6,2.3-0.1,5.1,1.4,8.4c-2.9-1.3-5.5-1.8-7.6-1.6c-2.3,0.3-4.2,1.6-5.4,3.7c-1.2,2.1-1.4,4.4-0.5,6.6c0.8,2,2.5,3.9,5.1,5.8
		c-3.6,0.4-6.3,1.4-8,3c-1.5,1.4-2.2,3.2-2.2,5.4C712.9,130.4,713.7,132.2,715.1,133.6L715.1,133.6z M724.4,149.2
		c-1.3-0.2-2.2-0.8-2.9-2c-0.7-1.2-0.8-2.3-0.3-3.5c0.7-1.8,3.1-4.6,10.3-8c4.9-2.3,10.2-4,13.9-5c0.4,1.5,1.2,2.9,2.3,4
		c-2.7,2.6-6.9,6.4-11.3,9.5C729.9,148.8,726.2,149.5,724.4,149.2L724.4,149.2z M754.4,122.3c3.3,0,5.9,2.7,5.9,5.9
		c0,3.3-2.7,5.9-5.9,5.9c-3.3,0-5.9-2.7-5.9-5.9C748.5,124.9,751.1,122.3,754.4,122.3L754.4,122.3z M738.4,161.6
		c-1,0.3-2,0.2-3.1-0.4c-1.1-0.6-1.7-1.4-1.9-2.4c-0.4-1.7-0.1-4.9,3.8-10.9c0.4-0.2,0.8-0.5,1.1-0.8c3.6-2.5,7-5.5,9.7-7.9
		c-0.8,3.5-1.6,8-2,12.3c0,0.5-0.1,0.9-0.1,1.4C742.7,159.2,740.1,161.1,738.4,161.6L738.4,161.6z M757.6,164.7
		c-0.8,1-1.8,1.5-3.2,1.5c-1.4,0-2.4-0.5-3.2-1.5c-1.2-1.5-2.4-5-1.7-12.9c0.5-5.4,1.7-10.9,2.6-14.5c0.7,0.2,1.5,0.3,2.3,0.3
		c0.8,0,1.6-0.1,2.3-0.3c0.9,3.7,2.1,9.2,2.6,14.5C760,159.8,758.7,163.2,757.6,164.7L757.6,164.7z M775.3,158.7
		c-0.3,1.1-0.9,1.8-1.9,2.4c-1.1,0.6-2,0.8-3.1,0.4c-1.7-0.5-4.3-2.4-7.5-8.7c0-0.4-0.1-0.9-0.1-1.4c-0.4-4.4-1.2-8.8-2-12.3
		c2.7,2.5,6.1,5.4,9.7,7.9c0.4,0.3,0.8,0.5,1.1,0.8C775.4,153.8,775.7,157,775.3,158.7L775.3,158.7z M787.6,143.7
		c0.5,1.2,0.4,2.3-0.3,3.5c-0.7,1.2-1.6,1.8-2.9,2c-1.9,0.2-5.5-0.4-12.1-5c-4.4-3.1-8.6-6.9-11.3-9.5c1.1-1.1,1.9-2.5,2.3-4
		c3.6,1,9,2.8,13.9,5C784.5,139.1,786.9,142,787.6,143.7L787.6,143.7z M791.3,125.3c0.8,0.7,1.2,1.7,1.2,2.9c0,1.2-0.4,2.1-1.2,2.9
		c-1.3,1.2-4.2,2.5-11.3,2.1c-0.4-0.2-0.8-0.4-1.2-0.6c-4-1.9-8.2-3.4-11.7-4.4c3.5-1.1,7.7-2.6,11.7-4.4c0.4-0.2,0.8-0.4,1.2-0.6
		C787.1,122.8,790,124.1,791.3,125.3L791.3,125.3z M784.5,107.2c1.3,0.2,2.2,0.8,2.9,2c0.7,1.2,0.8,2.3,0.3,3.5
		c-0.7,1.8-3.1,4.6-10.3,8c-4.9,2.3-10.2,4-13.9,5c-0.4-1.5-1.2-2.9-2.3-4c2.7-2.6,6.9-6.4,11.3-9.5
		C778.9,107.6,782.6,106.9,784.5,107.2L784.5,107.2z M770.4,94.8c1-0.3,2-0.2,3.1,0.4c1.1,0.6,1.7,1.4,1.9,2.4
		c0.4,1.7,0.1,4.9-3.8,10.9c-0.4,0.2-0.8,0.5-1.1,0.8c-3.6,2.5-7,5.5-9.7,7.9c0.8-3.5,1.6-8,2-12.3c0-0.5,0.1-0.9,0.1-1.4
		C766.1,97.2,768.7,95.3,770.4,94.8z M751.2,91.7c0.8-1,1.8-1.5,3.2-1.5s2.4,0.5,3.2,1.5c1.2,1.5,2.4,5,1.7,12.9
		c-0.5,5.4-1.7,10.9-2.6,14.5c-0.7-0.2-1.5-0.3-2.3-0.3c-0.8,0-1.6,0.1-2.3,0.3c-0.9-3.7-2.1-9.2-2.6-14.5
		C748.8,96.7,750.1,93.2,751.2,91.7z M733.5,97.7c0.3-1.1,0.9-1.8,1.9-2.4c1.1-0.6,2-0.8,3.1-0.4c1.6,0.5,4.3,2.4,7.5,8.7
		c0,0.4,0.1,0.9,0.1,1.4c0.4,4.4,1.2,8.8,2,12.3c-2.7-2.5-6.1-5.4-9.7-7.9c-0.4-0.3-0.8-0.5-1.1-0.8
		C733.4,102.6,733.1,99.4,733.5,97.7L733.5,97.7z M721.2,112.7c-0.5-1.2-0.4-2.3,0.3-3.5c0.7-1.2,1.6-1.8,2.9-2
		c1.9-0.2,5.5,0.4,12.1,5c4.4,3.1,8.6,6.9,11.3,9.5c-1.1,1.1-1.9,2.5-2.3,4c-3.6-1-9-2.8-13.9-5
		C724.3,117.3,721.9,114.5,721.2,112.7L721.2,112.7z M717.5,125.3c1.3-1.2,4.2-2.5,11.3-2.1c0.4,0.2,0.8,0.4,1.2,0.6
		c4,1.9,8.2,3.4,11.7,4.4c-3.5,1.1-7.7,2.6-11.7,4.4c-0.4,0.2-0.8,0.4-1.2,0.6c-7.1,0.4-10-1-11.3-2.1c-0.8-0.7-1.2-1.7-1.2-2.9
		C716.4,127,716.7,126.1,717.5,125.3L717.5,125.3z"/>
</g>
<polygon class="st1" points="481,-224.7 510.4,-195.1 511.6,-196.2 481,-226.8 450.4,-196.2 451.5,-195.1 "/>
<g>
	<path d="M678.5,34v-5.5c5.8-0.8,10.4-5.8,10.4-11.9c0-3-1.2-10-3.1-16.4c-2.6-8.6-5.5-12.8-8.9-12.8c-3.4,0-6.3,4.2-8.9,12.8
		c-1.9,6.4-3.1,13.4-3.1,16.4c0,6.1,4.5,11.1,10.4,11.9V34h-3.7H678.5z M668.1,16.6c0-2.7,1.1-9.4,3-15.5c1-3.3,2.1-6,3.1-7.8
		c1.2-2,2.1-2.7,2.6-2.7s1.5,0.7,2.6,2.7c1.1,1.9,2.2,4.6,3.1,7.8c1.8,6.1,3,12.8,3,15.5c0,4.3-3.1,7.8-7.1,8.6v-7.9l3-3
		c0.6-0.6,0.6-1.7,0-2.3c-0.6-0.6-1.7-0.6-2.3,0l-0.7,0.7v-3c0-0.9-0.7-1.6-1.6-1.6s-1.6,0.7-1.6,1.6v6.9c0,0,0,0,0,0v1.3l-0.7-0.7
		c-0.6-0.6-1.7-0.6-2.3,0c-0.6,0.6-0.6,1.7,0,2.3l3,3v2.7C671.2,24.4,668.1,20.9,668.1,16.6z"/>
</g>
<g>
	<path d="M686.8-16.1h-6.9v-10.4c11-1.5,19.5-10.9,19.5-22.4c0-5.7-2.2-18.9-5.8-31c-4.9-16.2-10.4-24.1-16.7-24.1
		c-6.3,0-11.8,7.9-16.7,24.1c-3.7,12.1-5.8,25.2-5.8,31c0,11.4,8.5,20.9,19.5,22.4v10.4H686.8z M679.9-32.7v-5.2l5.6-5.6
		c1.2-1.2,1.2-3.1,0-4.3c-1.2-1.2-3.1-1.2-4.3,0l-1.3,1.3v-2.4c0,0,0,0,0,0v-13c0-1.7-1.4-3-3-3c-1.7,0-3,1.4-3,3v5.6l-1.3-1.3
		c-1.2-1.2-3.1-1.2-4.3,0c-1.2,1.2-1.2,3.1,0,4.3l5.6,5.6v14.9c-7.6-1.4-13.4-8.1-13.4-16.2c0-5.2,2.1-17.8,5.6-29.2
		c1.9-6.1,3.9-11.2,5.9-14.7c2.2-3.8,4-5.1,5-5.1c1,0,2.8,1.3,5,5.1c2,3.5,4.1,8.6,5.9,14.7c3.5,11.4,5.6,24,5.6,29.2
		C693.3-40.8,687.5-34.1,679.9-32.7z"/>
</g>
<path class="st0" d="M218,162.5c-2.3-5.2-6.1-8.1-10.4-8.1c-4.6,0-8.7,3.4-11.3,9.3c-8.6,19.8-17.7,53-17.7,64.7
	c0,15.2,11.1,27.2,25.8,28.7v18.4l6.2,0v-18.3c14.8-1.6,25.7-12.6,25.6-28.8C236.1,216.4,220.1,167.1,218,162.5z M184.6,228.4
	c0-9.9,8.4-41.9,17.2-62.3c1.6-3.6,3.7-5.7,5.8-5.7c1.8,0,3.6,1.7,4.9,4.6c9.1,20.3,17.7,53,17.7,63.4c0,11.5-8.6,21.1-19.8,22.6
	v-8.9l7.9-7.9c1.2-1.2,1.2-3.1,0-4.3c-1.2-1.2-3.1-1.2-4.3,0l-3.6,3.6v-27.8v0c0-1.7-1.4-3-3-3c-1.7,0-3,1.4-3,3v0v14.9l-2.8-2.8
	c-1.2-1.2-3.1-1.2-4.3,0c-1.2,1.2-1.2,3.1,0,4.3l7.1,7.1V251C193.1,249.6,184.6,240.2,184.6,228.4z"/>
<path class="st0" d="M-117.3,516.9c0-15.9-12.1-59.6-23.5-85.1c-3-6.7-7.9-10.5-13.5-10.5c-6,0-11.3,4.4-14.6,12.1
	c-2.4,5.6-4.9,12-7.2,18.7c-5.3-17.8-21.8-30.8-41.3-30.8c-19.4,0-35.9,13-41.2,30.7c-2.6-7.3-5.3-14.2-7.9-20.2
	c-3-6.7-7.9-10.5-13.5-10.5c-6,0-11.3,4.4-14.6,12.1c-11.1,25.5-22.9,68.5-22.9,83.6c0,19.6,14.4,35.2,33.4,37.1v23.8h-3.6l-14.3,0
	c0,0,0,0,0,0c-2.2,0-3.9,1.8-3.9,3.9c0,2.2,1.8,3.9,3.9,3.9l14.3,0c0,0,0,0,0,0h7.5c0,0,0,0,0,0c0,0,0,0,0,0l62.9,0c0,0,0,0,0,0
	s0,0,0,0l62.9,0c0,0,0,0,0,0c0,0,0,0,0,0h21.8c2.2,0,3.9-1.8,3.9-3.9s-1.8-3.9-3.9-3.9h-17.9V554
	C-131.9,552-117.3,536.2-117.3,516.9z M-161.8,436.4c2-4.6,4.8-7.4,7.5-7.4c2.3,0,4.7,2.2,6.3,5.9c11.8,26.2,22.9,68.4,22.9,81.9
	c0,14.9-11.1,27.3-25.5,29.2v-11.4l10.2-10.2c1.5-1.5,1.5-4,0-5.5c-1.5-1.5-4-1.5-5.5,0l-4.7,4.7v-35.9v0c0-2.2-1.8-3.9-3.9-3.9
	c-2.2,0-3.9,1.8-3.9,3.9v0V507l-3.7-3.7c-1.5-1.5-4-1.5-5.5,0c-1.5,1.5-1.5,4,0,5.5l9.2,9.2v28.1c-14.6-1.9-25.5-14-25.5-29.2
	C-184,504.1-173.2,462.7-161.8,436.4z M-217.5,429.1c19.4,0,35.2,15.8,35.2,35.2c0,18.1-13.7,33-31.3,35v-11.7l10.2-10.2
	c1.5-1.5,1.5-4,0-5.5c-1.5-1.5-4-1.5-5.5,0l-4.7,4.7v-12.2c0-2.2-1.8-3.9-3.9-3.9c-2.2,0-3.9,1.8-3.9,3.9v35
	c-17.6-2-31.3-16.9-31.3-35C-252.7,444.9-236.9,429.1-217.5,429.1z M-217.5,546.5c-6.5,0-11.7-5.3-11.7-11.7
	c0-6.5,5.3-11.7,11.7-11.7c6.5,0,11.7,5.3,11.7,11.7C-205.7,541.2-211,546.5-217.5,546.5z M-309.8,516.9c0-12.8,10.8-54.2,22.2-80.5
	c2-4.6,4.8-7.4,7.5-7.4c2.3,0,4.7,2.2,6.3,5.9c11.8,26.2,22.9,68.4,22.9,81.9c0,14.9-11.1,27.3-25.5,29.2v-11.4l10.2-10.2
	c1.5-1.5,1.5-4,0-5.5c-1.5-1.5-4-1.5-5.5,0l-4.7,4.7v-35.9v0c0-2.2-1.8-3.9-3.9-3.9c-2.2,0-3.9,1.8-3.9,3.9v0V507l-3.7-3.7
	c-1.5-1.5-4-1.5-5.5,0c-1.5,1.5-1.5,4,0,5.5l9.2,9.2v28.1C-298.9,544.3-309.8,532.1-309.8,516.9z M-276.4,554
	c18.7-2,33.4-17.8,33.4-37.1c0-4.7-1.1-11.9-2.9-20.4c6.7,5.9,15.2,9.8,24.6,10.6v8.4c-8.9,1.8-15.7,9.7-15.7,19.2
	c0,9.4,6.7,17.4,15.7,19.2v23.9l-55.1,0V554z M-213.6,577.8v-23.9c8.9-1.8,15.7-9.7,15.7-19.2c0-9.4-6.7-17.4-15.7-19.2v-8.4
	c9.4-0.9,18-4.8,24.7-10.7c-1.9,8.6-3,15.8-3,20.5c0,19.6,14.4,35.2,33.4,37.1v23.8H-213.6z"/>
<path class="st0" d="M121.7,172.6c-15,0-27.2,12.2-27.2,27.2c0,15,12.2,27.2,27.2,27.2c15,0,27.2-12.2,27.2-27.2
	C148.9,184.7,136.7,172.6,121.7,172.6z M121.8,222.9c-12.8,0-23.2-10.4-23.2-23.2c0-12.8,10.4-23.2,23.2-23.2s23.2,10.4,23.2,23.2
	C144.9,212.6,134.6,222.9,121.8,222.9z"/>
<path class="st0" d="M205.6,184.5c1.7,0,3-1.4,3-3c0-1.7-1.4-3-3-3c-1.7,0-3,1.4-3,3C202.6,183.2,203.9,184.5,205.6,184.5z"/>
<path class="st0" d="M220,218.8c1.7,0,3-1.4,3-3c0-1.7-1.4-3-3-3s-3,1.4-3,3C217,217.4,218.3,218.8,220,218.8z"/>
<path class="st0" d="M-29.6,241.9c0-13.2-10.1-49.6-19.6-70.8c-2.5-5.6-6.6-8.7-11.2-8.7c-5,0-9.4,3.7-12.2,10c-2,4.6-4.1,10-6,15.6
	c-4.4-14.8-18.1-25.6-34.3-25.6c-16.2,0-29.9,10.8-34.3,25.5c-2.1-6.1-4.4-11.9-6.6-16.8c-2.5-5.6-6.6-8.7-11.2-8.7
	c-5,0-9.4,3.7-12.2,10c-9.3,21.2-19,57-19,69.5c0,16.3,12,29.3,27.8,30.9v19.8h-3l-11.9,0c0,0,0,0,0,0c-1.8,0-3.3,1.5-3.3,3.3
	c0,1.8,1.5,3.3,3.3,3.3l11.9,0c0,0,0,0,0,0h6.3c0,0,0,0,0,0c0,0,0,0,0,0l52.3,0c0,0,0,0,0,0c0,0,0,0,0,0l52.3,0c0,0,0,0,0,0
	c0,0,0,0,0,0h18.1c1.8,0,3.3-1.5,3.3-3.3s-1.5-3.3-3.3-3.3h-14.9v-19.8C-41.7,271.1-29.6,257.9-29.6,241.9z M-66.6,175
	c1.7-3.8,4-6.1,6.2-6.1c1.9,0,3.9,1.8,5.3,4.9c9.8,21.8,19,56.9,19,68.2c0,12.4-9.3,22.7-21.2,24.3v-9.5l8.5-8.5
	c1.3-1.3,1.3-3.3,0-4.6c-1.3-1.3-3.3-1.3-4.6,0l-3.9,3.9v-29.8v0c0-1.8-1.5-3.3-3.3-3.3c-1.8,0-3.3,1.5-3.3,3.3v0v16l-3-3.1
	c-1.3-1.3-3.3-1.3-4.6,0c-1.3,1.3-1.3,3.3,0,4.6l7.7,7.7v23.4c-12.1-1.5-21.2-11.7-21.2-24.3C-85.1,231.2-76.1,196.9-66.6,175z
	 M-112.9,168.9c16.2,0,29.3,13.1,29.3,29.3c0,15.1-11.4,27.5-26,29.1v-9.7l8.5-8.5c1.3-1.3,1.3-3.3,0-4.6c-1.3-1.3-3.3-1.3-4.6,0
	l-3.9,3.9v-10.2c0-1.8-1.5-3.3-3.3-3.3c-1.8,0-3.3,1.5-3.3,3.3v29.1c-14.6-1.6-26-14.1-26-29.1C-142.2,182-129,168.9-112.9,168.9z
	 M-112.9,266.5c-5.4,0-9.8-4.4-9.8-9.8c0-5.4,4.4-9.8,9.8-9.8c5.4,0,9.8,4.4,9.8,9.8C-103.1,262.1-107.5,266.5-112.9,266.5z
	 M-189.7,241.9c0-10.7,9-45.1,18.5-66.9c1.7-3.8,4-6.1,6.2-6.1c1.9,0,3.9,1.8,5.3,4.9c9.8,21.8,19,56.9,19,68.2
	c0,12.4-9.3,22.7-21.2,24.3v-9.5l8.5-8.5c1.3-1.3,1.3-3.3,0-4.6c-1.3-1.3-3.3-1.3-4.6,0l-3.9,3.9v-29.8v0c0-1.8-1.5-3.3-3.3-3.3
	c-1.8,0-3.3,1.5-3.3,3.3v0v16l-3.1-3.1c-1.3-1.3-3.3-1.3-4.6,0c-1.3,1.3-1.3,3.3,0,4.6l7.7,7.7v23.4
	C-180.6,264.7-189.7,254.6-189.7,241.9z M-162,272.8c15.6-1.6,27.8-14.8,27.8-30.8c0-3.9-0.9-9.9-2.4-17c5.6,4.9,12.6,8.1,20.5,8.8
	v7c-7.4,1.5-13,8.1-13,15.9c0,7.9,5.6,14.4,13,15.9v19.9l-45.8,0V272.8z M-109.6,292.6v-19.9c7.4-1.5,13-8.1,13-15.9
	c0-7.9-5.6-14.4-13-15.9v-7c7.8-0.7,15-4,20.5-8.9c-1.5,7.1-2.5,13.2-2.5,17c0,16.3,12,29.3,27.8,30.9v19.8H-109.6z"/>
<path class="st0" d="M-98,194.6c1.8,0,3.3-1.5,3.3-3.3c0-1.8-1.5-3.3-3.3-3.3c-1.8,0-3.3,1.5-3.3,3.3
	C-101.3,193.2-99.8,194.6-98,194.6z"/>
<path class="st0" d="M-167.1,194.6c1.8,0,3.3-1.5,3.3-3.3c0-1.8-1.5-3.3-3.3-3.3c-1.8,0-3.3,1.5-3.3,3.3
	C-170.4,193.1-168.9,194.6-167.1,194.6z"/>
<path class="st0" d="M-70.7,216.8c1.8,0,3.3-1.5,3.3-3.3c0-1.8-1.5-3.3-3.3-3.3c-1.8,0-3.3,1.5-3.3,3.3
	C-73.9,215.3-72.5,216.8-70.7,216.8z"/>
<path class="st0" d="M-117.1,184.6c1.8,0,3.3-1.5,3.3-3.3c0-1.8-1.5-3.3-3.3-3.3c-1.8,0-3.3,1.5-3.3,3.3
	C-120.4,183.2-118.9,184.6-117.1,184.6z"/>
<path class="st0" d="M-130.3,202.3c1.8,0,3.3-1.5,3.3-3.3c0-1.8-1.5-3.3-3.3-3.3c-1.8,0-3.3,1.5-3.3,3.3
	C-133.5,200.9-132.1,202.3-130.3,202.3z"/>
<path class="st0" d="M-48.3,233.7c1.8,0,3.3-1.5,3.3-3.3c0-1.8-1.5-3.3-3.3-3.3c-1.8,0-3.3,1.5-3.3,3.3
	C-51.5,232.2-50.1,233.7-48.3,233.7z"/>
<path class="st0" d="M-151.6,231.4c1.8,0,3.3-1.5,3.3-3.3c0-1.8-1.5-3.3-3.3-3.3s-3.3,1.5-3.3,3.3
	C-154.9,230-153.4,231.4-151.6,231.4z"/>
<path class="st0" d="M-55.6,201.1c1.8,0,3.3-1.5,3.3-3.3c0-1.8-1.5-3.3-3.3-3.3c-1.8,0-3.3,1.5-3.3,3.3
	C-58.9,199.7-57.4,201.1-55.6,201.1z"/>
<path class="st0" d="M131.8,197.2c1.2,0,2.3-1,2.3-2.3c0-1.2-1-2.3-2.3-2.3c-1.2,0-2.3,1-2.3,2.3
	C129.6,196.2,130.6,197.2,131.8,197.2z"/>
<path class="st0" d="M118.6,190.3c1.2,0,2.3-1,2.3-2.3c0-1.2-1-2.3-2.3-2.3c-1.2,0-2.3,1-2.3,2.3
	C116.3,189.3,117.3,190.3,118.6,190.3z"/>
<path class="st0" d="M109.4,202.6c1.2,0,2.3-1,2.3-2.3c0-1.2-1-2.3-2.3-2.3c-1.2,0-2.3,1-2.3,2.3
	C107.2,201.5,108.2,202.6,109.4,202.6z"/>
<path class="st0" d="M97.8,275.3h-63l-11.9,0c0,0,0,0,0,0c-1.8,0-3.3,1.5-3.3,3.3c0,1.8,1.5,3.3,3.3,3.3l71.9,0c0,0-60,0-60,0h66.3
	c0,0,0,0,0,0c0,0,0,0,0,0l52.3,0c0,0,0,0,0,0s0,0,0,0l52.3,0c0,0,0,0,0,0c0,0,0,0,0,0h18.1c1.8,0,3.3-1.5,3.3-3.3s-1.5-3.3-3.3-3.3
	H209L97.8,275.3z M150.2,275.3l-45.8,0 M156.7,275.3h45.8"/>
<g>
	<circle class="st2" cx="122.1" cy="247.4" r="7.4"/>
	<path class="st0" d="M122,236.4c-6.1,0-11.1,5-11.1,11.1s5,11.1,11.1,11.1s11.1-5,11.1-11.1S128.1,236.4,122,236.4z M122.1,254.8
		c-4.1,0-7.4-3.3-7.4-7.4s3.3-7.4,7.4-7.4c4.1,0,7.4,3.3,7.4,7.4S126.2,254.8,122.1,254.8z"/>
</g>
<circle class="st3" cx="122" cy="247.5" r="7.5"/>
<g>
	<g>
		<path d="M234.5-83.9h-26.3c-1.2-4.1-3.5-7.8-6.7-10.7c-4.9-4.4-11.2-6.4-17.8-5.7c-10.5,1.2-19,9.7-20,20.2
			c-0.6,5.8,1,11.5,4.4,16c3.3,4.4,8,7.4,13.4,8.6l5.6,5.6c0.5,0.5,1.1,0.7,1.7,0.7c0.3,0,0.6-0.1,0.9-0.2c0.9-0.4,1.5-1.3,1.5-2.3
			v-3.9c0.9-0.2,1.8-0.5,2.7-0.8v0.2c0,2.8,2.2,5,5,5h8.4l4.5,4.5c0.4,0.4,0.9,0.6,1.5,0.6c0.3,0,0.5-0.1,0.8-0.2
			c0.8-0.3,1.3-1.1,1.3-1.9v-3h19.1c2.8,0,5-2.2,5-5v-22.8C239.5-81.7,237.3-83.9,234.5-83.9z M189.9-57.6c-0.6,0.1-1,0.6-1,1.2v4.9
			c0,0,0,0.1,0,0.1c0,0-0.1,0-0.1,0l-5.9-5.9c-0.2-0.2-0.4-0.3-0.6-0.3c-4.9-1-9.3-3.7-12.3-7.7c-3.1-4.1-4.5-9.2-4-14.4
			c0.5-4.5,2.5-8.9,5.8-12.2c3.3-3.3,7.6-5.4,12.1-5.9c0.8-0.1,1.6-0.1,2.4-0.1c5,0,9.8,1.8,13.6,5.2c4.3,3.9,6.8,9.4,6.8,15.2
			C206.7-67.8,199.6-59.4,189.9-57.6z M237.1-56.1c0,1.4-1.2,2.6-2.6,2.6h-20.3c-0.7,0-1.2,0.5-1.2,1.2v3.5l-4.3-4.3
			c-0.2-0.2-0.5-0.3-0.8-0.3H199c-1.4,0-2.6-1.2-2.6-2.6v-1.2c7.6-3.7,12.7-11.5,12.7-20.4c0-1.3-0.1-2.6-0.3-3.9h25.8
			c1.4,0,2.6,1.2,2.6,2.6L237.1-56.1L237.1-56.1z"/>
	</g>
</g>
<g>
	<g>
		<path d="M230.3-74.7c-0.5-0.5-1.2-0.5-1.7,0l-11.8,11.8l-5.5-5.5c-0.5-0.5-1.2-0.5-1.7,0c-0.5,0.5-0.5,1.2,0,1.7l6.3,6.3
			c0.2,0.2,0.5,0.3,0.8,0.3s0.6-0.1,0.8-0.3L230.3-73C230.7-73.5,230.7-74.3,230.3-74.7z"/>
	</g>
</g>
<g>
	<g>
		<path d="M186.3-68.7C186.3-68.7,186.3-68.7,186.3-68.7c-0.7,0-1.2,0.5-1.2,1.2c0,0,0,0,0,0c0,0,0,0,0,0c0,0.7,0.5,1.2,1.2,1.2
			c0,0,0,0,0,0c0.7,0,1.2-0.5,1.2-1.2c0,0,0,0,0,0c0,0,0,0,0,0C187.5-68.2,187-68.7,186.3-68.7z"/>
	</g>
</g>
<g>
	<g>
		<path d="M191.6-86.8c-1.4-1.4-3.3-2.2-5.3-2.2c-4.1,0-7.5,3.4-7.5,7.5c0,0.7,0.5,1.2,1.2,1.2c0.7,0,1.2-0.5,1.2-1.2
			c0-2.8,2.3-5.1,5.1-5.1c1.3,0,2.6,0.5,3.6,1.5c1,1,1.5,2.3,1.5,3.6c0,2.3-1.5,4.3-3.7,4.9c-1.6,0.5-2.7,1.9-2.7,3.6v0.4
			c0,0.7,0.5,1.2,1.2,1.2c0.7,0,1.2-0.5,1.2-1.2V-73c0-0.6,0.4-1.1,1-1.3c3.2-0.9,5.4-3.9,5.4-7.2C193.9-83.4,193.1-85.3,191.6-86.8
			z"/>
	</g>
</g>
</svg>
