<?xml version="1.0" encoding="utf-8"?>
<!-- Generator: Adobe Illustrator 21.1.0, SVG Export Plug-In . SVG Version: 6.00 Build 0)  -->
<svg version="1.1" id="Layer_1" xmlns="http://www.w3.org/2000/svg" xmlns:xlink="http://www.w3.org/1999/xlink" x="0px" y="0px"
	 viewBox="0 0 563.7 76.2" style="enable-background:new 0 0 563.7 76.2;" xml:space="preserve">
<style type="text/css">
	.st0{fill:#FFFFFF;}
</style>
<path class="st0" d="M46.5,39.6c0,0-4.1,3.2-5.7,4.4l-0.1-1.5L46.5,39.6z M41,48.7l0.1,1.9c1.1-0.8,8.5-6.5,8.5-6.5L41,48.7z
	 M42.3,12.9l-0.1,0.4l-0.1,0.4v0c0.7-0.4,1.4-0.9,2.1-1.3L42.3,12.9z M38.3,43.9V42l-7.4-6.6C30.9,35.4,37.5,42.8,38.3,43.9
	L38.3,43.9z M40.9,13.2l0.4-0.8l-1.8-2.4C39.5,9.9,40.4,12,40.9,13.2L40.9,13.2z M38.3,50.2v-1.9l-7.4-6.4
	C30.9,41.9,37.1,49,38.3,50.2L38.3,50.2z M38.8,21.5c-1.5-0.1-3.5-2.5-3.5-2.5l3.4,4c0,0,0,0,0,0L38.8,21.5z"/>
<path class="st0" d="M435,0.4c-0.2,0-0.4,0.1-0.4,0.3c0,0.1,0,0.2,0.1,0.2l7.9,12.7c0.2,0.3,0.3,0.6,0.3,1v6.7
	c0,0.4,0.3,0.7,0.7,0.7h4.2c0.4,0,0.7-0.3,0.7-0.7v-6.7c0-0.4,0.1-0.7,0.3-1L456.7,1c0.1-0.2,0.1-0.4-0.1-0.5
	c-0.1-0.1-0.2-0.1-0.2-0.1h-5.2c-0.4,0-0.8,0.2-1,0.6L446,7.8c-0.1,0.2-0.3,0.2-0.4,0.1c-0.1,0-0.1-0.1-0.1-0.1L441.3,1
	c-0.2-0.4-0.6-0.6-1-0.6L435,0.4z"/>
<path class="st0" d="M426.1,22.1c0.4,0,0.7-0.3,0.7-0.7v-4c0-0.4-0.3-0.7-0.7-0.7h-9.9c-0.3,0-0.6-0.3-0.6-0.6v-1.7
	c0-0.3,0.3-0.6,0.6-0.6h7.9c0.4,0,0.7-0.3,0.7-0.7V9.6c0-0.4-0.3-0.7-0.7-0.7h-7.9c-0.3,0-0.6-0.3-0.6-0.6v-2c0-0.3,0.3-0.6,0.6-0.6
	h9.9c0.4,0,0.7-0.3,0.7-0.7V1.1c0-0.4-0.3-0.7-0.7-0.7h-15.3c-0.4,0-0.7,0.3-0.7,0.7v20.4c0,0.4,0.3,0.7,0.7,0.7L426.1,22.1z"/>
<path class="st0" d="M401.2,22.1c0.4,0,0.7-0.3,0.7-0.7v-4c0-0.4-0.3-0.7-0.7-0.7H392c-0.3,0-0.6-0.3-0.6-0.6V1.1
	c0-0.4-0.3-0.7-0.7-0.7h-4.2c-0.4,0-0.7,0.3-0.7,0.7v20.4c0,0.4,0.3,0.7,0.7,0.7H401.2z"/>
<path class="st0" d="M366.5,0.4h-9.4c-0.4,0-0.7,0.3-0.7,0.7v20.4c0,0.4,0.3,0.7,0.7,0.7h9.4c6.8,0,10.3-4.9,10.3-10.9
	S373.3,0.4,366.5,0.4z M366,16.8h-3.5c-0.3,0-0.6-0.3-0.6-0.6V6.4c0-0.3,0.3-0.6,0.6-0.6h3.5c3.3,0,5.1,2.2,5.1,5.5
	S369.4,16.8,366,16.8L366,16.8z"/>
<path class="st0" d="M348.2,21.5L339.9,1c-0.2-0.4-0.5-0.6-0.9-0.6h-4.2c-0.4,0-0.8,0.2-0.9,0.6l-8.3,20.5c-0.1,0.2,0,0.5,0.3,0.6
	c0.1,0,0.1,0,0.2,0h4.7c0.4,0,0.7-0.3,0.9-0.6l0.8-2c0.1-0.3,0.4-0.5,0.8-0.5h7.4c0.3,0,0.6,0.2,0.8,0.5l0.8,2
	c0.2,0.4,0.5,0.6,0.9,0.6h4.7c0.2,0,0.4-0.2,0.4-0.5C348.2,21.6,348.2,21.6,348.2,21.5z M338.7,13.9h-3.6c-0.2,0-0.4-0.2-0.4-0.4
	c0,0,0-0.1,0-0.1l2-5.3c0-0.1,0.1-0.2,0.2-0.2c0.1,0,0.1,0.1,0.2,0.2l2,5.3c0.1,0.2,0,0.4-0.2,0.5C338.8,13.9,338.8,13.9,338.7,13.9
	z"/>
<path class="st0" d="M317.7,21.6l-4-5.5c-0.2-0.2-0.1-0.5,0.1-0.7c0,0,0,0,0.1,0c2.5-1.4,3.9-4.1,3.8-7c0-4.3-2.6-7.9-8.1-7.9h-9.9
	c-0.4,0-0.7,0.3-0.7,0.7v20.4c0,0.4,0.3,0.7,0.7,0.7h4.2c0.4,0,0.7-0.3,0.7-0.7v-4.6c0-0.3,0.3-0.6,0.6-0.6h1.7
	c0.4,0,0.7,0.2,0.9,0.5l3.4,4.8c0.2,0.3,0.6,0.5,1.1,0.6h5.3c0.2,0,0.3-0.2,0.3-0.4C317.8,21.7,317.8,21.6,317.7,21.6z M309.3,11.3
	h-4.2c-0.3,0-0.6-0.3-0.6-0.6V6.1c0-0.3,0.3-0.6,0.6-0.6h4.2c2.2,0,3.1,1.2,3.1,2.9c0.1,1.5-1,2.8-2.5,2.9
	C309.6,11.3,309.5,11.3,309.3,11.3z"/>
<path class="st0" d="M286.7,11.2c-0.1-0.1-0.2-0.2-0.1-0.4c0-0.1,0.1-0.1,0.1-0.1c1.4-1,2.2-2.6,2.2-4.3c0-3.5-2.4-6-7-6h-10.2
	c-0.4,0-0.7,0.3-0.7,0.7v20.4c0,0.4,0.3,0.7,0.7,0.7h11.1c4.4,0,7.1-2.5,7.1-6.1C289.9,13.9,288.7,12,286.7,11.2z M276.6,6
	c0-0.3,0.3-0.6,0.6-0.6h4.3c0.9-0.1,1.7,0.5,1.7,1.4c0,0.1,0,0.2,0,0.3c0,1-0.6,1.7-2.1,1.7h-4c-0.3,0-0.6-0.3-0.6-0.6L276.6,6z
	 M282.2,17h-5c-0.3,0-0.6-0.3-0.6-0.6v-2.7c0-0.3,0.3-0.6,0.6-0.6h5c1.5,0,2.1,0.8,2.1,1.9S283.7,17.1,282.2,17L282.2,17z"/>
<path class="st0" d="M239.4,10.6c0-0.1,0.1-0.2,0.2-0.2c0.1,0,0.1,0,0.2,0.1l8.9,11.1c0.3,0.3,0.7,0.5,1.1,0.5h3.4
	c0.4,0,0.7-0.3,0.7-0.7V1.1c0-0.4-0.3-0.7-0.7-0.7h-4.2c-0.4,0-0.7,0.3-0.7,0.7V12c0,0.1-0.1,0.2-0.2,0.2c-0.1,0-0.1,0-0.2-0.1
	L239,1c-0.3-0.3-0.7-0.5-1.1-0.5h-3.4c-0.4,0-0.7,0.3-0.7,0.7v20.4c0,0.4,0.3,0.7,0.7,0.7h4.2c0.4,0,0.7-0.3,0.7-0.7L239.4,10.6z"/>
<path class="st0" d="M213.3,0c-6.2,0.1-11.2,5.3-11,11.5s5.3,11.2,11.5,11c6.1-0.1,11-5.1,11-11.3C224.7,5,219.6,0,213.3,0z
	 M213.3,17.2c-3.3,0-5.9-2.6-5.9-5.9c0-3.3,2.6-5.9,5.9-5.9c3.3,0,5.9,2.6,5.9,5.9l0,0C219.2,14.5,216.6,17.2,213.3,17.2
	C213.3,17.2,213.3,17.2,213.3,17.2z"/>
<path class="st0" d="M174.6,11.6c0-0.1,0-0.1,0.1-0.1c0.1,0,0.1,0,0.1,0.1l4,7.9c0.2,0.4,0.6,0.6,1,0.6h2.3c0.4,0,0.8-0.2,1-0.6
	l4-7.9c0-0.1,0.1-0.1,0.2-0.1c0.1,0,0.1,0.1,0.1,0.1v9.9c0,0.4,0.3,0.7,0.7,0.7h4.2c0.4,0,0.7-0.3,0.7-0.7V1.1
	c0-0.4-0.3-0.7-0.7-0.7H188c-0.4,0-0.8,0.2-1,0.6l-5.7,11.4c-0.1,0.1-0.2,0.2-0.4,0.1c-0.1,0-0.1-0.1-0.1-0.1L175,1
	c-0.2-0.4-0.6-0.6-1-0.6h-4.3c-0.4,0-0.7,0.3-0.7,0.7v20.4c0,0.4,0.3,0.7,0.7,0.7h4.2c0.4,0,0.7-0.3,0.7-0.7L174.6,11.6z"/>
<path class="st0" d="M154.1,0.4h4.2c0.4,0,0.7,0.3,0.7,0.7v20.4c0,0.4-0.3,0.7-0.7,0.7h-4.2c-0.4,0-0.7-0.3-0.7-0.7V1.1
	C153.4,0.7,153.7,0.4,154.1,0.4z"/>
<path class="st0" d="M135.6,22.6c5,0,8.6-2.2,8.6-6.5c0-4.8-5.1-6.5-8.1-7.6c-2.6-0.9-3.6-1.3-3.6-2.2s0.8-1.5,2.6-1.5
	s2.9,0.8,3.2,1.8c0.1,0.5,0.5,0.8,0.9,0.8h3.9c0.4,0,0.7-0.4,0.7-0.8C143.6,2.6,140.1,0,135,0s-8.5,2.6-8.5,6.7c0,4.5,4.5,6.1,8,7.3
	c2.6,0.9,3.7,1.5,3.7,2.4c0,0.6-0.7,1.3-2.8,1.3s-3.1-0.7-3.5-1.4s-0.5-0.7-1.1-0.7h-3.8c-0.4,0-0.7,0.4-0.7,0.8
	C126.8,20.4,130.7,22.6,135.6,22.6"/>
<path class="st0" d="M274.7,53.8c0,12.3,10.4,22.3,22.8,22.3c8.1,0,15.6-4.2,19.7-11.2c0.3-0.5,0.2-1.2-0.4-1.6c0,0-0.1,0-0.1-0.1
	l-7.7-3.4c-0.7-0.3-1.6-0.1-1.9,0.6c-3.7,5.3-11,6.5-16.3,2.8c-5.3-3.7-6.5-11-2.8-16.3c3.7-5.3,11-6.5,16.3-2.8
	c1.1,0.8,2.1,1.7,2.8,2.8c0.4,0.7,1.2,0.9,1.9,0.6c0,0,0,0,0.1,0l7.6-3.4c0.6-0.3,0.8-1.1,0.5-1.7c-4.2-6.9-11.6-11.1-19.7-11.1
	C285.1,31.5,274.7,41.5,274.7,53.8"/>
<path class="st0" d="M257.3,45.6L257.3,45.6V74c0,0.7,0.6,1.3,1.3,1.3h8.4c0.7,0,1.3-0.6,1.3-1.3V62l0,0V33.6c0-0.7-0.6-1.3-1.3-1.3
	h-8.4c-0.7,0-1.3,0.6-1.3,1.3V45.6z"/>
<path class="st0" d="M117.9,74V33.7c0-0.7-0.6-1.3-1.3-1.3h-8.4c-0.7,0-1.3,0.6-1.3,1.3v14.3c0,0.6-0.5,1.1-1.1,1.1H90.5
	c-0.6,0-1.1-0.5-1.1-1.1V33.7c0-0.7-0.6-1.3-1.3-1.3h-8.3c-0.7,0-1.3,0.6-1.3,1.3V74c0,0.7,0.6,1.3,1.3,1.3h8.3
	c0.7,0,1.3-0.6,1.3-1.3V60.5c0-0.6,0.5-1.1,1.1-1.1h15.3c0.6,0,1.1,0.5,1.1,1.1V74c0,0.7,0.6,1.3,1.3,1.3h8.4
	C117.3,75.3,117.9,74.8,117.9,74"/>
<path class="st0" d="M145.4,31.5c-12.4,0-22.8,10-22.8,22.3s10.4,22.3,22.8,22.3c12.6,0,22.8-10,22.8-22.3S157.9,31.5,145.4,31.5z
	 M145.4,65.5c-6.5,0-11.7-5.2-11.7-11.7s5.2-11.7,11.7-11.7s11.7,5.2,11.7,11.7C157.1,60.2,151.9,65.5,145.4,65.5
	C145.4,65.5,145.4,65.5,145.4,65.5L145.4,65.5z"/>
<path class="st0" d="M210.8,74.3l-7.9-11c-0.3-0.5-0.2-1.1,0.3-1.4c0,0,0,0,0.1,0c5.1-2.8,7.5-8.1,7.5-13.8
	c0-8.5-5.1-15.7-16.1-15.7H175c-0.7,0-1.3,0.6-1.3,1.3V74c0,0.7,0.6,1.3,1.3,1.3h8.3c0.7,0,1.3-0.6,1.3-1.3v-9.1
	c0-0.6,0.5-1.1,1.1-1.1h3.4c0.7,0,1.3,0.3,1.8,0.9l6.7,9.5c0.5,0.7,1.3,1.1,2.1,1.1h10.5c0.4,0,0.7-0.3,0.7-0.7
	C210.9,74.5,210.9,74.4,210.8,74.3z M194.1,53.8h-8.3c-0.6,0-1.1-0.5-1.1-1.1v-9.3c0-0.6,0.5-1.1,1.1-1.1h8.3c4.4,0,6.1,2.5,6.1,5.8
	C200.1,51.1,198.5,53.8,194.1,53.8z"/>
<path class="st0" d="M250.2,32.3H215c-0.7,0-1.3,0.6-1.3,1.3v8.1c0,0.7,0.6,1.3,1.3,1.3h11c0.6,0,1.1,0.5,1.1,1.1V74
	c0,0.7,0.6,1.3,1.3,1.3h8.4c0.7,0,1.3-0.6,1.3-1.3V44.1c0-0.6,0.5-1.1,1.1-1.1h11c0.7,0,1.3-0.6,1.3-1.3v-8
	C251.5,32.9,250.9,32.4,250.2,32.3"/>
<path class="st0" d="M361.6,56.5V33.7c0-0.7-0.6-1.3-1.3-1.3h-8.3c-0.7,0-1.3,0.6-1.3,1.3v22.2c0,6.2-3,9.6-8.8,9.6
	s-8.7-3.4-8.7-9.6V33.7c0-0.7-0.6-1.3-1.3-1.3h-8.4c-0.7,0-1.3,0.6-1.3,1.3v22.9c0,11.1,6.8,19.6,19.7,19.6S361.6,67.6,361.6,56.5"
	/>
<path class="st0" d="M400.6,64.7h-18.2c-0.6,0-1.1-0.5-1.1-1.1V33.7c0-0.7-0.6-1.3-1.3-1.3h-8.3c-0.7,0-1.3,0.6-1.3,1.3V74
	c0,0.7,0.6,1.3,1.3,1.3h29c0.7,0,1.3-0.6,1.3-1.3v-8C401.9,65.3,401.3,64.7,400.6,64.7C400.6,64.7,400.6,64.7,400.6,64.7"/>
<path class="st0" d="M433.2,41.7v-8c0-0.7-0.6-1.3-1.3-1.3h-35.2c-0.7,0-1.3,0.6-1.3,1.3v8c0,0.7,0.6,1.3,1.3,1.3h11
	c0.6,0,1.1,0.5,1.1,1.1V74c0,0.7,0.6,1.3,1.3,1.3h8.4c0.7,0,1.3-0.6,1.3-1.3V44.1c0-0.6,0.5-1.1,1.1-1.1h11
	C432.6,43,433.2,42.4,433.2,41.7"/>
<path class="st0" d="M477.9,56.5V33.7c0-0.7-0.6-1.3-1.3-1.3h-8.3c-0.7,0-1.3,0.6-1.3,1.3v22.2c0,6.2-3,9.6-8.8,9.6
	s-8.7-3.4-8.7-9.7V33.7c0-0.7-0.6-1.3-1.3-1.3h-8.4c-0.7,0-1.3,0.6-1.3,1.3v22.9c0,11.1,6.8,19.6,19.7,19.6S477.9,67.6,477.9,56.5"
	/>
<path class="st0" d="M522.9,74.3l-7.9-11c-0.3-0.5-0.2-1.1,0.3-1.4c0,0,0,0,0.1,0c5.1-2.8,7.5-8.1,7.5-13.8
	c0-8.5-5.1-15.7-16.1-15.7H487c-0.7,0-1.3,0.6-1.3,1.3V74c0,0.7,0.6,1.3,1.3,1.3h8.4c0.7,0,1.3-0.6,1.3-1.3v-9.1
	c0-0.6,0.5-1.1,1.1-1.1h3.4c0.7,0,1.3,0.3,1.8,0.9l6.7,9.5c0.5,0.7,1.3,1.1,2.1,1.1h10.5c0.4,0,0.7-0.4,0.6-0.7
	C523,74.5,522.9,74.3,522.9,74.3z M506.1,53.8h-8.3c-0.6,0-1.1-0.5-1.1-1.1v-9.3c0-0.6,0.5-1.1,1.1-1.1h8.3c4.4,0,6.1,2.5,6.1,5.8
	C512.2,51.1,510.5,53.8,506.1,53.8z"/>
<path class="st0" d="M541.7,63.6v-3.3c0-0.6,0.5-1.1,1.1-1.1h15.6c0.7,0,1.3-0.6,1.3-1.3v-7.3c0-0.7-0.6-1.3-1.3-1.3h-15.6
	c-0.6,0-1.1-0.5-1.1-1.1v-4c0-0.6,0.5-1.1,1.1-1.1h19.6c0.7,0,1.3-0.6,1.3-1.3v-8c0-0.7-0.6-1.3-1.3-1.3H532c-0.7,0-1.3,0.6-1.3,1.3
	V74c0,0.7,0.6,1.3,1.3,1.3h30.4c0.7,0,1.3-0.6,1.3-1.3v-8c0-0.7-0.6-1.3-1.3-1.3h-19.6C542.2,64.7,541.7,64.2,541.7,63.6"/>
<path class="st0" d="M52.5,0.2c-0.1-0.2-0.4-0.3-0.9-0.1c-8.8,3.7-26.2,13.8-26.2,36.1c0,14.3,6.1,21.2,12.9,22.8l0,6.4l-0.1,9.4
	c0,0.2,0.2,0.4,0.4,0.4h2.5c0.2,0,0.4-0.2,0.4-0.4l-0.2-15.5h0.1c8.6,0,15.4-3.6,15.4-13.2c0-8-4.4-10.6-11.8-13.3
	c1.8-0.3,2.9-1.3,2.9-3v0c0-1.5-0.9-2.3-2.2-2.7c0.8-0.4,1.6-1.2,1.6-2.5v0c0-0.7-0.3-1.4-0.8-1.9c-0.6-0.6-1.7-1-2.9-1h-3
	c0.2-1.7,0.4-3.4,0.7-5.1c2.6,0.1,4.2,0.9,5.9,2.5c0.3,0.2,0.3,0.2,0.5,0.1c0.1-0.1,0-0.3,0-0.4C42,7.6,52.2,1.1,52.3,1.1
	C52.6,0.9,52.7,0.5,52.5,0.2z M43.4,23.7c1.3,0,1.7,0.5,1.7,1.2l0,0c0,0.8-0.6,1.3-1.9,1.3h-2.8c0-1,0.1-1.5,0.1-2.5L43.4,23.7z
	 M48.9,2.9c-6.4,5.8-4.2,12.5-4.2,12.5s-0.7-0.3-1.4-0.6c-0.4-0.2-0.9-0.3-1.4-0.4c0.1-0.3,0.1-0.5,0.2-0.8l0.1-0.4l0.1-0.4
	c1-3.3,2.3-5.7,3.7-7.6l0,0c-2,2-3.5,4.4-4.7,7l-0.4,0.9c-0.2,0.4-0.3,0.8-0.4,1.1c-0.8,0-1.6,0.1-2.4,0.3c-1.5,0.3-2.9,0.9-4.1,1.8
	C34,16.4,36.9,9.5,48.9,2.9z M38.4,55.1c-10.2-3.5-11.8-20.5-7.5-32.6c0,0-1.8,7.2,7.5,11.5V55.1z M39.5,17.5l-0.1,0.3
	c-0.1,0.3-0.1,0.6-0.2,0.9c-0.1,0.3-0.1,0.6-0.2,1c0,0.2-0.1,0.4-0.1,0.6c-0.1,0.4-0.1,0.7-0.2,1.1l-0.2,1.6v0
	c-0.1,0.5-0.1,1.1-0.1,1.6c0,0.3,0,0.5,0,0.8c0,0.2,0,0.3,0,0.5c-0.1,2.5-0.1,4.4-0.1,4.4s-6.8-3.5-4.9-9.5c1.2-3.8,6.1-4.2,6.4-4.2
	C39.7,16.9,39.6,17.2,39.5,17.5z M40.4,31.2c0-1.2,0-1.9,0-2.8h3.3c1.6,0,2.1,0.8,2,1.2v0c0,0.8-0.5,1.6-1.9,1.6L40.4,31.2
	L40.4,31.2z M41.2,55.7l-0.7-20.8c0.7,0.2,1.3,0.5,2.1,0.7c7.1,2,10.5,5.2,10.5,10.6c0,3.9-1.9,9.6-10.7,9.6
	C42,55.7,41.6,55.7,41.2,55.7L41.2,55.7z"/>
</svg>
