<?xml version="1.0" encoding="utf-8"?>
<!-- Generator: Adobe Illustrator 21.1.0, SVG Export Plug-In . SVG Version: 6.00 Build 0)  -->
<svg version="1.1" id="Layer_1" xmlns="http://www.w3.org/2000/svg" xmlns:xlink="http://www.w3.org/1999/xlink" x="0px" y="0px"
	 viewBox="0 0 485.3 303" style="enable-background:new 0 0 485.3 303;" xml:space="preserve">
<style type="text/css">
	.st0{fill:#FFFFFF;}
</style>
<path class="st0" d="M206.3,130.7c0,0-13.4,10.6-18.9,14.7l-0.2-5L206.3,130.7z M188,160.9l0.2,6.2c3.7-2.5,28.1-21.5,28.1-21.5
	L188,160.9z M192.2,42.5l-0.4,1.3l-0.3,1.2v0.1c2.4-1.4,4.7-2.8,6.9-4.4L192.2,42.5z M179.2,145.1v-6.3L154.7,117
	C154.7,117,176.3,141.6,179.2,145.1L179.2,145.1z M187.7,43.6l1.2-2.8l-5.8-8c0,0,2.9,6.8,4.5,11L187.7,43.6z M179.2,166v-6.4
	l-24.6-21C154.7,138.6,175.1,162,179.2,166L179.2,166z M180.6,71.2C175.7,70.7,169,63,169,63L180,76.4c0,0,0-0.1,0-0.1L180.6,71.2z"
	/>
<path class="st0" d="M366.6,227.2c-0.2,0-0.4,0.1-0.4,0.3c0,0.1,0,0.2,0.1,0.2l7.9,12.7c0.2,0.3,0.3,0.6,0.3,1v6.7
	c0,0.4,0.3,0.7,0.7,0.7h4.2c0.4,0,0.7-0.3,0.7-0.7v-6.7c0-0.4,0.1-0.7,0.3-1l7.9-12.7c0.1-0.2,0.1-0.4-0.1-0.5
	c-0.1-0.1-0.2-0.1-0.2-0.1h-5.2c-0.4,0-0.8,0.2-1,0.6l-4.2,6.9c-0.1,0.2-0.3,0.2-0.4,0.1c-0.1,0-0.1-0.1-0.1-0.1l-4.2-6.8
	c-0.2-0.4-0.6-0.6-1-0.6L366.6,227.2z"/>
<path class="st0" d="M357.7,248.9c0.4,0,0.7-0.3,0.7-0.7v-4c0-0.4-0.3-0.7-0.7-0.7h-9.9c-0.3,0-0.6-0.3-0.6-0.6v-1.7
	c0-0.3,0.3-0.6,0.6-0.6h7.9c0.4,0,0.7-0.3,0.7-0.7v-3.7c0-0.4-0.3-0.7-0.7-0.7h-7.9c-0.3,0-0.6-0.3-0.6-0.6v-2
	c0-0.3,0.3-0.6,0.6-0.6h9.9c0.4,0,0.7-0.3,0.7-0.7v-4.1c0-0.4-0.3-0.7-0.7-0.7h-15.3c-0.4,0-0.7,0.3-0.7,0.7v20.4
	c0,0.4,0.3,0.7,0.7,0.7L357.7,248.9z"/>
<path class="st0" d="M332.8,248.9c0.4,0,0.7-0.3,0.7-0.7v-4c0-0.4-0.3-0.7-0.7-0.7h-9.2c-0.3,0-0.6-0.3-0.6-0.6v-15.1
	c0-0.4-0.3-0.7-0.7-0.7h-4.2c-0.4,0-0.7,0.3-0.7,0.7v20.4c0,0.4,0.3,0.7,0.7,0.7H332.8z"/>
<path class="st0" d="M298.1,227.2h-9.4c-0.4,0-0.7,0.3-0.7,0.7v20.4c0,0.4,0.3,0.7,0.7,0.7h9.4c6.8,0,10.3-4.9,10.3-10.9
	S304.9,227.2,298.1,227.2z M297.6,243.5h-3.5c-0.3,0-0.6-0.3-0.6-0.6v-9.8c0-0.3,0.3-0.6,0.6-0.6h3.5c3.3,0,5.1,2.2,5.1,5.5
	S301,243.5,297.6,243.5L297.6,243.5z"/>
<path class="st0" d="M279.8,248.3l-8.3-20.5c-0.2-0.4-0.5-0.6-0.9-0.6h-4.2c-0.4,0-0.8,0.2-0.9,0.6l-8.3,20.5
	c-0.1,0.2,0,0.5,0.3,0.6c0.1,0,0.1,0,0.2,0h4.7c0.4,0,0.7-0.3,0.9-0.6l0.8-2c0.1-0.3,0.4-0.5,0.8-0.5h7.4c0.3,0,0.6,0.2,0.8,0.5
	l0.8,2c0.2,0.4,0.5,0.6,0.9,0.6h4.7c0.2,0,0.4-0.2,0.4-0.5C279.8,248.4,279.8,248.4,279.8,248.3z M270.3,240.7h-3.7
	c-0.2,0-0.4-0.2-0.4-0.4c0,0,0-0.1,0-0.1l2-5.3c0-0.1,0.1-0.2,0.2-0.2c0.1,0,0.1,0.1,0.2,0.2l2,5.3c0.1,0.2,0,0.4-0.2,0.5
	C270.4,240.7,270.4,240.7,270.3,240.7z"/>
<path class="st0" d="M249.3,248.4l-4-5.5c-0.2-0.2-0.1-0.5,0.1-0.7c0,0,0,0,0.1,0c2.5-1.4,3.9-4.1,3.8-7c0-4.3-2.6-7.9-8.1-7.9h-9.9
	c-0.4,0-0.7,0.3-0.7,0.7v20.4c0,0.4,0.3,0.7,0.7,0.7h4.2c0.4,0,0.7-0.3,0.7-0.7v-4.6c0-0.3,0.3-0.6,0.6-0.6h1.7
	c0.4,0,0.7,0.2,0.9,0.5l3.4,4.8c0.2,0.3,0.6,0.5,1.1,0.6h5.3c0.2,0,0.3-0.2,0.3-0.4C249.4,248.5,249.4,248.4,249.3,248.4z
	 M240.9,238.1h-4.2c-0.3,0-0.6-0.3-0.6-0.6v-4.7c0-0.3,0.3-0.6,0.6-0.6h4.2c2.2,0,3.1,1.2,3.1,2.9c0.1,1.5-1,2.8-2.5,2.9
	C241.2,238.1,241.1,238.1,240.9,238.1z"/>
<path class="st0" d="M218.3,238c-0.1-0.1-0.2-0.2-0.1-0.4c0-0.1,0.1-0.1,0.1-0.1c1.4-1,2.2-2.6,2.2-4.3c0-3.5-2.4-6-7-6h-10.2
	c-0.4,0-0.7,0.3-0.7,0.7v20.4c0,0.4,0.3,0.7,0.7,0.7h11.1c4.4,0,7.1-2.5,7.1-6.1C221.5,240.7,220.3,238.8,218.3,238z M208.2,232.8
	c0-0.3,0.3-0.6,0.6-0.6h4.3c0.9-0.1,1.7,0.5,1.7,1.4c0,0.1,0,0.2,0,0.3c0,1-0.6,1.7-2.1,1.7h-4c-0.3,0-0.6-0.3-0.6-0.6L208.2,232.8z
	 M213.8,243.8h-5c-0.3,0-0.6-0.3-0.6-0.6v-2.7c0-0.3,0.3-0.6,0.6-0.6h5c1.5,0,2.1,0.8,2.1,1.9S215.3,243.9,213.8,243.8L213.8,243.8z
	"/>
<path class="st0" d="M151,237.4c0-0.1,0.1-0.2,0.2-0.2c0.1,0,0.1,0,0.2,0.1l8.9,11.1c0.3,0.3,0.7,0.5,1.1,0.5h3.4
	c0.4,0,0.7-0.3,0.7-0.7v-20.4c0-0.4-0.3-0.7-0.7-0.7h-4.2c-0.4,0-0.7,0.3-0.7,0.7v10.9c0,0.1-0.1,0.2-0.2,0.2c-0.1,0-0.1,0-0.2-0.1
	l-8.9-11.2c-0.3-0.3-0.7-0.5-1.1-0.5h-3.4c-0.4,0-0.7,0.3-0.7,0.7v20.4c0,0.4,0.3,0.7,0.7,0.7h4.2c0.4,0,0.7-0.3,0.7-0.7L151,237.4z
	"/>
<path class="st0" d="M124.9,226.8c-6.2,0.1-11.2,5.3-11,11.5s5.3,11.2,11.5,11c6.1-0.1,11-5.1,11-11.3
	C136.3,231.8,131.2,226.8,124.9,226.8z M124.9,244c-3.3,0-5.9-2.6-5.9-5.9c0-3.3,2.6-5.9,5.9-5.9c3.3,0,5.9,2.6,5.9,5.9l0,0
	C130.8,241.3,128.2,244,124.9,244C124.9,244,124.9,244,124.9,244z"/>
<path class="st0" d="M86.2,238.4c0-0.1,0-0.1,0.1-0.1c0.1,0,0.1,0,0.1,0.1l4,7.9c0.2,0.4,0.6,0.6,1,0.6h2.3c0.4,0,0.8-0.2,1-0.6
	l4-7.9c0-0.1,0.1-0.1,0.2-0.1c0.1,0,0.1,0.1,0.1,0.1v9.9c0,0.4,0.3,0.7,0.7,0.7h4.2c0.4,0,0.7-0.3,0.7-0.7v-20.4
	c0-0.4-0.3-0.7-0.7-0.7h-4.3c-0.4,0-0.8,0.2-1,0.6l-5.7,11.4c-0.1,0.1-0.2,0.2-0.4,0.1c-0.1,0-0.1-0.1-0.1-0.1l-5.7-11.4
	c-0.2-0.4-0.6-0.6-1-0.6h-4.3c-0.4,0-0.7,0.3-0.7,0.7v20.4c0,0.4,0.3,0.7,0.7,0.7h4.2c0.4,0,0.7-0.3,0.7-0.7L86.2,238.4z"/>
<path class="st0" d="M65.7,227.2h4.2c0.4,0,0.7,0.3,0.7,0.7v20.4c0,0.4-0.3,0.7-0.7,0.7h-4.2c-0.4,0-0.7-0.3-0.7-0.7v-20.4
	C65,227.5,65.3,227.2,65.7,227.2z"/>
<path class="st0" d="M47.2,249.3c5,0,8.6-2.2,8.6-6.5c0-4.8-5.1-6.5-8.1-7.6c-2.6-0.9-3.6-1.3-3.6-2.2s0.8-1.5,2.6-1.5
	s2.9,0.8,3.2,1.8c0.1,0.5,0.5,0.8,0.9,0.8h3.9c0.4,0,0.7-0.4,0.7-0.8c-0.3-3.9-3.8-6.5-8.9-6.5s-8.5,2.6-8.5,6.7
	c0,4.5,4.5,6.1,8,7.3c2.6,0.9,3.7,1.5,3.7,2.4c0,0.6-0.7,1.3-2.8,1.3s-3.1-0.7-3.5-1.4s-0.5-0.7-1.1-0.7h-3.8
	c-0.4,0-0.7,0.4-0.7,0.8C38.4,247.2,42.3,249.3,47.2,249.3"/>
<path class="st0" d="M196.3,280.6c0,12.3,10.4,22.3,22.8,22.3c8.1,0,15.6-4.2,19.7-11.2c0.3-0.5,0.2-1.2-0.4-1.6c0,0-0.1,0-0.1-0.1
	l-7.7-3.4c-0.7-0.3-1.6-0.1-1.9,0.6c-3.7,5.3-11,6.5-16.3,2.8c-5.3-3.7-6.5-11-2.8-16.3c3.7-5.3,11-6.5,16.3-2.8
	c1.1,0.8,2.1,1.7,2.8,2.8c0.4,0.7,1.2,0.9,1.9,0.6c0,0,0,0,0.1,0l7.6-3.4c0.6-0.3,0.8-1.1,0.5-1.7c-4.2-6.9-11.6-11.1-19.7-11.1
	C206.7,258.3,196.3,268.3,196.3,280.6"/>
<path class="st0" d="M178.9,272.4L178.9,272.4v28.4c0,0.7,0.6,1.3,1.3,1.3h8.4c0.7,0,1.3-0.6,1.3-1.3v-12l0,0v-28.4
	c0-0.7-0.6-1.3-1.3-1.3h-8.4c-0.7,0-1.3,0.6-1.3,1.3V272.4z"/>
<path class="st0" d="M39.5,300.8v-40.4c0-0.7-0.6-1.3-1.3-1.3h-8.4c-0.7,0-1.3,0.6-1.3,1.3v14.3c0,0.6-0.5,1.1-1.1,1.1H12.1
	c-0.6,0-1.1-0.5-1.1-1.1v-14.3c0-0.7-0.6-1.3-1.3-1.3H1.3c-0.7,0-1.3,0.6-1.3,1.3v40.4c0,0.7,0.6,1.3,1.3,1.3h8.3
	c0.7,0,1.3-0.6,1.3-1.3v-13.6c0-0.6,0.5-1.1,1.1-1.1h15.3c0.6,0,1.1,0.5,1.1,1.1v13.6c0,0.7,0.6,1.3,1.3,1.3h8.4
	C38.9,302.1,39.5,301.5,39.5,300.8"/>
<path class="st0" d="M67,258.3c-12.4,0-22.8,10-22.8,22.3S54.6,303,67,303c12.6,0,22.8-10,22.8-22.3S79.5,258.3,67,258.3z M67,292.3
	c-6.5,0-11.7-5.2-11.7-11.7s5.2-11.7,11.7-11.7s11.7,5.2,11.7,11.7C78.7,287,73.5,292.3,67,292.3C67,292.3,67,292.3,67,292.3
	L67,292.3z"/>
<path class="st0" d="M132.4,301l-7.9-11c-0.3-0.5-0.2-1.1,0.3-1.4c0,0,0,0,0.1,0c5.1-2.8,7.5-8.1,7.5-13.8c0-8.5-5.1-15.7-16.1-15.7
	H96.6c-0.7,0-1.3,0.6-1.3,1.3v40.4c0,0.7,0.6,1.3,1.3,1.3h8.3c0.7,0,1.3-0.6,1.3-1.3v-9.1c0-0.6,0.5-1.1,1.1-1.1h3.4
	c0.7,0,1.3,0.3,1.8,0.9l6.7,9.5c0.5,0.7,1.3,1.1,2.1,1.1h10.5c0.4,0,0.7-0.3,0.7-0.7C132.5,301.3,132.5,301.1,132.4,301z
	 M115.7,280.6h-8.3c-0.6,0-1.1-0.5-1.1-1.1v-9.3c0-0.6,0.5-1.1,1.1-1.1h8.3c4.4,0,6.1,2.5,6.1,5.8
	C121.7,277.9,120.1,280.6,115.7,280.6z"/>
<path class="st0" d="M171.8,259.1h-35.2c-0.7,0-1.3,0.6-1.3,1.3v8.1c0,0.7,0.6,1.3,1.3,1.3h11c0.6,0,1.1,0.5,1.1,1.1v29.9
	c0,0.7,0.6,1.3,1.3,1.3h8.4c0.7,0,1.3-0.6,1.3-1.3v-29.9c0-0.6,0.5-1.1,1.1-1.1h11c0.7,0,1.3-0.6,1.3-1.3v-8
	C173.1,259.7,172.5,259.1,171.8,259.1"/>
<path class="st0" d="M283.2,283.3v-22.9c0-0.7-0.6-1.3-1.3-1.3h-8.3c-0.7,0-1.3,0.6-1.3,1.3v22.2c0,6.2-3,9.6-8.8,9.6
	s-8.7-3.4-8.7-9.6v-22.2c0-0.7-0.6-1.3-1.3-1.3H245c-0.7,0-1.3,0.6-1.3,1.3v22.9c0,11.1,6.8,19.6,19.7,19.6
	C276.3,303,283.2,294.4,283.2,283.3"/>
<path class="st0" d="M322.2,291.5H304c-0.6,0-1.1-0.5-1.1-1.1v-29.9c0-0.7-0.6-1.3-1.3-1.3h-8.3c-0.7,0-1.3,0.6-1.3,1.3v40.4
	c0,0.7,0.6,1.3,1.3,1.3h29c0.7,0,1.3-0.6,1.3-1.3v-8C323.5,292.1,322.9,291.5,322.2,291.5C322.2,291.5,322.2,291.5,322.2,291.5"/>
<path class="st0" d="M354.8,268.5v-8c0-0.7-0.6-1.3-1.3-1.3h-35.2c-0.7,0-1.3,0.6-1.3,1.3v8c0,0.7,0.6,1.3,1.3,1.3h11
	c0.6,0,1.1,0.5,1.1,1.1v29.9c0,0.7,0.6,1.3,1.3,1.3h8.4c0.7,0,1.3-0.6,1.3-1.3v-29.9c0-0.6,0.5-1.1,1.1-1.1h11
	C354.2,269.8,354.8,269.2,354.8,268.5"/>
<path class="st0" d="M399.5,283.3v-22.9c0-0.7-0.6-1.3-1.3-1.3h-8.3c-0.7,0-1.3,0.6-1.3,1.3v22.2c0,6.2-3,9.6-8.8,9.6
	s-8.7-3.4-8.7-9.7v-22.2c0-0.7-0.6-1.3-1.3-1.3h-8.4c-0.7,0-1.3,0.6-1.3,1.3v22.9c0,11.1,6.8,19.6,19.7,19.6
	S399.5,294.4,399.5,283.3"/>
<path class="st0" d="M444.5,301l-7.9-11c-0.3-0.5-0.2-1.1,0.3-1.4c0,0,0,0,0.1,0c5.1-2.8,7.5-8.1,7.5-13.8c0-8.5-5.1-15.7-16.1-15.7
	h-19.7c-0.7,0-1.3,0.6-1.3,1.3v40.4c0,0.7,0.6,1.3,1.3,1.3h8.4c0.7,0,1.3-0.6,1.3-1.3v-9.1c0-0.6,0.5-1.1,1.1-1.1h3.4
	c0.7,0,1.3,0.3,1.8,0.9l6.7,9.5c0.5,0.7,1.3,1.1,2.1,1.1h10.5c0.4,0,0.7-0.4,0.6-0.7C444.6,301.3,444.5,301.1,444.5,301z
	 M427.7,280.6h-8.3c-0.6,0-1.1-0.5-1.1-1.1v-9.3c0-0.6,0.5-1.1,1.1-1.1h8.3c4.4,0,6.1,2.5,6.1,5.8
	C433.8,277.9,432.1,280.6,427.7,280.6z"/>
<path class="st0" d="M463.3,290.4v-3.3c0-0.6,0.5-1.1,1.1-1.1H480c0.7,0,1.3-0.6,1.3-1.3v-7.3c0-0.7-0.6-1.3-1.3-1.3h-15.6
	c-0.6,0-1.1-0.5-1.1-1.1v-4c0-0.6,0.5-1.1,1.1-1.1H484c0.7,0,1.3-0.6,1.3-1.3v-8c0-0.7-0.6-1.3-1.3-1.3h-30.4
	c-0.7,0-1.3,0.6-1.3,1.3v40.4c0,0.7,0.6,1.3,1.3,1.3H484c0.7,0,1.3-0.6,1.3-1.3v-8c0-0.7-0.6-1.3-1.3-1.3h-19.6
	C463.8,291.5,463.3,291,463.3,290.4"/>
<path class="st0" d="M226.1,0.7c-0.5-0.8-1.2-1-2.8-0.4c-29.2,12.2-86.7,45.6-86.7,119.5c0,47.2,20.3,70.1,42.7,75.4l-0.1,21.3
	l-0.3,31.1c0,0.7,0.6,1.3,1.3,1.3h8.4c0.7,0,1.3-0.6,1.3-1.3l-0.6-51.2h0.2c28.3,0,50.8-11.9,50.8-43.7c0-26.4-14.4-35-39-43.9
	c6-1,9.7-4.4,9.7-9.9v-0.1c0-5.1-3-7.6-7.4-9.1c2.8-1.4,5.3-3.9,5.3-8.3v-0.1c0.1-2.3-0.8-4.6-2.5-6.2c-2.1-2.1-5.5-3.3-9.7-3.3
	h-9.8c0.5-5.6,1.3-11.2,2.4-16.8c8.5,0.2,13.7,3,19.4,8.1c0.9,0.8,1.1,0.7,1.5,0.4c0.2-0.3,0.1-0.8-0.1-1.3
	c-18.5-37,15.2-58.6,15.4-58.8C226.4,2.9,226.6,1.7,226.1,0.7z M195.8,78.4c4.2,0,5.7,1.7,5.6,3.9l0,0c0.1,2.7-1.9,4.3-6.1,4.3H186
	c0.1-3.4,0.2-5,0.4-8.1L195.8,78.4z M214,9.6c-21,19.1-14,41.2-14,41.2s-2.5-1.1-4.7-1.9c-1.5-0.5-3-1-4.5-1.3
	c0.2-0.9,0.5-1.8,0.7-2.7l0.3-1.2l0.4-1.3c3.3-10.8,7.6-18.9,12.2-25l0,0c-6.5,6.7-11.7,14.5-15.4,23.1l-1.3,3.1
	c-0.5,1.2-1,2.5-1.5,3.8c-2.6,0-5.2,0.3-7.8,0.9c-4.9,1-9.5,3-13.6,6C164.9,54.3,174.4,31.2,214,9.6z M179.3,182.1
	c-33.8-11.4-39.1-67.6-24.9-107.9c0,0-6,23.6,24.9,38.1V182.1z M183.2,57.8l-0.2,1c-0.2,1-0.5,2-0.7,3s-0.4,2.1-0.6,3.4
	c-0.1,0.7-0.2,1.4-0.4,2.1c-0.2,1.2-0.4,2.4-0.6,3.8l-0.6,5.2v0.1c-0.2,1.7-0.3,3.5-0.4,5.4c-0.1,0.9-0.1,1.8-0.2,2.6
	c0,0.6-0.1,1.1-0.1,1.6c-0.4,8.3-0.2,14.4-0.2,14.4s-22.5-11.6-16.3-31.4c4-12.7,20.3-13.9,21-14C183.6,55.9,183.4,56.8,183.2,57.8z
	 M186.1,103.3c-0.1-3.8-0.1-6.4-0.1-9.3h10.9c5.2,0,6.8,2.8,6.8,4.1v0.1c0,2.8-1.8,5.1-6.3,5.1L186.1,103.3L186.1,103.3z M188.8,184
	l-2.5-68.8c2.2,0.8,4.4,1.5,6.9,2.2c23.4,6.6,34.7,17.2,34.7,35c0,13-6.2,31.8-35.5,31.8C191.2,184.2,190,184.1,188.8,184L188.8,184
	z"/>
</svg>
