<svg 
 xmlns="http://www.w3.org/2000/svg"
 xmlns:xlink="http://www.w3.org/1999/xlink"
 width="20px" height="20px">
<path fill-rule="evenodd"  opacity="0.902" fill="rgb(255, 255, 255)"
 d="M10.000,20.000 C4.487,20.000 0.000,15.513 0.000,10.000 C0.000,4.487 4.487,0.000 10.000,0.000 C15.512,0.000 20.000,4.487 20.000,10.000 C20.000,15.513 15.512,20.000 10.000,20.000 ZM10.000,2.000 C5.589,2.000 2.000,5.590 2.000,10.000 C2.000,14.410 5.589,18.000 10.000,18.000 C14.410,18.000 18.000,14.410 18.000,10.000 C18.000,5.590 14.410,2.000 10.000,2.000 ZM12.400,14.000 L10.000,11.600 L7.600,14.000 L6.000,12.400 L8.400,10.000 L6.000,7.600 L7.600,6.000 L10.000,8.400 L12.400,6.000 L14.000,7.600 L11.601,10.000 L14.000,12.400 L12.400,14.000 Z"/>
</svg>