<svg xmlns="http://www.w3.org/2000/svg" width="26" height="15" viewBox="0 0 26 15">
  <metadata><?xpacket begin="﻿" id="W5M0MpCehiHzreSzNTczkc9d"?>
<x:xmpmeta xmlns:x="adobe:ns:meta/" x:xmptk="Adobe XMP Core 5.6-c138 79.159824, 2016/09/14-01:09:01        ">
   <rdf:RDF xmlns:rdf="http://www.w3.org/1999/02/22-rdf-syntax-ns#">
      <rdf:Description rdf:about=""/>
   </rdf:RDF>
</x:xmpmeta>
                                                                                                    
                                                                                                    
                                                                                                    
                                                                                                    
                                                                                                    
                                                                                                    
                                                                                                    
                                                                                                    
                                                                                                    
                                                                                                    
                                                                                                    
                                                                                                    
                                                                                                    
                                                                                                    
                                                                                                    
                                                                                                    
                                                                                                    
                                                                                                    
                                                                                                    
                                                                                                    
                           
<?xpacket end="w"?></metadata>
<defs>
    <style>
      .cls-1 {
        fill: #828585;
        fill-rule: evenodd;
      }
    </style>
  </defs>
  <path id="Search" class="cls-1" d="M161.2,3591.85a4.239,4.239,0,0,1,4.3,4.17,4.029,4.029,0,0,1-.657,2.2l-0.39.61-0.547.43a4.317,4.317,0,0,1-2.7.93A4.172,4.172,0,1,1,161.2,3591.85Zm0-1.85a6.023,6.023,0,1,0,0,12.04,6.285,6.285,0,0,0,3.9-1.34,1.049,1.049,0,0,0,.165.24l3.864,3.75a1.118,1.118,0,0,0,1.545,0,1.038,1.038,0,0,0,0-1.5l-3.863-3.75a1.111,1.111,0,0,0-.359-0.23,5.872,5.872,0,0,0,.947-3.19A6.116,6.116,0,0,0,161.2,3590Zm15.059,8.63L173,3595h8l-3.242,3.64A0.985,0.985,0,0,1,176.261,3598.63Z" transform="translate(-155 -3590)"/>
</svg>
