<!-- Generated by IcoMoon.io -->
<svg version="1.1" xmlns="http://www.w3.org/2000/svg" width="1024" height="1024" viewBox="0 0 1024 1024">
<title></title>
<g id="icomoon-ignore">
</g>
<path fill="#bb3e53" d="M999.646 869.569c-18.819-33.211-408.493-705.176-441.704-761.634-22.141-37.639-74.171-36.532-96.312 0-24.354 40.96-415.135 715.14-442.811 763.849-18.819 35.424 3.321 81.92 47.602 81.92h884.515c42.067 0 73.063-42.067 48.709-84.134zM510.34 865.141c-30.997 0-55.351-24.354-55.351-55.351s24.354-55.351 55.351-55.351c30.997 0 55.351 24.354 55.351 55.351s-25.462 55.351-55.351 55.351zM543.55 688.016c0 22.141-11.070 33.211-33.211 33.211s-33.211-11.070-33.211-33.211l-33.211-321.038c0-33.211 22.141-66.422 66.422-66.422s66.422 33.211 66.422 66.422l-33.211 321.038z"></path>
</svg>
