<?xml version="1.0" encoding="utf-8"?>
<!-- Generator: Adobe Illustrator 21.1.0, SVG Export Plug-In . SVG Version: 6.00 Build 0)  -->
<svg version="1.1" id="Layer_1" xmlns="http://www.w3.org/2000/svg" xmlns:xlink="http://www.w3.org/1999/xlink" x="0px" y="0px"
	 viewBox="0 0 181.7 181.7" style="enable-background:new 0 0 181.7 181.7;" xml:space="preserve">
<style type="text/css">
	.st0{fill:#EDF4F4;}
	.st1{fill:#0D8D96;}
</style>
<path class="st0" d="M90.8,168.1 M90.8,181.7C40.7,181.7,0,141,0,90.8S40.7,0,90.8,0s90.8,40.7,90.8,90.8
	C181.6,141,141,181.6,90.8,181.7z"/>
<path class="st1" d="M71.6,130.3L71.6,130.3c-1.8,0-3.5-0.7-4.8-2l-26.9-26.9c-2.6-2.7-2.5-7,0.2-9.6c2.6-2.5,6.8-2.5,9.4,0
	L71.6,114L129.5,56c2.7-2.6,7-2.5,9.6,0.2c2.5,2.6,2.5,6.8,0,9.4l-62.7,62.7C75.1,129.6,73.4,130.3,71.6,130.3z"/>
</svg>
