<?xml version="1.0" encoding="utf-8"?>
<!-- Generator: Adobe Illustrator 21.1.0, SVG Export Plug-In . SVG Version: 6.00 Build 0)  -->
<svg version="1.1" id="Layer_1" xmlns="http://www.w3.org/2000/svg" xmlns:xlink="http://www.w3.org/1999/xlink" x="0px" y="0px"
	 viewBox="0 0 145.4 90.8" style="enable-background:new 0 0 145.4 90.8;" xml:space="preserve">
<style type="text/css">
	.st0{fill:#BB9E16;}
	.st1{fill:#0D8D96;}
</style>
<path class="st0" d="M61.8,39.2c0,0-4,3.2-5.7,4.4l-0.1-1.5L61.8,39.2z M56.3,48.2l0.1,1.8c1.1-0.8,8.4-6.5,8.4-6.5L56.3,48.2z
	 M57.6,12.7l-0.1,0.4l-0.1,0.4v0c0.7-0.4,1.4-0.8,2.1-1.3L57.6,12.7z M53.7,43.5v-1.9l-7.4-6.5C46.3,35.1,52.8,42.4,53.7,43.5
	L53.7,43.5z M56.2,13.1l0.4-0.8l-1.7-2.4C54.8,9.8,55.7,11.9,56.2,13.1L56.2,13.1z M53.7,49.7v-1.9l-7.4-6.3
	C46.3,41.5,52.5,48.6,53.7,49.7L53.7,49.7z M54.1,21.3c-1.5-0.1-3.5-2.4-3.5-2.4l3.3,4c0,0,0,0,0,0L54.1,21.3z"/>
<path class="st0" d="M109.9,68.1c-0.1,0-0.1,0-0.1,0.1c0,0,0,0.1,0,0.1l2.4,3.8c0.1,0.1,0.1,0.2,0.1,0.3v2c0,0.1,0.1,0.2,0.2,0.2
	h1.3c0.1,0,0.2-0.1,0.2-0.2v-2c0-0.1,0-0.2,0.1-0.3l2.4-3.8c0,0,0-0.1,0-0.1c0,0,0,0-0.1,0h-1.6c-0.1,0-0.2,0.1-0.3,0.2l-1.3,2.1
	c0,0-0.1,0.1-0.1,0c0,0,0,0,0,0l-1.2-2c-0.1-0.1-0.2-0.2-0.3-0.2L109.9,68.1z"/>
<path class="st0" d="M107.2,74.6c0.1,0,0.2-0.1,0.2-0.2v-1.2c0-0.1-0.1-0.2-0.2-0.2h-3c-0.1,0-0.2-0.1-0.2-0.2v-0.5
	c0-0.1,0.1-0.2,0.2-0.2h2.4c0.1,0,0.2-0.1,0.2-0.2v-1.1c0-0.1-0.1-0.2-0.2-0.2h-2.4c-0.1,0-0.2-0.1-0.2-0.2v-0.6
	c0-0.1,0.1-0.2,0.2-0.2h3c0.1,0,0.2-0.1,0.2-0.2v-1.2c0-0.1-0.1-0.2-0.2-0.2h-4.6c-0.1,0-0.2,0.1-0.2,0.2v6.1c0,0.1,0.1,0.2,0.2,0.2
	L107.2,74.6z"/>
<path class="st0" d="M99.7,74.6c0.1,0,0.2-0.1,0.2-0.2v-1.2c0-0.1-0.1-0.2-0.2-0.2H97c-0.1,0-0.2-0.1-0.2-0.2v-4.5
	c0-0.1-0.1-0.2-0.2-0.2h-1.3c-0.1,0-0.2,0.1-0.2,0.2v6.1c0,0.1,0.1,0.2,0.2,0.2H99.7z"/>
<path class="st0" d="M89.3,68.1h-2.8c-0.1,0-0.2,0.1-0.2,0.2v6.1c0,0.1,0.1,0.2,0.2,0.2h2.8c2,0,3.1-1.5,3.1-3.3
	S91.3,68.1,89.3,68.1z M89.2,73h-1.1C88,73,88,72.9,88,72.8v-2.9c0-0.1,0.1-0.2,0.2-0.2h1.1c1,0,1.5,0.7,1.5,1.6S90.2,73,89.2,73
	L89.2,73z"/>
<path class="st0" d="M83.8,74.4l-2.5-6.1c0-0.1-0.2-0.2-0.3-0.2h-1.2c-0.1,0-0.2,0.1-0.3,0.2l-2.5,6.1c0,0.1,0,0.1,0.1,0.2
	c0,0,0,0,0,0h1.4c0.1,0,0.2-0.1,0.3-0.2l0.2-0.6c0-0.1,0.1-0.2,0.2-0.2h2.2c0.1,0,0.2,0.1,0.2,0.2l0.2,0.6c0,0.1,0.1,0.2,0.3,0.2
	h1.4C83.8,74.6,83.8,74.5,83.8,74.4C83.8,74.4,83.8,74.4,83.8,74.4z M81,72.1h-1.1c-0.1,0-0.1-0.1-0.1-0.1c0,0,0,0,0,0l0.6-1.6
	c0,0,0-0.1,0.1,0c0,0,0,0,0,0l0.6,1.6C81.1,72,81.1,72.1,81,72.1C81,72.1,81,72.1,81,72.1z"/>
<path class="st0" d="M74.7,74.4l-1.2-1.7c0-0.1,0-0.2,0-0.2c0,0,0,0,0,0c0.7-0.4,1.2-1.2,1.1-2.1c0-1.3-0.8-2.4-2.4-2.4h-3
	c-0.1,0-0.2,0.1-0.2,0.2v6.1c0,0.1,0.1,0.2,0.2,0.2h1.3c0.1,0,0.2-0.1,0.2-0.2V73c0-0.1,0.1-0.2,0.2-0.2h0.5c0.1,0,0.2,0.1,0.3,0.1
	l1,1.4c0.1,0.1,0.2,0.2,0.3,0.2h1.6C74.7,74.6,74.7,74.5,74.7,74.4C74.7,74.5,74.7,74.4,74.7,74.4z M72.2,71.3h-1.3
	c-0.1,0-0.2-0.1-0.2-0.2v-1.4c0-0.1,0.1-0.2,0.2-0.2h1.3c0.7,0,0.9,0.4,0.9,0.9c0,0.4-0.3,0.8-0.8,0.9
	C72.3,71.3,72.2,71.3,72.2,71.3z"/>
<path class="st0" d="M65.4,71.3c0,0-0.1-0.1,0-0.1c0,0,0,0,0,0c0.4-0.3,0.7-0.8,0.7-1.3c0-1-0.7-1.8-2.1-1.8h-3.1
	c-0.1,0-0.2,0.1-0.2,0.2v6.1c0,0.1,0.1,0.2,0.2,0.2h3.3c1.3,0,2.1-0.8,2.1-1.8C66.4,72.1,66,71.5,65.4,71.3z M62.4,69.8
	c0-0.1,0.1-0.2,0.2-0.2h1.3c0.3,0,0.5,0.2,0.5,0.4c0,0,0,0.1,0,0.1c0,0.3-0.2,0.5-0.6,0.5h-1.2c-0.1,0-0.2-0.1-0.2-0.2L62.4,69.8z
	 M64,73.1h-1.5c-0.1,0-0.2-0.1-0.2-0.2v-0.8c0-0.1,0.1-0.2,0.2-0.2H64c0.4,0,0.6,0.2,0.6,0.6S64.5,73.1,64,73.1L64,73.1z"/>
<path class="st0" d="M45.2,71.1C45.2,71.1,45.3,71.1,45.2,71.1C45.3,71.1,45.3,71.1,45.2,71.1l2.8,3.3c0.1,0.1,0.2,0.2,0.3,0.2h1
	c0.1,0,0.2-0.1,0.2-0.2v-6.1c0-0.1-0.1-0.2-0.2-0.2h-1.3c-0.1,0-0.2,0.1-0.2,0.2v3.3c0,0,0,0.1-0.1,0.1c0,0,0,0,0,0l-2.7-3.3
	c-0.1-0.1-0.2-0.2-0.3-0.2h-1c-0.1,0-0.2,0.1-0.2,0.2v6.1c0,0.1,0.1,0.2,0.2,0.2H45c0.1,0,0.2-0.1,0.2-0.2L45.2,71.1z"/>
<path class="st0" d="M37.4,68c-1.9,0-3.3,1.6-3.3,3.5c0,1.9,1.6,3.3,3.5,3.3c1.8,0,3.3-1.5,3.3-3.4C40.8,69.5,39.3,68,37.4,68z
	 M37.4,73.1c-1,0-1.8-0.8-1.8-1.8c0-1,0.8-1.8,1.8-1.8c1,0,1.8,0.8,1.8,1.8l0,0C39.2,72.3,38.4,73.1,37.4,73.1
	C37.4,73.1,37.4,73.1,37.4,73.1z"/>
<path class="st0" d="M25.8,71.4C25.8,71.4,25.8,71.4,25.8,71.4C25.9,71.4,25.9,71.4,25.8,71.4l1.3,2.4c0.1,0.1,0.2,0.2,0.3,0.2h0.7
	c0.1,0,0.2-0.1,0.3-0.2l1.2-2.4c0,0,0,0,0.1,0c0,0,0,0,0,0v3c0,0.1,0.1,0.2,0.2,0.2h1.3c0.1,0,0.2-0.1,0.2-0.2v-6.1
	c0-0.1-0.1-0.2-0.2-0.2h-1.3c-0.1,0-0.2,0.1-0.3,0.2l-1.7,3.4c0,0-0.1,0.1-0.1,0c0,0,0,0,0,0L26,68.3c-0.1-0.1-0.2-0.2-0.3-0.2h-1.3
	c-0.1,0-0.2,0.1-0.2,0.2v6.1c0,0.1,0.1,0.2,0.2,0.2h1.3c0.1,0,0.2-0.1,0.2-0.2L25.8,71.4z"/>
<path class="st0" d="M19.7,68.1H21c0.1,0,0.2,0.1,0.2,0.2v6.1c0,0.1-0.1,0.2-0.2,0.2h-1.3c-0.1,0-0.2-0.1-0.2-0.2v-6.1
	C19.5,68.2,19.6,68.1,19.7,68.1z"/>
<path class="st0" d="M14.1,74.7c1.5,0,2.6-0.7,2.6-1.9c0-1.4-1.5-2-2.4-2.3c-0.8-0.3-1.1-0.4-1.1-0.7s0.2-0.4,0.8-0.4
	c0.6,0,0.9,0.2,1,0.5c0,0.1,0.1,0.2,0.3,0.2h1.2c0.1,0,0.2-0.1,0.2-0.2c-0.1-1.2-1.1-2-2.7-2s-2.5,0.8-2.5,2c0,1.3,1.4,1.8,2.4,2.2
	c0.8,0.3,1.1,0.4,1.1,0.7c0,0.2-0.2,0.4-0.8,0.4c-0.6,0-0.9-0.2-1-0.4c-0.1-0.2-0.1-0.2-0.3-0.2h-1.1c-0.1,0-0.2,0.1-0.2,0.2
	C11.5,74.1,12.7,74.7,14.1,74.7"/>
<path class="st1" d="M58.8,84.1c0,3.7,3.1,6.7,6.8,6.7c2.4,0,4.7-1.3,5.9-3.4c0.1-0.2,0-0.4-0.1-0.5c0,0,0,0,0,0l-2.3-1
	c-0.2-0.1-0.5,0-0.6,0.2c-1.1,1.6-3.3,2-4.9,0.8c-1.6-1.1-2-3.3-0.8-4.9c1.1-1.6,3.3-2,4.9-0.8c0.3,0.2,0.6,0.5,0.8,0.8
	c0.1,0.2,0.4,0.3,0.6,0.2c0,0,0,0,0,0l2.3-1c0.2-0.1,0.2-0.3,0.1-0.5c-1.2-2.1-3.5-3.3-5.9-3.3C61.9,77.4,58.8,80.4,58.8,84.1"/>
<path class="st1" d="M53.6,81.6L53.6,81.6v8.5c0,0.2,0.2,0.4,0.4,0.4h2.5c0.2,0,0.4-0.2,0.4-0.4v-3.6l0,0V78c0-0.2-0.2-0.4-0.4-0.4
	H54c-0.2,0-0.4,0.2-0.4,0.4V81.6z"/>
<path class="st1" d="M11.8,90.1V78c0-0.2-0.2-0.4-0.4-0.4H8.9c-0.2,0-0.4,0.2-0.4,0.4v4.3c0,0.2-0.1,0.3-0.3,0.3H3.6
	c-0.2,0-0.3-0.1-0.3-0.3V78c0-0.2-0.2-0.4-0.4-0.4H0.4C0.2,77.7,0,77.8,0,78v12.1c0,0.2,0.2,0.4,0.4,0.4h2.5c0.2,0,0.4-0.2,0.4-0.4
	v-4.1c0-0.2,0.1-0.3,0.3-0.3h4.6c0.2,0,0.3,0.1,0.3,0.3v4.1c0,0.2,0.2,0.4,0.4,0.4h2.5C11.7,90.5,11.8,90.4,11.8,90.1"/>
<path class="st1" d="M20.1,77.4c-3.7,0-6.8,3-6.8,6.7s3.1,6.7,6.8,6.7c3.8,0,6.8-3,6.8-6.7S23.8,77.4,20.1,77.4z M20.1,87.6
	c-1.9,0-3.5-1.6-3.5-3.5c0-1.9,1.6-3.5,3.5-3.5s3.5,1.6,3.5,3.5C23.6,86,22,87.6,20.1,87.6C20.1,87.6,20.1,87.6,20.1,87.6L20.1,87.6
	z"/>
<path class="st1" d="M39.7,90.2l-2.4-3.3c-0.1-0.1-0.1-0.3,0.1-0.4c0,0,0,0,0,0c1.5-0.8,2.2-2.4,2.2-4.1c0-2.6-1.5-4.7-4.8-4.7h-5.9
	c-0.2,0-0.4,0.2-0.4,0.4v12.1c0,0.2,0.2,0.4,0.4,0.4h2.5c0.2,0,0.4-0.2,0.4-0.4v-2.7c0-0.2,0.1-0.3,0.3-0.3h1c0.2,0,0.4,0.1,0.5,0.3
	l2,2.9c0.1,0.2,0.4,0.3,0.6,0.3h3.2c0.1,0,0.2-0.1,0.2-0.2C39.7,90.3,39.7,90.2,39.7,90.2z M34.7,84.1h-2.5c-0.2,0-0.3-0.1-0.3-0.3
	V81c0-0.2,0.1-0.3,0.3-0.3h2.5c1.3,0,1.8,0.7,1.8,1.7C36.5,83.3,36,84.1,34.7,84.1z"/>
<path class="st1" d="M51.5,77.6H40.9c-0.2,0-0.4,0.2-0.4,0.4v2.4c0,0.2,0.2,0.4,0.4,0.4h3.3c0.2,0,0.3,0.1,0.3,0.3v9
	c0,0.2,0.2,0.4,0.4,0.4h2.5c0.2,0,0.4-0.2,0.4-0.4v-9c0-0.2,0.1-0.3,0.3-0.3h3.3c0.2,0,0.4-0.2,0.4-0.4V78
	C51.9,77.8,51.7,77.7,51.5,77.6"/>
<path class="st1" d="M84.9,84.9V78c0-0.2-0.2-0.4-0.4-0.4H82c-0.2,0-0.4,0.2-0.4,0.4v6.7c0,1.9-0.9,2.9-2.6,2.9
	c-1.7,0-2.6-1-2.6-2.9V78c0-0.2-0.2-0.4-0.4-0.4h-2.5c-0.2,0-0.4,0.2-0.4,0.4v6.9c0,3.3,2,5.9,5.9,5.9
	C82.8,90.8,84.9,88.2,84.9,84.9"/>
<path class="st1" d="M96.5,87.3h-5.5c-0.2,0-0.3-0.1-0.3-0.3v-9c0-0.2-0.2-0.4-0.4-0.4h-2.5c-0.2,0-0.4,0.2-0.4,0.4v12.1
	c0,0.2,0.2,0.4,0.4,0.4h8.7c0.2,0,0.4-0.2,0.4-0.4v-2.4C96.9,87.5,96.8,87.3,96.5,87.3C96.5,87.3,96.5,87.3,96.5,87.3"/>
<path class="st1" d="M106.3,80.5V78c0-0.2-0.2-0.4-0.4-0.4H95.4c-0.2,0-0.4,0.2-0.4,0.4v2.4c0,0.2,0.2,0.4,0.4,0.4h3.3
	c0.2,0,0.3,0.1,0.3,0.3v9c0,0.2,0.2,0.4,0.4,0.4h2.5c0.2,0,0.4-0.2,0.4-0.4v-9c0-0.2,0.1-0.3,0.3-0.3h3.3
	C106.1,80.8,106.3,80.7,106.3,80.5"/>
<path class="st1" d="M119.7,84.9V78c0-0.2-0.2-0.4-0.4-0.4h-2.5c-0.2,0-0.4,0.2-0.4,0.4v6.7c0,1.9-0.9,2.9-2.6,2.9
	c-1.7,0-2.6-1-2.6-2.9V78c0-0.2-0.2-0.4-0.4-0.4h-2.5c-0.2,0-0.4,0.2-0.4,0.4v6.9c0,3.3,2,5.9,5.9,5.9
	C117.6,90.8,119.7,88.2,119.7,84.9"/>
<path class="st1" d="M133.2,90.2l-2.4-3.3c-0.1-0.1-0.1-0.3,0.1-0.4c0,0,0,0,0,0c1.5-0.8,2.2-2.4,2.2-4.1c0-2.6-1.5-4.7-4.8-4.7
	h-5.9c-0.2,0-0.4,0.2-0.4,0.4v12.1c0,0.2,0.2,0.4,0.4,0.4h2.5c0.2,0,0.4-0.2,0.4-0.4v-2.7c0-0.2,0.1-0.3,0.3-0.3h1
	c0.2,0,0.4,0.1,0.5,0.3l2,2.9c0.1,0.2,0.4,0.3,0.6,0.3h3.2C133.1,90.5,133.2,90.4,133.2,90.2C133.2,90.3,133.2,90.2,133.2,90.2z
	 M128.2,84.1h-2.5c-0.2,0-0.3-0.1-0.3-0.3V81c0-0.2,0.1-0.3,0.3-0.3h2.5c1.3,0,1.8,0.7,1.8,1.7C130,83.3,129.5,84.1,128.2,84.1z"/>
<path class="st1" d="M138.8,87v-1c0-0.2,0.1-0.3,0.3-0.3h4.7c0.2,0,0.4-0.2,0.4-0.4v-2.2c0-0.2-0.2-0.4-0.4-0.4h-4.7
	c-0.2,0-0.3-0.1-0.3-0.3v-1.2c0-0.2,0.1-0.3,0.3-0.3h5.9c0.2,0,0.4-0.2,0.4-0.4V78c0-0.2-0.2-0.4-0.4-0.4h-9.1
	c-0.2,0-0.4,0.2-0.4,0.4v12.1c0,0.2,0.2,0.4,0.4,0.4h9.1c0.2,0,0.4-0.2,0.4-0.4v-2.4c0-0.2-0.2-0.4-0.4-0.4h-5.9
	C139,87.3,138.8,87.2,138.8,87"/>
<path class="st1" d="M67.7,0.2c-0.1-0.2-0.4-0.3-0.8-0.1c-8.7,3.7-26,13.7-26,35.8c0,14.1,6.1,21,12.8,22.6l0,6.4l-0.1,9.3
	c0,0.2,0.2,0.4,0.4,0.4h2.5c0.2,0,0.4-0.2,0.4-0.4l-0.2-15.3h0.1c8.5,0,15.2-3.6,15.2-13.1c0-7.9-4.3-10.5-11.7-13.1
	c1.8-0.3,2.9-1.3,2.9-3v0c0-1.5-0.9-2.3-2.2-2.7c0.8-0.4,1.6-1.2,1.6-2.5v0c0-0.7-0.3-1.4-0.7-1.9c-0.6-0.6-1.6-1-2.9-1H56
	c0.1-1.7,0.4-3.4,0.7-5c2.6,0.1,4.1,0.9,5.8,2.4c0.3,0.2,0.3,0.2,0.5,0.1c0.1-0.1,0-0.3,0-0.4C57.4,7.6,67.5,1.1,67.5,1
	C67.8,0.9,67.9,0.5,67.7,0.2z M58.7,23.5c1.3,0,1.7,0.5,1.7,1.2l0,0c0,0.8-0.6,1.3-1.8,1.3h-2.8c0-1,0.1-1.5,0.1-2.4L58.7,23.5z
	 M64.1,2.9c-6.3,5.7-4.2,12.4-4.2,12.4s-0.7-0.3-1.4-0.6c-0.4-0.2-0.9-0.3-1.3-0.4c0.1-0.3,0.1-0.5,0.2-0.8l0.1-0.4l0.1-0.4
	c1-3.2,2.3-5.7,3.6-7.5l0,0c-1.9,2-3.5,4.4-4.6,6.9l-0.4,0.9c-0.1,0.4-0.3,0.7-0.4,1.1c-0.8,0-1.6,0.1-2.3,0.3
	c-1.5,0.3-2.9,0.9-4.1,1.8C49.4,16.3,52.3,9.4,64.1,2.9z M53.7,54.6C43.6,51.1,42,34.3,46.3,22.2c0,0-1.8,7.1,7.5,11.4V54.6z
	 M54.9,17.3l-0.1,0.3c-0.1,0.3-0.1,0.6-0.2,0.9c-0.1,0.3-0.1,0.6-0.2,1c0,0.2-0.1,0.4-0.1,0.6c-0.1,0.4-0.1,0.7-0.2,1.1L54,22.8v0
	c-0.1,0.5-0.1,1.1-0.1,1.6c0,0.3,0,0.5,0,0.8c0,0.2,0,0.3,0,0.5c-0.1,2.5-0.1,4.3-0.1,4.3s-6.8-3.5-4.9-9.4c1.2-3.8,6.1-4.2,6.3-4.2
	C55,16.7,55,17,54.9,17.3z M55.7,30.9c0-1.1,0-1.9,0-2.8H59c1.5,0,2,0.8,2,1.2v0c0,0.8-0.5,1.5-1.9,1.5L55.7,30.9L55.7,30.9z
	 M56.6,55.1l-0.7-20.6c0.6,0.2,1.3,0.5,2.1,0.7c7,2,10.4,5.2,10.4,10.5c0,3.9-1.9,9.5-10.6,9.5C57.3,55.2,56.9,55.2,56.6,55.1
	L56.6,55.1z"/>
</svg>
