<?xml version="1.0" encoding="utf-8"?>
<!-- Generator: Adobe Illustrator 21.1.0, SVG Export Plug-In . SVG Version: 6.00 Build 0)  -->
<svg version="1.1" id="Layer_1" xmlns="http://www.w3.org/2000/svg" xmlns:xlink="http://www.w3.org/1999/xlink" x="0px" y="0px"
	 viewBox="0 0 103.7 248.9" style="enable-background:new 0 0 103.7 248.9;" xml:space="preserve">
<style type="text/css">
	.st0{fill:#ffffff;}
	.st1{fill:#ffffff;}
</style>
<path class="st0" d="M69.7,130.7c0,0-13.4,10.6-18.9,14.7l-0.2-5L69.7,130.7z M51.4,160.9l0.2,6.2c3.7-2.5,28.1-21.5,28.1-21.5
	L51.4,160.9z M55.7,42.5l-0.4,1.3L55,45v0.1c2.4-1.4,4.7-2.8,6.9-4.4L55.7,42.5z M42.7,145.1v-6.3L18.1,117
	C18.1,117,39.7,141.6,42.7,145.1L42.7,145.1z M51.1,43.6l1.2-2.8l-5.8-8c0,0,2.9,6.8,4.5,11L51.1,43.6z M42.7,166v-6.4l-24.6-21
	C18.1,138.6,38.5,162,42.7,166L42.7,166z M44,71.2C39.1,70.7,32.4,63,32.4,63l11.1,13.3c0,0,0-0.1,0-0.1L44,71.2z"/>
<path class="st1" d="M89.5,0.7c-0.5-0.8-1.2-1-2.8-0.4C57.5,12.6,0,46,0,119.9c0,47.2,20.3,70.1,42.7,75.4l-0.1,21.3l-0.3,31.1
	c0,0.7,0.6,1.3,1.3,1.3H52c0.7,0,1.3-0.6,1.3-1.3l-0.6-51.2H53c28.3,0,50.8-11.9,50.8-43.7c0-26.4-14.4-35-39-43.9
	c6-1,9.7-4.4,9.7-9.9v-0.1c0-5.1-3-7.6-7.4-9.1c2.8-1.4,5.3-3.9,5.3-8.3v-0.1c0.1-2.3-0.8-4.6-2.5-6.2c-2.1-2.1-5.5-3.3-9.7-3.3
	h-9.8c0.5-5.6,1.3-11.2,2.4-16.8c8.5,0.2,13.7,3,19.4,8.1c0.9,0.8,1.1,0.7,1.5,0.4c0.2-0.3,0.1-0.8-0.1-1.3
	C54.9,25.3,88.6,3.7,88.8,3.5C89.8,2.9,90.1,1.7,89.5,0.7z M59.3,78.4c4.2,0,5.7,1.7,5.6,3.9l0,0c0.1,2.7-1.9,4.3-6.1,4.3h-9.4
	c0.1-3.4,0.2-5,0.4-8.1L59.3,78.4z M77.4,9.6c-21,19.1-14,41.2-14,41.2s-2.5-1.1-4.7-1.9c-1.5-0.5-3-1-4.5-1.3
	c0.2-0.9,0.5-1.8,0.7-2.7l0.3-1.2l0.4-1.3c3.3-10.8,7.6-18.9,12.2-25l0,0C61.3,24.2,56.1,32,52.4,40.6l-1.3,3.1
	c-0.5,1.2-1,2.5-1.5,3.8c-2.6,0-5.2,0.3-7.8,0.9c-4.9,1-9.5,3-13.6,6C28.3,54.3,37.8,31.2,77.4,9.6z M42.7,182.1
	C8.9,170.7,3.6,114.5,17.8,74.2c0,0-6,23.6,24.9,38.1V182.1z M46.6,57.8l-0.2,1c-0.2,1-0.5,2-0.7,3s-0.4,2.1-0.6,3.4
	c-0.1,0.7-0.2,1.4-0.4,2.1c-0.2,1.2-0.4,2.4-0.6,3.8l-0.6,5.2v0.1c-0.2,1.7-0.3,3.5-0.4,5.4c-0.1,0.9-0.1,1.8-0.2,2.6
	c0,0.6-0.1,1.1-0.1,1.6c-0.4,8.3-0.2,14.4-0.2,14.4S20.1,88.6,26.3,68.9c4-12.7,20.3-13.9,21-14C47,55.9,46.8,56.8,46.6,57.8z
	 M49.5,103.3c-0.1-3.8-0.1-6.4-0.1-9.3h10.9c5.2,0,6.8,2.8,6.8,4.1v0.1c0,2.8-1.8,5.1-6.3,5.1L49.5,103.3L49.5,103.3z M52.2,184
	l-2.5-68.8c2.2,0.8,4.4,1.5,6.9,2.2c23.4,6.6,34.7,17.2,34.7,35c0,13-6.2,31.8-35.5,31.8C54.6,184.2,53.4,184.1,52.2,184L52.2,184z"
	/>
</svg>
