<?xml version="1.0" encoding="utf-8"?>
<!-- Generator: Adobe Illustrator 21.1.0, SVG Export Plug-In . SVG Version: 6.00 Build 0)  -->
<svg version="1.1" id="Layer_1" xmlns="http://www.w3.org/2000/svg" xmlns:xlink="http://www.w3.org/1999/xlink" x="0px" y="0px"
	 viewBox="0 0 152.6 21.6" style="enable-background:new 0 0 152.6 21.6;" xml:space="preserve">
<style type="text/css">
	.st0{fill:#ffffff;}
</style>
<path class="st0" d="M6,11.2c0,0-1.2,0.9-1.6,1.2l0-0.4L6,11.2z M4.4,13.8l0,0.5c0.3-0.2,2.4-1.8,2.4-1.8L4.4,13.8z M4.8,3.7l0,0.1
	l0,0.1l0,0c0.2-0.1,0.4-0.3,0.6-0.4L4.8,3.7z M3.7,12.5v-0.5L1.6,10C1.6,10,3.4,12.1,3.7,12.5L3.7,12.5z M4.4,3.7l0.1-0.2L4,2.8
	C4,2.8,4.3,3.4,4.4,3.7L4.4,3.7z M3.7,14.2v-0.5l-2.1-1.8C1.6,11.9,3.3,13.9,3.7,14.2L3.7,14.2z M3.8,6.1c-0.4,0-1-0.7-1-0.7l1,1.1
	l0,0L3.8,6.1z"/>
<path class="st0" d="M116.1,0.1c-0.1,0-0.1,0-0.1,0.1c0,0,0,0.1,0,0.1l2.2,3.6c0.1,0.1,0.1,0.2,0.1,0.3V6c0,0.1,0.1,0.2,0.2,0.2h1.2
	c0.1,0,0.2-0.1,0.2-0.2V4.1c0-0.1,0-0.2,0.1-0.3l2.2-3.6c0-0.1,0-0.1,0-0.1c0,0-0.1,0-0.1,0h-1.5c-0.1,0-0.2,0.1-0.3,0.2l-1.2,1.9
	c0,0.1-0.1,0.1-0.1,0c0,0,0,0,0,0l-1.2-1.9c-0.1-0.1-0.2-0.2-0.3-0.2L116.1,0.1z"/>
<path class="st0" d="M113.6,6.3c0.1,0,0.2-0.1,0.2-0.2V4.9c0-0.1-0.1-0.2-0.2-0.2h-2.8c-0.1,0-0.2-0.1-0.2-0.2V4.1
	c0-0.1,0.1-0.2,0.2-0.2h2.2c0.1,0,0.2-0.1,0.2-0.2v-1c0-0.1-0.1-0.2-0.2-0.2h-2.2c-0.1,0-0.2-0.1-0.2-0.2V1.8c0-0.1,0.1-0.2,0.2-0.2
	h2.8c0.1,0,0.2-0.1,0.2-0.2V0.3c0-0.1-0.1-0.2-0.2-0.2h-4.3c-0.1,0-0.2,0.1-0.2,0.2v5.8c0,0.1,0.1,0.2,0.2,0.2L113.6,6.3z"/>
<path class="st0" d="M106.6,6.3c0.1,0,0.2-0.1,0.2-0.2V4.9c0-0.1-0.1-0.2-0.2-0.2h-2.6c-0.1,0-0.2-0.1-0.2-0.2V0.3
	c0-0.1-0.1-0.2-0.2-0.2h-1.2c-0.1,0-0.2,0.1-0.2,0.2v5.8c0,0.1,0.1,0.2,0.2,0.2L106.6,6.3L106.6,6.3z"/>
<path class="st0" d="M96.7,0.1h-2.7c-0.1,0-0.2,0.1-0.2,0.2v5.8c0,0.1,0.1,0.2,0.2,0.2h2.7c1.9,0,2.9-1.4,2.9-3.1S98.6,0.1,96.7,0.1
	z M96.6,4.8h-1c-0.1,0-0.2-0.1-0.2-0.2V1.8c0-0.1,0.1-0.2,0.2-0.2h1c0.9,0,1.4,0.6,1.4,1.6S97.5,4.8,96.6,4.8L96.6,4.8z"/>
<path class="st0" d="M91.5,6.1l-2.4-5.8c-0.1-0.1-0.1-0.2-0.3-0.2h-1.2c-0.1,0-0.2,0.1-0.3,0.2l-2.4,5.8c0,0.1,0,0.1,0.1,0.2
	c0,0,0,0,0.1,0h1.3c0.1,0,0.2-0.1,0.3-0.2l0.2-0.6c0-0.1,0.1-0.1,0.2-0.1h2.1c0.1,0,0.2,0.1,0.2,0.1l0.2,0.6
	c0.1,0.1,0.1,0.2,0.3,0.2h1.3C91.5,6.3,91.6,6.2,91.5,6.1C91.5,6.1,91.5,6.1,91.5,6.1z M88.8,3.9h-1c-0.1,0-0.1-0.1-0.1-0.1v0
	l0.6-1.5c0,0,0-0.1,0.1-0.1c0,0,0,0,0.1,0.1l0.6,1.5C89,3.9,88.9,3.9,88.8,3.9C88.9,3.9,88.9,3.9,88.8,3.9z"/>
<path class="st0" d="M82.9,6.1l-1.1-1.6c-0.1-0.1,0-0.1,0-0.2c0,0,0,0,0,0c0.7-0.4,1.1-1.2,1.1-2c0-1.2-0.7-2.2-2.3-2.2h-2.8
	c-0.1,0-0.2,0.1-0.2,0.2v5.8c0,0.1,0.1,0.2,0.2,0.2H79c0.1,0,0.2-0.1,0.2-0.2V4.8c0-0.1,0.1-0.2,0.2-0.2h0.5c0.1,0,0.2,0.1,0.3,0.1
	l1,1.4c0.1,0.1,0.2,0.1,0.3,0.2h1.5C82.9,6.3,82.9,6.3,82.9,6.1C82.9,6.2,82.9,6.1,82.9,6.1z M80.5,3.2h-1.2c-0.1,0-0.2-0.1-0.2-0.2
	V1.7c0-0.1,0.1-0.2,0.2-0.2h1.2c0.6,0,0.9,0.3,0.9,0.8c0,0.4-0.3,0.8-0.7,0.8C80.6,3.2,80.6,3.2,80.5,3.2z"/>
<path class="st0" d="M74.1,3.2c0,0-0.1-0.1,0-0.1c0,0,0,0,0,0c0.4-0.3,0.6-0.7,0.6-1.2c0-1-0.7-1.7-2-1.7h-2.9
	c-0.1,0-0.2,0.1-0.2,0.2v5.8c0,0.1,0.1,0.2,0.2,0.2H73c1.2,0,2-0.7,2-1.7C75,3.9,74.7,3.4,74.1,3.2z M71.2,1.7
	c0-0.1,0.1-0.2,0.2-0.2h1.2c0.3,0,0.5,0.1,0.5,0.4c0,0,0,0.1,0,0.1c0,0.3-0.2,0.5-0.6,0.5h-1.1c-0.1,0-0.2-0.1-0.2-0.2L71.2,1.7z
	 M72.8,4.8h-1.4c-0.1,0-0.2-0.1-0.2-0.2V3.9c0-0.1,0.1-0.2,0.2-0.2h1.4c0.4,0,0.6,0.2,0.6,0.5S73.2,4.9,72.8,4.8L72.8,4.8z"/>
<path class="st0" d="M60.7,3C60.7,3,60.7,3,60.7,3C60.8,3,60.8,3,60.8,3l2.5,3.1c0.1,0.1,0.2,0.1,0.3,0.1h1c0.1,0,0.2-0.1,0.2-0.2
	V0.3c0-0.1-0.1-0.2-0.2-0.2h-1.2c-0.1,0-0.2,0.1-0.2,0.2v3.1c0,0,0,0.1-0.1,0.1c0,0,0,0-0.1,0l-2.5-3.1c-0.1-0.1-0.2-0.1-0.3-0.1h-1
	c-0.1,0-0.2,0.1-0.2,0.2v5.8c0,0.1,0.1,0.2,0.2,0.2h1.2c0.1,0,0.2-0.1,0.2-0.2V3z"/>
<path class="st0" d="M53.3,0c-1.8,0-3.2,1.5-3.1,3.3s1.5,3.2,3.3,3.1c1.7,0,3.1-1.4,3.1-3.2C56.5,1.4,55.1,0,53.3,0z M53.3,4.9
	c-0.9,0-1.7-0.7-1.7-1.7s0.7-1.7,1.7-1.7c0.9,0,1.7,0.7,1.7,1.7l0,0C55,4.1,54.2,4.9,53.3,4.9L53.3,4.9z"/>
<path class="st0" d="M42.3,3.3C42.3,3.3,42.3,3.3,42.3,3.3C42.4,3.3,42.4,3.3,42.3,3.3l1.2,2.2c0.1,0.1,0.2,0.2,0.3,0.2h0.7
	c0.1,0,0.2-0.1,0.3-0.2l1.1-2.2c0,0,0,0,0.1,0c0,0,0,0,0,0v2.8c0,0.1,0.1,0.2,0.2,0.2h1.2c0.1,0,0.2-0.1,0.2-0.2V0.3
	c0-0.1-0.1-0.2-0.2-0.2h-1.2c-0.1,0-0.2,0.1-0.3,0.2l-1.6,3.2c0,0-0.1,0.1-0.1,0c0,0,0,0,0,0l-1.6-3.2c-0.1-0.1-0.2-0.2-0.3-0.2
	h-1.2c-0.1,0-0.2,0.1-0.2,0.2v5.8c0,0.1,0.1,0.2,0.2,0.2h1.2c0.1,0,0.2-0.1,0.2-0.2L42.3,3.3z"/>
<path class="st0" d="M36.5,0.1h1.2c0.1,0,0.2,0.1,0.2,0.2v5.8c0,0.1-0.1,0.2-0.2,0.2h-1.2c-0.1,0-0.2-0.1-0.2-0.2V0.3
	C36.3,0.2,36.4,0.1,36.5,0.1z"/>
<path class="st0" d="M31.2,6.4c1.4,0,2.4-0.6,2.4-1.8c0-1.4-1.4-1.8-2.3-2.2c-0.7-0.3-1-0.4-1-0.6s0.2-0.4,0.7-0.4s0.8,0.2,0.9,0.5
	c0,0.1,0.1,0.2,0.3,0.2h1.1c0.1,0,0.2-0.1,0.2-0.2c-0.1-1.1-1-1.9-2.5-1.9c-1.4,0-2.4,0.7-2.4,1.9c0,1.3,1.3,1.7,2.3,2.1
	c0.7,0.3,1,0.4,1,0.7C32,4.8,31.8,5,31.2,5c-0.6,0-0.9-0.2-1-0.4c-0.1-0.2-0.1-0.2-0.3-0.2h-1.1c-0.1,0-0.2,0.1-0.2,0.2
	C28.8,5.8,29.9,6.4,31.2,6.4"/>
<path d="M70.7,15.3c0,3.5,2.9,6.3,6.5,6.3c2.3,0,4.4-1.2,5.6-3.2c0.1-0.1,0.1-0.3-0.1-0.5c0,0,0,0,0,0l-2.2-1
	c-0.2-0.1-0.5,0-0.5,0.2c-1,1.5-3.1,1.8-4.6,0.8s-1.8-3.1-0.8-4.6c1-1.5,3.1-1.8,4.6-0.8c0.3,0.2,0.6,0.5,0.8,0.8
	c0.1,0.2,0.3,0.3,0.5,0.2c0,0,0,0,0,0l2.2-1c0.2-0.1,0.2-0.3,0.1-0.5c-1.2-2-3.3-3.1-5.6-3.1C73.6,8.9,70.7,11.8,70.7,15.3"/>
<path d="M65.8,12.9L65.8,12.9V21c0,0.2,0.2,0.4,0.4,0.4h2.4c0.2,0,0.4-0.2,0.4-0.4v-3.4l0,0V9.5c0-0.2-0.2-0.4-0.4-0.4h-2.4
	c-0.2,0-0.4,0.2-0.4,0.4V12.9z"/>
<path d="M26.2,21V9.6c0-0.2-0.2-0.4-0.4-0.4h-2.4c-0.2,0-0.4,0.2-0.4,0.4v4.1c0,0.2-0.1,0.3-0.3,0.3h-4.3c-0.2,0-0.3-0.1-0.3-0.3
	V9.6c0-0.2-0.2-0.4-0.4-0.4h-2.4c-0.2,0-0.4,0.2-0.4,0.4V21c0,0.2,0.2,0.4,0.4,0.4h2.4c0.2,0,0.4-0.2,0.4-0.4v-3.8
	c0-0.2,0.1-0.3,0.3-0.3h4.3c0.2,0,0.3,0.1,0.3,0.3V21c0,0.2,0.2,0.4,0.4,0.4h2.4C26.1,21.4,26.2,21.2,26.2,21"/>
<path d="M34,8.9c-3.5,0-6.5,2.8-6.5,6.3s2.9,6.3,6.5,6.3c3.6,0,6.5-2.8,6.5-6.3S37.6,8.9,34,8.9z M34,18.6c-1.8,0-3.3-1.5-3.3-3.3
	s1.5-3.3,3.3-3.3s3.3,1.5,3.3,3.3C37.3,17.1,35.9,18.6,34,18.6L34,18.6L34,18.6z"/>
<path d="M52.6,21.1L50.3,18c-0.1-0.1-0.1-0.3,0.1-0.4c0,0,0,0,0,0c1.4-0.8,2.1-2.3,2.1-3.9c0-2.4-1.4-4.5-4.6-4.5h-5.6
	c-0.2,0-0.4,0.2-0.4,0.4V21c0,0.2,0.2,0.4,0.4,0.4h2.4c0.2,0,0.4-0.2,0.4-0.4v-2.6c0-0.2,0.1-0.3,0.3-0.3h1c0.2,0,0.4,0.1,0.5,0.3
	l1.9,2.7c0.1,0.2,0.4,0.3,0.6,0.3h3C52.5,21.4,52.6,21.3,52.6,21.1C52.6,21.1,52.6,21.1,52.6,21.1z M47.8,15.3h-2.4
	c-0.2,0-0.3-0.1-0.3-0.3v-2.6c0-0.2,0.1-0.3,0.3-0.3h2.4c1.2,0,1.7,0.7,1.7,1.6C49.5,14.5,49.1,15.3,47.8,15.3z"/>
<path d="M63.7,9.2h-10c-0.2,0-0.4,0.2-0.4,0.4v2.3c0,0.2,0.2,0.4,0.4,0.4h3.1c0.2,0,0.3,0.1,0.3,0.3V21c0,0.2,0.2,0.4,0.4,0.4h2.4
	c0.2,0,0.4-0.2,0.4-0.4v-8.5c0-0.2,0.1-0.3,0.3-0.3h3.1c0.2,0,0.4-0.2,0.4-0.4V9.6C64.1,9.3,63.9,9.2,63.7,9.2"/>
<path d="M95.3,16V9.6c0-0.2-0.2-0.4-0.4-0.4h-2.4c-0.2,0-0.4,0.2-0.4,0.4v6.3c0,1.8-0.9,2.7-2.5,2.7c-1.6,0-2.5-1-2.5-2.7V9.6
	c0-0.2-0.2-0.4-0.4-0.4h-2.4c-0.2,0-0.4,0.2-0.4,0.4v6.5c0,3.1,1.9,5.6,5.6,5.6C93.4,21.6,95.3,19.2,95.3,16"/>
<path d="M106.4,18.3h-5.2c-0.2,0-0.3-0.1-0.3-0.3V9.6c0-0.2-0.2-0.4-0.4-0.4h-2.4c-0.2,0-0.4,0.2-0.4,0.4V21c0,0.2,0.2,0.4,0.4,0.4
	h8.2c0.2,0,0.4-0.2,0.4-0.4v-2.3C106.8,18.5,106.6,18.3,106.4,18.3L106.4,18.3"/>
<path d="M115.6,11.8V9.6c0-0.2-0.2-0.4-0.4-0.4h-10c-0.2,0-0.4,0.2-0.4,0.4v2.3c0,0.2,0.2,0.4,0.4,0.4h3.1c0.2,0,0.3,0.1,0.3,0.3V21
	c0,0.2,0.2,0.4,0.4,0.4h2.4c0.2,0,0.4-0.2,0.4-0.4v-8.5c0-0.2,0.1-0.3,0.3-0.3h3.1C115.5,12.2,115.6,12,115.6,11.8"/>
<path d="M128.3,16V9.6c0-0.2-0.2-0.4-0.4-0.4h-2.4c-0.2,0-0.4,0.2-0.4,0.4v6.3c0,1.8-0.9,2.7-2.5,2.7s-2.5-1-2.5-2.8V9.6
	c0-0.2-0.2-0.4-0.4-0.4h-2.4c-0.2,0-0.4,0.2-0.4,0.4v6.5c0,3.1,1.9,5.6,5.6,5.6C126.4,21.6,128.3,19.2,128.3,16"/>
<path d="M141.1,21.1l-2.2-3.1c-0.1-0.1-0.1-0.3,0.1-0.4c0,0,0,0,0,0c1.4-0.8,2.1-2.3,2.1-3.9c0-2.4-1.4-4.5-4.6-4.5h-5.6
	c-0.2,0-0.4,0.2-0.4,0.4V21c0,0.2,0.2,0.4,0.4,0.4h2.4c0.2,0,0.4-0.2,0.4-0.4v-2.6c0-0.2,0.1-0.3,0.3-0.3h1c0.2,0,0.4,0.1,0.5,0.3
	l1.9,2.7c0.1,0.2,0.4,0.3,0.6,0.3h3C141,21.4,141.1,21.2,141.1,21.1C141.1,21.1,141.1,21.1,141.1,21.1z M136.3,15.3h-2.4
	c-0.2,0-0.3-0.1-0.3-0.3v-2.6c0-0.2,0.1-0.3,0.3-0.3h2.4c1.2,0,1.7,0.7,1.7,1.6C138,14.5,137.5,15.3,136.3,15.3z"/>
<path d="M146.4,18v-0.9c0-0.2,0.1-0.3,0.3-0.3h4.4c0.2,0,0.4-0.2,0.4-0.4v-2.1c0-0.2-0.2-0.4-0.4-0.4h-4.4c-0.2,0-0.3-0.1-0.3-0.3
	v-1.1c0-0.2,0.1-0.3,0.3-0.3h5.6c0.2,0,0.4-0.2,0.4-0.4V9.6c0-0.2-0.2-0.4-0.4-0.4h-8.6c-0.2,0-0.4,0.2-0.4,0.4V21
	c0,0.2,0.2,0.4,0.4,0.4h8.6c0.2,0,0.4-0.2,0.4-0.4v-2.3c0-0.2-0.2-0.4-0.4-0.4h-5.6C146.5,18.3,146.4,18.2,146.4,18"/>
<path d="M7.7,0.1C7.7,0,7.6,0,7.4,0C4.9,1.1,0,3.9,0,10.3c0,4.1,1.7,6,3.7,6.5v1.8l0,2.7c0,0.1,0.1,0.1,0.1,0.1h0.7
	c0.1,0,0.1-0.1,0.1-0.1l-0.1-4.4h0c2.4,0,4.4-1,4.4-3.7c0-2.3-1.2-3-3.3-3.8c0.5-0.1,0.8-0.4,0.8-0.9l0,0c0-0.4-0.3-0.7-0.6-0.8
	C6,7.6,6.2,7.3,6.2,7l0,0c0-0.2-0.1-0.4-0.2-0.5C5.8,6.3,5.5,6.2,5.2,6.2H4.3c0.1-0.5,0.1-1,0.2-1.4c0.7,0,1.2,0.3,1.7,0.7
	c0.1,0.1,0.1,0.1,0.1,0c0,0,0-0.1,0-0.1c-1.6-3.2,1.3-5,1.3-5C7.7,0.3,7.7,0.1,7.7,0.1z M5.1,6.7c0.4,0,0.5,0.1,0.5,0.3l0,0
	c0,0.2-0.2,0.4-0.5,0.4H4.3c0-0.3,0-0.4,0-0.7H5.1z M6.7,0.8C4.8,2.5,5.5,4.4,5.5,4.4S5.3,4.3,5.1,4.2C5,4.1,4.8,4.1,4.7,4.1
	c0-0.1,0-0.1,0.1-0.2l0-0.1l0-0.1c0.3-0.9,0.7-1.6,1-2.2l0,0c-0.6,0.6-1,1.2-1.3,2L4.4,3.7C4.3,3.8,4.3,3.9,4.3,4
	c-0.2,0-0.5,0-0.7,0.1C3.2,4.2,2.8,4.4,2.4,4.6C2.4,4.7,3.3,2.7,6.7,0.8z M3.7,15.6c-2.9-1-3.3-5.8-2.1-9.2c0,0-0.5,2,2.1,3.3V15.6z
	 M4,5L4,5C3.9,5.1,3.9,5.2,3.9,5.3c0,0.1,0,0.2-0.1,0.3c0,0.1,0,0.1,0,0.2c0,0.1,0,0.2-0.1,0.3L3.7,6.5l0,0c0,0.1,0,0.3,0,0.5
	c0,0.1,0,0.1,0,0.2c0,0.1,0,0.1,0,0.1c0,0.7,0,1.2,0,1.2s-1.9-1-1.4-2.7C2.6,4.8,4,4.7,4.1,4.7C4.1,4.8,4,4.9,4,5z M4.3,8.8
	c0-0.3,0-0.5,0-0.8h0.9c0.5,0,0.6,0.2,0.6,0.3l0,0c0,0.2-0.1,0.5-0.5,0.5H4.3L4.3,8.8z M4.5,15.8L4.3,9.9C4.5,10,4.7,10,4.9,10.1
	c2,0.6,3,1.5,3,3c0,1.1-0.5,2.7-3,2.7C4.7,15.8,4.6,15.8,4.5,15.8L4.5,15.8z"/>
</svg>
