<?xml version="1.0" encoding="utf-8"?>
<!-- Generator: Adobe Illustrator 21.1.0, SVG Export Plug-In . SVG Version: 6.00 Build 0)  -->
<svg version="1.1" id="Layer_1" xmlns="http://www.w3.org/2000/svg" xmlns:xlink="http://www.w3.org/1999/xlink" x="0px" y="0px"
	 viewBox="0 0 212 316" style="enable-background:new 0 0 212 316;" xml:space="preserve">
<style type="text/css">
	.st0{fill:#058C96;}
	.st1{fill:#FFFFFF;}
</style>
<polyline class="st0" points="0,200 0,0 212,0 212,200 167.5,253.5 107.8,316 "/>
<g>
	<path class="st1" d="M128.8,154.9c0,0-13.3,10.5-18.7,14.5l-0.2-4.9L128.8,154.9z M110.6,184.8l0.2,6.1
		c3.6-2.5,27.9-21.4,27.9-21.4L110.6,184.8z M114.9,67.6l-0.4,1.2l-0.3,1.2c0,0,0,0.1,0,0.1c3.6-2,6.8-4.4,6.8-4.4L114.9,67.6z
		 M102,169.2V163l-24.4-21.6C77.7,141.3,99.1,165.7,102,169.2z M110.4,68.7l1.2-2.8l-5.8-7.9c0,0,2.9,6.7,4.5,10.9
		C110.3,68.8,110.3,68.7,110.4,68.7z M102,189.9v-6.4l-24.4-20.8C77.7,162.8,97.9,185.9,102,189.9z M103.4,96
		c-4.9-0.5-11.6-8-11.6-8l11,13.2c0,0,0-0.1,0-0.1C102.8,101,103.4,96,103.4,96z"/>
	<path class="st1" d="M148.4,26.1c-0.5-0.8-1.2-1-2.8-0.3C116.7,37.9,59.7,71,59.7,144.1c0,46.8,20.1,69.5,42.3,74.7l-0.1,21.1
		l-0.3,30.8c0,0.7,0.6,1.3,1.3,1.3h8.3c0.7,0,1.3-0.6,1.3-1.3L112,220c0.1,0,0.1,0,0.2,0c28,0,50.3-11.8,50.3-43.3
		c0-26.1-14.2-34.6-38.7-43.4c5.9-1,9.6-4.4,9.6-9.8v-0.1c0-5-3-7.5-7.3-9c2.7-1.4,5.3-3.8,5.3-8.3v-0.1c0-2.5-0.8-4.5-2.5-6.1
		c-2.1-2.1-5.4-3.3-9.6-3.3h-9.7c0.5-6,1.3-11.5,2.3-16.6c8.4,0.2,13.6,3,19.2,8.1c0.9,0.8,1.1,0.7,1.5,0.4c0.2-0.3,0.1-0.8-0.1-1.3
		c-18.4-36.7,15-58,15.3-58.2C147.8,28.8,149.4,27.8,148.4,26.1z M118.4,103.1c4.2,0,5.7,1.7,5.6,3.8l0,0c0.1,2.7-1.9,4.2-6.1,4.2
		h-9.3c0.1-3.4,0.2-4.9,0.4-8.1H118.4z M136.4,34.9c-20.8,18.9-13.8,40.9-13.8,40.9s-2.4-1.1-4.6-1.9c-1.5-0.5-2.9-1-4.4-1.3
		c0.2-0.9,0.5-1.8,0.7-2.6l0.3-1.2l0.4-1.3c3.3-10.7,7.5-18.8,12.1-24.7l0,0c-5.6,5.6-10.9,13.1-15.3,22.8l-1.3,3
		c-0.5,1.2-1,2.5-1.4,3.7c-1.6,0-4.1,0.2-7.7,0.9c-8.2,1.6-13.4,5.9-13.4,5.9S97.2,56.4,136.4,34.9z M102,205.8
		c-33.5-11.3-38.8-67-24.7-106.8c0,0-5.9,23.4,24.7,37.7V205.8z M105.9,82.6c-0.1,0.3-0.2,0.6-0.2,1c-0.2,1-0.5,2-0.7,3
		c-0.2,1-0.4,2.1-0.6,3.3c-0.1,0.7-0.2,1.4-0.4,2.1c-0.2,1.2-0.4,2.4-0.5,3.7l-0.6,5.2c0,0,0,0,0,0.1c-0.2,1.7-0.3,3.5-0.4,5.3
		c-0.1,0.9-0.1,1.7-0.2,2.6c0,0.5-0.1,1.1-0.1,1.6c-0.4,8.2-0.2,14.2-0.2,14.2s-22.3-11.5-16.1-31.1c4-12.6,20.1-13.8,20.8-13.9
		C106.3,80.7,106.1,81.7,105.9,82.6z M108.7,127.7c-0.1-3.8-0.1-6.3-0.1-9.2h10.7c5.1,0,6.7,2.8,6.7,4.1v0.1c0,2.8-1.8,5.1-6.2,5.1
		L108.7,127.7C108.8,127.7,108.8,127.7,108.7,127.7z M111.4,207.7l-2.5-68.2c2.1,0.8,4.4,1.5,6.8,2.2c23.2,6.5,34.4,17.1,34.4,34.6
		c0,12.9-6.2,31.5-35.1,31.5C113.8,207.9,112.6,207.8,111.4,207.7z"/>
</g>
</svg>
