<?xml version="1.0" encoding="utf-8"?>
<!-- Generator: Adobe Illustrator 21.1.0, SVG Export Plug-In . SVG Version: 6.00 Build 0)  -->
<svg version="1.1" id="Layer_1" xmlns="http://www.w3.org/2000/svg" xmlns:xlink="http://www.w3.org/1999/xlink" x="0px" y="0px"
	 viewBox="0 0 448 448" style="enable-background:new 0 0 448 448;" xml:space="preserve">
<style type="text/css">
	.st0{fill:url(#SVGID_1_);}
	.st1{fill:#FF0000;}
	.st2{fill:#FFFFFF;}
	.st3{fill:none;stroke:#FFFFFF;stroke-width:3;}
</style>
<linearGradient id="SVGID_1_" gradientUnits="userSpaceOnUse" x1="-72.4085" y1="644.5217" x2="-72.4085" y2="643.5217" gradientTransform="matrix(448 0 0 -448 32663 288745.7188)">
	<stop  offset="0" style="stop-color:#19D7FF"/>
	<stop  offset="1" style="stop-color:#1E64F0"/>
</linearGradient>
<circle class="st0" cx="224" cy="224" r="224"/>
<path class="st1" d="M377,70L205,205l40,40L377,70z"/>
<path class="st2" d="M70,377l135-172l40,40L70,377z"/>
<line class="st3" x1="224" y1="22" x2="224" y2="55"/>
<line class="st3" x1="224" y1="392" x2="224" y2="425"/>
<line class="st3" x1="259" y1="25.1" x2="253.3" y2="57.6"/>
<line class="st3" x1="194.7" y1="389.4" x2="189" y2="421.9"/>
<line class="st3" x1="292.9" y1="34.2" x2="281.6" y2="65.2"/>
<line class="st3" x1="166.4" y1="381.8" x2="155.1" y2="412.8"/>
<line class="st3" x1="189" y1="25.1" x2="194.7" y2="57.6"/>
<line class="st3" x1="253.3" y1="389.4" x2="259" y2="421.9"/>
<line class="st3" x1="155.1" y1="34.2" x2="166.4" y2="65.2"/>
<line class="st3" x1="281.6" y1="381.8" x2="292.9" y2="412.8"/>
<line class="st3" x1="123.2" y1="49" x2="139.8" y2="77.6"/>
<line class="st3" x1="308.3" y1="369.4" x2="324.8" y2="398"/>
<line class="st3" x1="94.5" y1="69.1" x2="115.7" y2="94.4"/>
<line class="st3" x1="332.3" y1="352.6" x2="353.5" y2="377.9"/>
<line class="st3" x1="69.6" y1="94" x2="94.9" y2="115.2"/>
<line class="st3" x1="353.1" y1="331.8" x2="378.4" y2="353"/>
<line class="st3" x1="49.5" y1="122.8" x2="78.1" y2="139.3"/>
<line class="st3" x1="369.9" y1="307.8" x2="398.5" y2="324.3"/>
<line class="st3" x1="34.7" y1="154.6" x2="65.7" y2="165.9"/>
<line class="st3" x1="382.3" y1="281.1" x2="413.3" y2="292.4"/>
<line class="st3" x1="25.6" y1="188.5" x2="58.1" y2="194.2"/>
<line class="st3" x1="389.9" y1="252.8" x2="422.4" y2="258.5"/>
<line class="st3" x1="22.5" y1="223.5" x2="55.5" y2="223.5"/>
<line class="st3" x1="392.5" y1="223.5" x2="425.5" y2="223.5"/>
<line class="st3" x1="25.6" y1="258.5" x2="58.1" y2="252.8"/>
<line class="st3" x1="389.9" y1="194.2" x2="422.4" y2="188.5"/>
<line class="st3" x1="34.7" y1="292.4" x2="65.7" y2="281.1"/>
<line class="st3" x1="382.3" y1="165.9" x2="413.3" y2="154.6"/>
<line class="st3" x1="49.5" y1="324.3" x2="78.1" y2="307.8"/>
<line class="st3" x1="369.9" y1="139.3" x2="398.5" y2="122.8"/>
<line class="st3" x1="69.6" y1="353" x2="94.9" y2="331.8"/>
<line class="st3" x1="353.1" y1="115.2" x2="378.4" y2="94"/>
<line class="st3" x1="94.5" y1="377.9" x2="115.7" y2="352.6"/>
<line class="st3" x1="332.3" y1="94.4" x2="353.5" y2="69.1"/>
<line class="st3" x1="123.2" y1="398" x2="139.8" y2="369.4"/>
<line class="st3" x1="308.3" y1="77.6" x2="324.8" y2="49"/>
<line class="st3" x1="206.4" y1="22.8" x2="208" y2="40.7"/>
<line class="st3" x1="240" y1="406.3" x2="241.6" y2="424.2"/>
<line class="st3" x1="171.8" y1="28.9" x2="176.5" y2="46.3"/>
<line class="st3" x1="271.5" y1="400.7" x2="276.2" y2="418.1"/>
<line class="st3" x1="138.8" y1="40.9" x2="146.4" y2="57.2"/>
<line class="st3" x1="301.5" y1="389.8" x2="309.2" y2="406.1"/>
<line class="st3" x1="108.4" y1="58.4" x2="118.7" y2="73.2"/>
<line class="st3" x1="329.3" y1="373.8" x2="339.6" y2="388.6"/>
<line class="st3" x1="81.5" y1="81" x2="94.2" y2="93.7"/>
<line class="st3" x1="353.8" y1="353.3" x2="366.5" y2="366"/>
<line class="st3" x1="58.9" y1="107.9" x2="73.7" y2="118.2"/>
<line class="st3" x1="374.3" y1="328.8" x2="389.1" y2="339.1"/>
<line class="st3" x1="41.4" y1="138.3" x2="57.7" y2="145.9"/>
<line class="st3" x1="390.3" y1="301" x2="406.6" y2="308.7"/>
<line class="st3" x1="29.4" y1="171.3" x2="46.8" y2="176"/>
<line class="st3" x1="401.2" y1="271" x2="418.6" y2="275.7"/>
<line class="st3" x1="23.3" y1="205.9" x2="41.2" y2="207.5"/>
<line class="st3" x1="406.8" y1="239.5" x2="424.7" y2="241.1"/>
<line class="st3" x1="23.3" y1="241.1" x2="41.2" y2="239.5"/>
<line class="st3" x1="406.8" y1="207.5" x2="424.7" y2="205.9"/>
<line class="st3" x1="29.4" y1="275.7" x2="46.8" y2="271"/>
<line class="st3" x1="401.2" y1="176" x2="418.6" y2="171.3"/>
<line class="st3" x1="41.4" y1="308.7" x2="57.7" y2="301.1"/>
<line class="st3" x1="390.3" y1="145.9" x2="406.6" y2="138.3"/>
<line class="st3" x1="58.9" y1="339.1" x2="73.7" y2="328.8"/>
<line class="st3" x1="374.3" y1="118.2" x2="389.1" y2="107.9"/>
<line class="st3" x1="108.4" y1="388.6" x2="118.7" y2="373.8"/>
<line class="st3" x1="329.2" y1="73.2" x2="339.6" y2="58.4"/>
<line class="st3" x1="138.8" y1="406.1" x2="146.5" y2="389.8"/>
<line class="st3" x1="301.5" y1="57.2" x2="309.2" y2="40.9"/>
<line class="st3" x1="171.8" y1="418.1" x2="176.5" y2="400.7"/>
<line class="st3" x1="271.5" y1="46.3" x2="276.2" y2="28.9"/>
<line class="st3" x1="206.4" y1="424.2" x2="208" y2="406.3"/>
<line class="st3" x1="240" y1="40.7" x2="241.6" y2="22.8"/>
</svg>
